<svg width="600" height="600" viewBox="0 0 600 600" fill="none" xmlns="http://www.w3.org/2000/svg">
<path opacity="0.65" d="M300.002 300.002C300.002 308.656 232.845 358.362 150.003 358.362C67.1604 358.362 0 308.656 0 300.002H300.002Z" fill="#2D3748"/>
<path opacity="0.65" d="M300.002 300.002C301.505 308.525 244 369.136 162.415 383.523C80.8301 397.909 6.0608 360.62 4.55772 352.097L300.002 300.002Z" fill="#2D3748"/>
<path opacity="0.65" d="M300.002 300.002C302.963 308.137 256.856 377.812 179.008 406.145C101.16 434.478 21.0533 410.741 18.0922 402.609L300.002 300.002Z" fill="#2D3748"/>
<path opacity="0.65" d="M300.002 300.002C304.331 307.496 271.021 384.122 199.278 425.543C127.533 466.964 44.5207 457.499 40.1951 450.001L300.005 300.002H300.002Z" fill="#2D3748"/>
<path opacity="0.65" d="M300.001 300.002C305.564 306.634 286.069 387.876 222.607 441.128C159.145 494.379 75.7491 499.471 70.1871 492.838L300.001 300.002Z" fill="#2D3748"/>
<path opacity="0.65" d="M300.002 300.002C306.634 305.564 301.539 388.96 248.291 452.422C195.039 515.883 113.797 535.378 107.165 529.816L300.002 300.002Z" fill="#2D3748"/>
<path opacity="0.65" d="M300.002 300.002C307.496 304.331 316.965 387.343 275.544 459.085C234.123 530.831 157.497 564.138 150.003 559.809L300.002 299.998V300.002Z" fill="#2D3748"/>
<path opacity="0.65" d="M300.002 300.002C308.137 302.963 331.874 383.069 303.538 460.917C275.204 538.765 205.526 584.872 197.394 581.911L300.002 300.002Z" fill="#2D3748"/>
<path opacity="0.65" d="M300.002 300.002C308.525 301.505 345.815 376.274 331.428 457.859C317.041 539.444 256.43 596.949 247.907 595.446L300.002 300.002Z" fill="#2D3748"/>
<path opacity="0.65" d="M300.002 300.002C308.657 300.002 358.362 367.159 358.362 450.001C358.362 532.843 308.657 600 300.002 600V299.998V300.002Z" fill="#2D3748"/>
<path opacity="0.65" d="M300.002 300.002C308.525 298.499 369.136 356.003 383.523 437.588C397.909 519.174 360.62 593.943 352.097 595.446L300.002 300.002Z" fill="#2D3748"/>
<path opacity="0.65" d="M300.002 300.002C308.137 297.04 377.812 343.147 406.145 420.995C434.478 498.844 410.741 578.95 402.609 581.911L300.002 300.002Z" fill="#2D3748"/>
<path opacity="0.65" d="M300.002 300.002C307.496 295.672 384.122 328.983 425.543 400.725C466.964 472.471 457.499 555.483 450.001 559.808L300.002 299.998V300.002Z" fill="#2D3748"/>
<path opacity="0.65" d="M300.002 300.002C306.634 294.44 387.876 313.935 441.128 377.396C494.38 440.858 499.471 524.254 492.839 529.816L300.002 300.002Z" fill="#2D3748"/>
<path opacity="0.65" d="M300.002 300.002C305.564 293.369 388.96 298.464 452.422 351.712C515.883 404.964 535.378 486.206 529.816 492.838L300.002 300.002Z" fill="#2D3748"/>
<path opacity="0.65" d="M300.002 300.002C304.331 292.507 387.343 283.038 459.085 324.46C530.831 365.881 564.137 442.506 559.808 450.001L299.998 300.002H300.002Z" fill="#2D3748"/>
<path opacity="0.65" d="M300.002 300.002C302.963 291.867 383.069 268.129 460.917 296.466C538.765 324.799 584.872 394.477 581.911 402.609L300.002 300.002Z" fill="#2D3748"/>
<path opacity="0.65" d="M300.002 300.002C301.505 291.478 376.274 254.189 457.859 268.576C539.444 282.962 596.949 343.573 595.446 352.097L300.002 300.002Z" fill="#2D3748"/>
<path opacity="0.65" d="M300.002 300.002C300.002 291.347 367.159 241.642 450.001 241.642C532.843 241.642 600 291.347 600 300.002H299.998H300.002Z" fill="#2D3748"/>
<path opacity="0.65" d="M300.002 300.002C298.499 291.479 356.004 230.867 437.589 216.481C519.174 202.094 593.943 239.383 595.446 247.907L300.002 300.002Z" fill="#2D3748"/>
<path opacity="0.65" d="M300.002 300.002C297.041 291.867 343.148 222.192 420.996 193.859C498.844 165.525 578.95 189.263 581.911 197.395L300.002 300.002Z" fill="#2D3748"/>
<path opacity="0.65" d="M300.002 300.002C295.672 292.507 328.983 215.882 400.725 174.461C472.471 133.039 555.483 142.505 559.808 150.003L299.998 300.002H300.002Z" fill="#2D3748"/>
<path opacity="0.65" d="M300.001 300.002C294.439 293.369 313.934 212.127 377.396 158.875C440.857 105.624 524.254 100.533 529.816 107.165L300.001 300.002Z" fill="#2D3748"/>
<path opacity="0.65" d="M300.002 300.002C293.37 294.44 298.464 211.043 351.713 147.582C404.964 84.1202 486.207 64.6253 492.839 70.1874L300.002 300.002Z" fill="#2D3748"/>
<path opacity="0.65" d="M300.002 300.002C292.508 295.673 283.039 212.661 324.46 140.918C365.881 69.1726 442.507 35.866 450.001 40.1951L300.002 300.005V300.002Z" fill="#2D3748"/>
<path opacity="0.65" d="M300.002 300.002C291.866 297.041 268.129 216.934 296.466 139.086C324.799 61.2382 394.477 15.1312 402.609 18.0923L300.002 300.002Z" fill="#2D3748"/>
<path opacity="0.65" d="M300.002 300.002C291.479 298.499 254.189 223.73 268.576 142.145C282.959 60.5595 343.57 3.05483 352.097 4.5579L300.002 300.002Z" fill="#2D3748"/>
<path opacity="0.65" d="M300.002 300.002C291.347 300.002 241.642 232.845 241.642 150.003C241.642 67.1569 291.347 0 300.002 0V300.002Z" fill="#2D3748"/>
<path opacity="0.65" d="M300.002 300.002C291.478 301.505 230.867 244 216.481 162.415C202.094 80.8298 239.383 6.06057 247.907 4.5575L300.002 300.002Z" fill="#2D3748"/>
<path opacity="0.65" d="M300.002 300.002C291.866 302.963 222.192 256.856 193.858 179.008C165.525 101.16 189.263 21.0533 197.394 18.0922L300.002 300.002Z" fill="#2D3748"/>
<path opacity="0.65" d="M300.002 300.002C292.507 304.331 215.882 271.021 174.461 199.279C133.039 127.533 142.505 44.521 150.003 40.1953L300.002 300.005V300.002Z" fill="#2D3748"/>
<path opacity="0.65" d="M300.002 300.001C293.37 305.564 212.127 286.069 158.876 222.607C105.624 159.145 100.533 75.7491 107.165 70.1871L300.002 300.001Z" fill="#2D3748"/>
<path opacity="0.65" d="M300.002 300.002C294.44 306.634 211.043 301.539 147.582 248.291C84.1202 195.039 64.6253 113.797 70.1874 107.165L300.002 300.002Z" fill="#2D3748"/>
<path opacity="0.65" d="M300.002 300.002C295.673 307.496 212.661 316.965 140.918 275.544C69.1725 234.119 35.8659 157.497 40.1916 149.999L300.002 299.998V300.002Z" fill="#2D3748"/>
<path opacity="0.65" d="M300.002 300.002C297.041 308.137 216.934 331.874 139.086 303.538C61.2382 275.204 15.1312 205.53 18.0923 197.394L300.002 300.002Z" fill="#2D3748"/>
<path opacity="0.65" d="M300.002 300.001C298.499 308.525 223.729 345.814 142.144 331.428C60.5593 317.041 3.0546 256.43 4.55767 247.906L300.002 300.001Z" fill="#2D3748"/>
</svg>
