<svg width="1349" height="1080" viewBox="0 0 1349 1080" fill="none" xmlns="http://www.w3.org/2000/svg">
<g filter="url(#filter0_d_1_598)">
<path d="M210.759 0.0302734V549.177C210.759 555.951 209.729 561.211 212.538 567.782C214.193 571.669 217.595 575.321 224.198 578.208C238.401 584.421 265.747 589.025 278.093 593.395C290.439 597.766 297.26 605.382 284.867 611.673C266.762 620.85 209.151 643.997 172.035 669.064C146.375 686.39 83.2235 740.441 57.7195 780.305C38.5681 810.241 8.30365 876.748 1.52965 948.469C-4.65124 1013.93 9.8957 1079.98 9.8957 1079.98H69.7379C69.7379 1079.98 44.8115 1010.25 44.1715 944.489C43.3755 863.997 56.5333 816.485 82.0373 775.841C107.182 735.759 152.961 690.245 182.961 669.08C219.546 643.264 277.687 620.882 295.793 611.688C308.186 605.398 301.365 597.797 289.019 593.411C276.657 589.025 255.648 583.843 238.479 578.443C229.052 575.477 221.232 569.967 219.5 566.518C216.643 560.836 217.174 548.849 217.174 540.015C217.174 510.921 219.141 282.572 219.141 282.572V0.0302734" fill="#222B38"/>
<path d="M235.857 0.0312471V558.34C235.857 574.885 266.293 579.115 276.657 582.299C287.021 585.483 311.183 590.212 318.347 599.78C325.511 609.348 312.962 616.325 298.025 623.489C283.088 630.654 202.377 663.93 165.916 710.755C144.002 738.897 105.543 780.696 103.155 876.937C100.767 973.178 177.872 1079.99 177.872 1079.99H229.879C229.879 1079.99 139.023 971.992 132.436 888.3C125.865 804.608 142.004 760.374 168.897 725.708C195.79 691.042 233.453 662.947 251.98 652.177C270.507 641.408 312.759 621.694 318.737 617.308C324.715 612.923 332.082 607.537 329.694 599.967C327.306 592.397 309.45 587.621 302.348 585.624C295.246 583.626 280.575 579.88 269.384 576.087C258.801 572.497 254.165 570.281 249.982 567.69C245.799 565.099 243.411 561.509 243.411 554.532V0" fill="#222B38"/>
<path d="M257.022 0.0302734V438.046C257.022 438.046 257.178 547.445 257.022 553.11C256.866 558.776 257.318 562.226 261.064 564.473C264.81 566.721 280.107 571.497 286.881 573.089C293.655 574.681 323.139 583.843 330.178 586.637C337.217 589.431 348.643 592.615 348.643 605.773C348.643 618.931 302.364 640.97 278.905 653.191C259.394 663.352 212.944 693.211 192.435 746.841C171.925 800.471 174.891 839.289 207.575 910.228C240.259 981.168 361.395 1080 361.395 1080H437.11C437.11 1080 336.687 1009.86 296.839 971.6C256.991 933.344 209.167 875.859 203.595 805.028C198.022 734.198 234.593 699.391 248.39 686.156C261.158 673.903 276.829 661.557 302.38 647.213C327.93 632.869 359.006 616.137 357.82 602.573C356.634 589.009 336.702 584.639 324.34 579.863C311.994 575.087 280.497 568.313 274.534 565.909C268.572 563.505 264.576 563.521 264.576 553.953V0.0302734" fill="#222B38"/>
<path d="M280.497 0.0302734V437.203C280.497 437.203 280.091 540.811 280.497 549.989C280.903 559.166 284.883 561.945 288.863 563.537C292.843 565.129 311.183 568.719 330.178 574.291C349.173 579.863 362.597 581.861 372.164 592.615C381.732 603.369 375.349 613.733 364.594 622.505C353.84 631.277 334.314 641.235 320.08 650.803C305.845 660.371 272.942 684.673 260.596 706.197C248.25 727.72 241.07 756.408 246.642 796.256C252.215 836.104 287.286 875.562 306.422 895.884C325.558 916.206 360.614 944.894 400.868 972.802C441.122 1000.71 613.281 1080 613.281 1080H708.523C708.523 1080 545.573 1025.64 435.643 961.236C375.77 926.164 334.658 898.21 291.47 837.697C252.23 782.708 259.02 737.944 278.327 704.199C295.668 673.919 338.7 647.712 352.451 639.643C364.235 632.728 388.99 614.95 385.931 601.387C382.872 587.823 365.905 580.472 355.744 577.771C345.583 575.087 308.826 565.222 302.395 563.427C295.965 561.633 290.065 559.681 290.065 551.097C290.065 542.512 288.504 459.414 288.504 459.414V0.0302734" fill="#222B38"/>
<path d="M303.706 0.030272V467.78C303.706 467.78 304.003 547.288 303.706 551.768C303.41 556.248 304.908 558.948 310.387 560.524C315.865 562.101 338.076 567.61 355.401 571.794C373.834 576.242 385.587 579.566 396.341 587.339C407.096 595.112 411.887 609.753 399.635 623.8C387.382 637.848 352.092 657.093 332.987 673.419C311.292 691.946 298.852 709.989 298.914 750.524C298.961 787.219 327.899 831.328 394.063 875.952C460.211 920.592 547.882 956.445 638.754 990.72C729.61 1025 1014.95 1079.98 1014.95 1079.98H1344.61C1344.61 1079.98 928.21 1047.46 684.19 974.378C460.632 907.434 421.549 871.239 370.557 830.22C328.305 796.225 298.431 741.253 323.732 700C345.599 664.351 411.606 638.425 416.976 615.715C422.345 593.005 398.449 578.661 370.947 572.074C343.445 565.488 322.545 561.633 316.848 558.917C310.574 555.935 310.574 549.645 310.574 534.115V0.0146484" fill="#222B38"/>
</g>
<defs>
<filter id="filter0_d_1_598" x="-4" y="0" width="1352.61" height="1088" filterUnits="userSpaceOnUse" color-interpolation-filters="sRGB">
<feFlood flood-opacity="0" result="BackgroundImageFix"/>
<feColorMatrix in="SourceAlpha" type="matrix" values="0 0 0 0 0 0 0 0 0 0 0 0 0 0 0 0 0 0 127 0" result="hardAlpha"/>
<feOffset dy="4"/>
<feGaussianBlur stdDeviation="2"/>
<feComposite in2="hardAlpha" operator="out"/>
<feColorMatrix type="matrix" values="0 0 0 0 0 0 0 0 0 0 0 0 0 0 0 0 0 0 0.25 0"/>
<feBlend mode="normal" in2="BackgroundImageFix" result="effect1_dropShadow_1_598"/>
<feBlend mode="normal" in="SourceGraphic" in2="effect1_dropShadow_1_598" result="shape"/>
</filter>
</defs>
</svg>
