<?xml version="1.0" encoding="UTF-8"?>
<svg id="Layer_2" data-name="Layer 2" xmlns="http://www.w3.org/2000/svg" viewBox="0 0 238.03 232.5">
  <defs>
    <style>
      .cls-1 {
        fill: #2d3748;
      }

      .cls-1, .cls-2, .cls-3 {
        stroke-width: 0px;
      }

      .cls-2 {
        fill: #f9b934;
      }

      .cls-3 {
        fill: #718096;
      }
    </style>
  </defs>
  <g id="Layer_1-2" data-name="Layer 1">
    <g>
      <path class="cls-1" d="M77.7,232.5H24.35c-12.31,0-22.33-10.03-22.33-22.36,0-11.49,8.51-20.98,19.86-22.22,2.51-14.17,14.71-24.42,29.14-24.42s26.63,10.25,29.14,24.42c11.35,1.24,19.86,10.73,19.86,22.22,0,12.33-10.02,22.36-22.33,22.36ZM51.03,164.5c-14.07,0-25.94,10.08-28.22,23.96-.04.23-.22.4-.45.42-11.02,1.02-19.33,10.16-19.33,21.26,0,11.77,9.57,21.35,21.32,21.35h53.35c11.76,0,21.32-9.58,21.32-21.35,0-11.1-8.31-20.24-19.33-21.26-.23-.02-.41-.19-.45-.42-2.28-13.88-14.15-23.96-28.22-23.96Z"/>
      <path class="cls-1" d="M215.7,232.5h-53.35c-12.31,0-22.33-10.03-22.33-22.36,0-11.49,8.51-20.98,19.86-22.22,2.51-14.17,14.71-24.42,29.14-24.42s26.63,10.25,29.14,24.42c11.35,1.24,19.86,10.73,19.86,22.22,0,12.33-10.02,22.36-22.33,22.36ZM189.03,164.5c-14.07,0-25.94,10.08-28.22,23.96-.04.23-.22.4-.45.42-11.02,1.02-19.33,10.16-19.33,21.26,0,11.77,9.57,21.35,21.32,21.35h53.35c11.76,0,21.32-9.58,21.32-21.35,0-11.1-8.31-20.24-19.33-21.26-.23-.02-.41-.19-.45-.42-2.28-13.88-14.15-23.96-28.22-23.96Z"/>
      <path class="cls-3" d="M187.53,163.5c-.28,0-.5-.22-.5-.5v-15c0-12.96-10.54-23.5-23.5-23.5h-40.78c-.28,0-.5-.22-.5-.5s.22-.5.5-.5h40.78c13.51,0,24.5,10.99,24.5,24.5v15c0,.28-.22.5-.5.5ZM49.53,163.5c-.28,0-.5-.22-.5-.5v-15c0-13.51,10.99-24.5,24.5-24.5h39.67c.28,0,.5.22.5.5s-.22.5-.5.5h-39.67c-12.96,0-23.5,10.54-23.5,23.5v15c0,.28-.22.5-.5.5Z"/>
      <path class="cls-2" d="M131.6,30h-27.13c-1.19,0-1.78,0-2.32-.14-1.45-.38-2.58-1.5-2.97-2.92-.14-.53-.14-1.11-.14-2.28,0-.61,0-.91.08-1.21.22-.8.86-1.42,1.67-1.63.03,0,.07-.02.1-.02V6.3c0-2.11,0-3.17.46-4.05.41-.78,1.04-1.4,1.84-1.8.9-.45,1.98-.45,4.12-.45h21.46c2.15,0,3.23,0,4.12.45.8.4,1.43,1.02,1.84,1.8.46.88.46,1.94.46,4.05v15.5s.07.02.11.02c.81.21,1.45.84,1.66,1.63.08.3.08.6.08,1.21,0,1.17,0,1.75-.14,2.28-.39,1.42-1.53,2.54-2.97,2.92-.53.14-1.13.14-2.32.14ZM102,22.75c-.51,0-.8,0-.97.05-.46.12-.83.48-.95.93-.05.17-.05.44-.05.94,0,1.08,0,1.62.11,2.01.29,1.08,1.16,1.92,2.26,2.21.41.11.96.11,2.06.11h27.13c1.1,0,1.66,0,2.06-.11,1.1-.29,1.96-1.13,2.26-2.21.11-.4.11-.94.11-2.01,0-.5,0-.78-.05-.94-.12-.45-.49-.81-.95-.93-.17-.05-.46-.05-.97-.05h-32.07ZM107.3,1c-1.99,0-2.99,0-3.68.34-.6.3-1.09.78-1.4,1.37-.35.67-.35,1.64-.35,3.59v15.45h32.3V6.3c0-1.95,0-2.92-.35-3.59-.31-.59-.79-1.06-1.4-1.37-.69-.34-1.69-.34-3.68-.34h-21.46Z"/>
      <path class="cls-1" d="M26.4,96.53h-14.8c-.28,0-.5-.22-.5-.5s.22-.5.5-.5h6.9v-6.33h-9.12c-3.18,0-4.78,0-6.08-.65-1.15-.58-2.06-1.49-2.65-2.62-.66-1.29-.66-2.87-.66-6.03v-8.07c0-3.16,0-4.74.66-6.03.58-1.14,1.5-2.04,2.65-2.62,1.29-.65,2.89-.65,6.08-.65h19.24c3.18,0,4.78,0,6.08.65,1.15.58,2.06,1.49,2.65,2.62.66,1.28.66,2.87.66,6.03v8.07c0,3.16,0,4.74-.66,6.03-.58,1.14-1.5,2.04-2.65,2.62-1.29.65-2.89.65-6.08.65h-9.12v6.33h6.9c.28,0,.5.22.5.5s-.22.5-.5.5ZM9.38,63.53c-3.02,0-4.54,0-5.62.54-.96.48-1.72,1.24-2.21,2.19-.55,1.07-.55,2.57-.55,5.57v8.07c0,3,0,4.5.55,5.57.49.95,1.25,1.7,2.21,2.18,1.08.55,2.6.55,5.62.55h19.24c3.02,0,4.54,0,5.62-.55.96-.48,1.72-1.24,2.21-2.18.55-1.07.55-2.57.55-5.57v-8.07c0-3,0-4.5-.55-5.57-.49-.95-1.25-1.7-2.21-2.19-1.08-.54-2.6-.54-5.62-.54H9.38Z"/>
      <path class="cls-3" d="M217.24,97.64h-13.57c-2.08,0-3.12,0-4-.46-.77-.41-1.38-1.04-1.78-1.84-.44-.9-.44-1.97-.44-4.12v-25.16c0-2.15,0-3.22.44-4.12.39-.8,1.01-1.43,1.78-1.84.87-.46,1.92-.46,4-.46h13.57c2.08,0,3.12,0,4,.46.77.41,1.39,1.04,1.78,1.84.44.9.44,1.97.44,4.12v25.16c0,2.15,0,3.23-.44,4.12-.39.8-1.01,1.43-1.78,1.84-.87.46-1.92.46-4,.46ZM203.66,60.64c-1.91,0-2.88,0-3.53.35-.58.31-1.05.79-1.35,1.39-.34.69-.34,1.69-.34,3.68v25.16c0,1.99,0,2.99.34,3.68.3.6.76,1.09,1.35,1.4.65.34,1.61.34,3.53.34h13.57c1.91,0,2.88,0,3.53-.35.58-.31,1.05-.79,1.34-1.39.34-.69.34-1.69.34-3.68v-25.16c0-1.99,0-2.99-.34-3.68-.3-.6-.76-1.09-1.34-1.39-.65-.35-1.62-.35-3.53-.35h-.93v2.09c0,1.11,0,1.67-.25,2.17-.22.45-.57.8-1,1.03-.49.26-1.03.26-2.12.26h-5c-1.08,0-1.62,0-2.12-.26-.43-.23-.78-.58-1-1.03-.25-.5-.25-1.06-.25-2.17v-2.09h-.93ZM205.6,60.64v2.09c0,.93,0,1.44.14,1.73.13.25.32.46.56.58.27.14.76.14,1.65.14h5c.89,0,1.38,0,1.65-.14.24-.13.44-.33.57-.59.14-.29.14-.8.14-1.73v-2.09h-9.71Z"/>
      <path class="cls-1" d="M117.97,109.5c-12.34,0-22-3.38-22-7.7v-33.6c0-4.32,9.66-7.7,22-7.7s22,3.38,22,7.7v33.6c0,4.32-9.66,7.7-22,7.7ZM96.98,93.21v8.59c0,3.23,8.44,6.7,21,6.7s21-3.46,21-6.7v-8.59c-2.78,3.14-11.01,5.35-21,5.35s-18.22-2.22-21-5.35ZM96.98,90.86c0,3.23,8.44,6.7,21,6.7s21-3.46,21-6.7v-8.98c-2.78,3.13-11.01,5.35-21,5.35s-18.22-2.22-21-5.35v8.98ZM96.98,79.53c0,3.23,8.44,6.7,21,6.7s21-3.46,21-6.7v-8.98c-2.78,3.14-11.01,5.35-21,5.35s-18.22-2.22-21-5.35v8.98ZM96.98,68.2c0,3.23,8.44,6.7,21,6.7s21-3.46,21-6.7-8.44-6.7-21-6.7-21,3.46-21,6.7Z"/>
      <path class="cls-3" d="M117.97,129.5c-2.91,0-5.28-2.38-5.28-5.3,0-2.75,2.1-5.02,4.78-5.28v-9.12c0-.28.22-.5.5-.5s.5.22.5.5v9.12c2.68.25,4.78,2.52,4.78,5.28,0,2.92-2.37,5.3-5.28,5.3ZM113.7,124.2c0,2.37,1.92,4.3,4.28,4.3s4.28-1.93,4.28-4.3-1.92-4.3-4.28-4.3-4.28,1.93-4.28,4.3Z"/>
      <path class="cls-1" d="M30.02,173.64c-.22,0-.43-.11-.55-.31-.53-.86-1.05-1.72-1.56-2.6-.18-.31-.08-.71.24-.89.31-.18.71-.08.89.23.5.86,1.02,1.72,1.54,2.57.19.31.1.71-.21.9-.11.07-.23.1-.34.1ZM25.59,165.76c-.24,0-.47-.13-.58-.36-.46-.9-.9-1.81-1.33-2.72-.15-.33-.01-.71.31-.87.33-.15.71-.01.86.31.42.91.86,1.8,1.31,2.69.16.32.03.71-.29.87-.09.05-.19.07-.29.07ZM21.88,157.53c-.26,0-.5-.16-.6-.41-.37-.94-.74-1.88-1.08-2.83-.12-.34.05-.71.39-.83.34-.12.71.05.83.39.34.94.7,1.87,1.07,2.79.13.33-.03.71-.36.84-.08.03-.16.05-.24.05ZM18.9,149c-.28,0-.54-.18-.62-.46-.29-.97-.57-1.94-.83-2.92-.09-.35.11-.7.46-.8.35-.09.7.11.8.46.26.96.53,1.92.82,2.88.1.34-.09.71-.44.81-.06.02-.13.03-.19.03ZM16.68,140.25c-.3,0-.57-.21-.64-.52-.2-.99-.39-1.98-.57-2.98-.06-.35.17-.69.53-.75.34-.06.69.17.75.53.17.99.36,1.96.56,2.94.07.35-.15.7-.5.77-.04,0-.09.01-.13.01ZM15.24,131.33c-.33,0-.61-.24-.64-.57-.12-1-.22-2-.31-3.01-.03-.36.23-.67.59-.7.35-.05.67.23.7.59.09,1,.19,1.99.31,2.98.04.36-.21.68-.57.72-.03,0-.05,0-.08,0ZM14.58,122.32c-.35,0-.64-.28-.65-.63-.03-1.01-.05-2.02-.05-3.03,0-.36.29-.65.65-.65h0c.36,0,.65.29.65.65,0,1,.02,2,.05,2.99.01.36-.27.66-.63.67,0,0-.01,0-.02,0ZM14.69,113.29s-.02,0-.04,0c-.36-.02-.63-.33-.61-.69.06-1.01.13-2.02.21-3.02.03-.36.35-.63.7-.59.36.03.62.34.59.7-.08.99-.15,1.99-.21,2.99-.02.35-.31.61-.65.61Z"/>
      <path class="cls-1" d="M115.56,222.62s-.01,0-.02,0c-1.01-.02-2.02-.06-3.03-.11-.36-.02-.63-.32-.62-.68.02-.36.31-.62.68-.62.99.05,1.99.09,2.99.11.36,0,.64.31.63.66,0,.35-.3.64-.65.64ZM121.59,222.59c-.35,0-.64-.28-.65-.63-.01-.36.27-.66.63-.67,1-.03,2-.08,2.99-.14.35-.01.67.25.69.61.02.36-.25.67-.61.69-1.01.06-2.01.11-3.03.15,0,0-.01,0-.02,0ZM106.55,222.02s-.05,0-.07,0c-1.01-.11-2.01-.24-3.01-.38-.36-.05-.6-.38-.55-.73s.38-.6.73-.55c.99.14,1.98.26,2.97.37.36.04.61.36.57.72-.04.33-.32.58-.65.58ZM130.59,221.9c-.32,0-.6-.24-.64-.57-.04-.36.21-.68.57-.72.99-.12,1.98-.25,2.97-.4.36-.06.69.19.74.55.05.35-.19.69-.55.74-1,.15-2,.29-3,.41-.03,0-.05,0-.08,0ZM97.62,220.64s-.08,0-.13-.01l-.39-.08c-.35-.07-.58-.42-.51-.77.07-.35.41-.58.77-.51l.38.08c.35.07.58.41.51.76-.06.31-.33.52-.64.52ZM139.51,220.42c-.3,0-.57-.21-.64-.52-.07-.35.15-.7.5-.77.98-.21,1.95-.43,2.92-.66.35-.09.7.13.78.48.08.35-.13.7-.48.78-.98.24-1.97.46-2.96.67-.05,0-.09.01-.14.01Z"/>
      <path class="cls-1" d="M207.48,171.26c-.11,0-.22-.03-.33-.09-.31-.18-.42-.58-.23-.89.32-.55.64-1.1.95-1.66.18-.31.57-.42.88-.25.31.17.43.57.25.88-.32.56-.64,1.12-.96,1.68-.12.21-.34.32-.56.32ZM211.22,164.25c-.1,0-.19-.02-.28-.07-.32-.16-.46-.55-.3-.87.44-.9.86-1.8,1.27-2.71.15-.33.53-.47.86-.33.33.15.47.53.33.86-.41.92-.84,1.84-1.28,2.75-.11.23-.34.37-.59.37ZM214.8,155.95c-.08,0-.16-.01-.23-.04-.34-.13-.5-.5-.38-.84.35-.93.7-1.87,1.02-2.81.12-.34.49-.52.83-.4.34.12.52.49.4.83-.33.96-.68,1.91-1.04,2.85-.1.26-.35.42-.61.42ZM217.64,147.37c-.06,0-.12,0-.18-.03-.35-.1-.55-.46-.45-.8.27-.96.53-1.92.77-2.89.09-.35.44-.56.79-.47.35.09.56.44.47.79-.25.98-.51,1.96-.78,2.93-.08.29-.34.47-.62.47ZM219.71,138.57s-.08,0-.12-.01c-.35-.07-.58-.41-.52-.76.19-.98.36-1.96.52-2.95.06-.35.39-.6.74-.54.35.06.6.39.54.74-.16,1-.33,2-.52,2.99-.06.31-.33.53-.64.53ZM221.01,129.63s-.04,0-.07,0c-.36-.04-.62-.35-.58-.71.1-.99.19-1.99.26-2.98.03-.36.35-.62.69-.6.36.03.63.34.6.69-.07,1.01-.16,2.02-.26,3.02-.03.33-.32.58-.65.58ZM221.52,120.6h0c-.36,0-.65-.3-.64-.66,0-.48,0-.96,0-1.44,0-.52,0-1.04-.01-1.55,0-.36.28-.65.64-.66.39.03.65.28.66.64,0,.52.01,1.05.01,1.57,0,.49,0,.97,0,1.46,0,.36-.29.64-.65.64ZM221.26,111.57c-.34,0-.62-.26-.65-.6-.07-1-.16-1.99-.26-2.98-.04-.36.22-.68.58-.71.35-.05.68.22.71.58.1,1,.19,2.01.26,3.02.03.36-.24.67-.6.7-.02,0-.03,0-.05,0Z"/>
      <path class="cls-3" d="M196.64,51.82c-.18,0-.37-.08-.49-.23-.77-.9-1.56-1.79-2.37-2.67-.24-.26-.23-.67.04-.92.26-.24.68-.23.92.04.81.89,1.61,1.79,2.4,2.7.23.27.2.68-.07.92-.12.11-.27.16-.42.16ZM189.21,44.02c-.16,0-.32-.06-.45-.18-.86-.82-1.74-1.62-2.63-2.41-.27-.24-.29-.65-.06-.92.24-.27.65-.29.92-.06.9.8,1.79,1.61,2.66,2.44.26.25.27.66.02.92-.13.13-.3.2-.47.2ZM181.03,37.03c-.14,0-.28-.04-.4-.13-.94-.73-1.9-1.43-2.87-2.13-.29-.21-.36-.61-.15-.91s.62-.36.91-.15c.98.7,1.95,1.42,2.9,2.15.28.22.34.63.12.91-.13.17-.32.25-.52.25ZM172.16,30.92c-.12,0-.23-.03-.34-.1-1.01-.62-2.04-1.23-3.07-1.82-.31-.18-.42-.57-.24-.89.18-.31.57-.42.89-.24,1.05.6,2.08,1.21,3.11,1.84.31.19.4.59.21.89-.12.2-.34.31-.55.31ZM162.71,25.77c-.09,0-.19-.02-.28-.06-1.07-.51-2.15-1.01-3.24-1.49-.33-.14-.48-.53-.33-.86.14-.33.53-.48.86-.33,1.1.48,2.2.99,3.28,1.51.32.16.46.54.3.87-.11.23-.34.37-.59.37ZM152.77,21.63c-.07,0-.15-.01-.22-.04-1.12-.4-2.24-.78-3.38-1.14-.34-.11-.53-.47-.42-.82.11-.34.47-.53.82-.42,1.15.36,2.29.75,3.42,1.15.34.12.51.49.39.83-.1.27-.35.43-.61.43Z"/>
      <path class="cls-2" d="M39.72,51.48c-.15,0-.3-.05-.42-.16-.27-.23-.3-.64-.07-.92.79-.91,1.59-1.81,2.41-2.69.24-.26.66-.28.92-.04.26.24.28.66.03.92-.81.87-1.6,1.76-2.38,2.66-.13.15-.31.23-.49.23ZM47.17,43.71c-.17,0-.35-.07-.47-.21-.25-.26-.23-.67.03-.92.88-.82,1.77-1.63,2.67-2.43.27-.24.68-.21.92.06.24.27.21.68-.06.92-.89.78-1.77,1.58-2.64,2.4-.13.12-.29.18-.45.18ZM55.39,36.76c-.2,0-.39-.09-.52-.26-.22-.29-.16-.69.12-.91.96-.73,1.93-1.44,2.91-2.14.29-.21.7-.14.91.15.21.29.14.7-.15.91-.97.69-1.93,1.39-2.88,2.11-.12.09-.26.13-.39.13ZM64.28,30.69c-.22,0-.43-.11-.56-.31-.19-.31-.09-.71.22-.89,1.03-.63,2.07-1.23,3.12-1.83.31-.18.71-.06.88.25.18.31.06.71-.25.88-1.04.58-2.06,1.18-3.08,1.8-.11.06-.22.1-.34.1ZM73.75,25.58c-.24,0-.48-.14-.59-.37-.15-.32-.02-.71.31-.87,1.09-.52,2.18-1.01,3.29-1.49.33-.14.71.01.85.34.14.33,0,.71-.34.85-1.09.47-2.18.96-3.25,1.47-.09.04-.18.06-.28.06ZM83.71,21.48c-.27,0-.52-.17-.61-.43-.12-.34.06-.71.4-.83,1.13-.4,2.28-.78,3.43-1.14.35-.11.71.08.81.43.11.34-.08.71-.43.81-1.14.36-2.27.73-3.39,1.12-.07.03-.14.04-.22.04Z"/>
    </g>
  </g>
</svg>