<?xml version="1.0" encoding="UTF-8"?>
<svg id="Layer_2" data-name="Layer 2" xmlns="http://www.w3.org/2000/svg" viewBox="0 0 290.7 210.61">
  <defs>
    <style>
      .cls-1 {
        fill: #2d3748;
      }

      .cls-1, .cls-2, .cls-3 {
        stroke-width: 0px;
      }

      .cls-2 {
        fill: #f9b934;
      }

      .cls-3 {
        fill: #718096;
      }
    </style>
  </defs>
  <g id="Layer_1-2" data-name="Layer 1">
    <g>
      <path class="cls-3" d="M108.86,146.55h-17.55c-3.59,0-5.39,0-6.83-.74-1.28-.65-2.3-1.68-2.96-2.96-.61-1.19-.72-2.62-.73-5.1,0-.04,0-.08,0-.12,0-.5,0-1.03,0-1.62v-17.55c0-3.59,0-5.38.74-6.83.65-1.28,1.68-2.3,2.96-2.96,1.45-.74,3.25-.74,6.83-.74h17.55c3.59,0,5.39,0,6.83.74,1.28.65,2.3,1.68,2.96,2.96.74,1.45.74,3.25.74,6.83v17.55c0,3.59,0,5.39-.74,6.83-.65,1.28-1.68,2.31-2.96,2.96-1.45.74-3.25.74-6.83.74ZM81.79,137.89c.02,2.22.12,3.52.62,4.5.56,1.09,1.43,1.96,2.52,2.52,1.23.63,2.95.63,6.38.63h17.55c3.43,0,5.15,0,6.38-.63,1.09-.56,1.96-1.43,2.52-2.52.63-1.23.63-2.95.63-6.38v-17.55c0-3.42,0-5.14-.63-6.38-.56-1.09-1.43-1.96-2.52-2.52-1.23-.63-2.95-.63-6.38-.63h-17.55c-3.43,0-5.14,0-6.38.63-1.09.56-1.96,1.43-2.52,2.52-.63,1.23-.63,2.95-.63,6.38v18.01l8.41-8.41c.46-.46.71-.71,1.06-.82.31-.1.64-.1.96,0,.35.11.6.36,1.06.82l3.91,3.91c.32.32.54.54.66.58.11.04.23.04.34,0,.12-.04.33-.25.65-.57l10.5-10.5h-7.14c-.28,0-.5-.22-.5-.5s.22-.5.5-.5h8.37c.06,0,.12.01.18.04.06.02.12.06.16.11h0s0,0,0,0c0,0,0,0,0,0t0,0h0s0,0,0,0h0s0,0,0,0c0,0,0,0,0,0,0,0,0,0,0,0h0s.08.1.1.16h0c.02.06.04.12.04.18h0v8.37c0,.28-.22.5-.5.5s-.5-.22-.5-.5v-7.15l-10.5,10.5c-.46.46-.71.71-1.06.82-.31.1-.64.1-.96,0-.35-.11-.6-.36-1.06-.82l-3.91-3.91c-.32-.32-.54-.54-.66-.58-.11-.04-.23-.04-.34,0-.12.04-.34.25-.66.57l-9.11,9.11Z"/>
      <path class="cls-1" d="M177.66,157.69c-.11,0-.23-.04-.32-.12l-18.99-15.8c-3.44-2.86-5.17-4.3-7.02-4.83-.65-.19-1.32-.3-2-.34v20.58c0,.28-.22.5-.5.5s-.5-.22-.5-.5v-20.58c-.67.04-1.34.15-2,.33-1.85.53-3.58,1.96-7.02,4.83l-18.99,15.8c-.21.18-.53.15-.71-.06-.18-.21-.15-.53.06-.71l18.99-15.8c3.55-2.96,5.33-4.44,7.39-5.02.74-.21,1.51-.34,2.27-.38v-1.9h-19.68c-4.26,0-7.34,0-9.81-.22-.28-.02-.48-.27-.46-.54.02-.28.27-.5.54-.46,2.43.22,5.49.22,9.72.22h40.36c7.98,0,11.99,0,14.97-1.51,2.63-1.34,4.74-3.44,6.08-6.07,1.52-2.97,1.52-6.97,1.52-14.94v-38.84h-85.49v37.1c0,.28-.22.5-.5.5s-.5-.22-.5-.5v-37.1h-4.3c-.28,0-.5-.22-.5-.5s.22-.5.5-.5h96.1c.28,0,.5.22.5.5s-.22.5-.5.5h-4.3v38.84c0,8.13,0,12.21-1.63,15.4-1.44,2.82-3.69,5.07-6.52,6.51-3.19,1.62-7.28,1.62-15.42,1.62h-19.68v1.9c.77.04,1.53.16,2.27.38,2.06.58,3.84,2.07,7.39,5.02l18.99,15.8c.21.18.24.49.06.71-.1.12-.24.18-.39.18ZM168.05,114.51c-.28,0-.5-.22-.5-.5v-23.99c0-.28.22-.5.5-.5s.5.22.5.5v23.99c0,.28-.22.5-.5.5ZM148.83,114.51c-.28,0-.5-.22-.5-.5v-14.39c0-.28.22-.5.5-.5s.5.22.5.5v14.39c0,.28-.22.5-.5.5ZM129.61,114.51c-.28,0-.5-.22-.5-.5v-4.8c0-.28.22-.5.5-.5s.5.22.5.5v4.8c0,.28-.22.5-.5.5Z"/>
      <path class="cls-3" d="M272.12,124.26h-1.44c-.28,0-.5-.22-.5-.5v-3.59c0-2.27-1.85-4.12-4.12-4.12s-4.12,1.85-4.12,4.12v3.59c0,.28-.22.5-.5.5h-2.47c-3.53,0-5.3,0-6.72-.73-1.26-.64-2.27-1.65-2.91-2.91-.73-1.43-.73-3.2-.73-6.72v-3.49c0-.28.22-.5.5-.5h3.08c2.56,0,4.63-2.08,4.63-4.63s-2.08-4.63-4.63-4.63h-3.08c-.28,0-.5-.22-.5-.5,0-2.93,0-4.41.51-5.63.68-1.64,1.96-2.93,3.61-3.61,1.22-.51,2.7-.51,5.63-.51h1.55v-2.58c0-3.11,2.53-5.64,5.64-5.64s5.64,2.53,5.64,5.64v2.58h1.55c2.93,0,4.41,0,5.63.51,1.64.68,2.92,1.96,3.61,3.61.48,1.15.51,2.53.51,5.13h2.58c3.11,0,5.64,2.53,5.64,5.64s-2.53,5.64-5.64,5.64h-2.58v2.99c0,3.53,0,5.3-.73,6.72-.64,1.26-1.65,2.27-2.91,2.91-1.43.73-3.2.73-6.72.73ZM271.18,123.26h.94c3.37,0,5.06,0,6.27-.62,1.07-.55,1.93-1.4,2.47-2.47.62-1.21.62-2.9.62-6.27v-3.49c0-.28.22-.5.5-.5h3.08c2.56,0,4.63-2.08,4.63-4.63s-2.08-4.63-4.63-4.63h-3.08c-.28,0-.5-.22-.5-.5,0-2.8,0-4.21-.43-5.25-.57-1.38-1.69-2.49-3.06-3.06-1.04-.43-2.45-.43-5.25-.43h-2.05c-.28,0-.5-.22-.5-.5v-3.08c0-2.55-2.08-4.63-4.63-4.63s-4.63,2.08-4.63,4.63v3.08c0,.28-.22.5-.5.5h-2.05c-2.8,0-4.21,0-5.25.43-1.38.57-2.49,1.69-3.06,3.06-.4.98-.43,2.27-.43,4.75h2.58c3.11,0,5.64,2.53,5.64,5.64s-2.53,5.64-5.64,5.64h-2.58v2.99c0,3.37,0,5.06.62,6.27.55,1.07,1.4,1.93,2.47,2.47,1.21.62,2.9.62,6.27.62h1.96v-3.09c0-2.83,2.3-5.12,5.12-5.12s5.12,2.3,5.12,5.12v3.09Z"/>
      <path class="cls-1" d="M132.58,210.61c-3.99,0-7.23-3.24-7.23-7.22s3.25-7.22,7.23-7.22,6.96,2.97,7.22,6.71h26.44c.28,0,.5.22.5.5s-.22.5-.5.5h-26.44c-.26,3.75-3.4,6.72-7.22,6.72ZM132.58,197.18c-3.44,0-6.23,2.79-6.23,6.21s2.79,6.21,6.23,6.21,6.23-2.79,6.23-6.21-2.79-6.21-6.23-6.21ZM159.51,192.71c-3.82,0-6.96-2.97-7.22-6.71h-26.44c-.28,0-.5-.22-.5-.5s.22-.5.5-.5h26.44c.26-3.75,3.4-6.71,7.22-6.71s7.23,3.24,7.23,7.22-3.25,7.22-7.23,7.22ZM159.51,179.28c-3.43,0-6.23,2.79-6.23,6.21s2.79,6.21,6.23,6.21,6.23-2.79,6.23-6.21-2.79-6.21-6.23-6.21Z"/>
      <path class="cls-1" d="M10.95,129.83c-.51,0-.98-.23-1.3-.62-.36-.45-.36-1.13-.36-2.47v-4.87c-1.87,0-2.88-.02-3.75-.25-2.57-.68-4.59-2.69-5.28-5.24-.25-.94-.25-2.04-.25-4.22v-14.27c0-3.94,0-5.92.81-7.51.72-1.4,1.85-2.52,3.26-3.24,1.6-.81,3.59-.81,7.57-.81h19.5c3.97,0,5.97,0,7.57.81,1.41.71,2.54,1.83,3.26,3.24.81,1.58.81,3.56.81,7.51v12.43c0,3.94,0,5.92-.81,7.51-.72,1.4-1.85,2.52-3.26,3.24-1.6.81-3.59.81-7.57.81h-5.84c-1.41,0-2.12,0-2.76.13-.57.12-1.12.31-1.64.57-.58.3-1.14.74-2.24,1.61l-5.54,4.39c-1.06.84-1.58,1.26-2.17,1.26ZM11.64,87.35c-3.82,0-5.73,0-7.11.7-1.22.62-2.2,1.58-2.82,2.8-.7,1.37-.7,3.27-.7,7.05v14.27c0,2.09,0,3.14.22,3.96.59,2.2,2.35,3.94,4.57,4.53.82.22,1.88.22,3.99.22.28,0,.5.22.5.5v5.37c0,.97,0,1.66.14,1.84.13.16.31.25.52.25.23,0,.78-.44,1.54-1.04l5.54-4.39c1.16-.92,1.74-1.38,2.41-1.72.6-.3,1.24-.53,1.9-.66.74-.15,1.48-.15,2.96-.15h5.84c3.82,0,5.73,0,7.11-.7,1.22-.62,2.2-1.58,2.82-2.8.7-1.37.7-3.27.7-7.05v-12.43c0-3.78,0-5.68-.7-7.05-.62-1.21-1.6-2.18-2.82-2.8-1.38-.7-3.3-.7-7.11-.7H11.64ZM28.36,108.06H9.79c-.28,0-.5-.22-.5-.5s.22-.5.5-.5h18.57c.28,0,.5.22.5.5s-.22.5-.5.5ZM21.39,100.01h-11.61c-.28,0-.5-.22-.5-.5s.22-.5.5-.5h11.61c.28,0,.5.22.5.5s-.22.5-.5.5Z"/>
      <path class="cls-2" d="M164.15,42.79c-.28,0-.5-.22-.5-.5,0-3.19,0-4.79-.38-6.03-.85-2.81-3.02-5-5.82-5.85-1.24-.38-2.83-.38-5.99-.38h-11.53c-3.17,0-4.75,0-5.99.38-2.79.85-4.97,3.04-5.82,5.85-.38,1.25-.38,2.85-.38,6.03,0,.28-.22.5-.5.5s-.5-.22-.5-.5c0-3.29,0-4.93.42-6.32.94-3.13,3.37-5.57,6.48-6.52,1.38-.42,3.02-.42,6.29-.42h11.53c3.26,0,4.9,0,6.29.42,3.12.95,5.54,3.39,6.48,6.53.42,1.39.42,3.04.42,6.32,0,.28-.22.5-.5.5ZM145.7,21.9c-6,0-10.88-4.91-10.88-10.95s4.88-10.95,10.88-10.95,10.88,4.91,10.88,10.95-4.88,10.95-10.88,10.95ZM145.7,1c-5.45,0-9.88,4.46-9.88,9.94s4.43,9.94,9.88,9.94,9.88-4.46,9.88-9.94-4.43-9.94-9.88-9.94Z"/>
      <path class="cls-2" d="M21.39,80.54c-.36,0-.65-.29-.65-.65v-3.59c0-.36.29-.65.65-.65s.65.29.65.65v3.59c0,.36-.29.65-.65.65ZM21.39,69.77c-.36,0-.65-.29-.65-.65v-3.59c0-.36.29-.65.65-.65s.65.29.65.65v3.59c0,.36-.29.65-.65.65ZM21.39,59c-.36,0-.65-.29-.65-.65v-3.59c0-.36.29-.65.65-.65s.65.29.65.65v3.59c0,.36-.29.65-.65.65ZM21.39,48.23c-.36,0-.65-.29-.65-.65v-3.59c0-.36.29-.65.65-.65s.65.29.65.65v3.59c0,.36-.29.65-.65.65ZM21.44,37.46s-.03,0-.05,0c-.36-.03-.63-.34-.6-.7.1-1.24.32-2.47.68-3.66.1-.34.47-.54.81-.43.34.1.54.47.44.81-.33,1.1-.54,2.23-.63,3.38-.03.34-.31.6-.65.6ZM25.56,27.71c-.15,0-.31-.05-.43-.16-.27-.24-.3-.65-.06-.92.82-.93,1.74-1.78,2.74-2.51.29-.21.7-.15.91.14.21.29.15.7-.14.91-.93.68-1.78,1.46-2.54,2.33-.13.15-.31.22-.49.22ZM34.71,22.39c-.3,0-.57-.21-.64-.52-.07-.35.15-.7.51-.77,1.15-.24,2.34-.36,3.53-.36h.17c.36,0,.65.29.65.65s-.29.65-.65.65h-.17c-1.1,0-2.2.11-3.27.33-.04,0-.09.01-.13.01ZM124.11,22.04h-3.26c-.36,0-.65-.29-.65-.65s.29-.65.65-.65h3.26c.36,0,.65.29.65.65s-.29.65-.65.65ZM113.67,22.04h-3.59c-.36,0-.65-.29-.65-.65s.29-.65.65-.65h3.59c.36,0,.65.29.65.65s-.29.65-.65.65ZM102.9,22.04h-3.59c-.36,0-.65-.29-.65-.65s.29-.65.65-.65h3.59c.36,0,.65.29.65.65s-.29.65-.65.65ZM92.13,22.04h-3.59c-.36,0-.65-.29-.65-.65s.29-.65.65-.65h3.59c.36,0,.65.29.65.65s-.29.65-.65.65ZM81.36,22.04h-3.59c-.36,0-.65-.29-.65-.65s.29-.65.65-.65h3.59c.36,0,.65.29.65.65s-.29.65-.65.65ZM70.58,22.04h-3.59c-.36,0-.65-.29-.65-.65s.29-.65.65-.65h3.59c.36,0,.65.29.65.65s-.29.65-.65.65ZM59.81,22.04h-3.59c-.36,0-.65-.29-.65-.65s.29-.65.65-.65h3.59c.36,0,.65.29.65.65s-.29.65-.65.65ZM49.04,22.04h-3.59c-.36,0-.65-.29-.65-.65s.29-.65.65-.65h3.59c.36,0,.65.29.65.65s-.29.65-.65.65Z"/>
      <path class="cls-1" d="M38.07,194.75h0c-1.05,0-2.09-.1-3.11-.29-.35-.06-.59-.4-.52-.76.06-.35.4-.59.76-.52.94.17,1.91.26,2.88.26.36,0,.65.29.65.65,0,.36-.29.65-.65.65ZM119.41,194.75h-3.01c-.36,0-.65-.29-.65-.65s.29-.65.65-.65h3.01c.36,0,.65.29.65.65s-.29.65-.65.65ZM110.38,194.75h-3.01c-.36,0-.65-.29-.65-.65s.29-.65.65-.65h3.01c.36,0,.65.29.65.65s-.29.65-.65.65ZM101.34,194.75h-3.01c-.36,0-.65-.29-.65-.65s.29-.65.65-.65h3.01c.36,0,.65.29.65.65s-.29.65-.65.65ZM92.3,194.75h-3.01c-.36,0-.65-.29-.65-.65s.29-.65.65-.65h3.01c.36,0,.65.29.65.65s-.29.65-.65.65ZM83.26,194.75h-3.01c-.36,0-.65-.29-.65-.65s.29-.65.65-.65h3.01c.36,0,.65.29.65.65s-.29.65-.65.65ZM74.22,194.75h-3.01c-.36,0-.65-.29-.65-.65s.29-.65.65-.65h3.01c.36,0,.65.29.65.65s-.29.65-.65.65ZM65.18,194.75h-3.01c-.36,0-.65-.29-.65-.65s.29-.65.65-.65h3.01c.36,0,.65.29.65.65s-.29.65-.65.65ZM56.15,194.75h-3.01c-.36,0-.65-.29-.65-.65s.29-.65.65-.65h3.01c.36,0,.65.29.65.65s-.29.65-.65.65ZM47.11,194.75h-3.01c-.36,0-.65-.29-.65-.65s.29-.65.65-.65h3.01c.36,0,.65.29.65.65s-.29.65-.65.65ZM29.47,192.35c-.11,0-.23-.03-.34-.09-.89-.54-1.74-1.16-2.52-1.85-.27-.24-.29-.65-.06-.92.24-.27.65-.29.92-.06.72.64,1.51,1.21,2.33,1.71.31.19.41.58.22.89-.12.2-.34.31-.56.31ZM23.34,185.86c-.23,0-.46-.13-.57-.35-.49-.92-.9-1.89-1.21-2.88-.11-.34.08-.71.42-.82.34-.11.71.08.82.42.29.92.67,1.82,1.12,2.67.17.32.05.71-.27.88-.1.05-.2.08-.3.08ZM21.39,177.14c-.36,0-.65-.29-.65-.65v-3.01c0-.36.29-.65.65-.65s.65.29.65.65v3.01c0,.36-.29.65-.65.65ZM21.39,168.1c-.36,0-.65-.29-.65-.65v-3.01c0-.36.29-.65.65-.65s.65.29.65.65v3.01c0,.36-.29.65-.65.65ZM21.39,159.07c-.36,0-.65-.29-.65-.65v-3.01c0-.36.29-.65.65-.65s.65.29.65.65v3.01c0,.36-.29.65-.65.65ZM21.39,150.03c-.36,0-.65-.29-.65-.65v-3.01c0-.36.29-.65.65-.65s.65.29.65.65v3.01c0,.36-.29.65-.65.65ZM21.39,140.99c-.36,0-.65-.29-.65-.65v-3.01c0-.36.29-.65.65-.65s.65.29.65.65v3.01c0,.36-.29.65-.65.65ZM21.39,131.95c-.36,0-.65-.29-.65-.65v-3.01c0-.36.29-.65.65-.65s.65.29.65.65v3.01c0,.36-.29.65-.65.65Z"/>
      <path class="cls-3" d="M253.29,194.75h-.19c-.36,0-.65-.29-.65-.65s.29-.65.65-.65h.19c1.09,0,2.18-.11,3.25-.33.35-.07.69.15.77.51.07.35-.15.7-.51.77-1.15.24-2.33.36-3.51.36ZM245.92,194.75h-3.59c-.36,0-.65-.29-.65-.65s.29-.65.65-.65h3.59c.36,0,.65.29.65.65s-.29.65-.65.65ZM235.15,194.75h-3.59c-.36,0-.65-.29-.65-.65s.29-.65.65-.65h3.59c.36,0,.65.29.65.65s-.29.65-.65.65ZM224.38,194.75h-3.59c-.36,0-.65-.29-.65-.65s.29-.65.65-.65h3.59c.36,0,.65.29.65.65s-.29.65-.65.65ZM213.61,194.75h-3.59c-.36,0-.65-.29-.65-.65s.29-.65.65-.65h3.59c.36,0,.65.29.65.65s-.29.65-.65.65ZM202.84,194.75h-3.59c-.36,0-.65-.29-.65-.65s.29-.65.65-.65h3.59c.36,0,.65.29.65.65s-.29.65-.65.65ZM192.07,194.75h-3.59c-.36,0-.65-.29-.65-.65s.29-.65.65-.65h3.59c.36,0,.65.29.65.65s-.29.65-.65.65ZM181.3,194.75h-3.59c-.36,0-.65-.29-.65-.65s.29-.65.65-.65h3.59c.36,0,.65.29.65.65s-.29.65-.65.65ZM170.53,194.75h-3.59c-.36,0-.65-.29-.65-.65s.29-.65.65-.65h3.59c.36,0,.65.29.65.65s-.29.65-.65.65ZM263.17,191.51c-.2,0-.4-.09-.52-.27-.21-.29-.15-.7.14-.91.92-.68,1.78-1.46,2.54-2.32.24-.27.65-.29.92-.06.27.24.29.65.06.92-.82.93-1.75,1.78-2.75,2.51-.12.09-.25.13-.38.13ZM269.29,182.87c-.06,0-.13,0-.19-.03-.34-.1-.54-.47-.43-.81.33-1.1.54-2.24.63-3.38.03-.36.33-.62.7-.6.36.03.63.34.6.7-.1,1.24-.33,2.47-.69,3.66-.08.28-.34.46-.62.46ZM270,172.17c-.36,0-.65-.29-.65-.65v-3.59c0-.36.29-.65.65-.65s.65.29.65.65v3.59c0,.36-.29.65-.65.65ZM270,161.4c-.36,0-.65-.29-.65-.65v-3.59c0-.36.29-.65.65-.65s.65.29.65.65v3.59c0,.36-.29.65-.65.65ZM270,150.63c-.36,0-.65-.29-.65-.65v-3.59c0-.36.29-.65.65-.65s.65.29.65.65v3.59c0,.36-.29.65-.65.65ZM270,139.86c-.36,0-.65-.29-.65-.65v-3.59c0-.36.29-.65.65-.65s.65.29.65.65v3.59c0,.36-.29.65-.65.65ZM270,129.09c-.36,0-.65-.29-.65-.65v-1.2c0-.36.29-.65.65-.65s.65.29.65.65v1.2c0,.36-.29.65-.65.65Z"/>
      <path class="cls-3" d="M270,72.88c-.36,0-.65-.29-.65-.65v-3.59c0-.36.29-.65.65-.65s.65.29.65.65v3.59c0,.36-.29.65-.65.65ZM270,62.11c-.36,0-.65-.29-.65-.65v-3.59c0-.36.29-.65.65-.65s.65.29.65.65v3.59c0,.36-.29.65-.65.65ZM270,51.34c-.36,0-.65-.29-.65-.65v-3.59c0-.36.29-.65.65-.65s.65.29.65.65v3.59c0,.36-.29.65-.65.65ZM270,40.57c-.36,0-.65-.29-.65-.65v-1.82c0-.57-.03-1.14-.09-1.7-.04-.36.22-.68.58-.71.36-.03.68.22.71.58.06.61.1,1.22.1,1.84v1.82c0,.36-.29.65-.65.65ZM267.66,30.23c-.22,0-.44-.11-.56-.32-.59-.99-1.28-1.91-2.07-2.75-.24-.26-.23-.67.03-.92.26-.24.67-.23.92.03.85.91,1.6,1.91,2.23,2.98.18.31.08.71-.23.89-.1.06-.22.09-.33.09ZM259.66,23.3c-.08,0-.17-.02-.25-.05-1.06-.44-2.18-.76-3.31-.96-.35-.06-.59-.4-.53-.75.06-.35.41-.59.75-.53,1.22.22,2.42.57,3.57,1.04.33.14.49.52.35.85-.1.25-.35.4-.6.4ZM249.05,22.04h-3.59c-.36,0-.65-.29-.65-.65s.29-.65.65-.65h3.59c.36,0,.65.29.65.65s-.29.65-.65.65ZM238.28,22.04h-3.59c-.36,0-.65-.29-.65-.65s.29-.65.65-.65h3.59c.36,0,.65.29.65.65s-.29.65-.65.65ZM227.51,22.04h-3.59c-.36,0-.65-.29-.65-.65s.29-.65.65-.65h3.59c.36,0,.65.29.65.65s-.29.65-.65.65ZM216.74,22.04h-3.59c-.36,0-.65-.29-.65-.65s.29-.65.65-.65h3.59c.36,0,.65.29.65.65s-.29.65-.65.65ZM205.97,22.04h-3.59c-.36,0-.65-.29-.65-.65s.29-.65.65-.65h3.59c.36,0,.65.29.65.65s-.29.65-.65.65ZM195.2,22.04h-3.59c-.36,0-.65-.29-.65-.65s.29-.65.65-.65h3.59c.36,0,.65.29.65.65s-.29.65-.65.65ZM184.43,22.04h-3.59c-.36,0-.65-.29-.65-.65s.29-.65.65-.65h3.59c.36,0,.65.29.65.65s-.29.65-.65.65ZM173.66,22.04h-3.59c-.36,0-.65-.29-.65-.65s.29-.65.65-.65h3.59c.36,0,.65.29.65.65s-.29.65-.65.65Z"/>
    </g>
  </g>
</svg>