<?xml version="1.0" encoding="UTF-8"?>
<svg id="Layer_2" data-name="Layer 2" xmlns="http://www.w3.org/2000/svg" viewBox="0 0 343.39 181.37">
  <defs>
    <style>
      .cls-1 {
        fill: #2d3748;
      }

      .cls-1, .cls-2, .cls-3 {
        stroke-width: 0px;
      }

      .cls-2 {
        fill: #f9b934;
      }

      .cls-3 {
        fill: #718096;
      }
    </style>
  </defs>
  <g id="Layer_1-2" data-name="Layer 1">
    <g>
      <path class="cls-3" d="M307.92,158.5h-3.59c-.36,0-.65-.29-.65-.65s.29-.65.65-.65h3.59c.36,0,.65.29.65.65s-.29.65-.65.65ZM297.15,158.47h0c-1.27-.02-2.47-.04-3.6-.08-.36-.01-.64-.31-.63-.67.01-.36.33-.6.67-.63,1.13.04,2.31.06,3.58.08.36,0,.65.3.64.66,0,.36-.29.64-.65.64ZM286.41,157.88s-.06,0-.09,0c-1.32-.17-2.5-.39-3.6-.66-.35-.09-.56-.44-.48-.79.09-.35.44-.56.79-.47,1.05.26,2.18.47,3.46.63.36.05.61.37.56.73-.04.33-.32.57-.64.57ZM276.33,154.38c-.12,0-.24-.03-.35-.1-1.03-.66-2.02-1.39-2.96-2.18-.27-.23-.31-.64-.07-.92.23-.27.64-.31.92-.07.89.75,1.83,1.45,2.81,2.08.3.19.39.59.2.9-.12.19-.33.3-.55.3ZM268.68,146.91c-.21,0-.41-.1-.54-.29-.6-.89-1.16-1.84-1.65-2.8-.07-.13-.13-.26-.19-.39-.15-.32-.02-.71.31-.87.32-.16.71-.02.87.31.06.12.12.24.18.36.47.92.99,1.81,1.57,2.66.2.3.12.7-.18.9-.11.08-.24.11-.36.11ZM264.92,136.94c-.32,0-.59-.23-.64-.56-.16-1.1-.29-2.28-.39-3.61-.03-.36.24-.67.6-.7.36-.02.67.24.7.6.1,1.3.22,2.45.38,3.52.05.36-.19.69-.55.74-.03,0-.06,0-.1,0ZM264.26,126.2c-.35,0-.64-.29-.65-.64-.02-1.14-.03-2.33-.03-3.6,0-.36.29-.65.65-.65h0c.36,0,.65.29.65.65,0,1.26.02,2.45.03,3.58,0,.36-.28.65-.64.66h-.01ZM264.21,115.43c-.36,0-.65-.29-.65-.65v-3.59c0-.36.29-.65.65-.65s.65.29.65.65v3.59c0,.36-.29.65-.65.65ZM264.21,104.66c-.36,0-.65-.29-.65-.65v-3.59c0-.36.29-.65.65-.65s.65.29.65.65v3.59c0,.36-.29.65-.65.65ZM264.21,93.89c-.36,0-.65-.29-.65-.65v-3.59c0-.36.29-.65.65-.65s.65.29.65.65v3.59c0,.36-.29.65-.65.65ZM264.21,83.12c-.36,0-.65-.29-.65-.65v-3.59c0-.36.29-.65.65-.65s.65.29.65.65v3.59c0,.36-.29.65-.65.65ZM264.21,72.35c-.36,0-.65-.29-.65-.65v-3.59c0-.36.29-.65.65-.65s.65.29.65.65v3.59c0,.36-.29.65-.65.65ZM264.21,61.58c-.36,0-.65-.29-.65-.65v-3.59c0-.36.29-.65.65-.65h0c.36,0,.65.29.65.65v3.59c0,.36-.29.65-.65.65ZM264.26,50.81h-.01c-.36,0-.65-.3-.64-.66.02-1.27.05-2.47.09-3.6.01-.36.32-.63.67-.62.36.01.64.31.62.67-.04,1.12-.07,2.31-.09,3.57,0,.35-.3.64-.65.64ZM264.94,40.07s-.06,0-.1,0c-.35-.05-.6-.38-.55-.74.2-1.32.45-2.5.75-3.59.1-.35.46-.55.8-.45.35.1.55.46.45.8-.29,1.04-.53,2.16-.72,3.43-.05.32-.33.55-.64.55ZM268.75,30.12c-.13,0-.25-.04-.36-.11-.3-.2-.37-.61-.17-.9.69-1.01,1.45-1.99,2.27-2.89.24-.27.65-.29.92-.05.27.24.29.65.05.92-.78.86-1.51,1.79-2.16,2.75-.13.19-.33.29-.54.29ZM276.44,22.68c-.22,0-.43-.11-.55-.3-.19-.3-.1-.71.2-.9.69-.44,1.41-.85,2.14-1.22.36-.18.73-.36,1.11-.52.33-.14.71,0,.85.34.14.33,0,.71-.34.85-.35.15-.7.31-1.03.49-.7.35-1.38.74-2.04,1.16-.11.07-.23.1-.35.1ZM286.54,19.24c-.32,0-.6-.24-.64-.57-.05-.36.21-.68.56-.73,1.08-.14,2.27-.25,3.61-.34.36-.02.67.25.69.61.02.36-.25.67-.61.69-1.32.09-2.47.2-3.53.33-.03,0-.06,0-.08,0ZM297.28,18.67c-.36,0-.65-.29-.65-.64,0-.36.28-.65.64-.66,1.14-.01,2.34-.02,3.59-.03h0c.36,0,.65.29.65.65,0,.36-.29.65-.65.65-1.26,0-2.45.01-3.58.03h0Z"/>
      <path class="cls-3" d="M325.4,175.83c-9.92,0-17.98-8.07-17.98-17.99s8.07-17.98,17.98-17.98,17.98,8.07,17.98,17.98-8.07,17.99-17.98,17.99ZM325.4,140.87c-9.36,0-16.98,7.62-16.98,16.98s7.62,16.98,16.98,16.98,16.98-7.62,16.98-16.98-7.62-16.98-16.98-16.98Z"/>
      <path class="cls-3" d="M325.4,35.97c-9.92,0-17.98-8.07-17.98-17.99S315.49,0,325.4,0s17.98,8.07,17.98,17.99-8.07,17.99-17.98,17.99ZM325.4,1c-9.36,0-16.98,7.62-16.98,16.98s7.62,16.98,16.98,16.98,16.98-7.62,16.98-16.98-7.62-16.98-16.98-16.98Z"/>
      <path class="cls-3" d="M307.92,88.57h-1.25c-.36,0-.65-.29-.65-.65s.29-.65.65-.65h1.25c.36,0,.65.29.65.65s-.29.65-.65.65ZM299.49,88.57h-3.59c-.36,0-.65-.29-.65-.65s.29-.65.65-.65h3.59c.36,0,.65.29.65.65s-.29.65-.65.65ZM288.72,88.57h-3.59c-.36,0-.65-.29-.65-.65s.29-.65.65-.65h3.59c.36,0,.65.29.65.65s-.29.65-.65.65ZM277.95,88.57h-3.59c-.36,0-.65-.29-.65-.65s.29-.65.65-.65h3.59c.36,0,.65.29.65.65s-.29.65-.65.65ZM267.18,88.57h-3.59c-.36,0-.65-.29-.65-.65s.29-.65.65-.65h3.59c.36,0,.65.29.65.65s-.29.65-.65.65ZM256.41,88.57h-3.59c-.36,0-.65-.29-.65-.65s.29-.65.65-.65h3.59c.36,0,.65.29.65.65s-.29.65-.65.65ZM245.64,88.57h-3.59c-.36,0-.65-.29-.65-.65s.29-.65.65-.65h3.59c.36,0,.65.29.65.65s-.29.65-.65.65ZM234.87,88.57h-3.59c-.36,0-.65-.29-.65-.65s.29-.65.65-.65h3.59c.36,0,.65.29.65.65s-.29.65-.65.65ZM224.09,88.57h-3.59c-.36,0-.65-.29-.65-.65s.29-.65.65-.65h3.59c.36,0,.65.29.65.65s-.29.65-.65.65Z"/>
      <path class="cls-3" d="M203.02,105.9c-9.92,0-17.98-8.07-17.98-17.99s8.07-17.98,17.98-17.98,17.98,8.07,17.98,17.98-8.07,17.99-17.98,17.99ZM203.02,70.94c-9.36,0-16.98,7.62-16.98,16.98s7.62,16.98,16.98,16.98,16.98-7.62,16.98-16.98-7.62-16.98-16.98-16.98Z"/>
      <path class="cls-3" d="M325.4,105.9c-9.92,0-17.98-8.07-17.98-17.99s8.07-17.98,17.98-17.98,17.98,8.07,17.98,17.98-8.07,17.99-17.98,17.99ZM325.4,70.94c-9.36,0-16.98,7.62-16.98,16.98s7.62,16.98,16.98,16.98,16.98-7.62,16.98-16.98-7.62-16.98-16.98-16.98Z"/>
      <path class="cls-1" d="M325.4,98.59c-.28,0-.5-.22-.5-.5v-1.84h-1.28c-2.24,0-4.07-1.86-4.07-4.15,0-.28.22-.5.5-.5s.5.22.5.5c0,1.74,1.38,3.15,3.07,3.15h3.31c1.83,0,3.32-1.53,3.32-3.41s-1.49-3.41-3.32-3.41h-3.06c-2.38,0-4.32-1.98-4.32-4.41s1.94-4.41,4.32-4.41h1.03v-1.84c0-.28.22-.5.5-.5s.5.22.5.5v1.84h1.28c2.24,0,4.07,1.86,4.07,4.15,0,.28-.22.5-.5.5s-.5-.22-.5-.5c0-1.74-1.38-3.15-3.07-3.15h-3.31c-1.83,0-3.32,1.53-3.32,3.41s1.49,3.41,3.32,3.41h3.06c2.38,0,4.32,1.98,4.32,4.41s-1.94,4.41-4.32,4.41h-1.03v1.84c0,.28-.22.5-.5.5Z"/>
      <path class="cls-1" d="M319,25.44c-.13,0-.26-.05-.35-.15-.2-.2-.2-.51,0-.71l13.92-13.92c.2-.2.51-.2.71,0,.2.2.2.51,0,.71l-13.92,13.92c-.1.1-.23.15-.35.15ZM331.17,24.58c-.76,0-1.37-.62-1.37-1.37s.62-1.37,1.37-1.37,1.37.62,1.37,1.37-.62,1.37-1.37,1.37ZM320.74,14.14c-.76,0-1.37-.62-1.37-1.37s.62-1.37,1.37-1.37,1.37.62,1.37,1.37-.62,1.37-1.37,1.37Z"/>
      <path class="cls-2" d="M84.86,181.37c-18.46,0-33.48-14.73-33.48-32.84v-8.62c0-3.84,3.18-6.97,7.1-6.97,2.59,0,4.85,1.36,6.09,3.4v-22.3c0-3.84,3.18-6.97,7.1-6.97,2.59,0,4.85,1.36,6.1,3.4v-.74c0-3.84,3.18-6.97,7.1-6.97s7.1,3.13,7.1,6.97v.74c1.24-2.03,3.51-3.4,6.09-3.4,3.91,0,7.1,3.13,7.1,6.97v9.36c1.24-2.03,3.51-3.4,6.09-3.4,3.91,0,7.1,3.13,7.1,6.97v21.56c0,18.11-15.02,32.84-33.48,32.84ZM58.48,133.94c-3.36,0-6.09,2.68-6.09,5.97v8.62c0,17.55,14.57,31.83,32.48,31.83s32.48-14.28,32.48-31.83v-21.56c0-3.29-2.73-5.96-6.09-5.96s-6.09,2.68-6.09,5.96v10.78c0,.28-.22.5-.5.5s-.5-.22-.5-.5v-23.71c0-3.29-2.73-5.96-6.09-5.96s-6.09,2.68-6.09,5.96v23.71c0,.28-.22.5-.5.5s-.5-.22-.5-.5v-28.02c0-3.29-2.73-5.96-6.09-5.96s-6.09,2.68-6.09,5.96v28.02c0,.28-.22.5-.5.5s-.5-.22-.5-.5v-23.71c0-3.29-2.73-5.96-6.1-5.96s-6.09,2.68-6.09,5.96v36.65c0,.28-.22.5-.5.5s-.5-.22-.5-.5v-10.78c0-3.29-2.73-5.97-6.09-5.97Z"/>
      <path class="cls-1" d="M191.66,150.86h-68.07c-.28,0-.5-.22-.5-.5s.22-.5.5-.5h68.07c5.87,0,10.64-4.77,10.64-10.64v-33.81c0-.28.22-.5.5-.5s.5.22.5.5v33.81c0,6.42-5.22,11.64-11.64,11.64Z"/>
      <path class="cls-1" d="M202.81,36.61h-29.23c-.28,0-.5-.22-.5-.5s.22-.5.5-.5h29.23c.28,0,.5.22.5.5s-.22.5-.5.5Z"/>
      <path class="cls-1" d="M154.64,36.61H.5c-.28,0-.5-.22-.5-.5s.22-.5.5-.5h154.14c.28,0,.5.22.5.5s-.22.5-.5.5Z"/>
      <path class="cls-1" d="M316.3,162.63c-.13,0-.27-.05-.37-.16-.19-.2-.18-.52.02-.71l4.43-4.17c.4-.38.63-.59.94-.69.28-.09.58-.08.86,0,.32.1.56.32.95.69l2.49,2.34c.27.25.46.43.55.46.09.03.18.03.27,0,.09-.03.29-.21.55-.46l6.24-5.87h-5.1c-.28,0-.5-.22-.5-.5s.22-.5.5-.5h6.37c.07,0,.14.01.2.04.06.02.11.06.16.11,0,0,0,0,0,0h0s.02.02.02.03h0s0,0,0,0c.04.04.06.09.08.14h0s.03.1.03.15h0s0,.02,0,.04v5.99c0,.28-.22.5-.5.5s-.5-.22-.5-.5v-4.83l-6.31,5.94c-.4.38-.63.59-.95.69-.28.08-.58.08-.86,0-.32-.1-.54-.31-.94-.68l-2.5-2.35c-.26-.25-.45-.43-.55-.46-.08-.03-.18-.03-.27,0-.09.03-.28.2-.55.46l-4.43,4.17c-.1.09-.22.14-.34.14Z"/>
      <path class="cls-3" d="M53.43,120.89H.5c-.28,0-.5-.22-.5-.5s.22-.5.5-.5h52.93c2.41,0,4.37-1.96,4.37-4.37v-54.47c0-2.41-1.96-4.37-4.37-4.37H.5c-.28,0-.5-.22-.5-.5s.22-.5.5-.5h52.93c2.96,0,5.38,2.41,5.38,5.38v54.47c0,2.96-2.41,5.38-5.38,5.38Z"/>
      <path class="cls-3" d="M202.81,120.89h-43.29c-2.96,0-5.38-2.41-5.38-5.38v-54.47c0-2.96,2.41-5.38,5.38-5.38h43.29c.28,0,.5.22.5.5s-.22.5-.5.5h-43.29c-2.41,0-4.37,1.96-4.37,4.37v54.47c0,2.41,1.96,4.37,4.37,4.37h43.29c.28,0,.5.22.5.5s-.22.5-.5.5Z"/>
      <path class="cls-2" d="M140.83,120.89h-15.76c-.28,0-.5-.22-.5-.5s.22-.5.5-.5h15.76c2.03,0,3.68-1.65,3.68-3.68v-55.87c0-2.03-1.65-3.68-3.68-3.68h-68.71c-2.03,0-3.68,1.65-3.68,3.68v40.69c0,.28-.22.5-.5.5s-.5-.22-.5-.5v-40.69c0-2.58,2.1-4.68,4.68-4.68h68.71c2.58,0,4.68,2.1,4.68,4.68v55.87c0,2.58-2.1,4.68-4.68,4.68Z"/>
      <path class="cls-1" d="M46.53,150.86H11.64c-6.42,0-11.64-5.22-11.64-11.64V22.35c0-6.42,5.22-11.64,11.64-11.64h180.02c6.42,0,11.64,5.22,11.64,11.64v48.09c0,.28-.22.5-.5.5s-.5-.22-.5-.5V22.35c0-5.87-4.77-10.64-10.64-10.64H11.64c-5.87,0-10.64,4.77-10.64,10.64v116.87c0,5.87,4.77,10.64,10.64,10.64h34.89c.28,0,.5.22.5.5s-.22.5-.5.5Z"/>
    </g>
  </g>
</svg>