<?xml version="1.0" encoding="UTF-8"?>
<svg id="Layer_2" data-name="Layer 2" xmlns="http://www.w3.org/2000/svg" viewBox="0 0 413.63 181.9">
  <defs>
    <style>
      .cls-1 {
        fill: #2d3748;
      }

      .cls-1, .cls-2, .cls-3, .cls-4 {
        stroke-width: 0px;
      }

      .cls-2 {
        fill: #b4becc;
      }

      .cls-3 {
        fill: #f9b934;
      }

      .cls-4 {
        fill: #718096;
      }
    </style>
  </defs>
  <g id="Layer_1-2" data-name="Layer 1">
    <g id="good-company">
      <g>
        <path class="cls-4" d="M62.54,119.49c-.28,0-.5-.22-.5-.5v-56.06c0-.14.06-.27.15-.36l44.81-43.15c.15-.14.36-.18.54-.1s.31.26.31.46v46.97c0,.28-.22.5-.5.5s-.5-.22-.5-.5V20.96l-43.81,42.18v55.85c0,.28-.22.5-.5.5Z"/>
        <path class="cls-4" d="M349.4,155.05c-.28,0-.5-.22-.5-.5V54.63h-11.24v76.13c0,.28-.22.5-.5.5h-14.09c-.28,0-.5-.22-.5-.5V60.9c0-.28.22-.5.5-.5s.5.22.5.5v69.35h13.08V54.12c0-.28.22-.5.5-.5h12.24c.28,0,.5.22.5.5v100.42c0,.28-.22.5-.5.5Z"/>
        <path class="cls-4" d="M264.74,99.88c-.28,0-.5-.22-.5-.5v-56.46c0-.14.06-.27.15-.36l23.88-22.99V.5c0-.28.22-.5.5-.5h23.65c.28,0,.5.22.5.5v19.06l10.49,10.1c.1.09.15.22.15.36v24.43c0,.28-.22.5-.5.5s-.5-.22-.5-.5v-24.22l-10.49-10.1c-.1-.09-.15-.22-.15-.36V1h-22.65v18.77c0,.14-.06.27-.15.36l-23.88,22.99v56.25c0,.28-.22.5-.5.5Z"/>
        <path class="cls-4" d="M130.62,128.43c-.28,0-.5-.22-.5-.5v-42.29c0-.28.22-.5.5-.5h19.96V30.03c0-.11.04-.22.11-.31l14.38-18.29c.14-.18.39-.24.6-.15l39.94,18.29c.18.08.29.26.29.46v55.11h19.52v-42.22c0-.2.12-.38.31-.46.18-.08.4-.04.54.1l20.78,20.01c.1.09.15.22.15.36v12.46c0,.28-.22.5-.5.5s-.5-.22-.5-.5v-12.24l-19.78-19.04v41.54c0,.28-.22.5-.5.5h-20.53c-.28,0-.5-.22-.5-.5V30.35l-39.28-17.99-14.03,17.84v55.44c0,.28-.22.5-.5.5h-19.96v41.79c0,.28-.22.5-.5.5Z"/>
        <path class="cls-2" d="M112.32,153.02h-4.97c-.28,0-.5-.22-.5-.5v-54.41c0-.28.22-.5.5-.5s.5.22.5.5v53.91h4.47c.28,0,.5.22.5.5s-.22.5-.5.5Z"/>
      </g>
      <path class="cls-1" d="M349.4,181.9H62.54c-.36,0-.65-.29-.65-.65v-62.77c0-.36.29-.65.65-.65h15.48v-37.56c0-.36.29-.65.65-.65h4.9c.36,0,.65.29.65.65s-.29.65-.65.65h-4.25v37.56c0,.36-.29.65-.65.65h-15.48v61.46h285.56v-25.8l-16.23-18.22v25.82c0,.36-.29.65-.65.65h-8.61c-.36,0-.65-.29-.65-.65v-13.39l-6.85-7.68h-22.77v7.44c0,.36-.29.65-.65.65h-7.96v18.74c0,.36-.29.65-.65.65h-13.83c-.36,0-.65-.29-.65-.65v-59.29l-12.47-21.55c-.06-.1-.09-.21-.09-.33v-10.94h-14.45v10.94c0,.11-.03.22-.08.32l-12.3,21.7c-.12.2-.33.33-.57.33h-8.08v49.46c0,.36-.29.65-.65.65h-6.63c-.36,0-.65-.29-.65-.65v-30.21h-7.32c-.36,0-.65-.29-.65-.65v-30.59l-7.74-8.69c-.11-.12-.16-.27-.16-.43v-30.84h-13.91l-6.08,6.82v44.48c0,.36-.29.65-.65.65h-7.83v45.63c0,.36-.29.65-.65.65h-16.19c-.36,0-.65-.29-.65-.65v-13.64h-6.17c-.19,0-.36-.08-.49-.22l-11.15-12.52h-20.67v28.01c0,.36-.29.65-.65.65h-9.05c-.36,0-.65-.29-.65-.65v-56.87c0-.36.29-.65.65-.65s.65.29.65.65v56.22h7.75v-28.01c0-.36.29-.65.65-.65h21.61c.19,0,.36.08.49.22l11.15,12.52h6.53c.36,0,.65.29.65.65v13.64h14.89v-45.63c0-.36.29-.65.65-.65h7.83v-44.07c0-.16.06-.31.16-.43l6.44-7.23c.12-.14.3-.22.49-.22h14.85c.36,0,.65.29.65.65v31.24l7.74,8.69c.11.12.16.27.16.43v30.19h7.32c.36,0,.65.29.65.65v30.21h5.33v-49.46c0-.36.29-.65.65-.65h8.35l12.03-21.22v-11.42c0-.36.29-.65.65-.65h15.75c.36,0,.65.29.65.65v11.42l12.47,21.55c.06.1.09.21.09.33v58.82h12.53v-18.74c0-.36.29-.65.65-.65h7.96v-7.44c0-.36.29-.65.65-.65h23.71c.19,0,.36.08.49.22l7.2,8.09c.11.12.16.27.16.43v12.99h7.31v-26.88c0-.27.17-.51.42-.61.25-.09.54-.03.72.17l17.53,19.68c.11.12.16.27.16.43v26.7c0,.36-.29.65-.65.65Z"/>
      <path class="cls-1" d="M64.22,181.9H.65c-.36,0-.65-.29-.65-.65s.29-.65.65-.65h63.57c.36,0,.65.29.65.65s-.29.65-.65.65Z"/>
      <path class="cls-1" d="M412.98,181.9h-63.57c-.36,0-.65-.29-.65-.65s.29-.65.65-.65h63.57c.36,0,.65.29.65.65s-.29.65-.65.65Z"/>
      <g>
        <path class="cls-3" d="M121.88,106.2c-.74,0-1.44-.29-1.97-.81l-8.75-8.75c-.2-.2-.2-.51,0-.71.2-.2.51-.2.71,0l8.75,8.75c.67.67,1.84.67,2.51,0,.69-.69.69-1.82,0-2.51l-8.75-8.75c-.2-.2-.2-.51,0-.71.2-.2.51-.2.71,0l8.75,8.75c1.08,1.08,1.08,2.85,0,3.93-.52.53-1.22.81-1.96.81Z"/>
        <g>
          <path class="cls-3" d="M100.88,99.88c-9.63,0-17.46-7.83-17.46-17.46s7.83-17.46,17.46-17.46,17.46,7.83,17.46,17.46-7.83,17.46-17.46,17.46ZM100.88,65.97c-9.07,0-16.45,7.38-16.45,16.46s7.38,16.45,16.45,16.45,16.45-7.38,16.45-16.45-7.38-16.46-16.45-16.46Z"/>
          <path class="cls-3" d="M100.88,97.14c-8.11,0-14.71-6.6-14.71-14.71s6.6-14.71,14.71-14.71,14.71,6.6,14.71,14.71-6.6,14.71-14.71,14.71ZM100.88,68.72c-7.56,0-13.71,6.15-13.71,13.71s6.15,13.71,13.71,13.71,13.71-6.15,13.71-13.71-6.15-13.71-13.71-13.71Z"/>
        </g>
        <path class="cls-3" d="M111.54,82.1c-.28,0-.5-.22-.5-.5,0-5.28-4.29-9.57-9.57-9.57-.28,0-.5-.22-.5-.5s.22-.5.5-.5c5.83,0,10.58,4.74,10.58,10.58,0,.28-.22.5-.5.5Z"/>
      </g>
      <g>
        <path class="cls-3" d="M214.59,169.58c-.74,0-1.44-.29-1.96-.81l-8.75-8.75c-.2-.2-.2-.51,0-.71.2-.2.51-.2.71,0l8.75,8.75c.67.67,1.84.67,2.51,0,.69-.69.69-1.82,0-2.51l-8.75-8.75c-.2-.2-.2-.51,0-.71.2-.2.51-.2.71,0l8.75,8.75c1.08,1.08,1.08,2.85,0,3.93-.53.53-1.22.81-1.97.81Z"/>
        <g>
          <path class="cls-3" d="M193.6,163.26c-9.63,0-17.46-7.83-17.46-17.46s7.83-17.46,17.46-17.46,17.46,7.83,17.46,17.46-7.83,17.46-17.46,17.46ZM193.6,129.35c-9.07,0-16.45,7.38-16.45,16.45s7.38,16.46,16.45,16.46,16.45-7.38,16.45-16.46-7.38-16.45-16.45-16.45Z"/>
          <path class="cls-3" d="M193.6,160.51c-8.11,0-14.71-6.6-14.71-14.71s6.6-14.71,14.71-14.71,14.71,6.6,14.71,14.71-6.6,14.71-14.71,14.71ZM193.6,132.09c-7.56,0-13.71,6.15-13.71,13.71s6.15,13.71,13.71,13.71,13.71-6.15,13.71-13.71-6.15-13.71-13.71-13.71Z"/>
        </g>
        <path class="cls-3" d="M204.25,145.48c-.28,0-.5-.22-.5-.5,0-5.28-4.29-9.57-9.57-9.57-.28,0-.5-.22-.5-.5s.22-.5.5-.5c5.83,0,10.58,4.74,10.58,10.58,0,.28-.22.5-.5.5Z"/>
      </g>
      <g>
        <path class="cls-3" d="M325.32,62.7c-.74,0-1.44-.29-1.97-.81l-8.75-8.75c-.2-.2-.2-.51,0-.71.2-.2.51-.2.71,0l8.75,8.75c.67.67,1.84.67,2.51,0,.34-.34.52-.78.52-1.25s-.18-.92-.52-1.26l-8.75-8.75c-.2-.2-.2-.51,0-.71.2-.2.51-.2.71,0l8.75,8.75c.52.53.81,1.22.81,1.97s-.29,1.44-.81,1.96c-.52.52-1.22.81-1.97.81Z"/>
        <g>
          <path class="cls-3" d="M304.32,56.38c-9.63,0-17.46-7.83-17.46-17.46s7.83-17.46,17.46-17.46,17.46,7.83,17.46,17.46-7.83,17.46-17.46,17.46ZM304.32,22.47c-9.07,0-16.45,7.38-16.45,16.46s7.38,16.45,16.45,16.45,16.45-7.38,16.45-16.45-7.38-16.46-16.45-16.46Z"/>
          <path class="cls-3" d="M304.32,53.64c-8.11,0-14.71-6.6-14.71-14.71s6.6-14.71,14.71-14.71,14.71,6.6,14.71,14.71-6.6,14.71-14.71,14.71ZM304.32,25.21c-7.56,0-13.71,6.15-13.71,13.71s6.15,13.71,13.71,13.71,13.71-6.15,13.71-13.71-6.15-13.71-13.71-13.71Z"/>
        </g>
        <path class="cls-3" d="M314.98,38.6c-.28,0-.5-.22-.5-.5,0-5.28-4.29-9.57-9.57-9.57-.28,0-.5-.22-.5-.5s.22-.5.5-.5c5.83,0,10.58,4.75,10.58,10.58,0,.28-.22.5-.5.5Z"/>
      </g>
      <g>
        <path class="cls-3" d="M303.82,37.29c-1.71,0-3.1-1.39-3.1-3.09s1.39-3.09,3.1-3.09c.96,0,1.85.43,2.44,1.19.43.55.66,1.21.66,1.91s-.23,1.37-.66,1.91c-.59.75-1.48,1.19-2.44,1.19ZM303.82,32.1c-1.15,0-2.09.94-2.09,2.09s.94,2.09,2.09,2.09c.65,0,1.25-.29,1.65-.8.29-.37.44-.82.44-1.29s-.15-.92-.44-1.29c-.4-.51-1-.8-1.65-.8Z"/>
        <path class="cls-3" d="M303.82,47.87c-5.44,0-6.27-3.6-6.31-3.75,0-.03-.01-.07-.01-.1,0-3.48,2.83-6.32,6.32-6.32s6.32,2.83,6.32,6.32c0,.05,0,.1-.02.15-.05.15-1.22,3.71-6.3,3.71ZM298.51,43.95c.11.38.97,2.92,5.31,2.92,4,0,5.14-2.48,5.31-2.94-.05-2.89-2.41-5.23-5.31-5.23s-5.28,2.35-5.31,5.25ZM309.64,44.01h0,0Z"/>
      </g>
      <g>
        <path class="cls-3" d="M193.6,143.61c-1.71,0-3.09-1.39-3.09-3.09s1.39-3.09,3.09-3.09c.96,0,1.85.43,2.44,1.19.42.54.66,1.22.66,1.91s-.23,1.36-.66,1.91c-.59.75-1.48,1.19-2.44,1.19ZM193.6,138.42c-1.15,0-2.09.94-2.09,2.09s.94,2.09,2.09,2.09c.65,0,1.25-.29,1.65-.8.29-.37.44-.82.44-1.29s-.15-.92-.44-1.29c-.4-.51-1-.8-1.65-.8Z"/>
        <path class="cls-3" d="M193.6,154.18c-5.44,0-6.27-3.6-6.31-3.75,0-.03-.01-.07-.01-.1,0-3.48,2.83-6.32,6.32-6.32s6.32,2.83,6.32,6.32c0,.05,0,.1-.02.15-.05.15-1.22,3.71-6.3,3.71ZM188.28,150.26c.11.38.97,2.92,5.31,2.92,4,0,5.14-2.48,5.31-2.94-.05-2.89-2.41-5.23-5.31-5.23s-5.28,2.35-5.31,5.25ZM199.41,150.33h0,0Z"/>
      </g>
      <g>
        <path class="cls-3" d="M100.38,80.73c-1.71,0-3.09-1.39-3.09-3.09s1.39-3.09,3.09-3.09c.96,0,1.85.43,2.44,1.19.43.55.66,1.21.66,1.91s-.23,1.36-.66,1.91c-.59.75-1.48,1.19-2.44,1.19ZM100.38,75.55c-1.15,0-2.09.94-2.09,2.09s.94,2.09,2.09,2.09c.65,0,1.25-.29,1.65-.8.29-.37.44-.82.44-1.29s-.15-.92-.44-1.29c-.4-.51-1-.8-1.65-.8Z"/>
        <path class="cls-3" d="M100.38,91.31c-5.44,0-6.27-3.6-6.31-3.75,0-.03-.01-.07-.01-.1,0-3.48,2.83-6.32,6.32-6.32s6.32,2.83,6.32,6.32c0,.05,0,.1-.02.15-.05.15-1.22,3.71-6.3,3.71ZM95.07,87.39c.11.38.97,2.92,5.31,2.92,3.99,0,5.14-2.5,5.31-2.94-.05-2.89-2.41-5.23-5.31-5.23s-5.28,2.35-5.31,5.25ZM106.2,87.45h0,0Z"/>
      </g>
    </g>
  </g>
</svg>