<?xml version="1.0" encoding="UTF-8"?>
<svg id="Layer_2" data-name="Layer 2" xmlns="http://www.w3.org/2000/svg" viewBox="0 0 616.05 475.43">
  <defs>
    <style>
      .cls-1 {
        fill: #c7d1db;
      }

      .cls-1, .cls-2, .cls-3, .cls-4, .cls-5, .cls-6, .cls-7 {
        stroke-width: 0px;
      }

      .cls-2 {
        fill: #192430;
      }

      .cls-3 {
        fill: #f9b934;
      }

      .cls-4 {
        fill: #fff;
      }

      .cls-5, .cls-6 {
        fill: #eff2f5;
      }

      .cls-6 {
        fill-rule: evenodd;
      }

      .cls-7 {
        fill: #718096;
      }
    </style>
  </defs>
  <g id="Layer_1-2" data-name="Layer 1">
    <g>
      <g>
        <path class="cls-6" d="M434.62,120.47l45.09-39.15-40.16-1.34-10.71,7.36,5.78,33.13h0Z"/>
        <path class="cls-7" d="M434.62,121.46c-.28,0-.56-.12-.76-.35-.15-.17-.23-.38-.24-.59l-5.77-33.02c-.07-.39.1-.77.42-1l10.71-7.36c.18-.12.39-.18.6-.18l40.16,1.34c.41.01.77.28.91.67.14.39.02.82-.29,1.09l-45.06,39.13s-.02.02-.03.03c-.19.16-.42.23-.65.23ZM429.94,87.79l5.37,30.75,41.82-36.31-37.28-1.25-9.91,6.81Z"/>
      </g>
      <path class="cls-5" d="M415.96,81.6l-23.77-13.73,146.91-56.88"/>
      <path class="cls-2" d="M415.96,82.6c-.17,0-.34-.04-.5-.13l-23.78-13.73c-.33-.19-.53-.56-.5-.94s.28-.72.64-.86l146.91-56.88c.51-.2,1.09.06,1.29.57.2.51-.06,1.09-.57,1.29l-144.96,56.12,21.97,12.68c.48.28.64.89.37,1.37-.19.32-.52.5-.87.5Z"/>
      <path class="cls-5" d="M539.1,11l-52.32,111.49-52.01-30.02"/>
      <path class="cls-3" d="M486.78,123.49c-.17,0-.35-.05-.5-.13l-52.01-30.02c-.48-.28-.64-.89-.37-1.37.28-.48.89-.64,1.37-.37l51.07,29.48,51.85-110.51c.23-.5.83-.72,1.33-.48.5.23.71.83.48,1.33l-52.32,111.49c-.12.25-.34.45-.61.53-.1.03-.2.05-.3.05Z"/>
      <g>
        <path class="cls-5" d="M539.1,11l-123.14,70.6,18.67,38.87v-28.1l104.47-81.37Z"/>
        <path class="cls-7" d="M434.63,121.47c-.38,0-.73-.21-.9-.57l-18.67-38.87c-.23-.47-.05-1.04.4-1.3l123.14-70.6c.46-.26,1.04-.12,1.33.31.29.44.2,1.02-.22,1.35l-104.08,81.07v27.61c0,.47-.32.87-.78.98-.07.02-.15.02-.22.02ZM417.27,82l16.37,34.07v-23.71c0-.31.14-.6.39-.79l93.31-72.68-110.06,63.1Z"/>
      </g>
      <path class="cls-2" d="M106.67,341.55c-.23,0-.51-.09-.81-.37-.2-.19-.31-.44-.32-.72,0-.27.1-.53.3-.72.22-.21.55-.36.85-.32.3.03.61.17.77.43.53.84-.03,1.36-.15,1.46-.07.06-.31.23-.64.23ZM106.67,339.55c-.2,0-.43.06-.63.22-.43.35-.42.89-.28,1.15l.83-.53.63-.67c-.11-.1-.32-.18-.55-.18Z"/>
      <path class="cls-2" d="M141.93,385.81c-23.97,0-52.36-27.16-53.66-28.42-5.45-5.93-32.13-36.45-26.74-59.26,5.92-25.03,19.34-29.22,19.9-29.39.13-.04,13.23-3.64,21.02,10.25,9.42,16.79,3.84,23.95-.32,26.73-3.35,2.24-7.51,5.97-8.26,11.04-.58,3.93.95,8.16,4.57,12.57,5.46,6.64,12.47,13.69,18.75,18.84,4.41,3.62,8.65,5.15,12.57,4.57,5.07-.76,8.81-4.91,11.04-8.26,2.77-4.15,9.92-9.72,26.66-.36.02,0,.04.02.06.03,13.89,7.79,10.29,20.89,10.25,21.02-.17.57-4.36,13.97-29.39,19.91-2.1.5-4.26.73-6.46.73ZM85.56,270.25c-2.03,0-3.41.38-3.57.42-.12.04-12.89,4.14-18.51,27.93-5.16,21.82,20.94,51.64,26.22,57.4.3.29,34.3,32.82,58.23,27.14,23.79-5.64,27.89-18.4,27.93-18.52.13-.46,3.16-11.67-9.24-18.67-.02,0-.04-.02-.06-.03-11.4-6.39-19.96-6.51-24.09-.32-2.46,3.69-6.61,8.27-12.41,9.13-4.51.68-9.27-1.01-14.14-5-6.38-5.23-13.49-12.37-19.03-19.11-3.99-4.87-5.68-9.62-5-14.13.86-5.8,5.44-9.95,9.13-12.41,6.19-4.13,6.08-12.68-.32-24.09-4.64-8.27-11.15-9.73-15.15-9.73Z"/>
      <path class="cls-1" d="M493.49,374.93c-39.52,0-71.68-32.15-71.68-71.68s32.15-71.68,71.68-71.68,71.68,32.15,71.68,71.68-32.15,71.68-71.68,71.68ZM493.49,233.57c-38.42,0-69.68,31.26-69.68,69.68s31.26,69.68,69.68,69.68,69.68-31.26,69.68-69.68-31.26-69.68-69.68-69.68Z"/>
      <path class="cls-2" d="M469.23,331.33c-.26,0-.51-.1-.71-.29-.39-.39-.39-1.02,0-1.41l48.52-48.52c.39-.39,1.02-.39,1.41,0s.39,1.02,0,1.41l-48.52,48.52c-.2.2-.45.29-.71.29Z"/>
      <path class="cls-2" d="M517.75,322.28c-.55,0-1-.45-1-1v-38.48h-38.48c-.55,0-1-.45-1-1s.45-1,1-1h39.48c.55,0,1,.45,1,1v39.48c0,.55-.45,1-1,1Z"/>
      <path class="cls-1" d="M185.5,330.02c-.26,0-.51-.1-.71-.29-.39-.39-.39-1.02,0-1.41l3.36-3.36c.39-.39,1.02-.39,1.41,0s.39,1.02,0,1.41l-3.36,3.36c-.2.2-.45.29-.71.29Z"/>
      <path class="cls-1" d="M530.58,475.43h-8c-.55,0-1-.45-1-1s.45-1,1-1h8c.55,0,1,.45,1,1s-.45,1-1,1ZM506.58,475.43h-8c-.55,0-1-.45-1-1s.45-1,1-1h8c.55,0,1,.45,1,1s-.45,1-1,1ZM482.58,475.43h-8c-.55,0-1-.45-1-1s.45-1,1-1h8c.55,0,1,.45,1,1s-.45,1-1,1ZM458.58,475.43h-8c-.55,0-1-.45-1-1s.45-1,1-1h8c.55,0,1,.45,1,1s-.45,1-1,1ZM434.58,475.43h-8c-.55,0-1-.45-1-1s.45-1,1-1h8c.55,0,1,.45,1,1s-.45,1-1,1ZM410.58,475.43h-8c-.55,0-1-.45-1-1s.45-1,1-1h8c.55,0,1,.45,1,1s-.45,1-1,1ZM386.58,475.43h-8c-.55,0-1-.45-1-1s.45-1,1-1h8c.55,0,1,.45,1,1s-.45,1-1,1ZM362.58,475.43h-8c-.55,0-1-.45-1-1s.45-1,1-1h8c.55,0,1,.45,1,1s-.45,1-1,1ZM338.58,475.43h-8c-.55,0-1-.45-1-1s.45-1,1-1h8c.55,0,1,.45,1,1s-.45,1-1,1ZM314.58,475.43h-8c-.55,0-1-.45-1-1s.45-1,1-1h8c.55,0,1,.45,1,1s-.45,1-1,1ZM290.58,475.43h-8c-.55,0-1-.45-1-1s.45-1,1-1h8c.55,0,1,.45,1,1s-.45,1-1,1ZM266.58,475.43h-8c-.55,0-1-.45-1-1s.45-1,1-1h8c.55,0,1,.45,1,1s-.45,1-1,1ZM242.58,475.43h-8c-.55,0-1-.45-1-1s.45-1,1-1h8c.55,0,1,.45,1,1s-.45,1-1,1ZM218.58,475.43h-8c-.55,0-1-.45-1-1s.45-1,1-1h8c.55,0,1,.45,1,1s-.45,1-1,1ZM194.58,475.43h-8c-.55,0-1-.45-1-1s.45-1,1-1h8c.55,0,1,.45,1,1s-.45,1-1,1ZM170.58,475.43h-8c-.55,0-1-.45-1-1s.45-1,1-1h8c.55,0,1,.45,1,1s-.45,1-1,1ZM146.58,475.43h-8c-.55,0-1-.45-1-1s.45-1,1-1h8c.55,0,1,.45,1,1s-.45,1-1,1ZM122.58,475.43h-8c-.55,0-1-.45-1-1s.45-1,1-1h8c.55,0,1,.45,1,1s-.45,1-1,1ZM98.58,475.43h-8c-.55,0-1-.45-1-1s.45-1,1-1h8c.55,0,1,.45,1,1s-.45,1-1,1ZM74.58,475.38s-.03,0-.04,0c-2.69-.1-5.4-.34-8.06-.72-.55-.08-.93-.58-.85-1.13s.58-.93,1.13-.85c2.59.37,5.23.6,7.86.7.55.02.98.48.96,1.04-.02.54-.46.96-1,.96ZM546.55,474.72c-.49,0-.92-.36-.99-.87-.07-.55.31-1.05.86-1.12,2.6-.35,5.21-.84,7.76-1.45.54-.12,1.08.2,1.21.74s-.2,1.08-.74,1.21c-2.61.63-5.29,1.13-7.96,1.49-.04,0-.09,0-.13,0ZM51.14,470.78c-.11,0-.23-.02-.34-.06-2.52-.92-5.03-2-7.45-3.18-.5-.24-.7-.84-.46-1.34s.85-.7,1.34-.46c2.36,1.16,4.8,2.2,7.25,3.1.52.19.78.76.59,1.28-.15.41-.53.66-.94.66ZM569.47,467.96c-.38,0-.74-.21-.91-.58-.23-.5-.02-1.1.48-1.33,2.37-1.11,4.72-2.36,6.97-3.71.47-.29,1.09-.13,1.37.34.28.47.13,1.09-.34,1.37-2.31,1.38-4.71,2.67-7.15,3.81-.14.06-.28.09-.42.09ZM30.27,459.13c-.22,0-.43-.07-.62-.21-2.11-1.66-4.17-3.45-6.1-5.33-.4-.38-.41-1.02-.02-1.41.38-.4,1.02-.41,1.41-.02,1.89,1.83,3.89,3.57,5.94,5.19.43.34.51.97.17,1.4-.2.25-.49.38-.79.38ZM589.33,454.65c-.27,0-.54-.11-.74-.32-.37-.41-.35-1.04.06-1.41,1.93-1.77,3.8-3.66,5.55-5.62.37-.41,1-.45,1.41-.08.41.37.45,1,.08,1.41-1.79,2.01-3.71,3.95-5.69,5.76-.19.18-.43.26-.68.26ZM14,441.63c-.32,0-.64-.15-.83-.44-1.5-2.23-2.91-4.57-4.17-6.95-.26-.49-.07-1.09.41-1.35.49-.26,1.09-.07,1.35.41,1.23,2.31,2.59,4.59,4.06,6.77.31.46.19,1.08-.27,1.39-.17.12-.37.17-.56.17ZM604.33,436.04c-.17,0-.34-.04-.5-.14-.48-.28-.64-.89-.36-1.37,1.32-2.27,2.54-4.63,3.62-7.01.23-.5.82-.73,1.32-.5.5.23.73.82.5,1.32-1.11,2.45-2.36,4.87-3.71,7.19-.19.32-.52.5-.87.5ZM3.92,419.96c-.44,0-.84-.29-.96-.73-.74-2.59-1.35-5.24-1.81-7.89-.09-.54.27-1.06.81-1.16.54-.09,1.06.27,1.16.81.45,2.58,1.04,5.17,1.76,7.69.15.53-.16,1.08-.69,1.24-.09.03-.18.04-.27.04ZM613.09,413.8c-.07,0-.15,0-.22-.02-.54-.12-.88-.66-.75-1.2.58-2.56,1.03-5.18,1.35-7.78.07-.55.56-.95,1.11-.87.55.07.94.56.87,1.11-.32,2.67-.79,5.35-1.38,7.98-.11.46-.52.78-.97.78ZM1,396.24c-.55,0-1-.45-1-1v-8c0-.55.45-1,1-1s1,.45,1,1v8c0,.55-.45,1-1,1ZM615.05,389.96c-.55,0-1-.45-1-1v-8c0-.55.45-1,1-1s1,.45,1,1v8c0,.55-.45,1-1,1ZM1,372.24c-.55,0-1-.45-1-1v-8c0-.55.45-1,1-1s1,.45,1,1v8c0,.55-.45,1-1,1ZM615.05,365.96c-.55,0-1-.45-1-1v-8c0-.55.45-1,1-1s1,.45,1,1v8c0,.55-.45,1-1,1ZM1,348.24c-.55,0-1-.45-1-1v-8c0-.55.45-1,1-1s1,.45,1,1v8c0,.55-.45,1-1,1ZM615.05,341.96c-.55,0-1-.45-1-1v-8c0-.55.45-1,1-1s1,.45,1,1v8c0,.55-.45,1-1,1ZM1,324.24c-.55,0-1-.45-1-1v-8c0-.55.45-1,1-1s1,.45,1,1v8c0,.55-.45,1-1,1ZM615.05,317.96c-.55,0-1-.45-1-1v-8c0-.55.45-1,1-1s1,.45,1,1v8c0,.55-.45,1-1,1ZM201.46,312.58c-.18,0-.35-.05-.52-.14-.47-.29-.63-.9-.34-1.37,1.33-2.22,2.42-4.59,3.23-7.05.17-.52.74-.81,1.26-.64.52.17.81.74.64,1.26-.86,2.6-2.01,5.12-3.42,7.46-.19.31-.52.48-.86.48ZM1,300.24c-.55,0-1-.45-1-1v-8c0-.55.45-1,1-1s1,.45,1,1v8c0,.55-.45,1-1,1ZM615.05,293.96c-.55,0-1-.45-1-1v-8c0-.55.45-1,1-1s1,.45,1,1v8c0,.55-.45,1-1,1ZM206.58,289.52c-.55,0-1-.45-1-1v-8c0-.55.45-1,1-1s1,.45,1,1v8c0,.55-.45,1-1,1ZM1,276.24c-.55,0-1-.45-1-1v-8c0-.55.45-1,1-1s1,.45,1,1v8c0,.55-.45,1-1,1ZM615.05,269.96c-.55,0-1-.45-1-1v-8c0-.55.45-1,1-1s1,.45,1,1v8c0,.55-.45,1-1,1ZM206.58,265.52c-.55,0-1-.45-1-1v-8c0-.55.45-1,1-1s1,.45,1,1v8c0,.55-.45,1-1,1ZM1,252.24c-.55,0-1-.45-1-1v-8c0-.55.45-1,1-1s1,.45,1,1v8c0,.55-.45,1-1,1ZM615.05,245.96c-.55,0-.99-.44-1-.99-.03-2.62-.24-5.26-.61-7.83-.08-.55.3-1.05.84-1.13.55-.08,1.05.3,1.13.85.39,2.66.6,5.39.63,8.1,0,.55-.44,1.01-.99,1.01h-.01ZM206.58,241.52c-.55,0-1-.45-1-1v-8c0-.55.45-1,1-1s1,.45,1,1v8c0,.55-.45,1-1,1ZM1,228.24c-.55,0-1-.45-1-1v-8c0-.55.45-1,1-1s1,.45,1,1v8c0,.55-.45,1-1,1ZM610.01,222.66c-.38,0-.75-.22-.92-.6-1.06-2.39-2.29-4.73-3.65-6.96-.29-.47-.14-1.09.33-1.38.47-.29,1.09-.14,1.38.33,1.42,2.3,2.69,4.73,3.78,7.2.22.51,0,1.1-.51,1.32-.13.06-.27.09-.4.09ZM206.95,217.54s-.09,0-.14,0c-.55-.08-.93-.58-.85-1.13.38-2.71,1.03-5.38,1.95-7.95.19-.52.76-.79,1.28-.61s.79.76.61,1.28c-.87,2.44-1.49,4.98-1.85,7.56-.07.5-.5.86-.99.86ZM1,204.24c-.55,0-1-.45-1-1v-8c0-.55.45-1,1-1s1,.45,1,1v8c0,.55-.45,1-1,1ZM596.2,203.23c-.25,0-.49-.09-.68-.27-1.91-1.79-3.96-3.46-6.09-4.97-.45-.32-.56-.94-.24-1.39.32-.45.94-.56,1.39-.24,2.2,1.56,4.32,3.29,6.29,5.14.4.38.42,1.01.05,1.41-.2.21-.46.32-.73.32ZM217.11,196.21c-.24,0-.49-.09-.68-.27-.4-.38-.43-1.01-.05-1.41,1.86-2,3.93-3.82,6.15-5.4.45-.32,1.07-.22,1.39.23.32.45.22,1.07-.23,1.39-2.11,1.51-4.08,3.23-5.85,5.14-.2.21-.46.32-.73.32ZM575.89,190.77c-.11,0-.23-.02-.34-.06-2.46-.89-5-1.62-7.55-2.17-.54-.12-.88-.65-.77-1.19.12-.54.64-.88,1.19-.77,2.64.57,5.27,1.32,7.81,2.25.52.19.79.76.6,1.28-.15.41-.53.66-.94.66ZM552.31,187.23h-8c-.55,0-1-.45-1-1s.45-1,1-1h8c.55,0,1,.45,1,1s-.45,1-1,1ZM528.31,187.23h-8c-.55,0-1-.45-1-1s.45-1,1-1h8c.55,0,1,.45,1,1s-.45,1-1,1ZM504.31,187.23h-8c-.55,0-1-.45-1-1s.45-1,1-1h8c.55,0,1,.45,1,1s-.45,1-1,1ZM480.31,187.23h-8c-.55,0-1-.45-1-1s.45-1,1-1h8c.55,0,1,.45,1,1s-.45,1-1,1ZM456.31,187.23h-8c-.55,0-1-.45-1-1s.45-1,1-1h8c.55,0,1,.45,1,1s-.45,1-1,1ZM432.31,187.23h-8c-.55,0-1-.45-1-1s.45-1,1-1h8c.55,0,1,.45,1,1s-.45,1-1,1ZM408.31,187.23h-8c-.55,0-1-.45-1-1s.45-1,1-1h8c.55,0,1,.45,1,1s-.45,1-1,1ZM384.39,186.61c-.12,0-.25-.02-.37-.07-2.75-1.09-4.9-3.48-5.76-6.4-.16-.53.15-1.09.68-1.24.53-.16,1.09.15,1.24.68.68,2.33,2.39,4.23,4.57,5.1.51.2.76.78.56,1.3-.16.39-.53.63-.93.63ZM237.64,184.52c-.46,0-.88-.32-.98-.79-.12-.54.23-1.07.77-1.19,2.66-.57,5.39-.87,8.14-.9h0c.55,0,1,.44,1,.99,0,.55-.44,1-.99,1.01-2.61.02-5.21.31-7.73.85-.07.02-.14.02-.21.02ZM269.57,183.65h-8c-.55,0-1-.45-1-1s.45-1,1-1h8c.55,0,1,.45,1,1s-.45,1-1,1ZM285.56,183.32c-.49,0-.92-.36-.99-.87-.07-.55.31-1.05.86-1.13,2.57-.35,5.1-.99,7.51-1.92.52-.2,1.09.06,1.29.58.2.52-.06,1.09-.58,1.29-2.56.98-5.24,1.66-7.96,2.03-.05,0-.09,0-.14,0ZM1,180.24c-.55,0-1-.45-1-1v-8c0-.55.45-1,1-1s1,.45,1,1v8c0,.55-.45,1-1,1ZM306.45,172.49c-.24,0-.49-.09-.68-.27-.4-.38-.42-1.01-.05-1.41,1.77-1.9,3.32-3.99,4.61-6.23.28-.48.89-.64,1.37-.37.48.28.64.89.37,1.37-1.37,2.37-3.01,4.59-4.88,6.6-.2.21-.46.32-.73.32ZM386.12,167.53c-.26,0-.51-.1-.71-.29-.39-.39-.39-1.02,0-1.41l5.66-5.66c.39-.39,1.02-.39,1.41,0s.39,1.02,0,1.41l-5.66,5.66c-.2.2-.45.29-.71.29ZM1,156.24c-.55,0-1-.45-1-1v-8c0-.55.45-1,1-1s1,.45,1,1v8c0,.55-.45,1-1,1ZM315.8,150.9s-.04,0-.07,0c-.55-.04-.97-.51-.93-1.06.05-.76.08-1.53.08-2.29v-5.65c0-.55.45-1,1-1s1,.45,1,1v5.65c0,.8-.03,1.62-.08,2.42-.04.53-.47.93-1,.93ZM403.09,150.56c-.26,0-.51-.1-.71-.29-.39-.39-.39-1.02,0-1.41l5.66-5.66c.39-.39,1.02-.39,1.41,0s.39,1.02,0,1.41l-5.66,5.66c-.2.2-.45.29-.71.29ZM420.06,133.59c-.26,0-.51-.1-.71-.29-.39-.39-.39-1.02,0-1.41l5.27-5.27c.39-.39,1.02-.39,1.41,0s.39,1.02,0,1.41l-5.27,5.27c-.2.2-.45.29-.71.29ZM1,132.24c-.55,0-1-.45-1-1v-8c0-.55.45-1,1-1s1,.45,1,1v8c0,.55-.45,1-1,1ZM315.87,126.91c-.55,0-1-.45-1-1v-8c0-.55.45-1,1-1s1,.45,1,1v8c0,.55-.45,1-1,1ZM1,108.24c-.55,0-1-.45-1-1v-8c0-.55.45-1,1-1s1,.45,1,1v8c0,.55-.45,1-1,1ZM315.87,102.91c-.55,0-1-.45-1-1v-8c0-.55.45-1,1-1s1,.45,1,1v8c0,.55-.45,1-1,1ZM1,84.24c-.55,0-1-.45-1-1v-8c0-.55.45-1,1-1s1,.45,1,1v8c0,.55-.45,1-1,1ZM315.87,78.91c-.55,0-1-.45-1-1v-3.42c0-1.51-.05-3.03-.14-4.52-.03-.55.38-1.03.94-1.06.55-.03,1.03.39,1.06.94.09,1.53.14,3.09.14,4.64v3.42c0,.55-.45,1-1,1ZM1.11,60.24s-.04,0-.06,0c-.55-.03-.97-.5-.94-1.06.16-2.7.49-5.41.99-8.06.1-.54.62-.9,1.17-.8.54.1.9.63.8,1.17-.48,2.56-.81,5.19-.96,7.8-.03.53-.47.94-1,.94ZM313.03,55.18c-.43,0-.83-.29-.96-.72-.72-2.52-1.59-5.03-2.59-7.45-.21-.51.04-1.1.55-1.3.51-.21,1.09.03,1.3.55,1.02,2.49,1.92,5.07,2.66,7.66.15.53-.15,1.08-.69,1.24-.09.03-.18.04-.28.04ZM7.05,37.16c-.15,0-.29-.03-.43-.1-.5-.24-.71-.84-.47-1.33,1.17-2.43,2.5-4.81,3.98-7.08.3-.46.92-.59,1.38-.29.46.3.59.92.29,1.38-1.43,2.19-2.72,4.5-3.85,6.85-.17.36-.53.57-.9.57ZM302.78,33.6c-.32,0-.63-.15-.82-.43-1.49-2.15-3.12-4.24-4.85-6.22-.36-.42-.32-1.05.1-1.41.42-.36,1.05-.32,1.41.1,1.77,2.04,3.44,4.19,4.98,6.39.32.45.2,1.08-.25,1.39-.17.12-.37.18-.57.18ZM21.31,18.05c-.27,0-.54-.11-.74-.33-.37-.41-.34-1.04.07-1.41,2-1.81,4.14-3.52,6.35-5.06.45-.32,1.08-.2,1.39.25.32.45.2,1.08-.25,1.39-2.15,1.49-4.21,3.14-6.15,4.9-.19.17-.43.26-.67.26ZM286.15,16.45c-.21,0-.42-.06-.6-.2-2.1-1.56-4.32-3.03-6.58-4.35-.48-.28-.64-.89-.36-1.37.28-.48.89-.64,1.37-.36,2.32,1.36,4.59,2.86,6.76,4.47.44.33.54.96.21,1.4-.2.26-.5.4-.8.4ZM41.72,5.72c-.41,0-.79-.25-.94-.66-.19-.52.08-1.09.6-1.28,2.54-.92,5.17-1.69,7.8-2.28.54-.12,1.07.22,1.19.76.12.54-.22,1.07-.76,1.19-2.55.57-5.09,1.31-7.55,2.2-.11.04-.23.06-.34.06ZM264.91,5.52c-.1,0-.2-.02-.31-.05-2.49-.8-5.06-1.47-7.63-2-.54-.11-.89-.64-.78-1.18.11-.54.64-.89,1.18-.78,2.64.54,5.28,1.23,7.84,2.05.53.17.81.73.65,1.26-.14.42-.53.69-.95.69ZM241.28,2h-8c-.55,0-1-.45-1-1s.45-1,1-1h8c.55,0,1,.45,1,1s-.45,1-1,1ZM217.28,2h-8c-.55,0-1-.45-1-1s.45-1,1-1h8c.55,0,1,.45,1,1s-.45,1-1,1ZM193.28,2h-8c-.55,0-1-.45-1-1s.45-1,1-1h8c.55,0,1,.45,1,1s-.45,1-1,1ZM169.28,2h-8c-.55,0-1-.45-1-1s.45-1,1-1h8c.55,0,1,.45,1,1s-.45,1-1,1ZM145.28,2h-8c-.55,0-1-.45-1-1s.45-1,1-1h8c.55,0,1,.45,1,1s-.45,1-1,1ZM121.28,2h-8c-.55,0-1-.45-1-1s.45-1,1-1h8c.55,0,1,.45,1,1s-.45,1-1,1ZM97.28,2h-8c-.55,0-1-.45-1-1s.45-1,1-1h8c.55,0,1,.45,1,1s-.45,1-1,1ZM73.28,2h-8c-.55,0-1-.45-1-1s.45-1,1-1h8c.55,0,1,.45,1,1s-.45,1-1,1Z"/>
      <path class="cls-1" d="M408.14,145.51c-.26,0-.51-.1-.71-.29-.39-.39-.39-1.02,0-1.41l3.36-3.36c.39-.39,1.02-.39,1.41,0s.39,1.02,0,1.41l-3.36,3.36c-.2.2-.45.29-.71.29Z"/>
      <path class="cls-4" d="M419.59,386.77c-46.46,4.74-50.3,8.59-55.04,55.04-4.74-46.46-8.58-50.3-55.04-55.04,46.45-4.74,50.3-8.58,55.04-55.04,4.74,46.46,8.58,50.3,55.04,55.04Z"/>
      <g>
        <path class="cls-4" d="M419.59,386.77c-46.46,4.74-50.3,8.59-55.04,55.04-4.74-46.46-8.58-50.3-55.04-55.04,46.45-4.74,50.3-8.58,55.04-55.04,4.74,46.46,8.58,50.3,55.04,55.04Z"/>
        <path class="cls-3" d="M364.55,442.81c-.51,0-.94-.39-1-.9-4.69-45.92-8.23-49.46-54.15-54.15-.51-.05-.9-.48-.9-1s.39-.94.9-1c45.92-4.69,49.46-8.23,54.15-54.15.05-.51.48-.9,1-.9s.94.39,1,.9c4.69,45.91,8.23,49.46,54.15,54.15.51.05.9.48.9,1s-.39.94-.9,1c-45.92,4.69-49.46,8.23-54.15,54.15-.05.51-.48.9-1,.9ZM318.71,386.77c35.6,4.24,41.6,10.24,45.84,45.84,4.24-35.6,10.25-41.6,45.84-45.84-35.6-4.24-41.6-10.24-45.84-45.84-4.24,35.6-10.24,41.6-45.84,45.84Z"/>
      </g>
      <path class="cls-4" d="M309.58,441.11c-1.96-19.21-3.55-20.81-22.77-22.77,19.21-1.96,20.81-3.56,22.77-22.77,1.96,19.21,3.56,20.81,22.77,22.77-19.21,1.96-20.81,3.55-22.77,22.77Z"/>
      <g>
        <path class="cls-4" d="M309.58,441.11c-1.96-19.21-3.55-20.81-22.77-22.77,19.21-1.96,20.81-3.56,22.77-22.77,1.96,19.21,3.56,20.81,22.77,22.77-19.21,1.96-20.81,3.55-22.77,22.77Z"/>
        <path class="cls-1" d="M309.58,442.11h0c-.51,0-.94-.39-1-.9-1.91-18.74-3.14-19.96-21.88-21.88-.51-.05-.9-.48-.9-1s.39-.94.9-1c18.74-1.91,19.96-3.14,21.88-21.88.05-.51.48-.9,1-.9s.94.39,1,.9c1.91,18.74,3.14,19.96,21.88,21.88.51.05.9.48.9,1s-.39.94-.9,1c-18.74,1.91-19.96,3.14-21.88,21.88-.05.51-.48.9-1,.9ZM294.82,418.34c10.11,1.68,13.08,4.65,14.75,14.75,1.68-10.11,4.65-13.08,14.75-14.75-10.11-1.68-13.08-4.65-14.75-14.75-1.68,10.11-4.65,13.08-14.75,14.75Z"/>
      </g>
      <g>
        <path class="cls-5" d="M87.81,137.67V55.57h148.62v82.1h-124.63l-23.98,31.8v-31.8Z"/>
        <path class="cls-1" d="M87.81,170.47c-.11,0-.21-.02-.32-.05-.41-.14-.68-.52-.68-.95V55.57c0-.55.45-1,1-1h148.62c.55,0,1,.45,1,1v82.1c0,.55-.45,1-1,1h-124.14l-23.69,31.4c-.19.26-.49.4-.8.4ZM88.81,56.57v109.91l22.19-29.42c.19-.25.48-.4.8-.4h123.63V56.57H88.81Z"/>
      </g>
      <path class="cls-3" d="M196.82,106.04c-5.81,0-10.53-4.72-10.53-10.53s4.72-10.53,10.53-10.53,10.53,4.72,10.53,10.53-4.72,10.53-10.53,10.53ZM196.82,86.98c-4.7,0-8.53,3.83-8.53,8.53s3.83,8.53,8.53,8.53,8.53-3.83,8.53-8.53-3.83-8.53-8.53-8.53Z"/>
      <path class="cls-2" d="M164.43,106.04c-5.81,0-10.53-4.72-10.53-10.53s4.72-10.53,10.53-10.53,10.53,4.72,10.53,10.53-4.72,10.53-10.53,10.53ZM164.43,86.98c-4.7,0-8.53,3.83-8.53,8.53s3.83,8.53,8.53,8.53,8.53-3.83,8.53-8.53-3.83-8.53-8.53-8.53Z"/>
      <path class="cls-7" d="M132.04,106.04c-5.81,0-10.53-4.72-10.53-10.53s4.72-10.53,10.53-10.53,10.53,4.72,10.53,10.53-4.72,10.53-10.53,10.53ZM132.04,86.98c-4.7,0-8.53,3.83-8.53,8.53s3.83,8.53,8.53,8.53,8.53-3.83,8.53-8.53-3.83-8.53-8.53-8.53Z"/>
    </g>
  </g>
</svg>