<svg width="1858" height="544" viewBox="0 0 1858 544" fill="none" xmlns="http://www.w3.org/2000/svg">
<rect y="363.69" width="87.0536" height="87.0536" fill="white"/>
<rect y="454.613" width="87.0536" height="87.0536" fill="white"/>
<rect x="90.9238" y="454.613" width="87.0536" height="87.0536" fill="white"/>
<rect x="976.844" y="363.69" width="87.0536" height="87.0536" fill="white"/>
<rect x="976.844" y="454.613" width="87.0536" height="87.0536" fill="white"/>
<rect x="1679.17" y="363.69" width="87.0536" height="87.0536" fill="#176B87"/>
<rect x="1679.17" y="272.768" width="87.0536" height="87.0536" fill="white"/>
<rect x="1679.17" y="454.613" width="87.0536" height="87.0536" fill="white"/>
<rect x="885.918" y="363.69" width="87.0536" height="87.0536" fill="white"/>
<rect x="795" y="252.455" width="87.0536" height="87.0536" fill="white"/>
<rect x="795" y="161.533" width="87.0536" height="87.0536" fill="white"/>
<rect x="885.922" y="70.6101" width="87.0536" height="87.0536" fill="#5E1675"/>
<rect x="885.922" y="161.533" width="87.0536" height="87.0536" fill="white"/>
<rect x="885.918" y="454.613" width="87.0536" height="87.0536" fill="white"/>
<rect x="1588.24" y="181.845" width="87.0536" height="87.0536" fill="white"/>
<rect x="1588.24" y="363.69" width="87.0536" height="87.0536" fill="white"/>
<rect x="1588.24" y="272.768" width="87.0536" height="87.0536" fill="white"/>
<rect x="1588.24" y="454.613" width="87.0536" height="87.0536" fill="white"/>
<rect x="1679.16" y="181.845" width="87.0536" height="87.0536" fill="white"/>
<rect x="1679.16" width="87.0536" height="87.0536" fill="white"/>
<rect x="1679.16" y="90.9226" width="87.0536" height="87.0536" fill="white"/>
<rect x="1770.09" y="181.845" width="87.0536" height="87.0536" fill="white"/>
<rect x="448.844" y="543.975" width="87.0536" height="87.0536" transform="rotate(-90 448.844 543.975)" fill="white"/>
<rect x="267" y="543.975" width="87.0536" height="87.0536" transform="rotate(-90 267 543.975)" fill="white"/>
<rect x="357.922" y="543.975" width="87.0536" height="87.0536" transform="rotate(-90 357.922 543.975)" fill="#AF2655"/>
<rect x="448.844" y="453.054" width="87.0536" height="87.0536" transform="rotate(-90 448.844 453.054)" fill="white"/>
<rect x="1770.09" y="363.69" width="87.0536" height="87.0536" fill="white"/>
<rect x="1770.09" y="272.768" width="87.0536" height="87.0536" fill="white"/>
<rect x="1770.09" y="454.613" width="87.0536" height="87.0536" fill="white"/>
</svg>
