<svg width="363" height="217" viewBox="0 0 363 217" fill="none" xmlns="http://www.w3.org/2000/svg">
<rect y="145.065" width="34.723" height="34.723" fill="white"/>
<rect y="181.331" width="34.723" height="34.723" fill="white"/>
<rect x="36.2656" y="181.331" width="34.723" height="34.723" fill="white"/>
<rect x="73.8711" y="100.697" width="34.723" height="34.723" fill="white"/>
<rect x="73.8711" y="64.4305" width="34.723" height="34.723" fill="white"/>
<rect x="110.137" y="28.1642" width="34.723" height="34.723" fill="#5E1675"/>
<rect x="110.137" y="64.4305" width="34.723" height="34.723" fill="white"/>
<rect x="179.027" y="216.975" width="34.723" height="34.723" transform="rotate(-90 179.027 216.975)" fill="white"/>
<rect x="106.496" y="216.975" width="34.723" height="34.723" transform="rotate(-90 106.496 216.975)" fill="white"/>
<rect x="142.762" y="216.975" width="34.723" height="34.723" transform="rotate(-90 142.762 216.975)" fill="#AF2655"/>
<rect x="179.027" y="180.709" width="34.723" height="34.723" transform="rotate(-90 179.027 180.709)" fill="white"/>
<rect x="291" y="145" width="35" height="35" fill="#176B87"/>
<rect x="291" y="109" width="35" height="35" fill="white"/>
<rect x="291" y="181" width="35" height="35" fill="white"/>
<rect x="255" y="73" width="35" height="34" fill="white"/>
<rect x="255" y="145" width="35" height="35" fill="white"/>
<rect x="255" y="109" width="35" height="35" fill="white"/>
<rect x="255" y="181" width="35" height="35" fill="white"/>
<rect x="291.113" y="72.5326" width="34.723" height="34.723" fill="white"/>
<rect x="291.113" width="34.723" height="34.723" fill="white"/>
<rect x="291.113" y="36.2663" width="34.723" height="34.723" fill="white"/>
<rect x="327.379" y="72.5326" width="34.723" height="34.723" fill="white"/>
<rect x="327" y="145" width="35" height="35" fill="white"/>
<rect x="327" y="109" width="35" height="35" fill="white"/>
<rect x="327" y="181" width="35" height="35" fill="white"/>
</svg>
