<svg width="885" height="885" viewBox="0 0 885 885" fill="none" xmlns="http://www.w3.org/2000/svg">
<circle cx="35.1057" cy="442.894" r="35" fill="white"/>
<circle cx="849.106" cy="442.894" r="35" fill="white"/>
<circle cx="442.106" cy="35.8943" r="35" fill="#718096"/>
<circle cx="223.106" cy="105.894" r="35" fill="white"/>
<circle cx="87.1057" cy="245.894" r="35" fill="#718096"/>
<circle cx="35" cy="35" r="35" transform="matrix(-1 0 0 1 700.106 70.8943)" fill="white"/>
<circle cx="35" cy="35" r="35" transform="matrix(-1 0 0 1 836.106 210.894)" fill="#718096"/>
<circle cx="665.106" cy="779.894" r="35" transform="rotate(-180 665.106 779.894)" fill="white"/>
<circle cx="801.106" cy="639.894" r="35" transform="rotate(-180 801.106 639.894)" fill="#718096"/>
<circle cx="35" cy="35" r="35" transform="matrix(1 8.74228e-08 8.74228e-08 -1 188.106 814.894)" fill="white"/>
<circle cx="35" cy="35" r="35" transform="matrix(1 8.74228e-08 8.74228e-08 -1 52.1057 674.894)" fill="#718096"/>
<circle cx="442.106" cy="849.894" r="35" fill="#718096"/>
</svg>
