<svg width="90" height="90" viewBox="0 0 90 90" fill="none" xmlns="http://www.w3.org/2000/svg">
<path d="M65.4 41.1C64.3 41.1 63.4 42 63.4 43.1C63.4 44.2 64.3 45.1 65.4 45.1C69.1 45.1 72.1 48.1 72.1 51.8C72.1 55.5 70.8 56.4 68.8 57.5C67.8 58.1 66.6 58.4 65.4 58.4C64.2 58.4 63.4 59.3 63.4 60.4C63.4 61.5 64.3 62.4 65.4 62.4C67.3 62.4 69.2 61.9 70.8 60.9C74 59 76 55.5 76 51.8C76 46 71.2 41.2 65.4 41.2V41.1Z" fill="#EFEEEA"/>
<path d="M66.4 32.2C63 24.2 55.1 19 46.4 19C37.7 19 29 24.9 26 33.4C25.7 33.4 25.3 33.4 24.9 33.4C19.8 33.4 15.6 37.2 14.9 42.1C9.6 44.6 6 50 6 56C6 64.4 12.8 71.3 21.3 71.3H65.3C68.8 71.3 72.2 70.4 75.2 68.6C81.1 65.1 84.8 58.7 84.8 51.8C84.8 41.4 76.6 32.8 66.3 32.3L66.4 32.2ZM73.3 65.1C70.9 66.5 68.2 67.2 65.4 67.2H21.4C15.1 67.2 10.1 62.1 10.1 55.9C10.1 49.7 13 47 17.3 45.3L18.8 44.7V43.1C19 39.8 21.7 37.2 25 37.2C28.3 37.2 26 37.2 26.5 37.4L28.8 38L29.4 35.7C31.6 28.1 38.6 22.9 46.5 22.9C54.4 22.9 60.6 27.6 63.2 34.5L64 36.1H65.6C74.2 36.1 81.2 43.1 81.2 51.7C81.2 60.3 78.3 62.4 73.5 65.1H73.3Z" fill="#EFEEEA"/>
</svg>
