<svg width="55" height="91" viewBox="0 0 55 91" fill="none" xmlns="http://www.w3.org/2000/svg">
<circle cx="10.4114" cy="4.11792" r="2.94116" fill="#718096"/>
<circle cx="19.5289" cy="4.11728" r="3.52939" fill="#718096"/>
<circle cx="28.9405" cy="4.11763" r="4.11763" fill="#718096"/>
<circle cx="14.2346" cy="12.3524" r="2.94116" fill="#718096"/>
<circle cx="23.6462" cy="12.3528" r="3.52939" fill="#718096"/>
<circle cx="33.0582" cy="12.3531" r="4.11763" fill="#718096"/>
<circle cx="18.9407" cy="20.5876" r="2.94116" fill="#718096"/>
<circle cx="28.3521" cy="20.588" r="3.52939" fill="#718096"/>
<circle cx="37.7641" cy="20.5883" r="4.11763" fill="#718096"/>
<circle cx="23.0579" cy="28.823" r="2.94116" fill="#718096"/>
<circle cx="32.4698" cy="28.8233" r="3.52939" fill="#718096"/>
<circle cx="41.8818" cy="28.8237" r="4.11763" fill="#718096"/>
<circle cx="27.1758" cy="37.0582" r="2.94116" fill="#718096"/>
<circle cx="36.5874" cy="37.0586" r="3.52939" fill="#718096"/>
<circle cx="45.999" cy="37.0582" r="4.11763" fill="#718096"/>
<circle cx="31.2936" cy="45.2937" r="2.94116" fill="#718096"/>
<circle cx="40.7052" cy="45.294" r="3.52939" fill="#718096"/>
<circle cx="50.1166" cy="45.2934" r="4.11763" fill="#718096"/>
<circle cx="2.94116" cy="2.94116" r="2.94116" transform="matrix(1 -8.74228e-08 -8.74228e-08 -1 7.47009 89.4111)" fill="#718096"/>
<circle cx="3.52939" cy="3.52939" r="3.52939" transform="matrix(1 -8.74228e-08 -8.74228e-08 -1 16.2935 89.999)" fill="#718096"/>
<circle cx="4.11763" cy="4.11763" r="4.11763" transform="matrix(1 -8.74228e-08 -8.74228e-08 -1 25.1167 90.5879)" fill="#718096"/>
<circle cx="2.94116" cy="2.94116" r="2.94116" transform="matrix(1 -8.74228e-08 -8.74228e-08 -1 11.5878 81.1755)" fill="#718096"/>
<circle cx="3.52939" cy="3.52939" r="3.52939" transform="matrix(1 -8.74228e-08 -8.74228e-08 -1 20.4111 81.7646)" fill="#718096"/>
<circle cx="4.11763" cy="4.11763" r="4.11763" transform="matrix(1 -8.74228e-08 -8.74228e-08 -1 29.2346 82.3528)" fill="#718096"/>
<circle cx="2.94116" cy="2.94116" r="2.94116" transform="matrix(1 -8.74228e-08 -8.74228e-08 -1 16.2935 72.9404)" fill="#718096"/>
<circle cx="3.52939" cy="3.52939" r="3.52939" transform="matrix(1 -8.74228e-08 -8.74228e-08 -1 25.1167 73.5283)" fill="#718096"/>
<circle cx="4.11763" cy="4.11763" r="4.11763" transform="matrix(1 -8.74228e-08 -8.74228e-08 -1 33.9406 74.1173)" fill="#718096"/>
<circle cx="2.94116" cy="2.94116" r="2.94116" transform="matrix(1 -8.74228e-08 -8.74228e-08 -1 20.4111 64.7053)" fill="#718096"/>
<circle cx="3.52939" cy="3.52939" r="3.52939" transform="matrix(1 -8.74228e-08 -8.74228e-08 -1 29.2346 65.2939)" fill="#718096"/>
<circle cx="4.11763" cy="4.11763" r="4.11763" transform="matrix(1 -8.74228e-08 -8.74228e-08 -1 38.058 65.8818)" fill="#718096"/>
<circle cx="2.94116" cy="2.94116" r="2.94116" transform="matrix(1 -8.74228e-08 -8.74228e-08 -1 24.5289 56.4705)" fill="#718096"/>
<circle cx="2.17588" cy="4.11716" r="2.05881" fill="#718096"/>
<circle cx="5.99936" cy="12.3526" r="2.05881" fill="#718096"/>
<circle cx="10.7053" cy="20.5881" r="2.05881" fill="#718096"/>
<circle cx="14.823" cy="28.8225" r="2.05881" fill="#718096"/>
<circle cx="18.9406" cy="37.0588" r="2.05881" fill="#718096"/>
<circle cx="23.0583" cy="45.2942" r="2.05881" fill="#718096"/>
<circle cx="2.05881" cy="2.05881" r="2.05881" transform="matrix(1 -8.74228e-08 -8.74228e-08 -1 0.117065 88.5292)" fill="#718096"/>
<circle cx="2.05881" cy="2.05881" r="2.05881" transform="matrix(1 -8.74228e-08 -8.74228e-08 -1 4.23486 80.2937)" fill="#718096"/>
<circle cx="2.05881" cy="2.05881" r="2.05881" transform="matrix(1 -8.74228e-08 -8.74228e-08 -1 8.94043 72.0586)" fill="#718096"/>
<circle cx="2.05881" cy="2.05881" r="2.05881" transform="matrix(1 -8.74228e-08 -8.74228e-08 -1 13.0581 63.8232)" fill="#718096"/>
<circle cx="2.05881" cy="2.05881" r="2.05881" transform="matrix(1 -8.74228e-08 -8.74228e-08 -1 17.176 55.588)" fill="#718096"/>
<circle cx="3.52939" cy="3.52939" r="3.52939" transform="matrix(1 -8.74228e-08 -8.74228e-08 -1 33.3523 57.0585)" fill="#718096"/>
<circle cx="4.11763" cy="4.11763" r="4.11763" transform="matrix(1 -8.74228e-08 -8.74228e-08 -1 42.1757 57.6464)" fill="#718096"/>
</svg>
