<svg width="90" height="90" viewBox="0 0 90 90" fill="none" xmlns="http://www.w3.org/2000/svg">
<path d="M44.1409 26.7C37.4409 27.2 32.0409 32.5 31.4409 39.2C31.4409 40.3 32.1409 41.2 33.2409 41.3C33.2409 41.3 33.3409 41.3 33.4409 41.3C34.4409 41.3 35.3409 40.5 35.4409 39.5C35.8409 34.8 39.7409 30.9 44.4409 30.6C47.0409 30.4 49.6409 31.3 51.5409 33C52.3409 33.7 53.6409 33.6 54.3409 32.8C55.0409 32 54.9409 30.7 54.1409 30C51.4409 27.6 47.7409 26.4 44.1409 26.6V26.7Z" fill="#EFEEEA"/>
<path d="M59.8409 24.7C55.4409 20.6 49.6409 18.5 43.6409 19C33.1409 19.7 24.5409 28.2 23.7409 38.7C23.2409 45 25.4409 51.2 29.8409 55.6C31.7409 57.5 32.7409 59.9 32.7409 62.4V70.8C32.6409 70.8 32.6409 70.8 32.6409 70.8C32.6409 77.5 38.0409 82.9 44.7409 82.9H45.6409C52.3409 82.9 57.7409 77.5 57.7409 70.7V62.3C57.6409 59.8 58.6409 57.4 60.3409 55.7C64.4409 51.6 66.7409 46.2 66.7409 40.4C66.7409 34.6 64.2409 28.7 59.9409 24.6L59.8409 24.7ZM45.6409 79H44.7409C40.2409 79 36.5409 75.3 36.5409 70.8V68.5H53.8409V70.8C53.8409 75.3 50.2409 79 45.6409 79ZM57.5409 53C55.0409 55.4 53.6409 58.9 53.6409 62.4V64.6H36.5409V62.4C36.5409 58.9 35.1409 55.5 32.5409 52.8C28.9409 49.1 27.1409 44.1 27.5409 38.9C28.2409 30.3 35.2409 23.4 43.8409 22.8C48.7409 22.5 53.5409 24.1 57.1409 27.5C60.7409 30.9 62.7409 35.4 62.7409 40.4C62.7409 45.4 60.8409 49.6 57.5409 52.9V53Z" fill="#EFEEEA"/>
<path d="M45.1409 17C46.2409 17 47.1409 16.1 47.1409 15V10C47.1409 8.9 46.2409 8 45.1409 8C44.0409 8 43.1409 8.9 43.1409 10V15C43.1409 16.1 44.0409 17 45.1409 17Z" fill="#EFEEEA"/>
<path d="M34.1409 17.5C34.4409 18.3 35.1409 18.8 35.9409 18.8C36.7409 18.8 36.3409 18.8 36.6409 18.7C37.6409 18.3 38.1409 17.2 37.8409 16.2L36.1409 11.5C35.7409 10.5 34.6409 10 33.6409 10.3C32.6409 10.7 32.1409 11.8 32.4409 12.8L34.1409 17.5Z" fill="#EFEEEA"/>
<path d="M26.5409 22.9C26.9409 23.4 27.4409 23.6 28.0409 23.6C28.6409 23.6 28.9409 23.4 29.3409 23.1C30.1409 22.4 30.2409 21.2 29.5409 20.3L26.3409 16.5C25.6409 15.7 24.4409 15.6 23.5409 16.3C22.7409 17 22.6409 18.2 23.3409 19.1L26.5409 22.9Z" fill="#EFEEEA"/>
<path d="M23.2409 27.2L18.9409 24.7C18.0409 24.2 16.8409 24.5 16.2409 25.4C15.7409 26.3 16.0409 27.5 16.9409 28.1L21.2409 30.6C21.5409 30.8 21.8409 30.9 22.2409 30.9C22.9409 30.9 23.5409 30.5 23.9409 29.9C24.4409 29 24.1409 27.8 23.2409 27.2Z" fill="#EFEEEA"/>
<path d="M53.6409 18.6C53.8409 18.6 54.0409 18.7 54.3409 18.7C55.1409 18.7 55.9409 18.2 56.1409 17.4L57.8409 12.7C58.2409 11.7 57.6409 10.6 56.6409 10.2C55.6409 9.8 54.5409 10.4 54.1409 11.4L52.4409 16.1C52.0409 17.1 52.6409 18.2 53.6409 18.6Z" fill="#EFEEEA"/>
<path d="M62.2409 23.6C62.8409 23.6 63.3409 23.4 63.7409 22.9L66.9409 19.1C67.6409 18.3 67.5409 17 66.7409 16.3C65.9409 15.6 64.6409 15.7 63.9409 16.5L60.7409 20.3C60.0409 21.1 60.1409 22.4 60.9409 23.1C61.3409 23.4 61.7409 23.6 62.2409 23.6Z" fill="#EFEEEA"/>
<path d="M74.0409 25.4C73.5409 24.5 72.3409 24.1 71.3409 24.7L67.0409 27.2C66.1409 27.7 65.7409 28.9 66.3409 29.9C66.7409 30.5 67.3409 30.9 68.0409 30.9C68.7409 30.9 68.7409 30.9 69.0409 30.6L73.3409 28.1C74.2409 27.6 74.6409 26.4 74.0409 25.4Z" fill="#EFEEEA"/>
</svg>
