<svg width="90" height="90" viewBox="0 0 90 90" fill="none" xmlns="http://www.w3.org/2000/svg">
<path d="M83.5083 39.24C84.2783 38.49 84.5483 37.38 84.2183 36.36C83.8883 35.34 83.0183 34.6 81.9483 34.45L60.3083 31.31C59.0383 31.13 57.9483 30.33 57.3783 29.18L47.6983 9.57C47.2183 8.6 46.2583 8 45.1783 8C44.0983 8 43.1383 8.6 42.6583 9.57L32.9783 29.18C32.4083 30.33 31.3183 31.12 30.0483 31.31L8.40828 34.45C7.33828 34.61 6.46828 35.34 6.13828 36.36C5.80828 37.38 6.07828 38.49 6.84828 39.24L22.5083 54.5C23.4283 55.39 23.8483 56.68 23.6283 57.95L19.9283 79.5C19.7483 80.56 20.1783 81.62 21.0483 82.25C21.5383 82.61 22.1183 82.79 22.6983 82.79C23.1483 82.79 23.5983 82.68 24.0083 82.46L43.3683 72.28C44.4983 71.68 45.8583 71.68 46.9883 72.28L66.3483 82.45C67.2983 82.95 68.4383 82.87 69.3083 82.24C70.1783 81.61 70.6083 80.55 70.4283 79.49L66.7283 57.94C66.5083 56.68 66.9283 55.39 67.8483 54.5L83.5083 39.23V39.24ZM65.0483 51.64C63.1883 53.45 62.3383 56.07 62.7783 58.63L66.0683 77.81L48.8483 68.76C46.5483 67.55 43.7983 67.55 41.5083 68.76L24.2883 77.81L27.5783 58.63C28.0183 56.07 27.1683 53.46 25.3083 51.64L11.3783 38.06L30.6283 35.26C33.1983 34.89 35.4183 33.27 36.5683 30.94L45.1783 13.49L53.7883 30.94C54.9383 33.27 57.1583 34.88 59.7283 35.26L78.9783 38.06L65.0483 51.64Z" fill="#EFEEEA"/>
<path d="M65.9583 41.41C65.1683 40.64 63.8983 40.67 63.1283 41.46L57.6683 47.13C54.9283 49.97 53.6583 53.85 54.1883 57.76L55.4183 66.95C55.5483 67.95 56.4083 68.68 57.3983 68.68C57.4883 68.68 57.5783 68.68 57.6683 68.66C58.7583 68.51 59.5283 67.51 59.3883 66.41L58.1583 57.22C57.7983 54.52 58.6683 51.85 60.5583 49.89L66.0183 44.22C66.7883 43.42 66.7583 42.16 65.9683 41.39L65.9583 41.41Z" fill="#EFEEEA"/>
</svg>
