<svg width="55" height="91" viewBox="0 0 55 91" fill="none" xmlns="http://www.w3.org/2000/svg">
<circle cx="10.5281" cy="4.11792" r="2.94116" fill="white"/>
<circle cx="19.646" cy="4.11728" r="3.52939" fill="white"/>
<circle cx="29.0576" cy="4.11763" r="4.11763" fill="white"/>
<circle cx="14.3518" cy="12.3524" r="2.94116" fill="white"/>
<circle cx="23.7634" cy="12.3528" r="3.52939" fill="white"/>
<circle cx="33.175" cy="12.3531" r="4.11763" fill="white"/>
<circle cx="19.0579" cy="20.5876" r="2.94116" fill="white"/>
<circle cx="28.4693" cy="20.588" r="3.52939" fill="white"/>
<circle cx="37.8808" cy="20.5883" r="4.11763" fill="white"/>
<circle cx="23.175" cy="28.823" r="2.94116" fill="white"/>
<circle cx="32.587" cy="28.8233" r="3.52939" fill="white"/>
<circle cx="41.999" cy="28.8237" r="4.11763" fill="white"/>
<circle cx="27.2928" cy="37.0582" r="2.94116" fill="white"/>
<circle cx="36.7046" cy="37.0586" r="3.52939" fill="white"/>
<circle cx="46.1162" cy="37.0582" r="4.11763" fill="white"/>
<circle cx="31.4106" cy="45.2937" r="2.94116" fill="white"/>
<circle cx="40.8222" cy="45.294" r="3.52939" fill="white"/>
<circle cx="50.2338" cy="45.2934" r="4.11763" fill="white"/>
<circle cx="2.94116" cy="2.94116" r="2.94116" transform="matrix(1 -8.74228e-08 -8.74228e-08 -1 7.58716 89.4111)" fill="white"/>
<circle cx="3.52939" cy="3.52939" r="3.52939" transform="matrix(1 -8.74228e-08 -8.74228e-08 -1 16.4105 89.999)" fill="white"/>
<circle cx="4.11763" cy="4.11763" r="4.11763" transform="matrix(1 -8.74228e-08 -8.74228e-08 -1 25.2339 90.5879)" fill="white"/>
<circle cx="2.94116" cy="2.94116" r="2.94116" transform="matrix(1 -8.74228e-08 -8.74228e-08 -1 11.7048 81.1755)" fill="white"/>
<circle cx="3.52939" cy="3.52939" r="3.52939" transform="matrix(1 -8.74228e-08 -8.74228e-08 -1 20.5283 81.7646)" fill="white"/>
<circle cx="4.11763" cy="4.11763" r="4.11763" transform="matrix(1 -8.74228e-08 -8.74228e-08 -1 29.3517 82.3528)" fill="white"/>
<circle cx="2.94116" cy="2.94116" r="2.94116" transform="matrix(1 -8.74228e-08 -8.74228e-08 -1 16.4106 72.9404)" fill="white"/>
<circle cx="3.52939" cy="3.52939" r="3.52939" transform="matrix(1 -8.74228e-08 -8.74228e-08 -1 25.2339 73.5283)" fill="white"/>
<circle cx="4.11763" cy="4.11763" r="4.11763" transform="matrix(1 -8.74228e-08 -8.74228e-08 -1 34.0576 74.1173)" fill="white"/>
<circle cx="2.94116" cy="2.94116" r="2.94116" transform="matrix(1 -8.74228e-08 -8.74228e-08 -1 20.5283 64.7053)" fill="white"/>
<circle cx="3.52939" cy="3.52939" r="3.52939" transform="matrix(1 -8.74228e-08 -8.74228e-08 -1 29.3517 65.2939)" fill="white"/>
<circle cx="4.11763" cy="4.11763" r="4.11763" transform="matrix(1 -8.74228e-08 -8.74228e-08 -1 38.175 65.8818)" fill="white"/>
<circle cx="2.94116" cy="2.94116" r="2.94116" transform="matrix(1 -8.74228e-08 -8.74228e-08 -1 24.646 56.4705)" fill="white"/>
<circle cx="2.29307" cy="4.11716" r="2.05881" fill="white"/>
<circle cx="6.11643" cy="12.3526" r="2.05881" fill="white"/>
<circle cx="10.8225" cy="20.5881" r="2.05881" fill="white"/>
<circle cx="14.9397" cy="28.8225" r="2.05881" fill="white"/>
<circle cx="19.0578" cy="37.0588" r="2.05881" fill="white"/>
<circle cx="23.1755" cy="45.2942" r="2.05881" fill="white"/>
<circle cx="2.05881" cy="2.05881" r="2.05881" transform="matrix(1 -8.74228e-08 -8.74228e-08 -1 0.234253 88.5292)" fill="white"/>
<circle cx="2.05881" cy="2.05881" r="2.05881" transform="matrix(1 -8.74228e-08 -8.74228e-08 -1 4.35193 80.2937)" fill="white"/>
<circle cx="2.05881" cy="2.05881" r="2.05881" transform="matrix(1 -8.74228e-08 -8.74228e-08 -1 9.05762 72.0586)" fill="white"/>
<circle cx="2.05881" cy="2.05881" r="2.05881" transform="matrix(1 -8.74228e-08 -8.74228e-08 -1 13.1753 63.8232)" fill="white"/>
<circle cx="2.05881" cy="2.05881" r="2.05881" transform="matrix(1 -8.74228e-08 -8.74228e-08 -1 17.2931 55.588)" fill="white"/>
<circle cx="3.52939" cy="3.52939" r="3.52939" transform="matrix(1 -8.74228e-08 -8.74228e-08 -1 33.4694 57.0585)" fill="white"/>
<circle cx="4.11763" cy="4.11763" r="4.11763" transform="matrix(1 -8.74228e-08 -8.74228e-08 -1 42.2928 57.6464)" fill="white"/>
</svg>
