<svg width="55" height="91" viewBox="0 0 55 91" fill="none" xmlns="http://www.w3.org/2000/svg">
<circle cx="10.2942" cy="4.11792" r="2.94116" fill="#F9B934"/>
<circle cx="19.4117" cy="4.11728" r="3.52939" fill="#F9B934"/>
<circle cx="28.8234" cy="4.11763" r="4.11763" fill="#F9B934"/>
<circle cx="14.1176" cy="12.3524" r="2.94116" fill="#F9B934"/>
<circle cx="23.5291" cy="12.3528" r="3.52939" fill="#F9B934"/>
<circle cx="32.9411" cy="12.3531" r="4.11763" fill="#F9B934"/>
<circle cx="18.8235" cy="20.5876" r="2.94116" fill="#F9B934"/>
<circle cx="28.235" cy="20.588" r="3.52939" fill="#F9B934"/>
<circle cx="37.6469" cy="20.5883" r="4.11763" fill="#F9B934"/>
<circle cx="22.9412" cy="28.823" r="2.94116" fill="#F9B934"/>
<circle cx="32.3531" cy="28.8233" r="3.52939" fill="#F9B934"/>
<circle cx="41.7646" cy="28.8237" r="4.11763" fill="#F9B934"/>
<circle cx="27.0587" cy="37.0582" r="2.94116" fill="#F9B934"/>
<circle cx="36.4703" cy="37.0586" r="3.52939" fill="#F9B934"/>
<circle cx="45.8819" cy="37.0582" r="4.11763" fill="#F9B934"/>
<circle cx="31.1764" cy="45.2937" r="2.94116" fill="#F9B934"/>
<circle cx="40.588" cy="45.294" r="3.52939" fill="#F9B934"/>
<circle cx="49.9995" cy="45.2934" r="4.11763" fill="#F9B934"/>
<circle cx="2.94116" cy="2.94116" r="2.94116" transform="matrix(1 -8.74228e-08 -8.74228e-08 -1 7.35291 89.4111)" fill="#F9B934"/>
<circle cx="3.52939" cy="3.52939" r="3.52939" transform="matrix(1 -8.74228e-08 -8.74228e-08 -1 16.1763 89.999)" fill="#F9B934"/>
<circle cx="4.11763" cy="4.11763" r="4.11763" transform="matrix(1 -8.74228e-08 -8.74228e-08 -1 24.9995 90.5879)" fill="#F9B934"/>
<circle cx="2.94116" cy="2.94116" r="2.94116" transform="matrix(1 -8.74228e-08 -8.74228e-08 -1 11.4707 81.1755)" fill="#F9B934"/>
<circle cx="3.52939" cy="3.52939" r="3.52939" transform="matrix(1 -8.74228e-08 -8.74228e-08 -1 20.2939 81.7646)" fill="#F9B934"/>
<circle cx="4.11763" cy="4.11763" r="4.11763" transform="matrix(1 -8.74228e-08 -8.74228e-08 -1 29.1174 82.3528)" fill="#F9B934"/>
<circle cx="2.94116" cy="2.94116" r="2.94116" transform="matrix(1 -8.74228e-08 -8.74228e-08 -1 16.1763 72.9404)" fill="#F9B934"/>
<circle cx="3.52939" cy="3.52939" r="3.52939" transform="matrix(1 -8.74228e-08 -8.74228e-08 -1 24.9995 73.5283)" fill="#F9B934"/>
<circle cx="4.11763" cy="4.11763" r="4.11763" transform="matrix(1 -8.74228e-08 -8.74228e-08 -1 33.8235 74.1173)" fill="#F9B934"/>
<circle cx="2.94116" cy="2.94116" r="2.94116" transform="matrix(1 -8.74228e-08 -8.74228e-08 -1 20.2941 64.7053)" fill="#F9B934"/>
<circle cx="3.52939" cy="3.52939" r="3.52939" transform="matrix(1 -8.74228e-08 -8.74228e-08 -1 29.1174 65.2939)" fill="#F9B934"/>
<circle cx="4.11763" cy="4.11763" r="4.11763" transform="matrix(1 -8.74228e-08 -8.74228e-08 -1 37.9408 65.8818)" fill="#F9B934"/>
<circle cx="2.94116" cy="2.94116" r="2.94116" transform="matrix(1 -8.74228e-08 -8.74228e-08 -1 24.4119 56.4705)" fill="#F9B934"/>
<circle cx="2.05881" cy="4.11716" r="2.05881" fill="#F9B934"/>
<circle cx="5.8823" cy="12.3526" r="2.05881" fill="#F9B934"/>
<circle cx="10.5882" cy="20.5881" r="2.05881" fill="#F9B934"/>
<circle cx="14.7058" cy="28.8225" r="2.05881" fill="#F9B934"/>
<circle cx="18.8235" cy="37.0588" r="2.05881" fill="#F9B934"/>
<circle cx="22.9411" cy="45.2942" r="2.05881" fill="#F9B934"/>
<circle cx="2.05881" cy="2.05881" r="2.05881" transform="matrix(1 -8.74228e-08 -8.74228e-08 -1 0 88.5292)" fill="#F9B934"/>
<circle cx="2.05881" cy="2.05881" r="2.05881" transform="matrix(1 -8.74228e-08 -8.74228e-08 -1 4.1178 80.2937)" fill="#F9B934"/>
<circle cx="2.05881" cy="2.05881" r="2.05881" transform="matrix(1 -8.74228e-08 -8.74228e-08 -1 8.82324 72.0586)" fill="#F9B934"/>
<circle cx="2.05881" cy="2.05881" r="2.05881" transform="matrix(1 -8.74228e-08 -8.74228e-08 -1 12.9409 63.8232)" fill="#F9B934"/>
<circle cx="2.05881" cy="2.05881" r="2.05881" transform="matrix(1 -8.74228e-08 -8.74228e-08 -1 17.0588 55.588)" fill="#F9B934"/>
<circle cx="3.52939" cy="3.52939" r="3.52939" transform="matrix(1 -8.74228e-08 -8.74228e-08 -1 33.2352 57.0585)" fill="#F9B934"/>
<circle cx="4.11763" cy="4.11763" r="4.11763" transform="matrix(1 -8.74228e-08 -8.74228e-08 -1 42.0586 57.6464)" fill="#F9B934"/>
</svg>
