<svg width="535" height="404" viewBox="0 0 535 404" fill="none" xmlns="http://www.w3.org/2000/svg">
<path d="M241.889 72.1426H211.92V102.111H241.889V72.1426Z" stroke="#F9B934" stroke-width="2" stroke-linecap="round" stroke-linejoin="round"/>
<path d="M160.67 261.216V192.113C160.67 190.773 161.763 189.679 163.104 189.679H238.047V159.726H139.074C134.453 159.726 130.709 163.47 130.709 168.091V285.246C130.709 289.866 134.453 293.61 139.074 293.61H238.047V263.657H163.119C161.763 263.657 160.67 262.564 160.67 261.223V261.216Z" stroke="#F9B934" stroke-width="2" stroke-linecap="round" stroke-linejoin="round"/>
<path d="M318.079 188.111H288.126V262.043H318.079V188.111Z" stroke="white" stroke-width="2" stroke-linecap="round" stroke-linejoin="round"/>
<path d="M443.677 175.369V124.284H351.196V175.369H428.753L443.677 195.161V175.369Z" stroke="#718096" stroke-width="2" stroke-linecap="round" stroke-linejoin="round"/>
<path d="M375.848 155.076C379.123 155.076 381.779 152.421 381.779 149.145C381.779 145.87 379.123 143.214 375.848 143.214C372.572 143.214 369.917 145.87 369.917 149.145C369.917 152.421 372.572 155.076 375.848 155.076Z" stroke="#F9B934" stroke-width="2" stroke-linecap="round" stroke-linejoin="round"/>
<path d="M395.999 155.076C399.274 155.076 401.93 152.421 401.93 149.145C401.93 145.87 399.274 143.214 395.999 143.214C392.723 143.214 390.068 145.87 390.068 149.145C390.068 152.421 392.723 155.076 395.999 155.076Z" stroke="white" stroke-width="2" stroke-linecap="round" stroke-linejoin="round"/>
<path d="M416.15 155.076C419.426 155.076 422.081 152.421 422.081 149.145C422.081 145.87 419.426 143.214 416.15 143.214C412.875 143.214 410.219 145.87 410.219 149.145C410.219 152.421 412.875 155.076 416.15 155.076Z" stroke="#718096" stroke-width="2" stroke-linecap="round" stroke-linejoin="round"/>
<path d="M420.171 224.89H390.203V254.858H420.171V224.89Z" stroke="#718096" stroke-width="2" stroke-linecap="round" stroke-linejoin="round"/>
<path d="M397.437 238.728L404.049 245.34L414.233 235.149" stroke="white" stroke-width="2" stroke-linecap="round" stroke-linejoin="round"/>
<path d="M125.459 36.2304H78.1856L71.461 29.5059H51.6693V82.3511H125.459V36.2304Z" stroke="#F9B934" stroke-width="2" stroke-linecap="round" stroke-linejoin="round"/>
<path d="M134.595 67.3668V21.246H87.3213L80.5968 14.5215H60.8051" stroke="#718096" stroke-width="2" stroke-linecap="round" stroke-linejoin="round"/>
<path d="M130.087 74.3235V28.2103H82.8134L76.0888 21.4783H56.2971" stroke="white" stroke-width="2" stroke-linecap="round" stroke-linejoin="round"/>
<path d="M303.001 29.3615H322.403C322.403 40.0025 313.649 48.7638 303.001 48.7638C292.353 48.7638 283.599 40.01 283.599 29.3615C283.599 18.7131 292.353 9.95923 303.001 9.95923C306.333 9.95923 309.613 10.8204 312.519 12.4528L303.001 29.354V29.3615Z" stroke="#F9B934" stroke-width="2" stroke-linecap="round" stroke-linejoin="round"/>
<path d="M471.488 12.1685H427.809V67.6946H471.488V12.1685Z" stroke="white" stroke-width="2" stroke-linecap="round" stroke-linejoin="round"/>
<path d="M439.887 9.02312L432.249 1.38501L415.738 17.8968L423.376 25.5349L439.887 9.02312Z" stroke="#718096" stroke-width="2" stroke-linecap="round" stroke-linejoin="round"/>
<path d="M459.103 9.02312L466.741 1.38501L483.252 17.8968L475.614 25.5349L459.103 9.02312Z" stroke="#718096" stroke-width="2" stroke-linecap="round" stroke-linejoin="round"/>
<path d="M81.9306 365.91C90.6073 365.91 97.6412 358.876 97.6412 350.199C97.6412 341.523 90.6073 334.489 81.9306 334.489C73.2539 334.489 66.2201 341.523 66.2201 350.199C66.2201 358.876 73.2539 365.91 81.9306 365.91Z" stroke="#718096" stroke-width="2" stroke-linecap="round" stroke-linejoin="round"/>
<path d="M58.2374 373.061L70.1214 361.177" stroke="#718096" stroke-width="2" stroke-linecap="round" stroke-linejoin="round"/>
<path d="M82.9714 340.045C87.9886 340.045 92.0623 344.111 92.0623 349.136" stroke="white" stroke-width="2" stroke-linecap="round" stroke-linejoin="round"/>
<path d="M1 236.297V203.124H61.0491V236.297H10.6899L1 249.147V236.297Z" stroke="white" stroke-width="2" stroke-linecap="round" stroke-linejoin="round"/>
<path d="M45.039 223.118C47.1647 223.118 48.888 221.395 48.888 219.269C48.888 217.143 47.1647 215.42 45.039 215.42C42.9132 215.42 41.1899 217.143 41.1899 219.269C41.1899 221.395 42.9132 223.118 45.039 223.118Z" stroke="#F9B934" stroke-width="2" stroke-linecap="round" stroke-linejoin="round"/>
<path d="M31.9568 223.118C34.0825 223.118 35.8058 221.395 35.8058 219.269C35.8058 217.143 34.0825 215.42 31.9568 215.42C29.831 215.42 28.1078 217.143 28.1078 219.269C28.1078 221.395 29.831 223.118 31.9568 223.118Z" stroke="white" stroke-width="2" stroke-linecap="round" stroke-linejoin="round"/>
<path d="M18.8746 223.118C21.0004 223.118 22.7237 221.395 22.7237 219.269C22.7237 217.143 21.0004 215.42 18.8746 215.42C16.7489 215.42 15.0256 217.143 15.0256 219.269C15.0256 221.395 16.7489 223.118 18.8746 223.118Z" stroke="#718096" stroke-width="2" stroke-linecap="round" stroke-linejoin="round"/>
<path d="M287.56 398.267V402.775H358.646V398.267" stroke="#718096" stroke-width="2" stroke-linecap="round" stroke-linejoin="round"/>
<path d="M284.654 344.141H361.559" stroke="white" stroke-width="2" stroke-linecap="round" stroke-linejoin="round"/>
<path d="M280.76 391.273V397.413H365.453V391.273" stroke="#F9B934" stroke-width="2" stroke-linecap="round" stroke-linejoin="round"/>
<path d="M316.869 357.515H287.455V376.131H316.869V357.515Z" stroke="white" stroke-width="2" stroke-linecap="round" stroke-linejoin="round"/>
<path d="M369.347 334.489H276.866V391.273H369.347V334.489Z" stroke="white" stroke-width="2" stroke-linecap="round" stroke-linejoin="round"/>
<path d="M326.132 360.548H355.449" stroke="white" stroke-width="2" stroke-linecap="round" stroke-linejoin="round"/>
<path d="M326.132 366.823H360.623" stroke="white" stroke-width="2" stroke-linecap="round" stroke-linejoin="round"/>
<path d="M326.132 373.099H351.233" stroke="white" stroke-width="2" stroke-linecap="round" stroke-linejoin="round"/>
<path d="M319.865 17.9343L329.989 1.38501C335.748 4.90453 339.267 11.1873 339.267 17.9343C339.267 18.1364 339.267 18.3386 339.26 18.5408L319.872 17.9343H319.865Z" stroke="white" stroke-width="2" stroke-linecap="round" stroke-linejoin="round"/>
<path d="M526.871 299.154L511.333 314.693H503.298L489.654 328.336H477.598L458.892 347.042L452.332 347.08L475.756 323.656H487.273L501.253 309.675H509.356L523.374 295.657L517.166 289.449H534V306.283L526.871 299.154Z" stroke="#F9B934" stroke-width="2" stroke-linecap="round" stroke-linejoin="round"/>
</svg>
