<svg width="1862" height="431" viewBox="0 0 1862 431" fill="none" xmlns="http://www.w3.org/2000/svg">
<path d="M3 428.421H1369.41C1375.44 428.421 1380.32 423.531 1380.32 417.511C1380.32 411.791 1375.9 407.021 1370.19 406.631C1287.94 401.051 1224.92 369.431 1224.92 331.251V191.071L1374.22 265.931C1378.2 267.931 1382.89 265.031 1382.89 260.581C1382.89 254.801 1378.66 247.951 1373.48 245.361L1162.09 139.661C1157.73 137.481 1157.73 131.261 1162.09 129.081L1387.44 16.401C1390.56 14.841 1392.16 14.041 1393.79 13.711C1394.15 13.641 1394.53 13.601 1394.89 13.571C1398.77 13.311 1399.77 13.811 1404.94 16.401L1630.29 129.081C1634.65 131.261 1634.65 137.481 1630.29 139.661L1609.61 150.001V249.791L1627.74 281.991C1627.74 281.991 1622.55 293.791 1604 293.791C1586.95 293.791 1582.84 281.991 1582.84 281.991L1598.49 249.791V155.561L1572.95 168.331L1413.62 247.991C1409.3 250.151 1407.18 255.321 1409.1 259.761C1411.19 264.601 1416.85 266.581 1421.45 264.281L1567.47 191.071V331.251C1567.47 369.431 1504.45 401.051 1422.2 406.631C1416.49 407.021 1412.07 411.791 1412.07 417.511C1412.07 423.541 1416.96 428.421 1422.98 428.421H1859" stroke="#CE9021" stroke-width="5" stroke-linecap="round" stroke-linejoin="round"/>
<path d="M2 416.921H1363.91C1369.94 416.921 1374.82 412.031 1374.82 406.011C1374.82 400.291 1370.4 395.521 1364.69 395.131C1282.44 389.551 1219.42 357.931 1219.42 319.751V179.571L1368.72 254.431C1372.7 256.431 1377.39 253.531 1377.39 249.081C1377.39 243.301 1373.16 236.451 1367.98 233.861L1156.59 128.161C1152.23 125.981 1152.23 119.761 1156.59 117.581L1381.95 4.89121C1385.07 3.33121 1386.67 2.53121 1388.3 2.20121C1388.66 2.13121 1389.04 2.09121 1389.4 2.06121C1393.28 1.80121 1394.28 2.30121 1399.45 4.89121L1624.8 117.571C1629.16 119.751 1629.16 125.971 1624.8 128.151L1604.12 138.491V238.281L1622.25 270.481C1622.25 270.481 1617.06 282.281 1598.51 282.281C1581.46 282.281 1577.35 270.481 1577.35 270.481L1593 238.281V144.051L1567.46 156.821L1408.13 236.481C1403.81 238.641 1401.69 243.811 1403.61 248.251C1405.7 253.091 1411.36 255.071 1415.96 252.771L1561.98 179.561V319.741C1561.98 357.921 1498.96 389.541 1416.71 395.121C1411 395.511 1406.58 400.281 1406.58 406.001C1406.58 412.031 1411.47 416.911 1417.49 416.911H1858" stroke="#192430" stroke-width="4" stroke-linecap="round" stroke-linejoin="round"/>
</svg>
