<?xml version="1.0" encoding="UTF-8"?>
<svg id="Layer_2" data-name="Layer 2" xmlns="http://www.w3.org/2000/svg" viewBox="0 0 802.07 953.93">
  <defs>
    <style>
      .cls-1 {
        fill: #2d3748;
      }

      .cls-1, .cls-2, .cls-3, .cls-4, .cls-5, .cls-6, .cls-7 {
        stroke-width: 0px;
      }

      .cls-2 {
        fill: #ce9021;
      }

      .cls-3 {
        fill: #222b38;
      }

      .cls-4 {
        fill: #f9b934;
      }

      .cls-5 {
        fill: #eff2f5;
      }

      .cls-6 {
        fill: #617184;
      }

      .cls-7 {
        fill: #718096;
      }
    </style>
  </defs>
  <g id="Layer_2-2" data-name="Layer 2">
    <g>
      <g>
        <path class="cls-5" d="M620.77,175.86H53.93c-29.78,0-53.93,24.14-53.93,53.93v670.21c0,29.78,24.14,53.93,53.93,53.93h567.52v-174.23h180.62v-429.61h-181.29v-174.23Z"/>
        <rect class="cls-5" x="621.29" width="180.77" height="175.86"/>
      </g>
      <path class="cls-4" d="M393.24,175.86c-1.49,6.7-2.98,9.95-3.39,10.77h22.4c-.41-.82-1.9-4.08-3.39-10.77h-15.61Z"/>
      <path class="cls-7" d="M412.28,186.63h18.97s-4.08-3.06-8.16-10.77h-14.21c1.49,6.7,2.99,9.95,3.4,10.77Z"/>
      <path class="cls-1" d="M370.8,186.65h19c.41-.82,1.91-4.08,3.4-10.79h-14.24c-4.09,7.73-8.17,10.79-8.17,10.79Z"/>
      <path class="cls-2" d="M392.7,178.09c-1.3,5.21-2.5,7.82-2.87,8.57h22.43c-.37-.72-1.58-3.36-2.87-8.57h-16.69Z"/>
      <path class="cls-6" d="M424.31,178.09h-14.94c1.3,5.21,2.5,7.82,2.87,8.57h19s-3.3-2.47-6.93-8.57Z"/>
      <path class="cls-3" d="M377.76,178.09c-3.63,6.1-6.93,8.57-6.93,8.57h19c.37-.72,1.58-3.36,2.87-8.57,0,0-14.94,0-14.94,0Z"/>
      <g>
        <path class="cls-7" d="M412.02,188.66c3.37,22.97,8.1,32.45,8.71,33.63h33.09s-12.09-9.01-20.54-33.34c-3.5-10.05-9.64-9.21-9.64-9.21h-14.65c.89.78,2.17,2.97,3.04,8.92h-.02Z"/>
        <path class="cls-4" d="M412.02,188.66c-.87-5.95-2.13-8.14-3.04-8.92h-15.89c-.89.78-2.17,2.97-3.04,8.92-3.37,22.97-8.1,32.45-8.71,33.63h39.42c-.63-1.19-5.34-10.66-8.71-33.63h-.02Z"/>
        <path class="cls-1" d="M393.09,179.74h-14.65s-6.16-.83-9.64,9.21c-8.45,24.32-20.54,33.34-20.54,33.34h33.09c.63-1.19,5.34-10.66,8.71-33.63.87-5.95,2.13-8.14,3.04-8.92h-.02Z"/>
        <path class="cls-6" d="M441.65,207.25h-26.27c2.3,9.16,4.41,13.76,5.06,15.04h33.39s-5.78-4.32-12.18-15.04Z"/>
        <path class="cls-3" d="M360.4,207.25c-6.4,10.72-12.18,15.04-12.18,15.04h33.39c.65-1.28,2.76-5.88,5.06-15.04h-26.27Z"/>
        <path class="cls-2" d="M386.38,207.25c-2.3,9.16-4.41,13.76-5.06,15.04h39.42c-.65-1.28-2.76-5.88-5.06-15.04h-29.29Z"/>
      </g>
      <g>
        <path class="cls-7" d="M420.49,226.22c5.25,35.67,12.33,52.9,14.7,57.96h57.81s-21.04-15.67-35.76-58.03c-6.08-17.5-16.8-16.06-16.8-16.06h-25.81c1.59,1,4.13,4.47,5.86,16.11v.02Z"/>
        <path class="cls-1" d="M387.55,210.09h-25.81s-10.72-1.45-16.8,16.06c-14.74,42.35-35.76,58.03-35.76,58.03h57.81c2.37-5.04,9.46-22.29,14.7-57.96,1.71-11.64,4.26-15.11,5.86-16.11v-.02Z"/>
        <path class="cls-4" d="M420.49,226.22c-1.71-11.64-4.26-15.11-5.86-16.11h-27.09c-1.59,1-4.13,4.47-5.86,16.11-5.25,35.67-12.33,52.9-14.7,57.96h68.19c-2.37-5.04-9.46-22.29-14.7-57.96h.02Z"/>
        <path class="cls-6" d="M471.76,258.02h-45.81c4,15.96,7.69,23.99,8.83,26.23h58.24s-10.1-7.53-21.25-26.23h0Z"/>
        <path class="cls-3" d="M330.31,258.16c-11.09,18.6-21.14,26.1-21.14,26.1h57.92c1.11-2.22,4.8-10.22,8.79-26.1h-45.57Z"/>
        <path class="cls-2" d="M375.61,258.03c-3.99,15.96-7.69,23.97-8.83,26.22h68.69c-1.13-2.24-4.82-10.25-8.83-26.22h-51.06.02Z"/>
      </g>
      <g>
        <path class="cls-7" d="M436.36,293.97c9.55,64.97,22.45,96.37,26.77,105.57h105.33s-38.32-28.55-65.15-105.7c-11.09-31.87-30.59-29.24-30.59-29.24h-47c2.89,1.82,7.55,8.14,10.66,29.37h-.02Z"/>
        <path class="cls-1" d="M376.37,264.6h-47s-19.5-2.63-30.59,29.24c-26.83,77.15-65.15,105.7-65.15,105.7h105.33c4.34-9.2,17.22-40.6,26.77-105.57,3.11-21.21,7.77-27.53,10.66-29.37h-.02Z"/>
        <path class="cls-4" d="M436.36,293.97c-3.11-21.21-7.77-27.53-10.66-29.37h-49.34c-2.89,1.82-7.55,8.14-10.66,29.37-9.55,64.97-22.45,96.37-26.77,105.57h124.2c-4.34-9.2-17.22-40.6-26.77-105.57h0Z"/>
        <path class="cls-6" d="M529.77,351.9h-83.45c7.29,29.09,14.02,43.7,16.07,47.78h106.07s-18.41-13.72-38.69-47.78Z"/>
        <path class="cls-3" d="M272.09,352.15c-20.19,33.89-38.49,47.54-38.49,47.54h105.51c2.04-4.06,8.75-18.6,16-47.54h-83.02Z"/>
        <path class="cls-2" d="M354.58,351.92c-7.29,29.07-14.02,43.68-16.07,47.76h125.15c-2.06-4.08-8.79-18.69-16.07-47.76h-93.02.02Z"/>
      </g>
      <g>
        <path class="cls-4" d="M465.86,418.32c-5.71-38.92-14.24-50.52-19.54-53.9h-90.57c-5.3,3.36-13.83,14.98-19.54,53.9-18.89,128.52-44.92,185.48-50.71,196.99h231.09c-5.8-11.51-31.82-68.47-50.71-196.99h-.02Z"/>
        <path class="cls-7" d="M465.86,418.32c18.89,128.52,44.92,185.48,50.71,196.99h195.73s-71.25-53.1-121.14-196.53c-20.62-59.26-56.88-54.36-56.88-54.36h-87.96c5.3,3.36,13.83,14.98,19.54,53.9h0Z"/>
        <path class="cls-1" d="M355.75,364.42h-87.96s-36.28-4.91-56.88,54.36c-49.89,143.43-121.14,196.53-121.14,196.53h195.73c5.8-11.51,31.82-68.47,50.71-196.99,5.71-38.92,14.24-50.52,19.54-53.9h0Z"/>
        <path class="cls-2" d="M315.14,527.11c-13.44,53.69-25.88,80.65-29.66,88.18h231.09c-3.78-7.53-16.22-34.5-29.66-88.18h-171.76Z"/>
        <path class="cls-6" d="M640.9,527.11h-154c13.44,53.69,25.88,80.65,29.66,88.18h195.73s-33.97-25.31-71.42-88.18h.02Z"/>
        <path class="cls-3" d="M161.17,527.11c-37.45,62.87-71.42,88.18-71.42,88.18h195.73c3.78-7.53,16.22-34.5,29.66-88.18h-154,.02Z"/>
      </g>
      <path class="cls-1" d="M319.15,544.06h-150.97s-63.39-8.57-99.41,94.98c-21.46,61.7-45.19,113.83-68.76,157.37v103.59c0,29.78,24.14,53.93,53.93,53.93h156.98c18.27-44.95,51.36-143.82,76.95-317.93,9.01-61.35,22.04-83.84,31.3-91.94Z"/>
      <path class="cls-4" d="M514.31,635.91c-9.01-61.35-22.04-83.84-31.3-91.94h-163.77c-9.25,8.1-22.29,30.57-31.3,91.94-25.59,174.1-58.68,272.98-76.95,317.93h380.25c-18.27-44.95-51.36-143.82-76.95-317.93h0Z"/>
      <path class="cls-7" d="M621.6,779.69h171.78c-20.63-39.99-41.14-86.65-59.92-140.64-36.02-103.57-99.41-94.98-99.41-94.98h-150.97c9.25,8.1,22.29,30.57,31.3,91.94v-.02c25.59,174.1,58.68,272.98,76.95,317.93h30.29v-174.23Z"/>
      <path class="cls-7" d="M408.85,175.86c1.49,6.7,2.98,9.95,3.39,10.77h.04c-.41-.82-1.91-4.08-3.4-10.77h-.03Z"/>
    </g>
  </g>
</svg>