<svg width="19" height="20" viewBox="0 0 19 20" fill="none" xmlns="http://www.w3.org/2000/svg">
<path d="M18.363 13.785C17.4947 13.0012 17.1725 11.7676 17.5621 10.6528C17.6555 10.3854 17.5016 10.0942 17.2274 10.0213C15.4414 9.54617 14.5418 7.54075 15.3692 5.89215C15.5141 5.60324 15.3422 5.25555 15.0252 5.19516C13.3195 4.86914 12.2652 3.11854 12.7913 1.44871C12.8739 1.18669 12.7232 0.907561 12.4583 0.833212C11.6139 0.596273 10.7381 0.476196 9.85482 0.476196C4.55213 0.476196 0.238037 4.79023 0.238037 10.0929C0.238037 15.3956 4.55207 19.7096 9.85476 19.7096C13.5744 19.7096 16.8743 17.5836 18.4729 14.3632C18.57 14.1676 18.5251 13.9313 18.363 13.785ZM9.85482 18.7353C5.08936 18.7353 1.21248 14.8583 1.21248 10.093C1.21248 5.32765 5.08943 1.45058 9.85482 1.45058C10.4914 1.45058 11.1235 1.51991 11.74 1.65703C11.4105 3.55003 12.5084 5.37325 14.2747 5.99846C13.6491 7.91937 14.6124 10.0333 16.5093 10.8062C16.2453 12.0455 16.6051 13.3212 17.4393 14.2384C15.9561 16.9473 13.0922 18.7353 9.85482 18.7353Z" fill="white"/>
<path d="M4.67699 10.4449C3.83658 10.4449 3.15283 11.1286 3.15283 11.9691C3.15283 12.8095 3.83652 13.4933 4.67699 13.4933C5.51734 13.4933 6.20116 12.8096 6.20116 11.9691C6.20109 11.1286 5.51741 10.4449 4.67699 10.4449ZM4.67699 12.5189C4.37377 12.5189 4.12714 12.2723 4.12714 11.9691C4.12714 11.6659 4.37377 11.4192 4.67699 11.4192C4.98015 11.4192 5.22685 11.6659 5.22685 11.9691C5.22685 12.2723 4.98015 12.5189 4.67699 12.5189Z" fill="white"/>
<path d="M10.9049 6.30659C10.9049 5.34836 10.1253 4.56885 9.16718 4.56885C8.20902 4.56885 7.42944 5.34836 7.42944 6.30659C7.42944 7.26469 8.20895 8.04426 9.16718 8.04426C10.1254 8.04419 10.9049 7.26469 10.9049 6.30659ZM8.40381 6.30659C8.40381 5.88567 8.74627 5.54315 9.16725 5.54315C9.58822 5.54315 9.93061 5.88561 9.93061 6.30659C9.93061 6.72756 9.58816 7.06995 9.16725 7.06995C8.74633 7.06995 8.40381 6.72743 8.40381 6.30659Z" fill="white"/>
<path d="M10.6743 12.5191C9.41164 12.5191 8.38428 13.5464 8.38428 14.8092C8.38428 16.0719 9.41158 17.0993 10.6743 17.0993C11.9371 17.0993 12.9644 16.072 12.9644 14.8092C12.9644 13.5464 11.9371 12.5191 10.6743 12.5191ZM10.6743 16.1249C9.94883 16.1249 9.35865 15.5346 9.35865 14.8091C9.35865 14.0835 9.94889 13.4933 10.6743 13.4933C11.3998 13.4933 11.9901 14.0835 11.9901 14.8091C11.9901 15.5346 11.3999 16.1249 10.6743 16.1249Z" fill="white"/>
</svg>
