<svg width="1864" height="385" viewBox="0 0 1864 385" fill="none" xmlns="http://www.w3.org/2000/svg">
<path d="M3 341.1H1643.27C1652.11 341.1 1659.27 333.94 1659.27 325.1V30.16C1659.27 20.41 1651.36 12.5 1641.61 12.5H1196.67C1186.92 12.5 1179.01 20.41 1179.01 30.16V45.41H1611.47C1621.42 45.41 1629.48 53.47 1629.48 63.42C1629.48 73.37 1621.42 81.43 1611.47 81.43H1447.86C1440.25 81.43 1434.07 87.6 1434.07 95.22C1434.07 102.83 1440.24 109.01 1447.86 109.01H1616.59C1623.71 109.01 1629.47 114.78 1629.47 121.89C1629.47 129.01 1623.7 134.77 1616.59 134.77H1447.28C1439.98 134.77 1434.07 140.69 1434.07 147.98C1434.07 155.28 1439.99 161.19 1447.28 161.19H1614.06C1622.57 161.19 1629.48 168.09 1629.48 176.61C1629.48 185.12 1622.58 192.03 1614.06 192.03H1195.01C1186.17 192.03 1179.01 184.87 1179.01 176.03V84.13C1179.01 75.29 1186.17 68.13 1195.01 68.13H1342.33C1351.17 68.13 1358.33 75.29 1358.33 84.13V301.45C1358.33 310.29 1351.17 317.45 1342.33 317.45H1195.01C1186.17 317.45 1179.01 310.29 1179.01 301.45V243.86C1179.01 235.02 1186.17 227.86 1195.01 227.86H1620.48C1625.45 227.86 1629.48 231.89 1629.48 236.86V314H1450.08C1441.24 314 1434.08 306.84 1434.08 298V260.15C1434.08 251.31 1441.24 244.15 1450.08 244.15H1581.31C1590.15 244.15 1597.31 251.31 1597.31 260.15V365.79C1597.31 374.63 1604.47 381.79 1613.31 381.79H1861" stroke="#CE9021" stroke-width="5" stroke-linecap="round" stroke-linejoin="round"/>
<path d="M4 330.6H1634.77C1643.61 330.6 1650.77 323.44 1650.77 314.6V19.66C1650.77 9.91 1642.86 2 1633.11 2H1188.17C1178.42 2 1170.51 9.91 1170.51 19.66V34.91H1602.97C1612.92 34.91 1620.98 42.97 1620.98 52.92C1620.98 62.87 1612.92 70.93 1602.97 70.93H1439.36C1431.75 70.93 1425.57 77.1 1425.57 84.72C1425.57 92.33 1431.74 98.51 1439.36 98.51H1608.09C1615.21 98.51 1620.97 104.28 1620.97 111.39C1620.97 118.51 1615.2 124.27 1608.09 124.27H1438.78C1431.48 124.27 1425.57 130.19 1425.57 137.48C1425.57 144.78 1431.49 150.69 1438.78 150.69H1605.56C1614.07 150.69 1620.98 157.59 1620.98 166.11C1620.98 174.62 1614.08 181.53 1605.56 181.53H1186.51C1177.67 181.53 1170.51 174.37 1170.51 165.53V73.63C1170.51 64.79 1177.67 57.63 1186.51 57.63H1333.83C1342.67 57.63 1349.83 64.79 1349.83 73.63V290.95C1349.83 299.79 1342.67 306.95 1333.83 306.95H1186.51C1177.67 306.95 1170.51 299.79 1170.51 290.95V233.36C1170.51 224.52 1177.67 217.36 1186.51 217.36H1611.98C1616.95 217.36 1620.98 221.39 1620.98 226.36V303.5H1441.58C1432.74 303.5 1425.58 296.34 1425.58 287.5V249.65C1425.58 240.81 1432.74 233.65 1441.58 233.65H1572.81C1581.65 233.65 1588.81 240.81 1588.81 249.65V355.29C1588.81 364.13 1595.97 371.29 1604.81 371.29H1862" stroke="#192430" stroke-width="4" stroke-linecap="round" stroke-linejoin="round"/>
</svg>
