<svg width="1856" height="361" viewBox="0 0 1856 361" fill="none" xmlns="http://www.w3.org/2000/svg">
<path d="M1880 358.034H1791.75C1789.91 358.034 1788.42 356.54 1788.42 354.698V202.411C1788.42 196.486 1783.63 191.682 1777.71 191.682H1700.16C1694.25 191.682 1689.45 196.486 1689.45 202.411V354.698C1689.45 356.54 1687.96 358.034 1686.12 358.034H1653.05C1651.22 358.034 1649.72 356.54 1649.72 354.698V14.1296C1649.72 8.20535 1644.93 3.40125 1639.02 3.40125H1561.46C1555.55 3.40125 1550.75 8.20535 1550.75 14.1296V354.698C1550.75 356.54 1549.26 358.034 1547.43 358.034H1514.36C1512.52 358.034 1511.03 356.54 1511.03 354.698V276.289C1511.03 270.365 1506.23 265.561 1500.32 265.561H1422.77C1416.85 265.561 1412.06 270.365 1412.06 276.289V354.698C1412.06 356.54 1410.57 358.034 1408.73 358.034H1375.66C1373.82 358.034 1372.33 356.54 1372.33 354.698V82.7686C1372.33 76.8443 1367.54 72.0402 1361.62 72.0402H1284.07C1278.16 72.0402 1273.36 76.8443 1273.36 82.7686V354.698C1273.36 356.54 1271.87 358.034 1270.03 358.034H1236.96C1235.12 358.034 1233.63 356.54 1233.63 354.698V139.957C1233.63 134.033 1228.84 129.229 1222.93 129.229H1145.37C1139.46 129.229 1134.66 134.033 1134.66 139.957V354.686C1134.66 356.528 1133.17 358.021 1131.33 358.021H10.0566" stroke="#222B38" stroke-width="5" stroke-linecap="round" stroke-linejoin="round"/>
<path d="M1878.7 358.034H1779.27C1777.43 358.034 1775.94 356.54 1775.94 354.698V202.411C1775.94 196.486 1771.14 191.682 1765.23 191.682H1687.67C1681.76 191.682 1676.97 196.486 1676.97 202.411V354.698C1676.97 356.54 1675.48 358.034 1673.64 358.034H1640.57C1638.73 358.034 1637.24 356.54 1637.24 354.698V14.1296C1637.24 8.20535 1632.44 3.40125 1626.53 3.40125H1548.98C1543.06 3.40125 1538.27 8.20535 1538.27 14.1296V354.698C1538.27 356.54 1536.78 358.034 1534.94 358.034H1501.87C1500.03 358.034 1498.54 356.54 1498.54 354.698V276.289C1498.54 270.365 1493.75 265.561 1487.83 265.561H1410.28C1404.37 265.561 1399.57 270.365 1399.57 276.289V354.698C1399.57 356.54 1398.08 358.034 1396.24 358.034H1363.17C1361.34 358.034 1359.85 356.54 1359.85 354.698V82.7686C1359.85 76.8443 1355.05 72.0402 1349.14 72.0402H1271.58C1265.67 72.0402 1260.88 76.8443 1260.88 82.7686V354.698C1260.88 356.54 1259.38 358.034 1257.55 358.034H1224.48C1222.64 358.034 1221.15 356.54 1221.15 354.698V139.957C1221.15 134.033 1216.35 129.229 1210.44 129.229H1132.89C1126.97 129.229 1122.18 134.033 1122.18 139.957V354.686C1122.18 356.528 1120.69 358.021 1118.85 358.021H-11" stroke="#F9B934" stroke-width="4" stroke-linecap="round" stroke-linejoin="round"/>
</svg>
