<svg width="199" height="36" viewBox="0 0 199 36" fill="none" xmlns="http://www.w3.org/2000/svg">
<path d="M54.3781 27.7499H51.4439L51.0371 25.3485C49.7662 27.0767 48.0309 27.9371 45.8275 27.9371C44.373 27.9371 43.0698 27.6095 41.9285 26.9543C40.7836 26.299 39.8907 25.3521 39.2463 24.1137C38.6019 22.8752 38.2778 21.4243 38.2778 19.761C38.2778 18.1373 38.6054 16.708 39.2607 15.4695C39.9159 14.231 40.816 13.2733 41.9609 12.6001C43.1058 11.9232 44.3946 11.5848 45.8311 11.5848C46.994 11.5848 48.0165 11.7972 48.8878 12.2257C49.7626 12.6505 50.4683 13.2409 51.0083 13.9898V5.90723H54.3781V27.7499ZM51.0407 19.8222C51.0407 18.2201 50.6159 16.924 49.7626 15.9375C48.9094 14.951 47.7861 14.4542 46.3928 14.4542C44.9995 14.4542 43.8762 14.9474 43.023 15.9375C42.1697 16.924 41.7449 18.1985 41.7449 19.761C41.7449 21.3415 42.1697 22.6268 43.023 23.6132C43.8762 24.5997 44.9995 25.0965 46.3928 25.0965C47.7861 25.0965 48.9094 24.6069 49.7626 23.6312C50.6123 22.652 51.0407 21.3847 51.0407 19.8222Z" fill="#222B38"/>
<path d="M61.0566 11.7721V27.75H57.6868V11.7721H61.0566Z" fill="#222B38"/>
<path d="M79.8715 27.0946C79.8715 29.3412 79.2055 31.0837 77.8734 32.3222C76.5413 33.5607 74.482 34.1799 71.6954 34.1799C69.5316 34.1799 67.7747 33.6975 66.421 32.729C65.0673 31.7605 64.3185 30.3925 64.1745 28.6248H67.6055C67.8143 29.5176 68.2931 30.2124 69.042 30.6985C69.7908 31.1881 70.7593 31.4329 71.9438 31.4329C75.0004 31.4329 76.5305 29.946 76.5305 26.9722V25.1937C75.364 26.9398 73.6287 27.8147 71.321 27.8147C69.8665 27.8147 68.5632 27.4871 67.4219 26.8318C66.277 26.1766 65.3842 25.2405 64.7397 24.0236C64.0953 22.8067 63.7712 21.3666 63.7712 19.7033C63.7712 18.1012 64.0989 16.6863 64.7541 15.4586C65.4093 14.231 66.3094 13.2805 67.4543 12.6037C68.5992 11.9268 69.888 11.5884 71.3245 11.5884C72.5306 11.5884 73.5711 11.826 74.446 12.3048C75.3208 12.7837 76.0265 13.4389 76.5665 14.2706L76.9409 11.7756H79.8751V27.0946H79.8715ZM76.5341 19.7609C76.5341 18.1804 76.1093 16.8951 75.256 15.9087C74.4028 14.9222 73.2795 14.4254 71.8862 14.4254C70.4929 14.4254 69.3696 14.915 68.5164 15.8907C67.6631 16.8699 67.2383 18.1372 67.2383 19.6961C67.2383 21.255 67.6631 22.5259 68.5164 23.5016C69.3696 24.4809 70.4929 24.9669 71.8862 24.9669C73.2795 24.9669 74.4028 24.4845 75.256 23.516C76.1057 22.5547 76.5341 21.3018 76.5341 19.7609Z" fill="#222B38"/>
<path d="M86.5463 11.7721V27.75H83.1765V11.7721H86.5463Z" fill="#222B38"/>
<path d="M88.1089 14.7385V11.7755H90.8847V7.31482H94.2869V11.7755H98.1248V14.7385H94.2869V23.0695C94.2869 23.6923 94.4129 24.1352 94.6613 24.3944C94.9098 24.6536 95.3382 24.7832 95.9394 24.7832H98.4992V27.7462H95.2554C93.7361 27.7462 92.6308 27.3934 91.9324 26.6841C91.2339 25.9785 90.8883 24.884 90.8883 23.4079V14.7349H88.1089V14.7385Z" fill="#222B38"/>
<path d="M115.41 27.7499H113.631C112.591 27.7499 111.842 27.5303 111.385 27.0946C110.927 26.659 110.697 26.0218 110.697 25.1901C109.491 27.019 107.734 27.9371 105.423 27.9371C103.633 27.9371 102.197 27.5195 101.117 26.6878C100.033 25.8562 99.4929 24.7113 99.4929 23.2568C99.4929 21.6151 100.076 20.3514 101.239 19.4657C102.402 18.5801 104.098 18.1408 106.326 18.1408H110.351V17.1724C110.351 16.2795 110.038 15.5775 109.415 15.0662C108.792 14.555 107.928 14.303 106.827 14.303C105.851 14.303 105.044 14.5154 104.407 14.9438C103.774 15.3686 103.392 15.9375 103.27 16.6431H99.9609C100.127 15.041 100.836 13.7989 102.081 12.9133C103.331 12.0276 104.962 11.5884 106.981 11.5884C109.124 11.5884 110.776 12.0888 111.943 13.0861C113.109 14.0833 113.689 15.5199 113.689 17.392V23.696C113.689 24.4449 114.041 24.8193 114.751 24.8193H115.406V27.7499H115.41ZM106.175 20.6358C105.134 20.6358 104.335 20.8374 103.774 21.2442C103.212 21.6511 102.931 22.2487 102.931 23.0372C102.931 23.7248 103.198 24.2756 103.727 24.6897C104.256 25.1073 104.98 25.3125 105.894 25.3125C107.287 25.3125 108.375 24.9381 109.156 24.1892C109.937 23.4404 110.337 22.4431 110.358 21.1938V20.6322H106.175V20.6358Z" fill="#222B38"/>
<path d="M120.619 5.90723V27.7499H117.249V5.90723H120.619Z" fill="#222B38"/>
<path d="M125.206 9.59028C125.206 8.32299 125.498 7.39053 126.081 6.79649C126.664 6.20245 127.611 5.90723 128.921 5.90723H131.575V7.37253H128.986C128.194 7.37253 127.632 7.53815 127.301 7.87297C126.966 8.20419 126.801 8.76583 126.801 9.55788V11.9304H131.542V13.3957H126.801V27.7499H125.209V13.3957H122.214V11.9304H125.209V9.59028H125.206Z" fill="#222B38"/>
<path d="M146.393 27.7498H144.989L144.77 24.4124C144.291 25.4925 143.585 26.3529 142.649 26.9866C141.713 27.6202 140.568 27.937 139.218 27.937C137.389 27.937 135.917 27.3394 134.804 26.1441C133.692 24.9488 133.134 23.1631 133.134 20.7942V11.934H134.725V20.7005C134.725 22.5727 135.143 24.002 135.974 24.992C136.806 25.9785 137.973 26.4753 139.47 26.4753C141.112 26.4753 142.415 25.8669 143.369 24.65C144.327 23.4331 144.806 21.7842 144.806 19.7033V11.934H146.397V27.7498H146.393Z" fill="#222B38"/>
<path d="M148.233 13.3957V11.9304H151.228V7.49854H152.82V11.9304H157.032V13.3957H152.82V24.0345C152.82 24.8445 152.985 25.4242 153.32 25.7662C153.655 26.1082 154.213 26.281 155.005 26.281H157.313V27.7463H154.94C153.608 27.7463 152.658 27.4547 152.085 26.8714C151.513 26.2882 151.228 25.3521 151.228 24.0633V13.3921H148.233V13.3957Z" fill="#222B38"/>
<path d="M172.57 27.7498H171.166L170.947 24.4124C170.468 25.4925 169.762 26.3529 168.826 26.9866C167.89 27.6202 166.745 27.937 165.395 27.937C163.566 27.937 162.094 27.3394 160.981 26.1441C159.869 24.9488 159.311 23.1631 159.311 20.7942V11.934H160.902V20.7005C160.902 22.5727 161.32 24.002 162.151 24.992C162.983 25.9785 164.15 26.4753 165.647 26.4753C167.289 26.4753 168.592 25.8669 169.546 24.65C170.504 23.4331 170.983 21.7842 170.983 19.7033V11.934H172.574V27.7498H172.57Z" fill="#222B38"/>
<path d="M183.49 13.4569H182.461C180.754 13.4569 179.57 14.0329 178.904 15.1886C178.237 16.3443 177.906 17.8564 177.906 19.7285V27.7462H176.315V11.9268H177.687L177.935 15.077C178.309 14.0977 178.871 13.3309 179.62 12.7692C180.369 12.2076 181.42 11.9268 182.77 11.9268H183.487V13.4569H183.49Z" fill="#222B38"/>
<path d="M187.908 12.7549C189.02 12.078 190.284 11.7396 191.699 11.7396C193.092 11.7396 194.331 12.0348 195.411 12.6289C196.494 13.2229 197.351 14.0798 197.985 15.2031C198.618 16.3263 198.957 17.6584 199 19.1957C199 19.4873 198.989 19.707 198.968 19.851H186.079C186.057 19.9338 186.046 20.0598 186.046 20.2254C186.068 21.4531 186.327 22.5404 186.828 23.4872C187.328 24.4341 188.012 25.1721 188.887 25.7014C189.762 26.2306 190.748 26.497 191.85 26.497C193.139 26.497 194.262 26.137 195.22 25.4206C196.177 24.7041 196.811 23.732 197.124 22.5044H198.748C198.374 24.1281 197.578 25.4386 196.361 26.4358C195.144 27.4331 193.682 27.9335 191.976 27.9335C190.5 27.9335 189.182 27.5915 188.03 26.9039C186.874 26.2162 185.982 25.2621 185.348 24.0345C184.714 22.8068 184.397 21.4027 184.397 19.8222C184.397 18.2417 184.703 16.8376 185.319 15.6099C185.931 14.3822 186.795 13.4317 187.908 12.7549ZM195.616 14.5514C194.608 13.6154 193.312 13.1473 191.731 13.1473C190.773 13.1473 189.891 13.3705 189.078 13.817C188.268 14.2634 187.602 14.8934 187.08 15.7035C186.561 16.5136 186.259 17.4496 186.176 18.5117H197.348C197.2 16.8088 196.624 15.4875 195.616 14.5514Z" fill="#222B38"/>
<path d="M61.0566 5.90723H57.6868V9.27706H61.0566V5.90723Z" fill="#222B38"/>
<path d="M86.5463 5.90723H83.1765V9.27706H86.5463V5.90723Z" fill="#222B38"/>
<path d="M29.8533 0H23.3369V6.51644H29.8533V0Z" fill="#F9B934"/>
<path d="M6.51284 28.5859V13.5621C6.51284 13.2705 6.75046 13.0329 7.04208 13.0329H23.3368V6.52002H1.81812C0.813651 6.52002 0 7.33367 0 8.33814V33.8099C0 34.8143 0.813651 35.628 1.81812 35.628H23.3368V29.1152H7.04568C6.75045 29.1152 6.51284 28.8775 6.51284 28.5859Z" fill="#F9B934"/>
<path d="M29.8529 13.0365H23.3401V29.1116H29.8529V13.0365Z" fill="#F9B934"/>
</svg>
