<svg width="1861" height="537" viewBox="0 0 1861 537" fill="none" xmlns="http://www.w3.org/2000/svg">
<path d="M1645.26 329.216L1645.26 462.2C1645.26 473.035 1654.04 481.821 1664.88 481.821L1858 481.821" stroke="#222B38" stroke-width="5" stroke-linecap="round" stroke-linejoin="round"/>
<path d="M1388.41 337.79L1388.41 276.426C1388.41 265.591 1379.63 256.806 1368.79 256.806L1299.86 256.806C1289.03 256.806 1280.24 248.02 1280.24 237.185L1280.24 188.774C1280.24 177.939 1289.03 169.153 1299.86 169.153L1353.5 169.153C1364.34 169.153 1373.12 160.368 1373.12 149.533L1373.12 71.6861C1373.12 33.7537 1403.88 2.99993 1441.81 2.99992L1530.11 2.99992C1540.95 2.99992 1549.73 11.7854 1549.73 22.6204L1549.73 390.242C1549.73 404.696 1538.02 416.406 1523.57 416.406C1509.12 416.406 1497.41 404.696 1497.41 390.242L1497.41 245.018C1497.41 234.183 1506.19 225.398 1517.03 225.398L1625.62 225.398C1636.45 225.398 1645.24 234.183 1645.24 246.654L1645.24 306.506" stroke="#222B38" stroke-width="5" stroke-linecap="round" stroke-linejoin="round"/>
<path d="M1310.48 517.145L5 517.145" stroke="#222B38" stroke-width="5" stroke-linecap="round" stroke-linejoin="round"/>
<path d="M1216.13 293.805L1216.13 115.498C1216.13 104.663 1224.91 95.8776 1235.75 95.8776L1419.87 95.8776C1430.99 95.8776 1440.02 104.894 1440.02 116.027L1440.02 497.698C1439.92 508.466 1431.16 517.155 1420.4 517.155L1333.27 517.155" stroke="#222B38" stroke-width="5" stroke-linecap="round" stroke-linejoin="round"/>
<path d="M1388.41 360.788L1388.41 446.496C1388.41 457.331 1379.63 466.117 1368.79 466.117L1235.76 466.117C1224.92 466.117 1216.14 457.331 1216.14 446.496L1216.14 316.514" stroke="#222B38" stroke-width="5" stroke-linecap="round" stroke-linejoin="round"/>
<path d="M1656.65 317.861C1656.65 311.59 1651.57 306.506 1645.3 306.506C1639.03 306.506 1633.94 311.59 1633.94 317.861C1633.94 324.132 1639.03 329.215 1645.3 329.215C1651.57 329.215 1656.65 324.132 1656.65 317.861Z" stroke="#222B38" stroke-width="5" stroke-linecap="round" stroke-linejoin="round"/>
<path d="M1333.18 517.145C1333.18 510.874 1328.09 505.79 1321.82 505.79C1315.55 505.79 1310.47 510.874 1310.47 517.145C1310.47 523.416 1315.55 528.5 1321.82 528.5C1328.09 528.5 1333.18 523.416 1333.18 517.145Z" stroke="#222B38" stroke-width="5" stroke-linecap="round" stroke-linejoin="round"/>
<path d="M1227.51 305.159C1227.51 298.888 1222.43 293.804 1216.16 293.804C1209.89 293.804 1204.8 298.888 1204.8 305.159C1204.8 311.43 1209.89 316.514 1216.16 316.514C1222.43 316.514 1227.51 311.43 1227.51 305.159Z" stroke="#222B38" stroke-width="5" stroke-linecap="round" stroke-linejoin="round"/>
<path d="M1399.61 349.433C1399.61 343.162 1394.53 338.078 1388.26 338.078C1381.99 338.078 1376.9 343.162 1376.9 349.433C1376.9 355.704 1381.99 360.788 1388.26 360.788C1394.53 360.788 1399.61 355.704 1399.61 349.433Z" stroke="#222B38" stroke-width="5" stroke-linecap="round" stroke-linejoin="round"/>
<path d="M1638.52 335.47L1638.52 468.454C1638.52 479.289 1647.31 488.075 1658.14 488.075L1857.5 488.075" stroke="#F9B934" stroke-width="4" stroke-linecap="round" stroke-linejoin="round"/>
<path d="M1381.68 344.043L1381.68 282.68C1381.68 271.845 1372.89 263.06 1362.06 263.06L1293.13 263.06C1282.29 263.06 1273.51 254.274 1273.51 243.439L1273.51 195.028C1273.51 184.193 1282.29 175.407 1293.13 175.407L1346.77 175.407C1357.6 175.407 1366.39 166.622 1366.39 155.787L1366.39 77.94C1366.39 40.0077 1397.14 9.25383 1435.07 9.25383L1523.38 9.25383C1534.21 9.25383 1543 18.0393 1543 28.8743L1543 396.496C1543 410.949 1531.29 422.66 1516.83 422.66C1502.38 422.66 1490.67 410.949 1490.67 396.496L1490.67 251.272C1490.67 240.437 1499.46 231.651 1510.29 231.651L1618.88 231.651C1629.72 231.651 1638.5 240.437 1638.5 252.908L1638.5 312.76" stroke="#F9B934" stroke-width="4" stroke-linecap="round" stroke-linejoin="round"/>
<path d="M1303.74 523.4L2.37732 523.4" stroke="#F9B934" stroke-width="4" stroke-linecap="round" stroke-linejoin="round"/>
<path d="M1209.39 300.059L1209.39 121.752C1209.39 110.917 1218.18 102.132 1229.01 102.132L1413.13 102.132C1424.26 102.132 1433.28 111.148 1433.28 122.281L1433.28 503.952C1433.19 514.72 1424.43 523.409 1413.66 523.409L1326.54 523.409" stroke="#F9B934" stroke-width="4" stroke-linecap="round" stroke-linejoin="round"/>
<path d="M1381.68 367.042L1381.68 452.75C1381.68 463.585 1372.89 472.371 1362.06 472.371L1229.02 472.371C1218.19 472.371 1209.4 463.585 1209.4 452.75L1209.4 322.768" stroke="#F9B934" stroke-width="4" stroke-linecap="round" stroke-linejoin="round"/>
<path d="M1649.92 324.115C1649.92 317.844 1644.83 312.76 1638.56 312.76C1632.29 312.76 1627.21 317.844 1627.21 324.115C1627.21 330.386 1632.29 335.47 1638.56 335.47C1644.83 335.47 1649.92 330.386 1649.92 324.115Z" stroke="#F9B934" stroke-width="4" stroke-linecap="round" stroke-linejoin="round"/>
<path d="M1326.44 523.4C1326.44 517.129 1321.36 512.045 1315.09 512.045C1308.82 512.045 1303.73 517.129 1303.73 523.4C1303.73 529.671 1308.82 534.754 1315.09 534.754C1321.36 534.754 1326.44 529.671 1326.44 523.4Z" stroke="#F9B934" stroke-width="4" stroke-linecap="round" stroke-linejoin="round"/>
<path d="M1220.78 311.413C1220.78 305.142 1215.69 300.059 1209.42 300.059C1203.15 300.059 1198.07 305.142 1198.07 311.413C1198.07 317.684 1203.15 322.768 1209.42 322.768C1215.69 322.768 1220.78 317.684 1220.78 311.413Z" stroke="#F9B934" stroke-width="4" stroke-linecap="round" stroke-linejoin="round"/>
<path d="M1392.88 355.687C1392.88 349.416 1387.79 344.332 1381.52 344.332C1375.25 344.332 1370.17 349.416 1370.17 355.687C1370.17 361.958 1375.25 367.042 1381.52 367.042C1387.79 367.042 1392.88 361.958 1392.88 355.687Z" stroke="#F9B934" stroke-width="4" stroke-linecap="round" stroke-linejoin="round"/>
</svg>
