<svg width="60" height="55" viewBox="0 0 60 55" fill="none" xmlns="http://www.w3.org/2000/svg">
<path d="M32.8 13.2593L29.6765 6.97917C28.7775 5.17174 28.328 4.26798 27.6574 3.60772C27.0644 3.02383 26.3497 2.57978 25.565 2.30769C24.6777 2 23.6726 2 21.6624 2H10.96C7.82371 2 6.25556 2 5.05765 2.61359C4.00395 3.15332 3.14725 4.01455 2.61036 5.07383C2 6.27808 2 7.85452 2 11.0074V13.2593M2 13.2593H44.56C49.2644 13.2593 51.6167 13.2593 53.4135 14.1796C54.9941 14.9892 56.2791 16.2811 57.0845 17.87C58 19.6764 58 22.041 58 26.7704V39.1556C58 43.8849 58 46.2496 57.0845 48.0559C56.2791 49.6448 54.9941 50.9367 53.4135 51.7463C51.6167 52.6667 49.2644 52.6667 44.56 52.6667H15.44C10.7356 52.6667 8.38334 52.6667 6.58648 51.7463C5.00592 50.9367 3.72088 49.6448 2.91555 48.0559C2 46.2496 2 43.8849 2 39.1556V13.2593Z" stroke="#F9B934" stroke-width="3.5" stroke-linecap="round" stroke-linejoin="round"/>
<path d="M24.2222 26.6729C24.7156 25.263 25.6894 24.0741 26.9711 23.3169C28.2528 22.5596 29.7598 22.2828 31.2251 22.5354C32.6904 22.7881 34.0194 23.554 34.9769 24.6973C35.9343 25.8407 36.4583 27.2878 36.4561 28.7824C36.4561 33.0015 30.1608 35.111 30.1608 35.111V38.4817M30.242 43.5554H30.27" stroke="#222B38" stroke-width="3.5" stroke-linecap="round" stroke-linejoin="round"/>
</svg>
