<?xml version="1.0" encoding="UTF-8"?>
<svg id="Layer_2" data-name="Layer 2" xmlns="http://www.w3.org/2000/svg" xmlns:xlink="http://www.w3.org/1999/xlink" viewBox="0 0 802.07 953.29">
  <defs>
    <style>
      .cls-1 {
        fill: #718096;
      }

      .cls-1, .cls-2, .cls-3, .cls-4 {
        stroke-width: 0px;
      }

      .cls-1, .cls-2, .cls-4 {
        isolation: isolate;
        opacity: .65;
      }

      .cls-2 {
        fill: #2d3748;
      }

      .cls-3 {
        fill: none;
      }

      .cls-5 {
        clip-path: url(#clippath);
      }

      .cls-4 {
        fill: #f9b934;
      }
    </style>
    <clipPath id="clippath">
      <path class="cls-3" d="M620.77,349.45v-173.59h180.4V0h-180.77v175.22H53.93c-29.78,0-53.93,24.14-53.93,53.93v670.21c0,29.78,24.14,53.93,53.93,53.93h567.52v-174.23h180.62v-429.61h-181.29Z"/>
    </clipPath>
  </defs>
  <g id="Layer_3" data-name="Layer 3">
    <g class="cls-5">
      <g id="Layer_1-2" data-name="Layer 1-2">
        <g>
          <path class="cls-4" d="M401.04,534.21c0,24.67-191.46,166.38-427.63,166.38s-427.64-141.7-427.64-166.38H401.04Z"/>
          <path class="cls-4" d="M401.04,534.21c4.29,24.3-159.65,197.09-392.24,238.11-232.59,41.01-445.75-65.29-450.03-89.59l842.27-148.52h0Z"/>
          <path class="cls-4" d="M401.04,534.21c8.44,23.19-123,221.83-344.94,302.6-221.94,80.77-450.31,13.1-458.75-10.08l803.69-292.52Z"/>
          <path class="cls-4" d="M401.04,534.21c12.34,21.37-82.62,239.82-287.15,357.9-204.54,118.09-441.2,91.1-453.53,69.73l740.69-427.63h0Z"/>
          <path class="cls-4" d="M401.04,534.21c15.86,18.91-39.72,250.52-220.64,402.33C-.52,1088.36-238.28,1102.87-254.13,1083.97L401.04,534.21h0Z"/>
          <path class="cls-4" d="M401.04,534.21c18.91,15.86,4.38,253.61-147.42,434.53-151.81,180.92-383.43,236.5-402.33,220.64L401.04,534.21h0Z"/>
          <path class="cls-4" d="M401.04,534.21c21.37,12.34,48.36,249-69.73,453.53C213.23,1192.28-5.22,1287.23-26.59,1274.89l427.63-740.69h0Z"/>
          <path class="cls-4" d="M401.04,534.21c23.19,8.44,90.87,236.81,10.08,458.75-80.77,221.94-279.42,353.38-302.6,344.94l292.52-803.69Z"/>
          <path class="cls-4" d="M401.04,534.21c24.3,4.29,130.61,217.44,89.59,450.03-41.01,232.59-213.81,396.53-238.11,392.24l148.52-842.27h0Z"/>
          <path class="cls-4" d="M401.04,534.21c24.67,0,166.38,191.46,166.38,427.63s-141.7,427.63-166.38,427.63v-855.27h0Z"/>
          <path class="cls-4" d="M401.04,534.21c24.3-4.29,197.09,159.65,238.11,392.24,41.01,232.59-65.29,445.75-89.59,450.03l-148.52-842.27h0Z"/>
          <path class="cls-4" d="M401.04,534.21c23.19-8.44,221.83,123,302.6,344.94,80.77,221.94,13.1,450.31-10.08,458.75l-292.52-803.69Z"/>
          <path class="cls-2" d="M401.04,534.21c21.37-12.34,239.82,82.62,357.9,287.15,118.09,204.54,91.1,441.2,69.73,453.53l-427.63-740.69h0Z"/>
          <path class="cls-2" d="M401.04,534.21c18.91-15.86,250.52,39.72,402.33,220.64,151.81,180.92,166.33,418.67,147.42,434.53L401.04,534.21h0Z"/>
          <path class="cls-2" d="M401.04,534.21c15.86-18.91,253.61-4.38,434.53,147.42,180.92,151.81,236.5,383.43,220.64,402.33L401.04,534.21h0Z"/>
          <path class="cls-2" d="M401.04,534.21c12.34-21.37,249-48.36,453.53,69.73,204.54,118.09,299.49,336.54,287.15,357.9l-740.69-427.63h0Z"/>
          <path class="cls-2" d="M401.04,534.21c8.44-23.19,236.81-90.87,458.75-10.08,221.94,80.77,353.38,279.42,344.94,302.6l-803.69-292.52Z"/>
          <path class="cls-2" d="M401.04,534.21c4.29-24.3,217.44-130.61,450.03-89.59,232.59,41.01,396.53,213.81,392.24,238.11l-842.27-148.52h0Z"/>
          <path class="cls-2" d="M401.04,534.21c0-24.67,191.46-166.38,427.63-166.38s427.63,141.7,427.63,166.38H401.03h0Z"/>
          <path class="cls-2" d="M401.04,534.21c-4.29-24.3,159.65-197.09,392.24-238.11,232.59-41.01,445.75,65.29,450.03,89.59l-842.27,148.52h0Z"/>
          <path class="cls-2" d="M401.04,534.21c-8.44-23.19,123-221.83,344.94-302.6,221.94-80.77,450.31-13.1,458.75,10.08l-803.69,292.52Z"/>
          <path class="cls-2" d="M401.04,534.21c-12.34-21.37,82.62-239.82,287.15-357.9,204.54-118.09,441.2-91.1,453.53-69.73l-740.69,427.63h0Z"/>
          <path class="cls-2" d="M401.04,534.21c-15.86-18.91,39.72-250.52,220.64-402.33C802.6-19.93,1040.35-34.45,1056.21-15.54L401.04,534.21h0Z"/>
          <path class="cls-2" d="M401.04,534.21c-18.91-15.86-4.38-253.61,147.42-434.53,151.81-180.92,383.43-236.5,402.33-220.64L401.04,534.21h0Z"/>
          <path class="cls-1" d="M401.04,534.21c-21.37-12.34-48.36-249,69.73-453.53,118.09-204.54,336.54-299.49,357.9-287.15l-427.63,740.69h0Z"/>
          <path class="cls-1" d="M401.04,534.21c-23.19-8.44-90.87-236.81-10.08-458.75,80.77-221.94,279.42-353.38,302.6-344.94l-292.52,803.69Z"/>
          <path class="cls-1" d="M401.04,534.21c-24.3-4.29-130.61-217.44-89.59-450.03,41-232.59,213.8-396.53,238.11-392.24l-148.52,842.27h0Z"/>
          <path class="cls-1" d="M401.04,534.21c-24.67,0-166.38-191.46-166.38-427.63s141.7-427.64,166.38-427.64v855.27Z"/>
          <path class="cls-1" d="M401.04,534.21c-24.3,4.29-197.09-159.65-238.11-392.24-41.01-232.59,65.29-445.75,89.59-450.03l148.52,842.27h0Z"/>
          <path class="cls-1" d="M401.04,534.21c-23.19,8.44-221.83-123-302.6-344.94-80.77-221.94-13.1-450.31,10.08-458.75l292.52,803.69Z"/>
          <path class="cls-1" d="M401.04,534.21c-21.37,12.34-239.82-82.62-357.9-287.15C-74.95,42.53-47.97-194.13-26.59-206.46l427.63,740.69h0Z"/>
          <path class="cls-1" d="M401.04,534.21c-18.91,15.86-250.52-39.72-402.33-220.64C-153.11,132.65-167.62-105.1-148.72-120.96L401.04,534.21Z"/>
          <path class="cls-1" d="M401.04,534.21c-15.86,18.91-253.61,4.38-434.53-147.42C-214.41,234.98-269.99,3.37-254.13-15.54L401.04,534.21Z"/>
          <path class="cls-1" d="M401.04,534.21c-12.34,21.37-249,48.36-453.53-69.73C-257.03,346.39-351.98,127.95-339.65,106.57l740.69,427.63h0Z"/>
          <path class="cls-1" d="M401.04,534.21c-8.44,23.19-236.81,90.87-458.75,10.08-221.94-80.77-353.38-279.41-344.94-302.6l803.69,292.52Z"/>
          <path class="cls-1" d="M401.04,534.21c-4.29,24.3-217.44,130.61-450.03,89.59-232.59-41.01-396.53-213.81-392.24-238.11l842.27,148.52Z"/>
        </g>
      </g>
    </g>
  </g>
</svg>