<svg width="190" height="64" viewBox="0 0 190 64" fill="none" xmlns="http://www.w3.org/2000/svg">
<path d="M72.0846 32.0413V34.4615C71.3529 34.0582 70.6165 33.758 69.8755 33.561C69.1438 33.3546 68.4027 33.2514 67.6522 33.2514C65.9731 33.2514 64.6691 33.7861 63.7405 34.8555C62.8118 35.9155 62.3474 37.407 62.3474 39.3301C62.3474 41.2531 62.8117 42.7494 63.7405 43.8188C64.6691 44.8789 65.9731 45.4089 67.6522 45.4089C68.4027 45.4089 69.1438 45.3104 69.8755 45.1134C70.6165 44.907 71.3529 44.6021 72.0846 44.1987V46.5908C71.3623 46.9285 70.6119 47.1818 69.8333 47.3507C69.064 47.5195 68.2432 47.6039 67.3708 47.6039C64.9975 47.6039 63.1121 46.8582 61.7143 45.3666C60.3166 43.8751 59.6177 41.863 59.6177 39.3301C59.6177 36.7598 60.3212 34.7382 61.7284 33.2654C63.1449 31.7927 65.0819 31.0563 67.5397 31.0563C68.337 31.0563 69.1156 31.1407 69.8755 31.3095C70.6353 31.469 71.3717 31.713 72.0846 32.0413Z" fill="#666666"/>
<path d="M82.6667 33.2516C81.2783 33.2516 80.1808 33.7957 79.3741 34.8838C78.5673 35.9626 78.164 37.4447 78.164 39.3303C78.164 41.2158 78.5627 42.7026 79.36 43.7909C80.1668 44.8697 81.2689 45.409 82.6667 45.409C84.0457 45.409 85.1385 44.865 85.9452 43.7768C86.752 42.6887 87.1553 41.2065 87.1553 39.3303C87.1553 37.4636 86.752 35.9861 85.9452 34.8979C85.1385 33.8004 84.0457 33.2516 82.6667 33.2516ZM82.6667 31.0565C84.9181 31.0565 86.6863 31.7882 87.9715 33.2516C89.2567 34.715 89.8992 36.7412 89.8992 39.3303C89.8992 41.91 89.2566 43.9363 87.9715 45.409C86.6863 46.8724 84.9181 47.6042 82.6667 47.6042C80.4059 47.6042 78.633 46.8725 77.3478 45.409C76.072 43.9363 75.4342 41.9101 75.4342 39.3303C75.4342 36.7413 76.0721 34.715 77.3478 33.2516C78.633 31.7882 80.4059 31.0565 82.6667 31.0565Z" fill="#666666"/>
<path d="M106.447 34.4608C107.094 33.2976 107.868 32.4393 108.768 31.8858C109.669 31.3323 110.729 31.0556 111.949 31.0556C113.59 31.0556 114.856 31.6325 115.748 32.7863C116.639 33.9308 117.084 35.5631 117.084 37.683V47.195H114.481V37.7674C114.481 36.2571 114.214 35.1362 113.679 34.4045C113.145 33.6728 112.328 33.307 111.231 33.3069C109.89 33.307 108.83 33.7525 108.051 34.6437C107.272 35.5349 106.883 36.7497 106.883 38.2882V47.1951H104.28V37.7675C104.28 36.2478 104.013 35.1269 103.478 34.4046C102.943 33.6729 102.118 33.307 101.001 33.307C99.6787 33.307 98.6281 33.7573 97.8495 34.6579C97.0709 35.5491 96.6816 36.7592 96.6816 38.2883V47.1952H94.0785V31.4356H96.6816V33.884C97.2726 32.9178 97.9809 32.2048 98.8064 31.7451C99.6319 31.2855 100.612 31.0557 101.747 31.0556C102.892 31.0557 103.863 31.3465 104.66 31.9281C105.467 32.5097 106.062 33.3539 106.447 34.4608" fill="#666666"/>
<path d="M124.711 44.8311V53.1894H122.108V31.436H124.711V33.828C125.255 32.89 125.94 32.1958 126.765 31.7455C127.6 31.2858 128.594 31.056 129.748 31.056C131.662 31.056 133.214 31.8159 134.406 33.3355C135.607 34.8552 136.207 36.8534 136.207 39.3298C136.207 41.8063 135.606 43.8045 134.406 45.3242C133.214 46.8438 131.662 47.6037 129.748 47.6037C128.594 47.6037 127.6 47.3785 126.765 46.9283C125.94 46.4686 125.255 45.7698 124.711 44.8316M133.519 39.3299C133.519 37.4256 133.125 35.9341 132.337 34.8552C131.559 33.7671 130.485 33.223 129.115 33.223C127.745 33.223 126.667 33.7671 125.879 34.8552C125.1 35.934 124.711 37.4255 124.711 39.3299C124.711 41.2341 125.1 42.7303 125.879 43.8186C126.667 44.8974 127.745 45.4367 129.115 45.4367C130.485 45.4367 131.559 44.8973 132.337 43.8186C133.125 42.7304 133.519 41.2342 133.519 39.3299Z" fill="#666666"/>
<path d="M147.661 39.2733C145.569 39.2733 144.119 39.5125 143.313 39.9909C142.506 40.4693 142.103 41.2855 142.103 42.4393C142.103 43.3586 142.403 44.0903 143.003 44.6344C143.613 45.1691 144.438 45.4364 145.48 45.4364C146.915 45.4364 148.064 44.9299 148.927 43.9167C149.799 42.8943 150.236 41.5387 150.236 39.8502V39.2733L147.661 39.2733ZM152.825 38.2039V47.1953H150.236V44.8032C149.645 45.76 148.908 46.4682 148.027 46.9279C147.145 47.3782 146.066 47.6034 144.79 47.6034C143.177 47.6034 141.892 47.1531 140.935 46.2525C139.987 45.3426 139.514 44.1277 139.514 42.608C139.514 40.8351 140.105 39.4983 141.286 38.5978C142.478 37.6973 144.251 37.247 146.605 37.247H150.236V36.9937C150.236 35.8023 149.842 34.883 149.054 34.2358C148.275 33.5792 147.178 33.2509 145.761 33.2509C144.861 33.2509 143.984 33.3587 143.13 33.5745C142.276 33.7903 141.455 34.1139 140.668 34.5454V32.1533C141.615 31.7875 142.534 31.5154 143.425 31.3372C144.317 31.1496 145.184 31.0558 146.028 31.0558C148.308 31.0558 150.011 31.6468 151.136 32.8287C152.262 34.0107 152.825 35.8025 152.825 38.2039Z" fill="#666666"/>
<path d="M171.328 37.6839V47.1959H168.739V37.7683C168.739 36.2768 168.448 35.1605 167.866 34.4194C167.285 33.6784 166.412 33.3078 165.249 33.3078C163.851 33.3078 162.749 33.7534 161.942 34.6446C161.136 35.5358 160.732 36.7506 160.732 38.289V47.196H158.129V31.4364H160.732V33.8848C161.351 32.9373 162.079 32.2291 162.913 31.76C163.758 31.291 164.729 31.0565 165.826 31.0564C167.637 31.0565 169.006 31.6193 169.935 32.7449C170.864 33.8613 171.328 35.5076 171.328 37.6838" fill="#666666"/>
<path d="M183.077 48.6588C182.345 50.5349 181.633 51.7591 180.938 52.3314C180.244 52.9036 179.315 53.1897 178.152 53.1897H176.084V51.0228H177.604C178.316 51.0228 178.87 50.8539 179.264 50.5162C179.658 50.1785 180.094 49.3812 180.573 48.1241L181.037 46.9422L174.663 31.4361H177.407L182.331 43.7624L187.256 31.4361H190L183.077 48.6596" fill="#666666"/>
<path d="M64.8026 22.2425C64.8026 21.3965 64.627 20.7408 64.276 20.2756C63.9291 19.8102 63.4405 19.5776 62.8103 19.5776C62.1842 19.5776 61.6956 19.8103 61.3446 20.2756C60.9977 20.7409 60.8243 21.3965 60.8243 22.2425C60.8243 23.0843 60.9977 23.7379 61.3446 24.2032C61.6957 24.6685 62.1843 24.9011 62.8103 24.9011C63.4406 24.9011 63.9291 24.6685 64.276 24.2032C64.627 23.7378 64.8026 23.0843 64.8026 22.2425ZM65.9701 24.9963C65.9701 26.2061 65.7015 27.105 65.1643 27.693C64.6271 28.2852 63.8043 28.5813 62.696 28.5813C62.2857 28.5813 61.8987 28.5496 61.5349 28.4861C61.1711 28.4269 60.8179 28.3338 60.4752 28.2069V27.0712C60.8179 27.2573 61.1563 27.3948 61.4905 27.4836C61.8246 27.5724 62.1652 27.6168 62.512 27.6168C63.2777 27.6168 63.8508 27.4159 64.2316 27.014C64.6123 26.6164 64.8026 26.0136 64.8027 25.2056V24.6282C64.5615 25.047 64.2527 25.36 63.8763 25.5673C63.4998 25.7746 63.0493 25.8782 62.5248 25.8782C61.6534 25.8782 60.9512 25.5462 60.4181 24.882C59.8851 24.2179 59.6187 23.338 59.6187 22.2424C59.6187 21.1426 59.8851 20.2606 60.4181 19.5965C60.9511 18.9324 61.6533 18.6003 62.5248 18.6003C63.0493 18.6003 63.4998 18.7039 63.8763 18.9112C64.2527 19.1185 64.5615 19.4315 64.8027 19.8503V18.7716H65.9702L65.9701 24.9963Z" fill="#666666"/>
<path d="M74.453 22.0334V22.6044H69.085C69.1358 23.4082 69.3769 24.0215 69.8084 24.4445C70.2441 24.8633 70.849 25.0727 71.6231 25.0727C72.0715 25.0727 72.5051 25.0177 72.9239 24.9077C73.3469 24.7978 73.7657 24.6328 74.1802 24.4128V25.5169C73.7615 25.6945 73.3321 25.8299 72.8921 25.923C72.4522 26.016 72.0059 26.0626 71.5533 26.0626C70.4196 26.0626 69.5207 25.7326 68.8567 25.0727C68.1968 24.4128 67.8668 23.5203 67.8668 22.3951C67.8668 21.2318 68.1799 20.3096 68.8059 19.6286C69.4362 18.9433 70.2843 18.6007 71.3503 18.6007C72.3063 18.6007 73.0614 18.9095 73.6155 19.5271C74.1739 20.1405 74.453 20.9759 74.453 22.0334ZM73.2856 21.6907C73.2771 21.052 73.0973 20.5423 72.7462 20.1615C72.3994 19.7808 71.9383 19.5905 71.3629 19.5905C70.7115 19.5905 70.1891 19.7745 69.7957 20.1425C69.4066 20.5105 69.1824 21.0287 69.1231 21.697L73.2856 21.6907Z" fill="#666666"/>
<path d="M82.2517 21.5885V25.8778H81.0842V21.6267C81.0842 20.9541 80.9531 20.4507 80.6908 20.1165C80.4285 19.7823 80.0351 19.6152 79.5106 19.6152C78.8803 19.6152 78.3833 19.8162 78.0194 20.218C77.6557 20.6199 77.4738 21.1677 77.4738 21.8614V25.8778H76.2999V18.7713H77.4738V19.8754C77.7529 19.4482 78.0808 19.1288 78.4573 18.9173C78.838 18.7058 79.2758 18.6 79.7707 18.6C80.5871 18.6 81.2047 18.8538 81.6235 19.3614C82.0423 19.8648 82.2517 20.6071 82.2517 21.5885Z" fill="#666666"/>
<path d="M90.6715 22.0334V22.6044H85.3035C85.3543 23.4082 85.5954 24.0215 86.0269 24.4445C86.4626 24.8633 87.0675 25.0727 87.8416 25.0727C88.29 25.0727 88.7236 25.0177 89.1424 24.9077C89.5654 24.7978 89.9842 24.6328 90.3988 24.4128V25.5169C89.98 25.6945 89.5506 25.8299 89.1106 25.923C88.6707 26.016 88.2244 26.0626 87.7718 26.0626C86.6382 26.0626 85.7392 25.7326 85.0752 25.0727C84.4153 24.4128 84.0853 23.5203 84.0853 22.3951C84.0853 21.2318 84.3984 20.3096 85.0244 19.6286C85.6547 18.9433 86.5028 18.6007 87.5688 18.6007C88.5248 18.6007 89.2799 18.9095 89.834 19.5271C90.3924 20.1405 90.6716 20.9759 90.6716 22.0334M89.5041 21.6907C89.4956 21.052 89.3159 20.5423 88.9648 20.1615C88.6179 19.7808 88.1568 19.5905 87.5816 19.5905C86.9301 19.5905 86.4077 19.7745 86.0144 20.1425C85.6252 20.5105 85.401 21.0287 85.3418 21.697L89.5042 21.6907" fill="#666666"/>
<path d="M96.6804 19.863C96.5492 19.7869 96.4054 19.7319 96.2489 19.698C96.0966 19.66 95.9274 19.6409 95.7413 19.6409C95.0814 19.6409 94.5738 19.8567 94.2184 20.2881C93.8673 20.7154 93.6918 21.3308 93.6918 22.1346V25.8782H92.5179V18.7717H93.6918V19.8758C93.9371 19.4443 94.2565 19.125 94.6499 18.9177C95.0433 18.7062 95.5213 18.6004 96.0839 18.6004C96.1643 18.6004 96.2531 18.6068 96.3504 18.6195C96.4477 18.6279 96.5556 18.6427 96.674 18.6639L96.6804 19.863Z" fill="#666666"/>
<path d="M97.9175 18.7717H99.085V25.8782H97.9175V18.7717ZM97.9175 16.0052H99.085V17.4836H97.9175V16.0052Z" fill="#666666"/>
<path d="M106.636 19.0445V20.1358C106.306 19.9539 105.974 19.8186 105.64 19.7297C105.31 19.6367 104.976 19.5901 104.638 19.5901C103.88 19.5901 103.292 19.8312 102.874 20.3135C102.455 20.7915 102.246 21.4641 102.246 22.3313C102.246 23.1984 102.455 23.8731 102.874 24.3554C103.292 24.8334 103.88 25.0724 104.638 25.0724C104.976 25.0724 105.31 25.028 105.64 24.9391C105.974 24.8461 106.306 24.7086 106.636 24.5267V25.6054C106.311 25.7577 105.972 25.8719 105.621 25.948C105.274 26.0242 104.904 26.0622 104.511 26.0622C103.44 26.0622 102.59 25.7259 101.96 25.0534C101.33 24.3808 101.015 23.4735 101.015 22.3312C101.015 21.1722 101.332 20.2606 101.966 19.5964C102.605 18.9323 103.479 18.6003 104.587 18.6003C104.946 18.6003 105.298 18.6383 105.64 18.7145C105.983 18.7864 106.315 18.8964 106.636 19.0445Z" fill="#666666"/>
<path d="M112.791 16.0052H113.959V25.8782H112.791V16.0052Z" fill="#666666"/>
<path d="M119.149 19.5902C118.523 19.5902 118.028 19.8356 117.664 20.3263C117.3 20.8127 117.118 21.4811 117.118 22.3314C117.118 23.1816 117.298 23.8521 117.658 24.3428C118.021 24.8293 118.518 25.0725 119.149 25.0725C119.771 25.0725 120.263 24.8272 120.627 24.3365C120.991 23.8458 121.173 23.1775 121.173 22.3314C121.173 21.4896 120.991 20.8234 120.627 20.3327C120.263 19.8378 119.771 19.5903 119.149 19.5903M119.149 18.6005C120.164 18.6005 120.961 18.9305 121.541 19.5903C122.12 20.2502 122.41 21.1639 122.41 22.3315C122.41 23.4948 122.12 24.4085 121.541 25.0726C120.961 25.7325 120.164 26.0625 119.149 26.0625C118.129 26.0625 117.33 25.7325 116.75 25.0726C116.175 24.4085 115.887 23.4948 115.887 22.3315C115.887 21.164 116.175 20.2503 116.75 19.5903C117.33 18.9305 118.129 18.6005 119.149 18.6005Z" fill="#666666"/>
<path d="M129.016 22.2425C129.016 21.3965 128.84 20.7408 128.489 20.2756C128.142 19.8102 127.654 19.5776 127.024 19.5776C126.397 19.5776 125.909 19.8103 125.558 20.2756C125.211 20.7409 125.038 21.3965 125.038 22.2425C125.038 23.0843 125.211 23.7379 125.558 24.2032C125.909 24.6685 126.398 24.9011 127.024 24.9011C127.654 24.9011 128.142 24.6685 128.489 24.2032C128.84 23.7378 129.016 23.0843 129.016 22.2425ZM130.183 24.9963C130.183 26.2061 129.915 27.105 129.378 27.693C128.84 28.2852 128.018 28.5813 126.909 28.5813C126.499 28.5813 126.112 28.5496 125.748 28.4861C125.384 28.4269 125.031 28.3338 124.688 28.2069V27.0712C125.031 27.2573 125.37 27.3948 125.704 27.4836C126.038 27.5724 126.378 27.6168 126.725 27.6168C127.491 27.6168 128.064 27.4159 128.445 27.014C128.826 26.6164 129.016 26.0136 129.016 25.2056V24.6282C128.775 25.047 128.466 25.36 128.09 25.5673C127.713 25.7746 127.263 25.8782 126.738 25.8782C125.867 25.8782 125.164 25.5462 124.631 24.882C124.098 24.2179 123.832 23.338 123.832 22.2424C123.832 21.1426 124.098 20.2606 124.631 19.5965C125.164 18.9324 125.867 18.6003 126.738 18.6003C127.263 18.6003 127.713 18.7039 128.09 18.9112C128.466 19.1185 128.775 19.4315 129.016 19.8503V18.7716H130.183L130.183 24.9963Z" fill="#666666"/>
<path d="M135.343 19.5902C134.717 19.5902 134.222 19.8356 133.858 20.3263C133.494 20.8127 133.313 21.4811 133.313 22.3314C133.313 23.1816 133.492 23.8521 133.852 24.3428C134.216 24.8293 134.713 25.0725 135.343 25.0725C135.965 25.0725 136.458 24.8272 136.821 24.3365C137.185 23.8458 137.367 23.1775 137.367 22.3314C137.367 21.4896 137.185 20.8234 136.821 20.3327C136.458 19.8378 135.965 19.5903 135.343 19.5903M135.343 18.6005C136.358 18.6005 137.156 18.9305 137.735 19.5903C138.315 20.2502 138.604 21.1639 138.604 22.3315C138.604 23.4948 138.315 24.4085 137.735 25.0726C137.156 25.7325 136.358 26.0625 135.343 26.0625C134.324 26.0625 133.524 25.7325 132.944 25.0726C132.369 24.4085 132.082 23.4948 132.082 22.3315C132.082 21.164 132.369 20.2503 132.944 19.5903C133.524 18.9305 134.323 18.6005 135.343 18.6005Z" fill="#666666"/>
<path d="M47.5547 15.8516C56.3094 24.6062 56.3094 38.8 47.5547 47.5547C38.8 56.3093 24.6062 56.3094 15.8516 47.5547C7.09688 38.8 7.09687 24.6062 15.8516 15.8516C24.6062 7.09687 38.8 7.09688 47.5547 15.8516Z" fill="#2294FE"/>
<path d="M47.6646 28.3637C52.995 33.6942 52.995 42.3363 47.6646 47.6668C42.3341 52.9973 33.692 52.9973 28.3615 47.6668C23.031 42.3363 23.031 33.6942 28.3615 28.3637C33.692 23.0333 42.3341 23.0333 47.6646 28.3637Z" fill="white"/>
</svg>
