<svg width="38" height="34" viewBox="0 0 38 34" fill="none" xmlns="http://www.w3.org/2000/svg">
<path d="M20.7 15.3333H28.86C30.7642 15.3333 31.7163 15.3333 32.4436 15.6966C33.0833 16.0162 33.6035 16.5262 33.9294 17.1534C34.3 17.8664 34.3 18.7998 34.3 20.6667V32M20.7 32V7.33333C20.7 5.46649 20.7 4.53307 20.3294 3.82003C20.0035 3.19282 19.4833 2.68289 18.8436 2.36331C18.1163 2 17.1642 2 15.26 2H9.14C7.23582 2 6.28373 2 5.55643 2.36331C4.91668 2.68289 4.39655 3.19282 4.07058 3.82003C3.7 4.53307 3.7 5.46649 3.7 7.33333V32M36 32H2M9.65 8.66667H14.75M9.65 15.3333H14.75M9.65 22H14.75" stroke="#838FA8" stroke-width="2.5" stroke-linecap="round" stroke-linejoin="round"/>
</svg>
