<svg width="599" height="56" viewBox="0 0 599 56" fill="none" xmlns="http://www.w3.org/2000/svg">
<path d="M222.866 45.29C229.46 52.129 238.56 56 248.066 56H571C586.463 56 599 43.463 599 28C599 12.537 586.463 0 571 0H248.066C238.56 0 229.467 3.864 222.866 10.71L221.312 12.32C213.052 20.888 199.332 20.888 191.079 12.32L189.525 10.71C182.924 3.864 173.831 0 164.325 0H28C12.537 0 0 12.537 0 28C0 43.463 12.537 56 28 56H164.325C173.831 56 182.924 52.136 189.525 45.29L191.079 43.68C199.339 35.112 213.059 35.112 221.312 43.68L222.866 45.29Z" fill="#222B38"/>
</svg>
