<svg width="1863" height="497" viewBox="0 0 1863 497" fill="none" xmlns="http://www.w3.org/2000/svg">
<path d="M1860 493.735H1473.64H1460.26C1452.29 493.735 1445.42 487.605 1445.04 479.628C1444.64 471.122 1451.42 464.097 1459.84 464.097H1542.04C1550.01 464.097 1556.88 457.968 1557.26 449.99C1557.66 441.484 1550.88 434.46 1542.46 434.46H1447C1439.03 434.46 1432.16 428.33 1431.78 420.353C1431.38 411.846 1438.16 404.822 1446.58 404.822H1532.62C1544.35 404.822 1554.89 397.615 1559.05 386.645C1561.22 380.919 1563.15 374.655 1563.82 369.132C1566.47 347.462 1564.44 327.889 1592.44 290.611C1623.68 249.032 1643.58 216.633 1644.79 162.409C1646.67 77.5282 1579.05 6.60005 1494.15 6.81175C1411.29 7.01383 1344.19 74.2373 1344.19 157.136C1344.19 214.564 1364.35 247.694 1396.59 290.602C1408.43 306.354 1414.89 318.95 1418.63 329.871C1423.72 344.796 1426.96 378.802 1428.18 382.7C1430.15 388.993 1425.47 395.382 1418.88 395.382H3" stroke="#222B38" stroke-width="5" stroke-linecap="round" stroke-linejoin="round"/>
<path d="M1860 488.923H1466.9H1453.53C1445.55 488.923 1438.68 482.794 1438.31 474.817C1437.9 466.31 1444.69 459.286 1453.11 459.286H1535.3C1543.28 459.286 1550.15 453.156 1550.52 445.179C1550.93 436.673 1544.14 429.648 1535.72 429.648H1440.27C1432.29 429.648 1425.42 423.519 1425.05 415.542C1424.64 407.035 1431.43 400.011 1439.85 400.011H1525.88C1537.61 400.011 1548.16 392.803 1552.31 381.833C1554.49 376.108 1556.41 369.844 1557.09 364.32C1559.73 342.65 1557.7 323.078 1585.7 285.8C1616.95 244.221 1636.85 211.821 1638.05 157.598C1639.94 72.7169 1572.31 1.78878 1487.41 2.00047C1404.56 2.20255 1337.45 69.426 1337.45 152.325C1337.45 209.752 1357.61 242.883 1389.86 285.79C1401.69 301.543 1408.16 314.138 1411.89 325.06C1416.98 339.985 1420.22 373.991 1421.45 377.888C1423.41 384.181 1418.73 390.571 1412.14 390.571H4.00012" stroke="#F9B934" stroke-width="4" stroke-linecap="round" stroke-linejoin="round"/>
</svg>
