<svg width="844" height="653" viewBox="0 0 844 653" fill="none" xmlns="http://www.w3.org/2000/svg">
<path d="M19.4901 659.277L378.077 300.615C387.539 291.151 402.892 291.151 412.354 300.615L548.045 436.335C557.507 445.799 557.507 461.154 548.045 470.618L438.203 580.483C428.741 589.947 413.388 589.947 403.926 580.483L121.645 298.143C112.183 288.679 112.183 273.323 121.645 263.859L262.432 123.043C271.894 113.579 287.246 113.579 296.708 123.043L560.338 386.728C569.8 396.192 585.153 396.192 594.615 386.728L646.814 334.518C656.276 325.054 656.276 309.698 646.814 300.234L505.602 158.993C496.14 149.529 480.788 149.529 471.326 158.993L299.18 331.174C289.718 340.638 274.365 340.638 264.903 331.174L247.243 313.51C237.781 304.046 237.781 288.69 247.243 279.226L276.129 250.333C285.591 240.869 285.591 225.513 276.129 216.049C266.667 206.585 266.667 191.229 276.129 181.765L339.13 118.752C348.592 109.288 363.944 109.288 373.406 118.752L550.626 296.008C560.088 305.472 575.44 305.472 584.902 296.008L871.278 9.61652" stroke="#222B38" stroke-width="5" stroke-linecap="round" stroke-linejoin="round"/>
<path d="M2.17753 657.001L378.077 281.023C387.539 271.559 402.892 271.559 412.354 281.023L548.045 416.742C557.507 426.206 557.507 441.562 548.045 451.026L438.203 560.891C428.741 570.355 413.388 570.355 403.926 560.891L121.645 278.551C112.183 269.087 112.183 253.731 121.645 244.267L262.432 103.45C271.894 93.9865 287.246 93.9865 296.708 103.45L560.338 367.135C569.8 376.599 585.153 376.599 594.615 367.135L646.814 314.925C656.276 305.461 656.276 290.106 646.814 280.642L505.602 139.401C496.14 129.937 480.788 129.937 471.326 139.401L299.18 311.582C289.718 321.046 274.365 321.046 264.903 311.582L247.242 293.917C237.78 284.453 237.78 269.097 247.242 259.633L276.129 230.741C285.591 221.277 285.591 205.921 276.129 196.457C266.667 186.993 266.667 171.637 276.129 162.173L339.13 99.1595C348.592 89.6955 363.944 89.6955 373.406 99.1595L550.626 276.416C560.088 285.88 575.44 285.88 584.902 276.416L859.115 2.17816" stroke="#F9B934" stroke-width="4" stroke-linecap="round" stroke-linejoin="round"/>
</svg>
