<?xml version="1.0" encoding="UTF-8"?>
<svg id="Layer_2" data-name="Layer 2" xmlns="http://www.w3.org/2000/svg" viewBox="0 0 26.33 33">
  <defs>
    <style>
      .cls-1 {
        fill: none;
        stroke: #2d3748;
        stroke-linecap: round;
        stroke-linejoin: round;
        stroke-width: 2px;
      }
    </style>
  </defs>
  <g id="Layer_1-2" data-name="Layer 1">
    <g>
      <path class="cls-1" d="M19.33,26.5c0-1.11,0-1.67-.13-2.12-.29-1.02-1.06-1.81-2.03-2.12-.43-.14-.96-.14-2.02-.14h-3.8c-1.06,0-1.59,0-2.02.14-.97.31-1.73,1.11-2.03,2.12-.13.45-.13,1.01-.13,2.12M16.67,15.75c0,1.98-1.53,3.58-3.42,3.58s-3.42-1.6-3.42-3.58,1.53-3.58,3.42-3.58,3.42,1.6,3.42,3.58Z"/>
      <path class="cls-1" d="M19.25,4.1c1.41,0,2.12,0,2.7.16,1.57.43,2.8,1.68,3.23,3.29.16.59.16,1.31.16,2.75v14.26c0,2.6,0,3.91-.5,4.9-.44.87-1.14,1.59-1.99,2.03-.98.51-2.25.51-4.81.51h-9.73c-2.56,0-3.83,0-4.81-.51-.86-.45-1.56-1.16-1.99-2.03-.5-.99-.5-2.3-.5-4.9v-14.26c0-1.44,0-2.16.16-2.75.42-1.6,1.65-2.86,3.23-3.29.58-.16,1.29-.16,2.7-.16M9.52,7.2h7.3c.85,0,1.28,0,1.6-.17.29-.15.52-.39.66-.68.17-.33.17-.77.17-1.63v-1.24c0-.87,0-1.3-.17-1.63-.15-.29-.38-.53-.66-.68-.33-.17-.75-.17-1.6-.17h-7.3c-.85,0-1.28,0-1.6.17-.29.15-.52.39-.66.68-.17.33-.17.77-.17,1.63v1.24c0,.87,0,1.3.17,1.63.15.29.38.53.66.68.33.17.75.17,1.6.17Z"/>
    </g>
  </g>
</svg>