<svg width="805" height="536" viewBox="0 0 805 536" fill="none" xmlns="http://www.w3.org/2000/svg">
<path d="M702.408 98.8638H384.1C367.376 98.8638 353.822 112.418 353.822 129.142V505.501C353.822 522.224 367.376 535.779 384.1 535.779H702.79V437.944H804.225V196.699H702.425V98.8638H702.408Z" fill="white"/>
<path d="M414.511 98.8638L554.586 439.968L575.341 98.6813L414.511 98.8638Z" fill="#6A7E93"/>
<path d="M579.887 396.6L595.897 426.579L353.806 200.017V129.225C353.806 112.468 367.393 98.8804 384.15 98.8804H443.063L579.887 396.6Z" fill="#4B5C6D"/>
<path d="M353.806 505.501C353.806 522.224 367.36 535.779 384.084 535.779H702.774V437.944H804.209V253.638L655.557 235.737L556.262 328.528L472.396 344.406C472.396 344.406 446.299 383.112 440.475 385.766C434.652 388.421 353.806 453.655 353.806 453.655V506.065" fill="#39475B"/>
<path d="M725.702 276.483L688.025 283.8L702.409 196.699L739.29 196.384L725.702 276.483Z" fill="#6A7E93"/>
<path d="M804.21 0H702.575V98.8638H804.21V0Z" fill="#617184"/>
<path d="M-27 364.729L475.531 276.483L500.417 305.368L506.025 270.511L494.959 256.06L-27 223.792V364.729Z" fill="#2D3748"/>
<mask id="mask0_1_1343" style="mask-type:luminance" maskUnits="userSpaceOnUse" x="-27" y="223" width="534" height="142">
<path d="M-27 364.729L475.531 276.483L500.417 305.368L506.025 270.511L494.959 256.06L-27 223.792V364.729Z" fill="white"/>
</mask>
<g mask="url(#mask0_1_1343)">
<path d="M96.02 307.79H14.1948V389.615H96.02V307.79Z" fill="#39475B"/>
<path d="M133.25 219.329H90.2632V262.315H133.25V219.329Z" fill="#39475B"/>
<path d="M248.438 220.258H190.968V277.728H248.438V220.258Z" fill="#39475B"/>
<path d="M190.968 287.218H143.569V334.617H190.968V287.218Z" fill="#39475B"/>
<path d="M21.08 239.022H-10.3428V270.445H21.08V239.022Z" fill="#39475B"/>
<path d="M305.975 265.667H284.341V287.301H305.975V265.667Z" fill="#39475B"/>
<path d="M439.264 214.069H382.275V271.058H439.264V214.069Z" fill="#39475B"/>
<path d="M376.353 287.533H353.806V310.08H376.353V287.533Z" fill="#39475B"/>
</g>
<path d="M-27 189.366L434.901 317.247L446.448 377.836L466.406 314.692L454.776 297.073L-27 50.0707V189.366Z" fill="#8697AD"/>
<mask id="mask1_1_1343" style="mask-type:luminance" maskUnits="userSpaceOnUse" x="-27" y="50" width="494" height="328">
<path d="M-27 189.366L434.901 317.247L446.448 377.836L466.406 314.692L454.776 297.073L-27 50.0707V189.366Z" fill="white"/>
</mask>
<g mask="url(#mask1_1_1343)">
<path d="M110.968 166.736C138.96 166.736 161.652 144.044 161.652 116.052C161.652 88.0594 138.96 65.3672 110.968 65.3672C82.9754 65.3672 60.2832 88.0594 60.2832 116.052C60.2832 144.044 82.9754 166.736 110.968 166.736Z" fill="#617184"/>
<path d="M147.119 266.678C162.393 266.678 174.775 254.296 174.775 239.022C174.775 223.747 162.393 211.365 147.119 211.365C131.844 211.365 119.462 223.747 119.462 239.022C119.462 254.296 131.844 266.678 147.119 266.678Z" fill="#6A7E93"/>
<path d="M229.757 225.484C248.174 225.484 263.104 210.554 263.104 192.137C263.104 173.719 248.174 158.789 229.757 158.789C211.34 158.789 196.41 173.719 196.41 192.137C196.41 210.554 211.34 225.484 229.757 225.484Z" fill="#617184"/>
<path d="M310.388 249.225C320.87 249.225 329.368 240.727 329.368 230.245C329.368 219.763 320.87 211.266 310.388 211.266C299.906 211.266 291.408 219.763 291.408 230.245C291.408 240.727 299.906 249.225 310.388 249.225Z" fill="#6A7E93"/>
<path d="M331.093 342.763C351.855 342.763 368.687 325.932 368.687 305.169C368.687 284.406 351.855 267.574 331.093 267.574C310.33 267.574 293.498 284.406 293.498 305.169C293.498 325.932 310.33 342.763 331.093 342.763Z" fill="#617184"/>
<path d="M431.35 296.343C448.274 296.343 461.993 282.623 461.993 265.7C461.993 248.776 448.274 235.057 431.35 235.057C414.427 235.057 400.708 248.776 400.708 265.7C400.708 282.623 414.427 296.343 431.35 296.343Z" fill="#617184"/>
<path d="M12.2201 181.336C24.6723 181.336 34.7668 171.241 34.7668 158.789C34.7668 146.337 24.6723 136.243 12.2201 136.243C-0.232152 136.243 -10.3267 146.337 -10.3267 158.789C-10.3267 171.241 -0.232152 181.336 12.2201 181.336Z" fill="#6A7E93"/>
<path d="M12.2199 110.477C27.6867 110.477 40.2249 97.939 40.2249 82.4722C40.2249 67.0054 27.6867 54.4672 12.2199 54.4672C-3.24687 54.4672 -15.7852 67.0054 -15.7852 82.4722C-15.7852 97.939 -3.24687 110.477 12.2199 110.477Z" fill="#6A7E93"/>
</g>
<path d="M804.258 269.997L755.797 318.657V230.345L788.995 196.948H804.208L804.258 269.997Z" fill="#4B5C6D"/>
<path d="M739.29 196.384L713.292 222.597V310.909L739.29 284.696V196.384Z" fill="#4B5C6D"/>
<path d="M702.575 196.682L682.434 217.039V305.368L702.575 285.011V196.682Z" fill="#4B5C6D"/>
<path d="M755.798 230.096L713.292 222.597V310.926L755.798 318.425V230.096Z" fill="#8697AD"/>
<path d="M782.094 280.25L686.996 263.476V351.805L782.094 368.578V280.25Z" fill="#8697AD"/>
<path d="M745.844 347.292L725.703 367.649V437.96H745.844V347.292Z" fill="#4B5C6D"/>
<path d="M567.692 196.749V285.061L682.433 305.302V216.973L567.692 196.749Z" fill="#8697AD"/>
<path d="M567.692 196.682L547.551 217.039V305.368L567.692 285.011V196.682Z" fill="#4B5C6D"/>
<path d="M547.551 217.487V305.816L650.463 323.966V235.637L547.551 217.487Z" fill="#6A7E93"/>
<path d="M687.295 263.443L667.154 283.8V372.112L687.295 351.772V263.443Z" fill="#4B5C6D"/>
<path d="M699.306 289.524L666.855 283.8V372.112L699.306 377.836V289.524Z" fill="#6A7E93"/>
<path d="M650.463 235.737L630.322 256.094V344.406L650.463 324.066V235.737Z" fill="#4B5C6D"/>
<path d="M630.322 256.16L561.455 244.032V332.344L630.322 344.489V256.16Z" fill="#8697AD"/>
<path d="M561.454 244.032L541.313 264.372V352.701L561.454 332.344V244.032Z" fill="#4B5C6D"/>
<path d="M541.313 264.24L494.959 256.06V344.373L541.313 352.552V264.24Z" fill="#8697AD"/>
<path d="M679.165 311.341L608.041 298.798V387.127L679.165 399.669V311.341Z" fill="#8697AD"/>
<path d="M699.306 291.183L679.165 311.523V399.852L699.306 379.495V291.183Z" fill="#4B5C6D"/>
<path d="M650.878 330.818L630.737 351.175V439.487L650.878 419.13V330.818Z" fill="#4B5C6D"/>
<path d="M725.702 367.732L630.604 350.959V413.058L725.702 429.814V367.732Z" fill="#6A7E93"/>
<path d="M608.19 298.798L588.049 319.155V407.467L608.19 387.127V298.798Z" fill="#4B5C6D"/>
<path d="M619.29 324.729L587.485 319.205V407.517L619.29 413.058V324.729Z" fill="#8697AD"/>
<path d="M569.933 293.257L474.835 276.484V364.796L569.933 381.569V293.257Z" fill="#6A7E93"/>
<path d="M619.289 325.592L599.165 345.949V434.261L619.289 413.904V325.592Z" fill="#4B5C6D"/>
<path d="M569.932 293.605L549.791 313.945V402.274L569.932 381.917V293.605Z" fill="#4B5C6D"/>
<path d="M549.791 313.846L454.693 297.073V385.401L549.791 402.174V313.846Z" fill="#8697AD"/>
<path d="M472.396 323.9L434.652 317.247V405.559L472.396 412.212V323.9Z" fill="#6A7E93"/>
<path d="M414.511 337.338L353.806 399.105V487.417L414.511 425.65V337.338Z" fill="#4B5C6D"/>
<path d="M452.255 343.991L414.511 337.338V425.65L452.255 432.303V343.991Z" fill="#8697AD"/>
<path d="M472.395 323.634L452.254 343.991V432.303L472.395 411.963V323.634Z" fill="#4B5C6D"/>
<path d="M500.517 328.545L480.376 348.902V437.214L500.517 416.874V328.545Z" fill="#4B5C6D"/>
<path d="M500.417 328.528V416.857L599.165 434.261V345.949L500.417 328.528Z" fill="#8697AD"/>
<path d="M782.21 280.349L762.069 300.706V389.018L782.21 368.678V280.349Z" fill="#4B5C6D"/>
<path d="M805 308.466L762 301V389.517L805 397V308.466Z" fill="#6A7E93"/>
<path d="M804.259 357.612L745.843 347.309V437.961H804.209L804.259 357.612Z" fill="#8697AD"/>
<path d="M556.262 362.324L480.276 348.918V437.247L556.262 450.636V362.324Z" fill="#6A7E93"/>
<path d="M556.261 360.963L535.042 382.382V470.71L556.261 449.275V360.963Z" fill="#4B5C6D"/>
<path d="M703.271 437.961H725.702V417.04L534.627 382.448V470.777L703.271 500.856V437.961Z" fill="#8697AD"/>
</svg>
