<svg width="819" height="544" viewBox="0 0 819 544" fill="none" xmlns="http://www.w3.org/2000/svg">
<path d="M689.993 97.9609H365.161C348.095 97.9609 334.263 111.793 334.263 128.86V512.932C334.263 529.998 348.095 543.831 365.161 543.831H690.383V443.99H793.897V197.801H690.01V97.9609H689.993Z" fill="#222B38"/>
<path d="M793.525 0H690.891V99.8572H793.525V0Z" fill="#222B38"/>
<path d="M638.338 126.218H621.559C615.855 126.218 611.232 130.842 611.232 136.546C611.232 142.25 615.855 146.874 621.559 146.874H638.338C644.041 146.874 648.665 142.25 648.665 136.546C648.665 130.842 644.041 126.218 638.338 126.218Z" fill="#718096"/>
<path d="M674.23 126.218H689.993V146.874H674.23C668.525 146.874 663.903 142.252 663.903 136.546C663.903 130.84 668.525 126.218 674.23 126.218Z" fill="#8697AD"/>
<path d="M433.206 308.85C426.688 305.125 417.732 316.266 412.094 311.389C410.875 310.323 399.243 315.537 398.075 314.437C375.744 293.409 361.81 263.56 361.81 230.478C361.81 166.767 413.448 115.129 477.158 115.129C509.005 115.129 537.855 128.047 558.714 148.906L477.158 230.461L533.453 271.399L433.206 308.85Z" fill="#8697AD"/>
<path d="M477.158 345.809C445.312 345.809 416.462 332.891 395.603 312.033L477.158 230.478V345.826V345.809Z" fill="#222B38"/>
<path d="M477.158 271.145H436.372L439.572 268.047H477.158V271.145Z" fill="#617184"/>
<path d="M477.226 291.631H416.004L419.086 288.533H477.226V291.631Z" fill="#617184"/>
<path d="M477.226 311.948H395.603L398.769 308.85H477.226V311.948Z" fill="#617184"/>
<path d="M422.879 332.265H477.243V329.167H417.461C417.461 329.167 419.239 330.318 420.187 330.86C421.507 331.639 422.896 332.248 422.896 332.248L422.879 332.265Z" fill="#617184"/>
<path d="M458.382 342.119V249.237L455.284 252.335V343.744C455.284 343.744 456.452 343.964 457.282 344.116C458.111 344.269 458.382 344.303 458.382 344.303V342.119Z" fill="#617184"/>
<path d="M434.832 337.784V272.804L437.93 269.604V338.969C437.93 338.969 436.846 338.597 436.389 338.394C435.932 338.191 434.848 337.784 434.848 337.784H434.832Z" fill="#617184"/>
<path d="M414.159 327.05V293.46L417.258 290.361V329.031C417.258 329.031 416.106 328.32 415.514 327.948C415.175 327.744 414.159 327.05 414.159 327.05Z" fill="#617184"/>
<path d="M369.395 338.106L395.569 311.948L399.836 314.234L369.395 344.675V338.106Z" fill="#445766"/>
<path d="M816.822 230.46H478.733C477.863 230.46 477.158 231.165 477.158 232.035V417.765C477.158 418.634 477.863 419.339 478.733 419.339H816.822C817.691 419.339 818.396 418.634 818.396 417.765V232.035C818.396 231.165 817.691 230.46 816.822 230.46Z" fill="#8697AD"/>
<path d="M809.355 238.079H485.776C484.7 238.079 483.829 238.951 483.829 240.026V409.773C483.829 410.849 484.7 411.72 485.776 411.72H809.355C810.43 411.72 811.302 410.849 811.302 409.773V240.026C811.302 238.951 810.43 238.079 809.355 238.079Z" fill="#617184"/>
<path d="M806.223 243.158V406.641H488.908V243.158H806.223ZM809.355 238.079H485.776C484.709 238.079 483.829 238.943 483.829 240.026V409.773C483.829 410.84 484.692 411.72 485.776 411.72H809.355C810.422 411.72 811.302 410.857 811.302 409.773V240.026C811.302 238.96 810.439 238.079 809.355 238.079Z" fill="#445766"/>
<path d="M701.726 411.737H692.465V419.492H701.726V411.737Z" fill="#192430"/>
<path d="M466.61 468.658L472.231 466.017L563.014 375.235C563.606 374.642 564.402 374.321 565.232 374.321H658.943C660.331 374.321 661.601 372.17 662.058 373.271C662.261 373.745 663.362 378.553 660.991 381.008C658.994 383.074 654.49 387.493 654.49 387.493L565.943 476.04C565.045 476.938 563.826 477.445 562.556 477.445L469.709 477.259C466.915 477.259 466.136 472.417 466.61 468.658Z" fill="#445766"/>
<path d="M467.507 466.898L563.013 371.392C563.606 370.799 564.402 370.477 565.231 370.477H658.943C661.736 370.477 663.125 373.847 661.161 375.827L565.468 471.52C564.876 472.112 564.08 472.434 563.25 472.434L469.725 472.248C466.932 472.248 465.543 468.878 467.524 466.898H467.507Z" fill="#718096"/>
<path d="M469.827 465.78L563.809 371.798C564.385 371.222 565.164 370.901 565.993 370.901H654.727C657.47 370.901 658.841 374.219 656.911 376.166L562.742 470.335C562.167 470.91 561.371 471.232 560.558 471.232L472.011 471.046C469.268 471.046 467.897 467.727 469.844 465.78H469.827Z" fill="#192430"/>
<path d="M475.414 462.784L562.404 375.794C563.894 374.304 565.909 373.474 568.025 373.474H650.037C652.628 373.474 653.914 376.589 652.086 378.418L564.605 465.899C563.318 467.185 561.591 467.897 559.78 467.897L528.526 467.829C528.526 467.829 525.952 467.897 525.072 467.897C522.972 467.897 522.278 465.069 520.399 464.256C519.231 463.749 517.69 463.765 516.336 464.443C514.66 465.272 513.153 466.931 511.68 467.287C510.291 467.626 505.754 467.778 505.754 467.778L477.497 467.727C474.923 467.727 473.636 464.595 475.448 462.784H475.414Z" fill="#E4E9EF"/>
<path d="M518.425 468.594C520.144 468.52 521.504 467.688 521.463 466.735C521.422 465.782 519.995 465.07 518.276 465.144C516.557 465.218 515.197 466.05 515.238 467.003C515.279 467.956 516.706 468.669 518.425 468.594Z" fill="#1D2C3A"/>
<path d="M518.402 468.053C519.579 468.002 520.51 467.431 520.482 466.777C520.454 466.123 519.477 465.634 518.3 465.685C517.123 465.736 516.191 466.307 516.219 466.961C516.248 467.615 517.225 468.104 518.402 468.053Z" fill="#445766"/>
<path d="M496.281 465.802C504.231 465.459 510.556 462.409 510.409 458.99C510.261 455.571 503.697 453.077 495.747 453.42C487.797 453.763 481.472 456.813 481.62 460.232C481.767 463.651 488.331 466.145 496.281 465.802Z" fill="#192430"/>
<path d="M495.713 458.06C501.876 457.789 507.192 459.245 509.343 461.497C510.037 460.718 510.409 459.888 510.375 459.042C510.223 455.622 503.654 453.116 495.713 453.472C487.756 453.81 481.441 456.875 481.576 460.295C481.61 461.057 481.983 461.785 482.609 462.428C484.708 460.109 489.754 458.331 495.713 458.077V458.06Z" fill="#617184"/>
<path d="M483.828 312.744C488.755 314.03 493.936 314.724 499.269 314.724C532.859 314.724 560.084 287.5 560.084 253.909C560.084 248.424 559.356 243.124 557.985 238.079H574.729C574.729 238.079 577.573 271.416 575.813 276.901C574.052 282.387 551.771 314.775 541.663 319.905C531.556 325.035 503.163 326.762 495.595 326.965C488.027 327.168 483.828 319.888 483.828 319.888V312.727V312.744Z" fill="#445766"/>
<path d="M600.244 271.365L584.718 264.407C583.973 264.068 583.279 263.12 583.178 262.307L582.145 255.603C581.993 254.79 582.382 253.706 583.025 253.198L595.977 242.752C596.621 242.227 596.891 241.195 596.587 240.416L595.503 236.386H566.382C567.889 242.007 568.719 249.609 568.719 255.704C568.719 293.087 538.413 323.41 501.013 323.41C495.07 323.41 488.467 322.631 482.965 321.192V349.009L496.526 353.073C497.322 353.276 498.338 352.886 498.778 352.192L507.701 338.106C508.141 337.412 509.174 336.887 510.003 336.938L518.655 337.107C519.484 337.09 520.5 337.649 520.924 338.36L529.473 352.768C529.897 353.479 530.896 353.902 531.691 353.733L545.744 349.805C546.523 349.551 547.166 348.654 547.149 347.841L547.031 331.063C547.031 330.233 547.606 329.234 548.317 328.811L555.564 324.206C556.241 323.732 557.392 323.647 558.137 324.019L573.019 331.469C573.747 331.842 574.848 331.672 575.44 331.113C575.44 331.113 575.762 330.809 576.456 330.115C580.028 326.542 585.125 319.922 585.125 319.922C585.633 319.262 585.666 318.178 585.226 317.484L575.982 303.33C575.525 302.636 575.457 301.468 575.83 300.74L579.063 293.544C579.368 292.782 580.282 292.088 581.112 291.987L597.619 290.209C598.432 290.124 599.228 289.379 599.397 288.584L601.48 273.481C601.547 272.669 600.989 271.721 600.244 271.382V271.365Z" fill="#8697AD"/>
<path d="M477.242 222.182H448.646V250.777H477.242V222.182Z" fill="#192430"/>
<path d="M363.299 362.774H398.888V398.362L387.155 410.095L363.299 397.566L351.583 374.507L363.299 362.774Z" fill="#445766"/>
<path d="M398.887 362.774V486.96L387.154 498.677V374.507L398.887 362.774Z" fill="#445766"/>
<path d="M334.263 451.558H360.523L370.41 477.445L360.353 475.194L345.979 486.351L334.263 463.274V451.558Z" fill="#718096"/>
<path d="M363.299 362.774H398.887L387.154 374.507H363.299V362.774Z" fill="#192430"/>
<path d="M351.583 374.507V463.088L334.161 463.376V498.964L387.154 498.677V374.507H351.583Z" fill="#8697AD"/>
<path d="M595.169 416.772C605.053 416.346 612.917 412.555 612.733 408.304C612.55 404.054 604.389 400.954 594.505 401.38C584.622 401.806 576.758 405.598 576.941 409.848C577.125 414.099 585.286 417.199 595.169 416.772Z" fill="#192430"/>
<path d="M594.487 407.132C602.139 406.794 608.759 408.605 611.434 411.399C612.298 410.434 612.755 409.401 612.721 408.334C612.535 404.085 604.374 400.986 594.504 401.41C584.616 401.833 576.76 405.625 576.947 409.875C576.98 410.823 577.455 411.72 578.233 412.533C580.824 409.655 587.105 407.437 594.521 407.115L594.487 407.132Z" fill="#617184"/>
<path d="M742.53 530.151C714.035 530.151 690.874 506.973 690.874 478.495V414.294H695.513V478.495C695.513 504.433 716.609 525.529 742.547 525.529C768.484 525.529 789.58 504.433 789.58 478.495V419.339H794.219V478.495C794.219 506.99 771.041 530.151 742.563 530.151H742.53Z" fill="#E4E9EF"/>
<path d="M596.807 416.681V323.072C596.807 297.134 617.902 276.038 643.84 276.038C669.778 276.038 690.874 297.134 690.874 323.072V414.311H695.513V323.072C695.513 294.577 672.334 271.416 643.857 271.416C615.38 271.416 592.201 294.594 592.201 323.072V416.817C592.201 416.817 593.793 416.868 594.504 416.851C595.215 416.834 596.84 416.698 596.84 416.698L596.807 416.681Z" fill="#E4E9EF"/>
<path d="M498.117 477.327V484.472C498.117 510.41 519.213 531.505 545.151 531.505C571.089 531.505 592.184 510.41 592.184 484.472V449.832L596.823 445.193V484.472C596.823 512.966 573.645 536.127 545.168 536.127C516.69 536.127 493.512 512.949 493.512 484.472V477.327H498.151H498.117Z" fill="#E4E9EF"/>
<path d="M596.908 457.044V445.176L592.015 449.815V457.044H596.908Z" fill="#192430"/>
<path d="M498.118 465.713V353.97C498.118 325.476 474.94 302.314 446.462 302.314C417.985 302.314 394.807 325.493 394.807 353.97V414.294H399.446V353.97C399.446 328.032 420.541 306.937 446.479 306.937C472.417 306.937 493.513 328.032 493.513 353.97V465.848C493.513 465.848 494.766 465.882 495.764 465.848C496.696 465.831 498.152 465.696 498.152 465.696L498.118 465.713Z" fill="#E4E9EF"/>
<path d="M498.321 477.31H493.31V484.455H498.321V477.31Z" fill="#192430"/>
<path d="M794.32 419.339H789.36V431.733H794.32V419.339Z" fill="#192430"/>
<path d="M347.757 530.168C319.263 530.168 296.101 506.99 296.101 478.512V414.311H300.74V478.512C300.74 504.45 321.836 525.546 347.774 525.546C373.712 525.546 394.807 504.45 394.807 478.512V414.311H399.446V478.512C399.446 507.007 376.268 530.168 347.791 530.168H347.757Z" fill="#E4E9EF"/>
<path d="M300.723 414.311H296.084V323.072C296.084 297.134 274.989 276.038 249.051 276.038C223.113 276.038 202.017 297.134 202.017 323.072V414.311H197.378V323.072C197.378 294.577 220.556 271.416 249.034 271.416C277.511 271.416 300.689 294.594 300.689 323.072V414.311H300.723Z" fill="#E4E9EF"/>
<path d="M150.379 536.127C121.884 536.127 98.723 512.949 98.723 484.472V414.311H103.362V484.472C103.362 510.41 124.458 531.505 150.395 531.505C176.333 531.505 197.429 510.41 197.429 484.472V414.311H202.068V484.472C202.068 512.966 178.89 536.127 150.412 536.127H150.379Z" fill="#E4E9EF"/>
<path d="M103.345 414.311H98.706V353.987C98.706 328.049 77.6103 306.954 51.6725 306.954C25.7346 306.954 4.63905 328.049 4.63905 353.987V414.311H6.10352e-05V353.987C6.10352e-05 325.493 23.1781 302.331 51.6555 302.331C80.1329 302.331 103.311 325.51 103.311 353.987V414.311H103.345Z" fill="#E4E9EF"/>
<path d="M4.65564 484.455V414.294H0.0165405V484.455" fill="#E4E9EF"/>
<path d="M579.91 127.319L609.251 97.9609H615.82L579.91 133.871V127.319Z" fill="#718096"/>
<path d="M576.067 105.224H604.476V133.617L595.114 142.98L576.067 132.974L566.721 114.57L576.067 105.224Z" fill="#E4E9EF"/>
<path d="M595.113 114.57H566.721V142.963H595.113V114.57Z" fill="white"/>
<path d="M580.926 135.75C584.778 135.75 587.901 132.627 587.901 128.775C587.901 124.922 584.778 121.799 580.926 121.799C577.073 121.799 573.95 124.922 573.95 128.775C573.95 132.627 577.073 135.75 580.926 135.75Z" fill="#21313F"/>
<path d="M587.596 126.743L580.231 133.871L575.27 132.178L584.616 122.832C584.616 122.832 585.835 123.746 586.445 124.525C587.325 125.66 587.579 126.726 587.579 126.726L587.596 126.743Z" fill="#617184"/>
<path d="M582.213 131.907L496.154 217.966V211.413L578.708 128.859C578.708 128.859 579.826 128.402 581.18 129.638C582.433 130.789 582.196 131.924 582.196 131.924L582.213 131.907Z" fill="#E4E9EF"/>
<path d="M361.859 227.024H387.56C388.457 227.024 389.185 227.752 389.185 228.649V236.742C389.185 238.469 391.047 239.535 392.537 238.672L424.722 219.896C426.195 219.032 426.195 216.899 424.722 216.036L392.537 197.259C391.047 196.396 389.185 197.463 389.185 199.19V207.282C389.185 208.18 388.457 208.908 387.56 208.908H363.806C363.806 208.908 362.824 214.19 362.468 217.966C362.163 221.318 361.842 227.024 361.842 227.024H361.859Z" fill="#E4E9EF"/>
<path d="M451.083 256.551H446.36C445.462 256.551 444.734 255.823 444.734 254.925V246.832C444.734 245.106 442.872 244.039 441.382 244.902L409.197 263.679C407.724 264.542 407.724 266.675 409.197 267.539L428.735 278.933L451.1 256.568L451.083 256.551Z" fill="white"/>
<path d="M497.474 230.46H477.157V250.777H497.474V230.46Z" fill="#617184"/>
<path d="M456.84 250.777H477.157V230.46L456.84 250.777Z" fill="#718096"/>
<path d="M477.157 230.46H497.474V210.144L477.157 230.46Z" fill="white"/>
<path d="M306.61 375.223C311.845 370.887 312.546 363.093 308.174 357.814C303.802 352.535 296.014 351.771 290.779 356.106C285.543 360.442 284.843 368.237 289.214 373.515C293.586 378.794 301.374 379.559 306.61 375.223Z" fill="#617184"/>
<path d="M818.175 354.139H811.522C811.4 354.139 811.301 354.238 811.301 354.359V419.119C811.301 419.241 811.4 419.339 811.522 419.339H818.175C818.297 419.339 818.395 419.241 818.395 419.119V354.359C818.395 354.238 818.297 354.139 818.175 354.139Z" fill="#8697AD"/>
<path d="M751.587 411.72H816.55V419.322H751.604" fill="#8697AD"/>
<path d="M730.356 316.011H810.59C810.98 316.011 811.318 316.333 811.318 316.739V411.737H730.373C729.983 411.737 729.645 411.416 729.645 411.009V316.739C729.645 316.35 729.966 316.011 730.373 316.011H730.356Z" fill="#617184"/>
<path d="M729.712 406.641H811.132C811.217 406.641 811.301 406.709 811.301 406.811V411.737H729.797C729.662 411.737 729.543 411.619 729.543 411.483V406.811C729.543 406.726 729.611 406.641 729.712 406.641Z" fill="#445766"/>
<path d="M811.301 309.459V409.858C811.301 409.96 811.217 410.044 811.115 410.044H806.171V309.459C806.171 309.358 806.256 309.273 806.358 309.273H811.115C811.217 309.273 811.301 309.358 811.301 309.459Z" fill="#445766"/>
<path d="M399.937 543.17L444.99 498.118C445.582 497.525 446.378 497.204 447.208 497.204H540.919C542.307 497.204 543.577 495.053 544.034 496.154C544.237 496.628 545.338 501.436 542.968 503.891C540.97 505.957 536.466 510.376 536.466 510.376L502.994 543.848" fill="#445766"/>
<path d="M395.399 543.848L444.989 494.257C445.582 493.665 446.378 493.343 447.207 493.343H540.919C543.712 493.343 545.101 496.713 543.137 498.693L497.83 544" fill="#718096"/>
<path d="M396.618 543.848L445.784 494.681C446.36 494.105 447.139 493.783 447.968 493.783H536.702C539.445 493.783 540.816 497.102 538.886 499.049L494.071 543.864" fill="#192430"/>
<path d="M399.31 543.729L444.38 498.659C445.87 497.17 447.884 496.34 450.001 496.34H532.013C534.603 496.34 535.89 499.455 534.062 501.284L491.498 543.847" fill="#E4E9EF"/>
<path d="M511.662 477.344L505.737 477.327L486.808 477.293H481.577V469.37H510.393L511.662 477.344Z" fill="#445766"/>
<path d="M511.663 472.332L479.46 472.265L480.442 469.37L511.663 468.574V472.332Z" fill="#718096"/>
<path d="M513.034 471.13L507.718 471.113L478.428 471.063L480.781 466.915L512.543 466.119L513.034 471.13Z" fill="#192430"/>
<path d="M513.813 466.119C511.916 468.117 505.72 467.778 505.72 467.778L480.053 467.727L481.441 459.99C481.441 459.99 481.78 462.614 484.641 463.884C487.011 464.934 489.348 465.865 496.255 465.865C501.656 465.865 505.432 464.104 507.684 462.885C510.426 461.412 512.069 457.45 512.069 457.45L513.813 466.136V466.119Z" fill="#E4E9EF"/>
<path d="M578.928 415.377C573.933 424.943 576.101 434.949 577.929 445.175C578.962 450.949 579.876 456.79 579.334 462.648L618.207 423.775C616.531 420.491 614.262 417.325 611.723 414.243C611.723 414.243 600.565 422.59 597.366 419.051C590.17 425.316 587.613 417.138 578.928 415.377Z" fill="#445766"/>
<path d="M578.928 415.377C571.936 428.753 578.285 443.719 578.776 458.178L617.615 419.339C616.26 417.206 613.45 416.359 611.757 414.294C608.709 410.586 603.664 424.232 600.464 420.677C593.268 426.958 587.614 417.155 578.911 415.377H578.928Z" fill="#718096"/>
<path d="M578.945 415.377C572.545 427.618 576.168 442.348 577.506 455.554L616.209 416.85C612.552 411.72 611.604 420.321 607.287 415.53C600.091 421.794 586.868 418.527 578.945 415.394V415.377Z" fill="#192430"/>
<path d="M577.844 412.55C575.423 417.172 569.514 420.948 568.82 426.518C567.788 434.865 573.95 448.121 574.932 455.571L620.865 409.638C617.378 405.05 616.616 413.464 612.705 409.13C610.436 414.26 604.138 415.801 598.415 416.563C590.068 417.663 582.382 416.326 577.844 412.567V412.55Z" fill="#E4E9EF"/>
<path d="M742.41 500.826C757.632 500.826 769.973 488.486 769.973 473.263C769.973 458.04 757.632 445.7 742.41 445.7C727.187 445.7 714.847 458.04 714.847 473.263C714.847 488.486 727.187 500.826 742.41 500.826Z" fill="#E4E9EF"/>
<path d="M365.566 316.011H393.958V344.404L384.613 353.766L365.566 343.777L356.22 325.357L365.566 316.011Z" fill="#E4E9EF"/>
<path d="M384.613 325.357H356.22V353.749H384.613V325.357Z" fill="white"/>
<path d="M352.157 289.464H364.28V301.586L360.284 305.582L352.157 301.315L348.162 293.459L352.157 289.464Z" fill="#617184"/>
<path d="M360.284 293.459H348.161V305.582H360.284V293.459Z" fill="#8697AD"/>
<path d="M600.412 174.115H612.534V186.237L608.538 190.233L600.412 185.966L596.416 178.11L600.412 174.115Z" fill="#617184"/>
<path d="M608.538 178.11H596.416V190.233H608.538V178.11Z" fill="#8697AD"/>
<path d="M589.119 155.948H598.228V165.057L595.231 168.07L589.119 164.854L586.106 158.945L589.119 155.948Z" fill="#617184"/>
<path d="M595.231 158.945H586.106V168.07H595.231V158.945Z" fill="#8697AD"/>
<path d="M742.409 401.443C751.311 401.443 758.527 394.227 758.527 385.325C758.527 376.423 751.311 369.207 742.409 369.207C733.507 369.207 726.291 376.423 726.291 385.325C726.291 394.227 733.507 401.443 742.409 401.443Z" fill="#8697AD"/>
<path d="M742.409 345.301C748.16 345.301 752.822 340.639 752.822 334.889C752.822 329.138 748.16 324.476 742.409 324.476C736.659 324.476 731.997 329.138 731.997 334.889C731.997 340.639 736.659 345.301 742.409 345.301Z" fill="#445766"/>
<path d="M370.409 346.537C374.262 346.537 377.385 343.414 377.385 339.561C377.385 335.709 374.262 332.586 370.409 332.586C366.557 332.586 363.434 335.709 363.434 339.561C363.434 343.414 366.557 346.537 370.409 346.537Z" fill="#192430"/>
<path d="M377.012 337.293L334.245 380.06V373.508L374.117 333.636C374.117 333.636 375.404 334.499 375.945 335.329C376.487 336.158 376.995 337.293 376.995 337.293H377.012Z" fill="#445766"/>
<path d="M370.663 343.642L334.262 380.043V373.491L367.175 340.577C367.175 340.577 368.292 340.12 369.647 341.356C370.899 342.507 370.663 343.642 370.663 343.642Z" fill="#8697AD"/>
<path d="M456.299 192.045H436.626V211.718H456.299V192.045Z" fill="#617184"/>
<path d="M484.929 201.543H469.387V217.085H484.929V201.543Z" fill="#617184"/>
<rect x="351" y="123" width="71" height="20" rx="10" fill="#617184"/>
<rect x="502" y="123" width="48" height="20" rx="10" fill="#617184"/>
<rect x="438" y="123" width="49" height="20" rx="10" fill="#222B38"/>
<rect x="415" y="153" width="39" height="20" rx="10" fill="#E4E9EF"/>
<rect x="364" y="153" width="41" height="20" rx="10" fill="#222B38"/>
</svg>
