<svg width="773" height="747" viewBox="0 0 773 747" fill="none" xmlns="http://www.w3.org/2000/svg">
<path d="M672.768 97.5363H355.575C338.911 97.5363 325.402 111.045 325.402 127.709V502.749C325.402 519.413 338.911 532.922 355.575 532.922H672.768V435.423H773V195.025H672.768V97.5269V97.5363Z" fill="#F9B934"/>
<path d="M428.491 97.5363H353.969C338.188 97.5363 325.393 110.387 325.393 126.234V201.169H428.491V97.5363Z" fill="#CE9021"/>
<path d="M743.626 363.673C706.266 399.586 655.512 421.671 599.59 421.671C484.797 421.671 391.742 328.615 391.742 213.822C391.742 170.771 404.828 130.781 427.241 97.6113H646.756V234.893L743.635 363.682L743.626 363.673Z" fill="#E0A32B"/>
<path d="M724.725 283.872C724.725 338.516 760.159 316.995 719.747 347.656C691.584 369.018 656.47 381.7 618.387 381.7C525.67 381.7 450.51 306.54 450.51 213.822C450.51 168.723 468.292 127.766 497.235 97.6113H665.544L628.589 257.194L722.978 249.012L724.735 283.882L724.725 283.872Z" fill="#F9B934"/>
<path d="M761.803 214.189C761.803 283.741 705.421 340.123 635.869 340.123C566.317 340.123 509.935 283.741 509.935 214.189C509.935 161.452 542.353 116.286 588.346 97.5269H672.777V225.152L761.812 214.18L761.803 214.189Z" fill="#E0A32B"/>
<path d="M531.588 201.169H428.491V276.611H531.588V201.169Z" fill="#CE9021"/>
<path d="M531.579 201.169H428.491L474.924 169.549H531.579V201.169Z" fill="#E0A32B"/>
<path d="M528.159 279.495C516.586 260.454 509.926 238.096 509.926 214.189C509.926 203.01 511.382 192.179 514.115 181.865H544.364L537.872 264.117L536.304 279.72L528.159 279.495Z" fill="#E0A32B"/>
<path d="M633.68 97.6021H530.583V200.793H633.68V97.6021Z" fill="#CE9021"/>
<path d="M672.768 110.922L567.679 194.8L577.176 262.614L586.664 276.789L672.768 276.226V110.922Z" fill="#E0A32B"/>
<path d="M591.145 205.039C591.145 197.318 584.889 191.061 577.167 191.061C569.445 191.061 563.189 197.318 563.189 205.039V276.789H591.136V205.039H591.145Z" fill="#F9B934"/>
<path d="M586.664 206.533C586.664 201.291 582.418 197.045 577.176 197.045C571.935 197.045 567.689 201.291 567.689 206.533V276.789H586.664V206.533Z" fill="#2D3748"/>
<path d="M586.664 261.44L567.679 276.789H586.664V261.44Z" fill="#192430"/>
<path d="M442.581 247.058C442.581 239.336 436.325 233.08 428.603 233.08C420.881 233.08 414.625 239.336 414.625 247.058V276.789H442.572V247.058H442.581Z" fill="#F9B934"/>
<path d="M438.091 248.551C438.091 243.31 433.845 239.064 428.603 239.064C423.361 239.064 419.115 243.31 419.115 248.551V276.789H438.091V248.551Z" fill="#2D3748"/>
<path d="M438.091 261.44L419.115 276.789H438.091V261.44Z" fill="#192430"/>
<path d="M508.911 233.399C508.911 225.678 502.655 219.421 494.933 219.421C487.212 219.421 480.955 225.678 480.955 233.399V276.789H508.902V233.399H508.911Z" fill="#E0A32B"/>
<path d="M504.431 234.893C504.431 229.651 500.185 225.405 494.943 225.405C489.701 225.405 485.455 229.651 485.455 234.893V276.789H504.431V234.893Z" fill="#2D3748"/>
<path d="M504.431 261.44L485.446 276.789H504.431V261.44Z" fill="#192430"/>
<path d="M391.977 223.761C391.817 220.464 391.742 217.148 391.742 213.813C391.742 182.56 398.637 152.922 410.999 126.328C415.659 116.296 421.107 106.695 427.241 97.6021L441.454 165.078L412.361 200.793L391.986 223.771L391.977 223.761Z" fill="#E0A32B"/>
<path d="M381.634 310.833C366.801 310.833 353.227 311.81 353.227 307.094C353.227 302.378 365.251 298.555 380.084 298.555H640.51V284.455L373.152 286.174C354.42 286.174 325.375 298.038 325.375 298.038V307.094C325.375 315.501 346.802 322.312 373.245 322.312H412.333L415.518 311.208L381.615 310.823L381.634 310.833Z" fill="#192430"/>
<path d="M418.138 322.312C432.971 322.312 444.995 326.135 444.995 330.851C444.995 335.567 420.938 334.721 406.105 334.721L382.987 334.139L385.88 346.069H424.968C451.402 346.069 472.839 339.258 472.839 330.851V321.795C472.839 321.795 448.358 309.677 425.559 309.677L381.643 310.833L385.88 322.312H418.138Z" fill="#192430"/>
<path d="M385.11 357.257C370.277 357.257 353.237 359.342 353.237 354.627C353.237 349.911 365.261 346.088 380.094 346.088H412.352L416.119 332.795L376.439 333.763C357.624 333.763 325.393 345.58 325.393 345.58V354.636C325.393 363.044 346.821 369.854 373.264 369.854H412.352L418.815 357.839L385.11 357.257Z" fill="#192430"/>
<path d="M418.139 369.845C432.971 369.845 444.995 373.668 444.995 378.384C444.995 383.099 429.026 381.343 414.193 381.343H374.701L385.871 393.611H424.958C451.393 393.611 472.829 386.801 472.829 378.393V369.337C472.829 369.337 440.627 357.078 421.502 357.078L385.871 363.175V369.854H418.129L418.139 369.845Z" fill="#192430"/>
<path d="M382.601 405.41C367.769 405.41 353.236 406.838 353.236 402.113C353.236 397.387 365.26 393.574 380.093 393.574H412.352L416.692 381.719H372.963C355.744 381.719 325.384 393.066 325.384 393.066V402.122C325.384 410.529 346.811 417.34 373.255 417.34H412.342L414.954 405.607L382.592 405.41H382.601Z" fill="#192430"/>
<path d="M418.138 417.33C432.971 417.33 444.995 421.154 444.995 425.869C444.995 430.585 424.977 427.175 410.144 427.175L381.633 427.758L385.87 441.097H424.958C451.392 441.097 472.829 434.286 472.829 425.879V416.823C472.829 416.823 443.182 405.607 423.765 405.607L379.896 404.639L385.87 417.33H418.128H418.138Z" fill="#192430"/>
<path d="M385.11 451.449C370.277 451.449 353.237 454.323 353.237 449.608C353.237 444.892 365.261 441.069 380.094 441.069H412.352V434.39L376.439 427.955C357.642 427.955 325.393 440.561 325.393 440.561V449.617C325.393 458.025 346.821 464.835 373.264 464.835H412.352V451.261L385.11 451.458V451.449Z" fill="#192430"/>
<path d="M379.906 504.289L406.171 489.917C406.171 489.917 435.339 480.401 438.505 479.227C444.488 477 444.996 474.098 444.996 473.365C444.996 468.649 432.972 464.826 418.139 464.826H385.88L377.332 449.598L424.968 452.604C444.207 452.604 472.839 464.309 472.839 464.309V473.365C472.839 475.15 471.881 476.859 470.105 478.447C469.119 479.339 379.849 532.931 379.849 532.931H363.777L379.906 504.289Z" fill="#192430"/>
<path d="M381.634 304.802C366.801 304.802 353.227 305.779 353.227 301.063C353.227 296.347 365.251 292.524 380.084 292.524H640.51V278.424L373.152 280.143C354.42 280.143 325.375 292.007 325.375 292.007V301.063C325.375 309.47 346.802 316.281 373.245 316.281H412.333L415.518 305.177L381.615 304.792L381.634 304.802Z" fill="#2D3748"/>
<path d="M418.138 316.281C432.971 316.281 444.995 320.104 444.995 324.82C444.995 329.536 420.938 328.69 406.105 328.69L382.987 328.108L385.88 340.038H424.968C451.402 340.038 472.839 333.227 472.839 324.82V315.764C472.839 315.764 448.358 303.646 425.559 303.646L381.643 304.802L385.88 316.281H418.138Z" fill="#2D3748"/>
<path d="M385.11 351.226C370.277 351.226 353.237 353.311 353.237 348.596C353.237 343.88 365.261 340.057 380.094 340.057H412.352L416.119 326.765L376.439 327.732C357.624 327.732 325.393 339.55 325.393 339.55V348.605C325.393 357.013 346.821 363.823 373.264 363.823H412.352L418.815 351.808L385.11 351.226Z" fill="#2D3748"/>
<path d="M418.139 363.804C432.971 363.804 444.995 367.628 444.995 372.343C444.995 377.059 429.026 375.302 414.193 375.302H374.701L385.871 387.571H424.958C451.393 387.571 472.829 380.76 472.829 372.353V363.297C472.829 363.297 440.627 351.038 421.502 351.038L385.871 357.135V363.814H418.129L418.139 363.804Z" fill="#2D3748"/>
<path d="M382.601 399.379C367.769 399.379 353.236 400.807 353.236 396.082C353.236 391.357 365.26 387.543 380.093 387.543H412.352L416.692 375.688H372.963C355.744 375.688 325.384 387.035 325.384 387.035V396.091C325.384 404.499 346.811 411.309 373.255 411.309H412.342L414.954 399.576L382.592 399.379H382.601Z" fill="#2D3748"/>
<path d="M418.138 411.3C432.971 411.3 444.995 415.123 444.995 419.839C444.995 424.554 424.977 421.144 410.144 421.144L381.633 421.727L385.87 435.066H424.958C451.392 435.066 472.829 428.256 472.829 419.848V410.792C472.829 410.792 443.182 399.576 423.765 399.576L379.896 398.609L385.87 411.3H418.128H418.138Z" fill="#2D3748"/>
<path d="M385.11 445.418C370.277 445.418 353.237 448.293 353.237 443.577C353.237 438.861 365.261 435.038 380.094 435.038H412.352V428.359L376.439 421.924C357.642 421.924 325.393 434.531 325.393 434.531V443.586C325.393 451.994 346.821 458.804 373.264 458.804H412.352V445.23L385.11 445.427V445.418Z" fill="#2D3748"/>
<path d="M358.995 505.98L406.162 483.876C406.162 483.876 435.33 474.361 438.495 473.186C444.479 470.96 444.986 468.057 444.986 467.325C444.986 462.609 432.962 458.786 418.129 458.786H385.871L377.323 443.558L424.959 446.564C444.197 446.564 472.83 458.269 472.83 458.269V467.325C472.83 469.109 471.872 470.819 470.096 472.407C468.866 473.515 369.779 532.931 369.779 532.931H354.665L350.475 517.582L358.986 505.98H358.995Z" fill="#2D3748"/>
<path d="M380.094 300.546C365.261 300.546 353.237 296.723 353.237 292.007C353.237 287.292 365.261 283.468 380.094 283.468H643.995V276.789H373.264C346.83 276.789 325.393 283.6 325.393 292.007C325.393 300.415 346.821 307.225 373.264 307.225H412.352V300.546H380.094Z" fill="#E0A32B"/>
<path d="M418.139 307.225C432.972 307.225 444.996 311.049 444.996 315.764C444.996 320.48 432.972 324.303 418.139 324.303H385.881V330.982H424.968C451.403 330.982 472.839 324.172 472.839 315.764C472.839 307.357 451.412 300.546 424.968 300.546H385.881V307.225H418.139Z" fill="#E0A32B"/>
<path d="M380.094 348.079C365.261 348.079 353.237 344.256 353.237 339.54C353.237 334.824 365.261 331.001 380.094 331.001H412.352V324.322H373.264C346.83 324.322 325.393 331.133 325.393 339.54C325.393 347.948 346.821 354.758 373.264 354.758H412.352V348.079H380.094Z" fill="#E0A32B"/>
<path d="M418.139 354.749C432.972 354.749 444.996 358.572 444.996 363.288C444.996 368.004 432.972 371.827 418.139 371.827H385.881V378.506H424.968C451.403 378.506 472.839 371.695 472.839 363.288C472.839 354.88 451.412 348.07 424.968 348.07H385.881V354.749H418.139Z" fill="#E0A32B"/>
<path d="M380.094 395.574C365.261 395.574 353.237 391.751 353.237 387.035C353.237 382.32 365.261 378.496 380.094 378.496H412.352V371.817H373.264C346.83 371.817 325.393 378.628 325.393 387.035C325.393 395.443 346.821 402.253 373.264 402.253H412.352V395.574H380.094Z" fill="#E0A32B"/>
<path d="M418.139 402.244C432.972 402.244 444.996 406.067 444.996 410.783C444.996 415.499 432.972 419.322 418.139 419.322H385.881V426.001H424.968C451.403 426.001 472.839 419.191 472.839 410.783C472.839 402.376 451.412 395.565 424.968 395.565H385.881V402.244H418.139Z" fill="#E0A32B"/>
<path d="M380.094 443.06C365.261 443.06 353.237 439.237 353.237 434.521C353.237 429.806 365.261 425.982 380.094 425.982H412.352V419.303H373.264C346.83 419.303 325.393 426.114 325.393 434.521C325.393 442.929 346.821 449.739 373.264 449.739H412.352V443.06H380.094Z" fill="#E0A32B"/>
<path d="M0 746.81C112.407 679.118 257.466 591.727 356.543 531.992C423.7 491.495 469.72 463.699 470.115 463.351C471.881 461.763 472.848 460.054 472.848 458.269C472.848 449.861 451.421 443.051 424.977 443.051H385.889V449.73H418.148C432.981 449.73 445.005 453.553 445.005 458.269C445.005 459.002 444.498 461.914 438.514 464.131C435.348 465.305 406.18 474.821 406.18 474.821L326.492 501.396L0 610.289V746.819V746.81Z" fill="#E0A32B"/>
<path d="M463.699 387.12H437.744V532.931H463.699V387.12Z" fill="#CE9021"/>
<path d="M463.746 387.12L479.255 376.552H453.253L437.744 387.12H463.746Z" fill="#E0A32B"/>
<path d="M462.816 385.269L472.905 378.403H454.192L444.094 385.269H462.816Z" fill="#192430"/>
<path d="M479.255 501.405H463.361L463.699 387.12L479.255 376.552V501.405Z" fill="#192430"/>
<path d="M462.816 385.269L472.905 378.403H454.192V385.269H462.816Z" fill="#2D3748"/>
<path d="M458.504 379.746C465.404 379.746 470.998 374.152 470.998 367.252C470.998 360.352 465.404 354.758 458.504 354.758C451.604 354.758 446.01 360.352 446.01 367.252C446.01 374.152 451.604 379.746 458.504 379.746Z" fill="white"/>
<path d="M459.055 370.068C465.826 368.737 471.066 366.395 470.76 364.838C470.454 363.28 464.717 363.096 457.946 364.427C451.176 365.758 445.935 368.099 446.241 369.657C446.548 371.215 452.284 371.399 459.055 370.068Z" fill="#E4E9EF"/>
<path d="M772.991 0H672.768V97.508H772.991V0Z" fill="#E0A32B"/>
<path d="M529.944 298.555V304.36H475.995L472.388 298.621L529.944 298.555Z" fill="#CE9021"/>
<path d="M555.9 284.051H529.944V418.655H555.9V284.051Z" fill="#CE9021"/>
<path d="M555.946 284.051L571.455 273.492H545.453L529.944 284.051H555.946Z" fill="#E0A32B"/>
<path d="M555.017 282.21L565.105 275.333H546.393L536.304 282.21H555.017Z" fill="#192430"/>
<path d="M571.456 398.346H555.561L555.9 284.051L571.456 273.492V398.346Z" fill="#192430"/>
<path d="M555.017 282.21L565.106 275.333H546.393V282.21H555.017Z" fill="#2D3748"/>
<path d="M550.705 243.376C557.605 243.376 563.199 237.782 563.199 230.882C563.199 223.982 557.605 218.388 550.705 218.388C543.805 218.388 538.211 223.982 538.211 230.882C538.211 237.782 543.805 243.376 550.705 243.376Z" fill="white"/>
<path d="M551.549 233.643C558.142 231.609 563.108 228.731 562.64 227.214C562.173 225.697 556.448 226.115 549.854 228.149C543.261 230.182 538.295 233.061 538.763 234.578C539.231 236.095 544.955 235.676 551.549 233.643Z" fill="#E4E9EF"/>
<path d="M550.573 252.018L554.265 276.226L536.417 272.13L550.573 252.018Z" fill="#E4E9EF"/>
<path d="M554.265 276.226L564.983 269.199L550.573 252.018L554.265 276.226Z" fill="white"/>
<path d="M640.518 83.1448C647.418 83.1448 653.012 77.5512 653.012 70.651C653.012 63.7509 647.418 58.1572 640.518 58.1572C633.618 58.1572 628.024 63.7509 628.024 70.651C628.024 77.5512 633.618 83.1448 640.518 83.1448Z" fill="white"/>
<path d="M652.811 73.0233C653.111 71.4642 647.86 69.1455 641.084 67.8443C634.307 66.543 628.571 66.752 628.272 68.3111C627.973 69.8702 633.223 72.1889 640 73.4901C646.776 74.7914 652.512 74.5824 652.811 73.0233Z" fill="#E4E9EF"/>
<path d="M645.723 161.048H619.768V295.652H645.723V161.048Z" fill="#F9B934"/>
<path d="M645.77 161.048L661.279 150.489H635.277L619.768 161.048H645.77Z" fill="#E0A32B"/>
<path d="M644.83 159.207L654.929 152.33H636.207L626.118 159.207H644.83Z" fill="#192430"/>
<path d="M661.279 275.343H645.385L645.723 161.048L661.279 150.489V275.343Z" fill="#192430"/>
<path d="M644.83 159.207L654.929 152.33H636.207V159.207H644.83Z" fill="#2D3748"/>
<path d="M640.396 94.145L644.088 118.353L626.24 114.257L640.396 94.145Z" fill="#E4E9EF"/>
<path d="M644.088 118.353L654.806 111.317L640.396 94.145L644.088 118.353Z" fill="white"/>
<path d="M772.991 294.234H584.24V333.087H772.991V294.234Z" fill="#2D3748"/>
<path d="M773 294.234H584.24L630.684 262.614H773V294.234Z" fill="#E0A32B"/>
<path d="M772.991 223.761H630.684V262.614H772.991V223.761Z" fill="#2D3748"/>
<path d="M773 223.761H630.684L672.843 195.063H773V223.761Z" fill="#E0A32B"/>
<path d="M773 364.706H537.872L584.306 333.087H773V364.706Z" fill="#E0A32B"/>
<path d="M672.768 435.508H491.495V474.36H672.768V435.508Z" fill="#2D3748"/>
<path d="M773 435.508H491.495L537.938 403.888H773V435.508Z" fill="#E0A32B"/>
<path d="M773 364.706H537.872V403.888H773V364.706Z" fill="#2D3748"/>
<path d="M672.768 505.98H445.042V532.931H672.768V505.98Z" fill="#2D3748"/>
<path d="M672.768 505.98H445.042L491.486 474.361H672.768V505.98Z" fill="#E0A32B"/>
<path d="M672.768 435.508H491.495V449.739H672.768V435.508Z" fill="#192430"/>
<path d="M773 364.697H537.872V378.929H773V364.697Z" fill="#192430"/>
<path d="M773 294.234H584.278V308.465H773V294.234Z" fill="#192430"/>
<path d="M772.991 223.761H630.684V237.993H772.991V223.761Z" fill="#192430"/>
<path d="M672.768 505.98H445.042V520.212H672.768V505.98Z" fill="#192430"/>
<path d="M644.079 149.991L653.313 143.697V127.568L639.279 131.551L641.261 143.218L644.079 149.991Z" fill="white"/>
<path d="M628.598 149.991V133.853L637.832 127.568H653.313L644.079 133.853V149.991H628.598Z" fill="#E4E9EF"/>
<path d="M77.7337 661.345C90.2162 661.345 100.335 651.226 100.335 638.743C100.335 626.261 90.2162 616.142 77.7337 616.142C65.2511 616.142 55.1321 626.261 55.1321 638.743C55.1321 651.226 65.2511 661.345 77.7337 661.345Z" fill="white"/>
<path d="M78.7416 643.835C90.9897 641.428 100.47 637.194 99.9169 634.379C99.3636 631.564 88.9859 631.233 76.7378 633.641C64.4896 636.048 55.0091 640.282 55.5624 643.097C56.1158 645.912 66.4934 646.243 78.7416 643.835Z" fill="#E4E9EF"/>
<path d="M241.572 571.38C249.972 571.38 256.781 564.571 256.781 556.172C256.781 547.772 249.972 540.963 241.572 540.963C233.173 540.963 226.364 547.772 226.364 556.172C226.364 564.571 233.173 571.38 241.572 571.38Z" fill="white"/>
<path d="M255.881 561.338C256.533 559.522 250.653 555.749 242.747 552.912C234.841 550.075 227.903 549.248 227.252 551.065C226.6 552.881 232.48 556.654 240.386 559.491C248.292 562.327 255.229 563.155 255.881 561.338Z" fill="#E4E9EF"/>
<path d="M363.777 511.156C369.162 511.156 373.527 506.791 373.527 501.405C373.527 496.02 369.162 491.655 363.777 491.655C358.391 491.655 354.026 496.02 354.026 501.405C354.026 506.791 358.391 511.156 363.777 511.156Z" fill="white"/>
<path d="M364.433 503.559C369.579 501.972 373.455 499.725 373.089 498.54C372.724 497.355 368.256 497.681 363.11 499.268C357.964 500.855 354.088 503.103 354.454 504.287C354.819 505.472 359.287 505.146 364.433 503.559Z" fill="#E4E9EF"/>
<path d="M423.775 483.745C427.759 483.745 430.989 480.515 430.989 476.53C430.989 472.546 427.759 469.316 423.775 469.316C419.79 469.316 416.56 472.546 416.56 476.53C416.56 480.515 419.79 483.745 423.775 483.745Z" fill="white"/>
<path d="M429.663 480.724C430.191 479.979 427.984 477.507 424.734 475.203C421.483 472.899 418.42 471.635 417.892 472.38C417.364 473.125 419.571 475.597 422.821 477.901C426.072 480.205 429.135 481.469 429.663 480.724Z" fill="#E4E9EF"/>
<path d="M343.608 438.673C347.592 438.673 350.822 435.443 350.822 431.459C350.822 427.474 347.592 424.244 343.608 424.244C339.623 424.244 336.393 427.474 336.393 431.459C336.393 435.443 339.623 438.673 343.608 438.673Z" fill="white"/>
<path d="M344.678 432.682C347.728 430.119 349.726 427.475 349.138 426.775C348.551 426.076 345.602 427.587 342.551 430.15C339.5 432.713 337.503 435.357 338.09 436.056C338.677 436.755 341.627 435.244 344.678 432.682Z" fill="#E4E9EF"/>
<path d="M412.352 424.047C416.336 424.047 419.566 420.817 419.566 416.833C419.566 412.848 416.336 409.618 412.352 409.618C408.367 409.618 405.137 412.848 405.137 416.833C405.137 420.817 408.367 424.047 412.352 424.047Z" fill="white"/>
<path d="M413.421 418.055C416.472 415.492 418.47 412.848 417.882 412.149C417.295 411.449 414.346 412.96 411.295 415.523C408.244 418.086 406.247 420.73 406.834 421.429C407.421 422.128 410.371 420.618 413.421 418.055Z" fill="#E4E9EF"/>
<path d="M374.701 376.514C378.686 376.514 381.916 373.284 381.916 369.3C381.916 365.315 378.686 362.085 374.701 362.085C370.717 362.085 367.487 365.315 367.487 369.3C367.487 373.284 370.717 376.514 374.701 376.514Z" fill="white"/>
<path d="M374.701 370.953C378.686 370.953 381.916 370.213 381.916 369.3C381.916 368.387 378.686 367.647 374.701 367.647C370.717 367.647 367.487 368.387 367.487 369.3C367.487 370.213 370.717 370.953 374.701 370.953Z" fill="#E4E9EF"/>
<path d="M435.695 352.504C439.68 352.504 442.91 349.274 442.91 345.289C442.91 341.305 439.68 338.075 435.695 338.075C431.711 338.075 428.481 341.305 428.481 345.289C428.481 349.274 431.711 352.504 435.695 352.504Z" fill="white"/>
<path d="M436.135 346.852C439.987 345.834 442.921 344.292 442.687 343.41C442.454 342.527 439.142 342.637 435.29 343.655C431.438 344.674 428.504 346.215 428.738 347.098C428.971 347.981 432.283 347.871 436.135 346.852Z" fill="#E4E9EF"/>
<path d="M342.011 340.301C345.995 340.301 349.225 337.071 349.225 333.087C349.225 329.102 345.995 325.872 342.011 325.872C338.026 325.872 334.796 329.102 334.796 333.087C334.796 337.071 338.026 340.301 342.011 340.301Z" fill="white"/>
<path d="M349.204 333.579C349.267 332.668 346.096 331.706 342.121 331.43C338.147 331.155 334.873 331.669 334.81 332.58C334.747 333.491 337.918 334.453 341.892 334.729C345.867 335.005 349.141 334.49 349.204 333.579Z" fill="#E4E9EF"/>
<path d="M454.192 316.892C458.176 316.892 461.406 313.662 461.406 309.677C461.406 305.693 458.176 302.463 454.192 302.463C450.207 302.463 446.977 305.693 446.977 309.677C446.977 313.662 450.207 316.892 454.192 316.892Z" fill="white"/>
<path d="M455.32 310.883C458.231 308.163 460.086 305.417 459.463 304.75C458.84 304.082 455.974 305.746 453.062 308.466C450.151 311.186 448.296 313.932 448.919 314.599C449.542 315.267 452.408 313.603 455.32 310.883Z" fill="#E4E9EF"/>
<path d="M342.01 294.149C345.995 294.149 349.225 290.919 349.225 286.935C349.225 282.95 345.995 279.72 342.01 279.72C338.026 279.72 334.796 282.95 334.796 286.935C334.796 290.919 338.026 294.149 342.01 294.149Z" fill="white"/>
<path d="M348.587 289.942C348.965 289.111 346.33 287.101 342.703 285.453C339.075 283.805 335.828 283.143 335.45 283.975C335.073 284.806 337.707 286.816 341.335 288.464C344.963 290.112 348.21 290.774 348.587 289.942Z" fill="#E4E9EF"/>
<path d="M405.137 280.707C409.122 280.707 412.352 277.477 412.352 273.492C412.352 269.508 409.122 266.278 405.137 266.278C401.153 266.278 397.923 269.508 397.923 273.492C397.923 277.477 401.153 280.707 405.137 280.707Z" fill="white"/>
<path d="M405.707 275.017C409.454 273.66 412.239 271.864 411.928 271.006C411.617 270.147 408.328 270.551 404.581 271.908C400.835 273.265 398.05 275.061 398.361 275.919C398.672 276.778 401.961 276.374 405.707 275.017Z" fill="#E4E9EF"/>
<path d="M504.43 280.707C508.414 280.707 511.644 277.477 511.644 273.492C511.644 269.508 508.414 266.278 504.43 266.278C500.446 266.278 497.216 269.508 497.216 273.492C497.216 277.477 500.446 280.707 504.43 280.707Z" fill="white"/>
<path d="M511.016 276.492C511.394 275.661 508.759 273.651 505.131 272.003C501.503 270.355 498.256 269.693 497.879 270.525C497.501 271.356 500.136 273.366 503.764 275.014C507.391 276.662 510.638 277.323 511.016 276.492Z" fill="#E4E9EF"/>
</svg>
