<svg width="59" height="58" viewBox="0 0 59 58" fill="none" xmlns="http://www.w3.org/2000/svg">
<path d="M23.6 37.1L15.2968 45.507C14.1386 46.6796 13.5595 47.266 13.0618 47.3073C12.6299 47.3432 12.2071 47.1696 11.9251 46.8406C11.6 46.4614 11.6 45.6373 11.6 43.9892V39.7774C11.6 38.2987 10.3891 37.2288 8.92605 37.0145V37.0145C5.38511 36.4958 2.6042 33.7149 2.08552 30.174C2 29.5901 2 28.8934 2 27.5V14.96C2 10.4236 2 8.15536 2.88285 6.42268C3.65942 4.89856 4.89856 3.65942 6.42268 2.88285C8.15536 2 10.4236 2 14.96 2H34.94C39.4764 2 41.7446 2 43.4773 2.88285C45.0014 3.65942 46.2406 4.89856 47.0172 6.42268C47.9 8.15536 47.9 10.4236 47.9 14.96V26.3" stroke="#F9B934" stroke-width="3" stroke-linecap="round" stroke-linejoin="round"/>
<path d="M57.4 34.9398C57.4 31.9155 57.4 30.4034 56.8114 29.2483C56.2937 28.2322 55.4676 27.4061 54.4516 26.8884C53.2964 26.2998 51.7843 26.2998 48.76 26.2998H33.64C30.6157 26.2998 29.1036 26.2998 27.9485 26.8884C26.9324 27.4061 26.1063 28.2322 25.5886 29.2483C25 30.4034 25 31.9155 25 34.9398V41.7284C25 44.7527 25 46.2648 25.5886 47.4199C26.1063 48.436 26.9324 49.2621 27.9485 49.7798C29.1036 50.3684 30.6157 50.3684 33.64 50.3684H38.4917C39.4977 50.3684 40.0008 50.3684 40.486 50.4578C40.9167 50.5372 41.3362 50.6687 41.7351 50.8494C42.1847 51.0529 42.5977 51.3401 43.4237 51.9144L49.3 55.9998V50.3684C51.8161 50.3684 53.0741 50.3684 54.0665 49.9573C55.3896 49.4093 56.4409 48.358 56.989 47.0349C57.4 46.0425 57.4 44.7845 57.4 42.2684V34.9398Z" stroke="#EFF2F5" stroke-width="3" stroke-linecap="round" stroke-linejoin="round"/>
</svg>
