<svg width="439" height="685" viewBox="0 0 439 685" fill="none" xmlns="http://www.w3.org/2000/svg">
<path d="M82.3488 153.67L47.5155 188.493L12.692 153.67" stroke="#222B38" stroke-width="5" stroke-linecap="round" stroke-linejoin="round"/>
<path d="M216.199 332.457L181.375 367.29L146.542 332.457" stroke="#222B38" stroke-width="5" stroke-linecap="round" stroke-linejoin="round"/>
<path d="M47.5156 3L47.5155 404.958C47.5155 512.283 134.525 599.293 241.85 599.293C349.175 599.293 436.185 512.283 436.185 404.958V266.998C436.185 178.802 364.684 107.301 276.487 107.301C188.291 107.301 116.79 178.802 116.79 266.998V378.267C116.79 448.61 173.812 505.632 244.155 505.632C314.499 505.632 371.521 448.61 371.521 378.267V268.087C371.521 215.626 328.997 173.093 276.527 173.093C224.066 173.093 181.532 215.616 181.532 268.087V681" stroke="#222B38" stroke-width="5" stroke-linecap="round" stroke-linejoin="round"/>
<path d="M71.6666 147.058L36.8333 181.891L2 147.058" stroke="#F9B934" stroke-width="4" stroke-linecap="round" stroke-linejoin="round"/>
<path d="M205.517 325.855L170.683 360.688L135.85 325.855" stroke="#F9B934" stroke-width="4" stroke-linecap="round" stroke-linejoin="round"/>
<path d="M36.833 3V398.347C36.833 505.672 123.843 592.681 231.168 592.681C338.493 592.681 425.503 505.672 425.503 398.347V260.387C425.503 172.19 354.002 100.689 265.805 100.689C177.608 100.689 106.107 172.19 106.107 260.387V371.655C106.107 441.999 163.13 499.021 233.473 499.021C303.816 499.021 360.839 441.999 360.839 371.655V261.476C360.839 209.015 318.315 166.481 265.844 166.481C213.383 166.481 170.85 209.005 170.85 261.476V683" stroke="#F9B934" stroke-width="4" stroke-linecap="round" stroke-linejoin="round"/>
</svg>
