<svg width="20" height="18" viewBox="0 0 20 18" fill="none" xmlns="http://www.w3.org/2000/svg">
<path d="M15.1743 12.4106C16.4685 13.0607 17.578 14.104 18.3879 15.4086C18.5483 15.6669 18.6284 15.7961 18.6562 15.975C18.7125 16.3385 18.4639 16.7854 18.1254 16.9292C17.9588 17 17.7714 17 17.3966 17M13.3966 8.58421C14.7136 7.92968 15.6188 6.57054 15.6188 5C15.6188 3.42946 14.7136 2.07032 13.3966 1.41579M11.6188 5C11.6188 7.20914 9.82792 9 7.61878 9C5.40964 9 3.61878 7.20914 3.61878 5C3.61878 2.79086 5.40964 1 7.61878 1C9.82792 1 11.6188 2.79086 11.6188 5ZM1.44921 15.1674C2.86637 13.0396 5.10266 11.6667 7.61878 11.6667C10.1349 11.6667 12.3712 13.0396 13.7884 15.1674C14.0988 15.6336 14.254 15.8666 14.2362 16.1644C14.2223 16.3962 14.0703 16.68 13.8851 16.8201C13.6472 17 13.32 17 12.6656 17H2.57198C1.9176 17 1.5904 17 1.3525 16.8201C1.16727 16.68 1.0153 16.3962 1.00139 16.1644C0.983515 15.8666 1.13875 15.6336 1.44921 15.1674Z" stroke="#B2B9C8" stroke-width="1.5" stroke-linecap="round" stroke-linejoin="round"/>
</svg>
