<svg width="856" height="657" viewBox="0 0 856 657" fill="none" xmlns="http://www.w3.org/2000/svg">
<path d="M429.108 1.24141C429.502 3.96687 430.056 5.27859 430.23 5.65754H434.647C434.647 5.65754 433.043 4.46241 431.921 1.22683C431.455 -0.114038 430.638 0.00255907 430.638 0.00255907H428.671C428.787 0.0754325 428.992 0.337777 429.123 1.22683L429.108 1.24141Z" fill="#718096"/>
<path d="M426.601 0.00255907H424.634C424.634 0.00255907 423.817 -0.114038 423.351 1.22683C422.229 4.46241 420.626 5.65754 420.626 5.65754H425.042C425.217 5.27859 425.77 3.9523 426.164 1.24141C426.295 0.352351 426.485 0.0900072 426.616 0.0171338L426.601 0.00255907Z" fill="#2D3748"/>
<path d="M429.108 1.24124C428.977 0.352186 428.787 0.0898412 428.656 0.0169678H426.586C426.47 0.0898412 426.266 0.352186 426.135 1.24124C425.741 3.96671 425.187 5.27843 425.012 5.65737H430.215C430.041 5.27843 429.487 3.95213 429.093 1.24124H429.108Z" fill="#F9B934"/>
<path d="M433.028 3.66052H429.53C429.837 4.8848 430.114 5.49693 430.201 5.65725H434.646C434.646 5.65725 433.874 5.08884 433.028 3.66052Z" fill="#617184"/>
<path d="M422.229 3.67554C421.383 5.08928 420.611 5.67227 420.611 5.67227H425.027C425.114 5.49737 425.391 4.89981 425.697 3.67554H422.214H422.229Z" fill="#222B38"/>
<path d="M425.683 3.66052C425.377 4.8848 425.1 5.49693 425.012 5.65725H430.259C430.172 5.48236 429.895 4.87022 429.589 3.66052H425.697H425.683Z" fill="#CE9021"/>
<path d="M430.319 6.3999C431.047 11.3553 432.024 13.7601 432.359 14.4597H440.39C440.39 14.4597 437.46 12.2735 435.42 6.3999C434.574 3.96593 433.088 4.16998 433.088 4.16998H429.502C429.721 4.31573 430.071 4.79669 430.319 6.41448V6.3999Z" fill="#718096"/>
<path d="M425.742 4.15496H422.156C422.156 4.15496 420.67 3.95091 419.824 6.38488C417.784 12.2731 414.854 14.4447 414.854 14.4447H422.885C423.22 13.7451 424.197 11.3403 424.925 6.38488C425.159 4.76709 425.523 4.28613 425.742 4.14038V4.15496Z" fill="#2D3748"/>
<path d="M430.318 6.39904C430.085 4.78125 429.72 4.30029 429.502 4.15454H425.741C425.523 4.30029 425.173 4.78125 424.925 6.39904C424.196 11.3544 423.22 13.7593 422.885 14.4588H432.358C432.023 13.7593 431.047 11.3544 430.318 6.39904Z" fill="#F9B934"/>
<path d="M437.445 10.8307H431.076C431.629 13.046 432.14 14.1683 432.3 14.4744H440.389C440.389 14.4744 438.99 13.425 437.43 10.8307H437.445Z" fill="#617184"/>
<path d="M417.784 10.8439C416.239 13.4236 414.839 14.473 414.839 14.473H422.885C423.045 14.1669 423.555 13.0592 424.109 10.8439H417.769H417.784Z" fill="#222B38"/>
<path d="M424.08 10.8307C423.526 13.046 423.016 14.1683 422.855 14.4744H432.402C432.242 14.1683 431.731 13.046 431.178 10.8307H424.08Z" fill="#CE9021"/>
<path d="M432.576 15.8886C432.139 12.9154 431.483 12.0263 431.09 11.7786H424.181C423.773 12.0409 423.132 12.9154 422.695 15.8886C421.252 25.6974 419.27 30.0406 418.833 30.9151H436.468C436.031 30.0406 434.034 25.6974 432.606 15.8886H432.576Z" fill="#F9B934"/>
<path d="M432.576 15.8878C434.019 25.6965 436.002 30.0398 436.439 30.9143H451.378C451.378 30.9143 445.941 26.8625 442.137 15.9169C440.563 11.3988 437.794 11.7631 437.794 11.7631H431.075C431.483 12.0255 432.125 12.9 432.562 15.8732L432.576 15.8878Z" fill="#718096"/>
<path d="M424.167 11.7778H417.448C417.448 11.7778 414.679 11.3989 413.105 15.9316C409.301 26.8772 403.865 30.9289 403.865 30.9289H418.804C419.241 30.0544 421.238 25.7112 422.666 15.9024C423.103 12.9292 423.759 12.0401 424.153 11.7924L424.167 11.7778Z" fill="#2D3748"/>
<path d="M421.077 24.1957C420.057 28.2912 419.11 30.3462 418.818 30.9292H436.453C436.162 30.3608 435.215 28.2912 434.194 24.1957H421.092H421.077Z" fill="#CE9021"/>
<path d="M445.927 24.1957H434.18C435.2 28.2912 436.147 30.3462 436.439 30.9292H451.378C451.378 30.9292 448.784 28.9907 445.927 24.1957Z" fill="#617184"/>
<path d="M409.33 24.1957C406.473 28.9907 403.879 30.9292 403.879 30.9292H418.818C419.11 30.3608 420.057 28.2912 421.077 24.1957H409.33Z" fill="#222B38"/>
<path d="M436.265 32.5039C438.917 50.562 442.634 58.0096 443.115 58.9424H469.131C469.131 58.9424 459.628 51.8591 452.982 32.7371C450.227 24.8377 445.403 25.4935 445.403 25.4935H433.889C434.589 26.1057 435.594 27.8255 436.279 32.5039H436.265Z" fill="#718096"/>
<path d="M436.265 32.504C435.58 27.8255 434.588 26.1057 433.874 25.4935H421.384C420.684 26.1057 419.679 27.8255 418.994 32.504C416.341 50.562 412.624 58.0097 412.143 58.9424H443.129C442.634 58.0097 438.932 50.562 436.279 32.504H436.265Z" fill="#F9B934"/>
<path d="M421.384 25.4935H409.87C409.87 25.4935 405.032 24.8377 402.292 32.7371C395.645 51.8591 386.143 58.9424 386.143 58.9424H412.159C412.654 58.0096 416.356 50.562 419.009 32.5039C419.694 27.8255 420.685 26.1057 421.399 25.4935H421.384Z" fill="#2D3748"/>
<path d="M459.555 47.1232H438.903C440.71 54.3231 442.372 57.9376 442.882 58.9432H469.131C469.131 58.9432 464.584 55.5473 459.555 47.1232Z" fill="#617184"/>
<path d="M395.689 47.1232C390.661 55.5473 386.114 58.9432 386.114 58.9432H412.363C412.873 57.9376 414.534 54.3231 416.341 47.1232H395.689Z" fill="#222B38"/>
<path d="M416.108 47.1232C414.301 54.3231 412.64 57.9376 412.129 58.9432H443.115C442.605 57.9376 440.944 54.3231 439.136 47.1232H416.108Z" fill="#CE9021"/>
<path d="M442.925 62.0302C447.049 90.0719 452.617 103.612 454.482 107.591H499.926C499.926 107.591 483.384 95.2751 471.812 61.9719C467.031 48.2134 458.607 49.3503 458.607 49.3503H438.319C439.572 50.1373 441.569 52.8628 442.925 62.0157V62.0302Z" fill="#718096"/>
<path d="M417.026 49.3504H396.738C396.738 49.3504 388.314 48.2136 383.534 61.9721C371.947 95.2606 355.419 107.591 355.419 107.591H400.863C402.728 103.626 408.296 90.072 412.421 62.0304C413.761 52.8775 415.773 50.152 417.026 49.365V49.3504Z" fill="#2D3748"/>
<path d="M442.925 62.0297C441.584 52.8768 439.573 50.1513 438.319 49.3643H417.026C415.772 50.1513 413.775 52.8768 412.42 62.0297C408.295 90.0714 402.728 103.611 400.862 107.59H454.468C452.602 103.626 447.035 90.0714 442.91 62.0297H442.925Z" fill="#F9B934"/>
<path d="M483.224 87.026H447.21C450.358 99.5748 453.258 105.886 454.148 107.649H499.927C499.927 107.649 491.983 101.732 483.224 87.026Z" fill="#617184"/>
<path d="M372.034 87.141C363.318 101.759 355.419 107.662 355.419 107.662H400.95C401.825 105.913 404.725 99.6315 407.858 87.141H372.034Z" fill="#222B38"/>
<path d="M407.64 87.04C404.507 99.5888 401.592 105.885 400.703 107.649H454.702C453.813 105.885 450.913 99.5888 447.764 87.04H407.626H407.64Z" fill="#CE9021"/>
<path d="M455.401 115.286C462.907 166.356 473.051 191.046 476.446 198.275H559.245C559.245 198.275 529.119 175.83 508.03 115.184C499.314 90.1304 483.982 92.2001 483.982 92.2001H447.035C449.308 93.6284 452.967 98.5983 455.415 115.286H455.401Z" fill="#718096"/>
<path d="M408.238 92.2001H371.291C371.291 92.2001 355.958 90.1304 347.243 115.184C326.153 175.83 296.027 198.275 296.027 198.275H378.826C382.236 191.046 392.366 166.356 399.872 115.286C402.32 98.6129 405.979 93.6429 408.252 92.2001H408.238Z" fill="#2D3748"/>
<path d="M455.4 115.286C452.952 98.6121 449.294 93.6421 447.02 92.1992H408.237C405.963 93.6275 402.305 98.5975 399.856 115.286C392.35 166.355 382.206 191.045 378.81 198.274H476.446C473.036 191.045 462.906 166.355 455.4 115.286Z" fill="#F9B934"/>
<path d="M528.828 160.833H463.227C468.955 183.7 474.246 195.185 475.863 198.391H559.245C559.245 198.391 544.772 187.606 528.828 160.833Z" fill="#617184"/>
<path d="M326.269 161.024C310.397 187.666 296.012 198.393 296.012 198.393H378.956C380.56 195.202 385.836 183.775 391.534 161.024H326.269Z" fill="#222B38"/>
<path d="M391.112 160.849C385.384 183.702 380.093 195.187 378.475 198.393H476.854C475.237 195.187 469.946 183.702 464.218 160.849H391.097H391.112Z" fill="#CE9021"/>
<path d="M478.589 213.037C474.1 182.445 467.395 173.321 463.227 170.669H392.03C387.861 173.307 381.157 182.445 376.668 213.037C361.816 314.069 341.353 358.842 336.806 367.893H518.465C513.903 358.842 493.455 314.069 478.603 213.037H478.589Z" fill="#F9B934"/>
<path d="M478.588 213.038C493.44 314.07 513.903 358.844 518.45 367.894H672.315C672.315 367.894 616.305 326.153 577.084 213.403C560.877 166.822 532.369 170.67 532.369 170.67H463.227C467.395 173.308 474.099 182.446 478.588 213.038Z" fill="#718096"/>
<path d="M392.03 170.67H322.888C322.888 170.67 294.365 166.807 278.173 213.403C238.953 326.152 182.942 367.894 182.942 367.894H336.807C341.369 358.843 361.817 314.07 376.669 213.038C381.158 182.446 387.862 173.322 392.03 170.67Z" fill="#2D3748"/>
<path d="M360.111 298.563C349.544 340.771 339.764 361.963 336.791 367.88H518.45C515.477 361.963 505.697 340.756 495.131 298.563H360.111Z" fill="#CE9021"/>
<path d="M616.188 298.563H495.131C505.698 340.771 515.477 361.963 518.451 367.88H672.316C672.316 367.88 645.615 347.985 616.174 298.563H616.188Z" fill="#617184"/>
<path d="M239.068 298.563C209.627 347.985 182.927 367.88 182.927 367.88H336.792C339.765 361.963 349.544 340.756 360.111 298.563H239.054H239.068Z" fill="#222B38"/>
<path d="M516.6 384.161C543.942 570.207 582.186 646.986 587.243 656.533H855.257C855.257 656.533 757.373 583.601 688.829 386.566C660.51 305.152 610.679 311.9 610.679 311.9H491.998C499.27 318.269 509.516 335.933 516.6 384.175V384.161Z" fill="#718096"/>
<path d="M516.599 384.16C509.516 335.932 499.27 318.253 491.997 311.884H363.259C355.986 318.253 345.74 335.918 338.657 384.16C311.315 570.206 273.071 646.985 268.013 656.532H587.243C582.185 646.985 543.941 570.206 516.599 384.16Z" fill="#F9B934"/>
<path d="M363.259 311.885H244.578C244.578 311.885 194.747 305.151 166.428 386.551C97.8836 583.6 0 656.532 0 656.532H268.014C273.071 646.986 311.315 570.206 338.657 384.161C345.741 335.933 355.987 318.254 363.259 311.885Z" fill="#2D3748"/>
</svg>
