<svg width="15" height="18" viewBox="0 0 15 18" fill="none" xmlns="http://www.w3.org/2000/svg">
<path d="M5.04171 8.62428L6.65839 10.241L10.2959 6.60342M13.9335 9.02845C13.9335 12.9961 9.60564 15.8819 8.03095 16.8006C7.85199 16.905 7.76251 16.9572 7.63623 16.9842C7.53822 17.0053 7.39524 17.0053 7.29724 16.9842C7.17096 16.9572 7.08148 16.905 6.90252 16.8006C5.32783 15.8819 1 12.9961 1 9.02845V5.16264C1 4.51636 1 4.19322 1.1057 3.91545C1.19907 3.67007 1.35081 3.45112 1.54778 3.27753C1.77075 3.08103 2.07331 2.96756 2.67844 2.74064L7.01261 1.11533C7.18066 1.05231 7.26468 1.0208 7.35113 1.00831C7.4278 0.99723 7.50567 0.99723 7.58234 1.00831C7.66878 1.0208 7.75281 1.05231 7.92086 1.11533L12.255 2.74064C12.8601 2.96756 13.1627 3.08103 13.3857 3.27753C13.5827 3.45112 13.7344 3.67007 13.8278 3.91545C13.9335 4.19322 13.9335 4.51636 13.9335 5.16264V9.02845Z" stroke="#B2B9C8" stroke-width="1.5" stroke-linecap="round" stroke-linejoin="round"/>
</svg>
