<svg width="835" height="680" viewBox="0 0 835 680" fill="none" xmlns="http://www.w3.org/2000/svg">
<path d="M25.9646 715.289L374.678 366.203C365.229 335.754 359.527 304.482 359.527 276.63C359.527 276.63 393.863 267.102 430.563 246.112C467.321 225.089 483.946 198.655 483.946 198.655C483.946 198.655 500.571 225.089 537.329 246.112C574.03 267.113 608.365 276.63 608.365 276.63C608.365 373.65 539.077 512.305 483.946 512.305C455.61 512.305 423.525 475.668 399.039 426.883L831.597 -6.1369" stroke="#222B38" stroke-width="5" stroke-linecap="round" stroke-linejoin="round"/>
<path d="M2.70117 718L364.395 355.92C354.946 325.471 349.244 294.199 349.244 266.347C349.244 266.347 383.579 256.818 420.28 235.829C457.038 214.806 473.663 188.372 473.663 188.372C473.663 188.372 490.288 214.806 527.046 235.829C563.746 256.83 598.082 266.347 598.082 266.347C598.082 363.366 528.794 502.022 473.663 502.022C445.326 502.022 413.242 465.385 388.755 416.6L817.886 -13" stroke="#F9B934" stroke-width="4" stroke-linecap="round" stroke-linejoin="round"/>
</svg>
