<svg width="34" height="37" viewBox="0 0 34 37" fill="none" xmlns="http://www.w3.org/2000/svg">
<path d="M13.5546 32.9849L12.5808 30.8053C12.2338 30.0274 11.6478 29.379 10.9071 28.9536C10.166 28.5281 9.30865 28.3469 8.45776 28.4358L6.07505 28.6883C5.36584 28.7624 4.65023 28.6305 4.01478 28.3084C3.37933 27.9864 2.85128 27.4879 2.49451 26.8734C2.13764 26.259 1.96762 25.5547 2.00509 24.8459C2.04255 24.1372 2.28589 23.4546 2.70557 22.8808L4.11631 20.9517C4.61941 20.2631 4.89034 19.4336 4.89018 18.5823C4.89034 17.7309 4.61941 16.9014 4.11631 16.2129L2.70557 14.2838C2.28589 13.71 2.04255 13.0273 2.00509 12.3186C1.96762 11.6099 2.13764 10.9056 2.49451 10.2911C2.85093 9.67633 3.37891 9.17762 4.01445 8.85549C4.64999 8.53336 5.36579 8.40164 6.07505 8.4763L8.46517 8.72872C9.31606 8.81765 10.1734 8.63643 10.9145 8.21098C11.6524 7.78432 12.2357 7.13613 12.5808 6.3593L13.5546 4.17965C13.8441 3.53083 14.3165 2.97954 14.9146 2.59265C15.5127 2.20576 16.2107 1.99988 16.9241 2C17.6374 1.99988 18.3354 2.20576 18.9335 2.59265C19.5316 2.97954 20.004 3.53083 20.2935 4.17965L21.2748 6.3593C21.6198 7.13613 22.2031 7.78432 22.941 8.21098C23.6821 8.63643 24.5395 8.81765 25.3903 8.72872L27.773 8.4763C28.4823 8.40164 29.1981 8.53336 29.8337 8.85549C30.4692 9.17762 30.9972 9.67633 31.3536 10.2911C31.7105 10.9056 31.8805 11.6099 31.843 12.3186C31.8055 13.0273 31.5622 13.71 31.1425 14.2838L29.7318 16.2129C29.2287 16.9014 28.9578 17.7309 28.9579 18.5823C28.9537 19.436 29.2221 20.2689 29.7244 20.9609L31.1351 22.89C31.5548 23.4638 31.7981 24.1464 31.8356 24.8552C31.8731 25.5639 31.7031 26.2682 31.3462 26.8826C30.9898 27.4974 30.4618 27.9962 29.8262 28.3183C29.1907 28.6404 28.4749 28.7721 27.7656 28.6975L25.3829 28.4451C24.532 28.3561 23.6747 28.5373 22.9336 28.9628C22.1971 29.3871 21.614 30.0318 21.2674 30.8053L20.2935 32.9849C20.004 33.6337 19.5316 34.185 18.9335 34.5719C18.3354 34.9588 17.6374 35.1647 16.9241 35.1646C16.2107 35.1647 15.5127 34.9588 14.9146 34.5719C14.3165 34.185 13.8441 33.6337 13.5546 32.9849Z" stroke="#F9B934" stroke-width="2.5" stroke-linecap="round" stroke-linejoin="round"/>
<path d="M12.2257 23.8334C13.4451 22.5446 15.1006 21.7525 16.924 21.7525C18.7475 21.7525 20.403 22.5446 21.6223 23.8334M19.2732 17.3305C19.2732 18.6234 18.2214 19.6716 16.924 19.6716C15.6266 19.6716 14.5749 18.6234 14.5749 17.3305C14.5749 16.0376 15.6266 14.9895 16.924 14.9895C18.2214 14.9895 19.2732 16.0376 19.2732 17.3305Z" stroke="#F9B934" stroke-width="2.5" stroke-linecap="round" stroke-linejoin="round"/>
<circle cx="16.9241" cy="18.5824" r="7.46203" stroke="#F9B934" stroke-width="2.5"/>
</svg>
