<?xml version="1.0" encoding="UTF-8"?>
<svg id="Layer_2" data-name="Layer 2" xmlns="http://www.w3.org/2000/svg" viewBox="0 0 36 30">
  <defs>
    <style>
      .cls-1 {
        fill: none;
        stroke: #2d3748;
        stroke-linecap: round;
        stroke-linejoin: round;
        stroke-width: 2px;
      }
    </style>
  </defs>
  <g id="Layer_1-2" data-name="Layer 1">
    <path class="cls-1" d="M6.1,11.72v10c0,.6,0,.9.09,1.16.08.23.22.45.39.62.2.2.47.33,1.02.6l9.18,4.49c.45.22.67.33.9.37.21.04.42.04.63,0,.23-.04.46-.15.9-.37l9.18-4.49c.55-.27.82-.4,1.02-.6.18-.18.31-.39.39-.62.09-.26.09-.56.09-1.16v-10M1,9.22L17.39,1.2c.22-.11.33-.16.45-.19.1-.02.21-.02.31,0,.12.02.23.08.45.19l16.39,8.02-16.39,8.02c-.22.11-.33.16-.45.19-.1.02-.21.02-.31,0-.12-.02-.23-.08-.45-.19L1,9.22Z"/>
  </g>
</svg>