<svg width="1861" height="318" viewBox="0 0 1861 318" fill="none" xmlns="http://www.w3.org/2000/svg">
<path d="M1857.5 315.027H1704.05C1693.47 315.027 1684.78 306.694 1684.31 296.137C1683.91 287.324 1683.16 277.948 1682.49 273.564C1680.78 266.125 1673.87 261.974 1669.92 255.908C1663.71 247.862 1658.23 239.252 1653.83 230.089C1651.16 225.491 1649.44 220.287 1649.7 214.923C1658.46 213.38 1667.51 213.657 1676.14 211.443C1681.4 208.612 1681.09 201.503 1681.37 196.341C1682.24 185.763 1681.82 175.152 1680.84 164.584C1682.39 161.966 1683.28 158.954 1683.41 155.911C1683.79 145.715 1682 135.477 1678.24 126.005C1676.06 121.312 1678.52 116.171 1677.53 111.265C1676.99 100.889 1671.36 91.9276 1667.07 82.775C1663.77 77.0068 1664.52 69.9614 1661.42 64.0974C1656.74 54.4659 1651.74 44.9621 1646.24 35.7776C1640.62 28.5513 1638.53 19.3881 1633.37 11.8851C1624.02 9.63951 1614.3 7.70259 1604.64 8.61785C1602.16 8.72427 1600.54 10.8528 1599.86 13.0345C1597.56 19.3455 1595.62 25.7842 1593.48 32.1485C1592.83 34.3515 1591.07 35.9266 1589.32 37.3101C1572.5 49.9109 1555.33 62.0433 1538.45 74.5803C1535.7 76.8045 1532.19 78.4116 1530.3 81.5192C1529.14 88.2347 1531.6 94.8224 1533.89 101.027C1534.93 104.113 1533.7 108.466 1537.05 110.371C1539.62 111.329 1542.38 111.669 1545.1 111.957C1553.61 112.595 1562.1 113.447 1570.61 114.075C1574.47 113.83 1578.32 113.223 1582.2 113.5C1582.33 119.556 1581.47 125.547 1580.02 131.422C1575.25 151.92 1570.05 172.321 1564.67 192.67C1563.31 198.566 1560.72 204.643 1562.49 210.751C1569.69 212.657 1577.18 212.901 1584.5 214.146C1584.89 214.785 1585.64 216.051 1586.01 216.69C1580.49 230.94 1574.89 245.51 1565.1 257.462C1561.07 263.294 1554.2 267.529 1552.83 274.947C1552.37 278.023 1552.3 286.675 1552.35 295.157C1552.41 306.119 1543.55 315.027 1532.59 315.027H1427.95C1417.53 315.027 1408.9 306.949 1408.23 296.552C1407.63 287.356 1406.51 277.161 1404.32 272.148C1397.47 256.376 1386.82 242.136 1382.05 225.523C1377.42 212.816 1376.1 199.279 1375.25 185.891C1375.37 173.354 1375.26 160.827 1375.24 148.29C1381.64 146.513 1389.14 147.545 1394.52 142.98C1394.37 141.298 1394.96 139.361 1393.85 137.903C1392.2 135.349 1388.72 135.881 1386.14 135.2C1385.56 134.264 1385 133.327 1384.43 132.391C1384.85 129.294 1387 125.686 1384.61 122.919C1383.17 120.599 1380.07 120.95 1377.89 119.832C1374.59 117.374 1376.67 112.734 1376.23 109.254C1375.76 105.167 1376.67 100.782 1380.5 98.5685C1380.59 97.5575 1380.69 96.5571 1380.79 95.5461C1378.6 93.4176 1377.83 90.576 1378.27 87.5961C1382.72 83.9138 1387.24 79.9335 1389.18 74.2929C1392.99 66.4919 1390.71 57.3926 1386.73 50.1663C1382.2 43.8978 1375.82 39.3641 1370.4 33.9471C1366.65 30.0838 1361.21 27.4232 1359.44 21.9955C1362.64 19.6435 1368.21 19.5583 1368.12 14.3435C1363.92 11.321 1358.52 12.8429 1353.72 12.3747H1333.69C1332.3 12.5237 1331.08 12.9706 1330.41 14.4606C1329.65 18.973 1334.66 19.9415 1337.91 20.6758C1338.06 21.2718 1338.36 22.4531 1338.5 23.0385C1332.02 30.7224 1323.44 36.3203 1316.28 43.3444C1307.72 50.4856 1303.19 63.246 1307.84 73.7927C1309.98 79.5503 1314.96 83.4242 1319.01 87.777C1319.33 90.9591 1317.31 93.3431 1315.6 95.7483C1314.99 98.377 1318.5 99.3774 1320.01 100.942C1320.21 106.167 1320.31 111.403 1320.15 116.629C1320.31 118.491 1318.47 119.428 1317.4 120.609C1315.5 120.769 1313 120.184 1311.77 122.067C1309.1 125.1 1312.14 129.091 1311.47 132.571C1310.08 135.253 1306.52 134.253 1304.09 135.104C1301.14 135.573 1301.63 139.085 1301.4 141.288C1305.53 147.673 1313.78 145.896 1320.05 148.035C1319.94 174.79 1321.14 202.472 1311.47 227.918C1309.86 234.229 1298.08 260.452 1294.28 269.701C1292.14 274.915 1291.09 286.239 1290.57 296.275C1290.02 306.779 1281.38 315.027 1270.87 315.027H1178.33C1167.42 315.027 1158.57 306.183 1158.57 295.264V275.852C1157.24 266.912 1126.31 238.316 1123.07 202.567C1120.56 183.826 1122 164.893 1121.36 146.056C1121.25 141.894 1121.22 137.733 1121.42 133.572C1121.76 133.093 1122.45 132.135 1122.8 131.667C1127.46 130.528 1132.44 130.975 1136.92 129.091C1139.95 127.846 1141.93 124.77 1141.99 121.514C1142.58 113.936 1142.63 106.274 1141.72 98.7175C1142.8 97.2276 1144.69 95.9718 1144.71 93.9603C1144.93 87.777 1144.53 81.5831 1144.74 75.3891C1143.98 75.3572 1142.44 75.2827 1141.68 75.2507C1140.5 74.7505 1139.36 74.0375 1138.05 73.9736C1130.97 73.2606 1123.86 73.7182 1116.77 73.8034C1116 74.7931 1115.23 75.7829 1114.47 76.7833C1109.81 76.7939 1105.15 76.7513 1100.5 76.7833C1100.29 75.5381 1100.07 74.2823 1099.88 73.0371C1092.7 72.7178 1085.52 72.7391 1078.34 73.1648L1069.53 73.2925L1067.74 76.8365C1063.25 77.1132 1059.44 74.1014 1054.96 74.4313C1050.33 74.5483 1045.47 73.8034 1041.06 75.5487C1041.25 81.5618 1041.06 87.5748 1041.19 93.5772C1046.26 98.1322 1042.57 105.092 1043.22 110.871C1043.66 116.32 1041.96 122.887 1045.89 127.389C1050.85 132.018 1058.18 130.475 1064.05 132.838C1064.17 148.248 1063.91 163.658 1063.95 179.069C1065.05 203.451 1057.62 227.78 1045.1 248.564C1043.42 251.342 1031.16 273.659 1030.97 277.906C1030.81 281.663 1030.78 288.453 1030.8 295.221C1030.83 306.151 1021.98 315.038 1011.04 315.038H2.99988" stroke="#222B38" stroke-width="5" stroke-linecap="round" stroke-linejoin="round"/>
<path d="M1859 308.641H1697.66C1687.09 308.641 1678.39 300.308 1677.92 289.751C1677.53 280.939 1676.77 271.563 1676.1 267.178C1674.4 259.739 1667.48 255.588 1663.53 249.522C1657.33 241.476 1651.85 232.866 1647.44 223.703C1644.77 219.106 1643.06 213.901 1643.31 208.538C1652.07 206.994 1661.13 207.271 1669.76 205.058C1675.02 202.227 1674.71 195.117 1674.98 189.956C1675.86 179.377 1675.43 168.766 1674.45 158.198C1676.01 155.58 1676.89 152.569 1677.03 149.525C1677.4 139.329 1675.61 129.091 1671.86 119.619C1669.67 114.926 1672.13 109.786 1671.14 104.879C1670.6 94.5029 1664.97 85.5419 1660.68 76.3893C1657.38 70.621 1658.14 63.5756 1655.03 57.7116C1650.36 48.0801 1645.36 38.5764 1639.85 29.3918C1634.23 22.1656 1632.15 13.0023 1626.99 5.49934C1617.63 3.25377 1607.92 1.31685 1598.25 2.23211C1595.77 2.33853 1594.15 4.46703 1593.47 6.64875C1591.17 12.9598 1589.24 19.3985 1587.1 25.7627C1586.45 27.9657 1584.68 29.5408 1582.94 30.9244C1566.11 43.5251 1548.95 55.6576 1532.07 68.1945C1529.31 70.4188 1525.81 72.0258 1523.91 75.1335C1522.75 81.8489 1525.21 88.4366 1527.5 94.6412C1528.54 97.7276 1527.32 102.08 1530.66 103.985C1533.24 104.943 1535.99 105.284 1538.72 105.571C1547.22 106.21 1555.71 107.061 1564.23 107.689C1568.08 107.444 1571.93 106.838 1575.82 107.114C1575.95 113.17 1575.08 119.162 1573.64 125.036C1568.87 145.534 1563.66 165.936 1558.29 186.284C1556.93 192.18 1554.33 198.257 1556.11 204.366C1563.3 206.271 1570.79 206.516 1578.12 207.761C1578.5 208.399 1579.25 209.666 1579.63 210.304C1574.1 224.555 1568.51 239.124 1558.71 251.076C1554.68 256.908 1547.82 261.144 1546.44 268.562C1545.99 271.637 1545.91 280.29 1545.97 288.772C1546.03 299.733 1537.16 308.641 1526.2 308.641H1421.56C1411.15 308.641 1402.51 300.564 1401.84 290.166C1401.25 280.971 1400.12 270.775 1397.94 265.763C1391.08 249.99 1380.43 235.751 1375.66 219.138C1371.03 206.43 1369.71 192.893 1368.86 179.505C1368.98 166.968 1368.87 154.442 1368.85 141.905C1375.26 140.127 1382.75 141.16 1388.14 136.594C1387.99 134.913 1388.57 132.976 1387.47 131.518C1385.82 128.963 1382.34 129.496 1379.75 128.814C1379.18 127.878 1378.61 126.941 1378.05 126.005C1378.46 122.908 1380.61 119.3 1378.23 116.533C1376.78 114.213 1373.68 114.564 1371.5 113.447C1368.2 110.988 1370.29 106.348 1369.84 102.868C1369.37 98.7812 1370.29 94.3964 1374.11 92.1828C1374.21 91.1718 1374.3 90.1714 1374.41 89.1603C1372.22 87.0318 1371.45 84.1903 1371.89 81.2104C1376.33 77.528 1380.86 73.5477 1382.79 67.9072C1386.6 60.1062 1384.33 51.0068 1380.35 43.7805C1375.81 37.5121 1369.44 32.9784 1364.01 27.5613C1360.26 23.6981 1354.83 21.0374 1353.06 15.6097C1356.25 13.2577 1361.83 13.1726 1361.73 7.95776C1357.54 4.93528 1352.13 6.45719 1347.33 5.98892H1327.3C1325.91 6.13792 1324.7 6.58489 1324.03 8.07485C1323.26 12.5873 1328.27 13.5557 1331.53 14.2901C1331.68 14.8861 1331.98 16.0674 1332.11 16.6527C1325.63 24.3366 1317.05 29.9346 1309.89 36.9587C1301.34 44.0998 1296.8 56.8602 1301.45 67.407C1303.59 73.1646 1308.57 77.0385 1312.63 81.3913C1312.95 84.5734 1310.92 86.9573 1309.21 89.3625C1308.6 91.9912 1312.12 92.9916 1313.63 94.5561C1313.82 99.7816 1313.93 105.018 1313.77 110.243C1313.93 112.106 1312.08 113.042 1311.01 114.223C1309.12 114.383 1306.61 113.798 1305.38 115.681C1302.72 118.715 1305.75 122.706 1305.08 126.186C1303.7 128.868 1300.13 127.867 1297.71 128.719C1294.76 129.187 1295.25 132.699 1295.01 134.902C1299.14 141.287 1307.39 139.51 1313.66 141.649C1313.55 168.405 1314.76 196.086 1305.08 221.532C1303.48 227.843 1291.69 254.066 1287.89 263.315C1285.76 268.53 1284.7 279.853 1284.18 289.889C1283.64 300.393 1275 308.641 1264.48 308.641H1171.94C1161.04 308.641 1152.18 299.797 1152.18 288.878V269.466C1150.85 260.526 1119.92 231.93 1116.69 196.182C1114.18 177.44 1115.61 158.507 1114.97 139.67C1114.87 135.509 1114.84 131.347 1115.04 127.186C1115.38 126.707 1116.06 125.749 1116.41 125.281C1121.07 124.142 1126.05 124.589 1130.53 122.706C1133.57 121.46 1135.55 118.385 1135.6 115.128C1136.2 107.551 1136.25 99.888 1135.33 92.3318C1136.42 90.8418 1138.3 89.586 1138.32 87.5746C1138.55 81.3913 1138.14 75.1973 1138.36 69.0034C1137.59 68.9714 1136.06 68.8969 1135.29 68.865C1134.11 68.3648 1132.97 67.6517 1131.66 67.5879C1124.58 66.8748 1117.48 67.3325 1110.39 67.4176C1109.61 68.4074 1108.84 69.3971 1108.09 70.3975C1103.43 70.4082 1098.77 70.3656 1094.12 70.3975C1093.9 69.1524 1093.69 67.8965 1093.5 66.6514C1086.31 66.3321 1079.13 66.3534 1071.96 66.7791L1063.15 66.9068L1061.36 70.4507C1056.87 70.7274 1053.06 67.7156 1048.58 68.0455C1043.95 68.1626 1039.08 67.4176 1034.68 69.163C1034.87 75.176 1034.68 81.1891 1034.8 87.1914C1039.87 91.7464 1036.19 98.7067 1036.84 104.486C1037.27 109.935 1035.57 116.501 1039.51 121.003C1044.47 125.632 1051.79 124.089 1057.66 126.452C1057.78 141.862 1057.53 157.273 1057.57 172.683C1058.66 197.065 1051.24 221.394 1038.71 242.179C1037.04 244.956 1024.78 267.274 1024.59 271.52C1024.43 275.277 1024.4 282.067 1024.42 288.836C1024.45 299.765 1015.59 308.652 1004.65 308.652H3" stroke="#F9B934" stroke-width="4" stroke-linecap="round" stroke-linejoin="round"/>
</svg>
