<?xml version="1.0" encoding="UTF-8"?>
<svg id="Layer_2" data-name="Layer 2" xmlns="http://www.w3.org/2000/svg" viewBox="0 0 30 27">
  <defs>
    <style>
      .cls-1 {
        fill: none;
        stroke: #2d3748;
        stroke-linecap: round;
        stroke-linejoin: round;
        stroke-width: 2px;
      }
    </style>
  </defs>
  <g id="Layer_1-2" data-name="Layer 1">
    <path class="cls-1" d="M20.6,6.56c0-1.29,0-1.94-.14-2.47-.39-1.44-1.52-2.56-2.97-2.95-.53-.14-1.18-.14-2.49-.14s-1.95,0-2.49.14c-1.45.39-2.58,1.51-2.97,2.95-.14.53-.14,1.18-.14,2.47M5.48,26h19.04c1.57,0,2.35,0,2.95-.3.53-.27.96-.69,1.22-1.21.31-.59.31-1.37.31-2.93v-10.56c0-1.56,0-2.33-.31-2.93-.27-.52-.7-.95-1.22-1.21-.6-.3-1.38-.3-2.95-.3H5.48c-1.57,0-2.35,0-2.95.3-.53.27-.96.69-1.22,1.21-.31.59-.31,1.37-.31,2.93v10.56c0,1.56,0,2.33.31,2.93.27.52.7.95,1.22,1.21.6.3,1.38.3,2.95.3Z"/>
  </g>
</svg>