<?xml version="1.0" encoding="UTF-8"?>
<svg id="Layer_2" data-name="Layer 2" xmlns="http://www.w3.org/2000/svg" viewBox="0 0 30 29">
  <defs>
    <style>
      .cls-1 {
        fill: none;
        stroke: #2d3748;
        stroke-linecap: round;
        stroke-linejoin: round;
        stroke-width: 2px;
      }
    </style>
  </defs>
  <g id="Layer_1-2" data-name="Layer 1">
    <path class="cls-1" d="M3.8,22.6v-.27c0-2.27,0-3.4.46-4.27.4-.76,1.05-1.38,1.84-1.77.9-.44,2.07-.44,4.43-.44h8.96c2.35,0,3.53,0,4.43.44.79.39,1.43,1.01,1.84,1.77.46.87.46,2,.46,4.27v.27M3.8,22.6c-1.55,0-2.8,1.21-2.8,2.7s1.25,2.7,2.8,2.7,2.8-1.21,2.8-2.7-1.25-2.7-2.8-2.7ZM26.2,22.6c-1.55,0-2.8,1.21-2.8,2.7s1.25,2.7,2.8,2.7,2.8-1.21,2.8-2.7-1.25-2.7-2.8-2.7ZM15,22.6c-1.55,0-2.8,1.21-2.8,2.7s1.25,2.7,2.8,2.7,2.8-1.21,2.8-2.7-1.25-2.7-2.8-2.7ZM15,22.6v-13.5M6.6,9.1h16.8c1.3,0,1.96,0,2.47-.21.69-.27,1.23-.8,1.52-1.46.21-.5.21-1.13.21-2.38s0-1.89-.21-2.38c-.28-.66-.83-1.19-1.52-1.46-.51-.21-1.17-.21-2.47-.21H6.6c-1.3,0-1.96,0-2.47.21-.69.27-1.23.8-1.52,1.46-.21.5-.21,1.13-.21,2.38s0,1.89.21,2.38c.28.66.83,1.19,1.52,1.46.51.21,1.17.21,2.47.21Z"/>
  </g>
</svg>