<svg width="32" height="39" viewBox="0 0 32 39" fill="none" xmlns="http://www.w3.org/2000/svg">
<path d="M10.1549 37.2373H19.216M20.1221 25.4793C24.4078 23.4999 27.3709 19.2529 27.3709 14.3331C27.3709 7.5217 21.6914 2 14.6854 2C7.67947 2 2 7.5217 2 14.3331C2 19.2529 4.96305 23.4999 9.24882 25.4793V26.6661C9.24882 28.308 9.24882 29.1289 9.52472 29.7765C9.89257 30.6399 10.5982 31.3259 11.4862 31.6835C12.1523 31.9517 12.9967 31.9517 14.6854 31.9517C16.3742 31.9517 17.2186 31.9517 17.8847 31.6835C18.7727 31.3259 19.4783 30.6399 19.8462 29.7765C20.1221 29.1289 20.1221 28.308 20.1221 26.6661V25.4793Z" stroke="#718096" stroke-width="2.5" stroke-linecap="round" stroke-linejoin="round"/>
<path d="M24.5519 2.70483L25.6383 5.52937C25.8149 5.9887 25.9033 6.21836 26.0406 6.41154C26.1624 6.58276 26.312 6.73235 26.4832 6.85409C26.6764 6.99145 26.906 7.07978 27.3654 7.25645L30.1899 8.34281L27.3654 9.42917C26.906 9.60583 26.6764 9.69417 26.4832 9.83153C26.312 9.95327 26.1624 10.1029 26.0406 10.2741C25.9033 10.4673 25.8149 10.6969 25.6383 11.1562L24.5519 13.9808L23.4656 11.1562C23.2889 10.6969 23.2006 10.4673 23.0632 10.2741C22.9415 10.1029 22.7919 9.95327 22.6206 9.83153C22.4275 9.69417 22.1978 9.60583 21.7385 9.42917L18.9139 8.34281L21.7385 7.25645C22.1978 7.07978 22.4275 6.99145 22.6206 6.85409C22.7919 6.73235 22.9415 6.58276 23.0632 6.41154C23.2006 6.21836 23.2889 5.9887 23.4656 5.52937L24.5519 2.70483Z" fill="white" stroke="#718096" stroke-width="2.5" stroke-linecap="round" stroke-linejoin="round"/>
</svg>
