<?xml version="1.0" encoding="UTF-8"?>
<svg id="Layer_2" data-name="Layer 2" xmlns="http://www.w3.org/2000/svg" viewBox="0 0 29.59 28.21">
  <defs>
    <style>
      .cls-1 {
        fill: none;
        stroke: #2d3748;
        stroke-linecap: round;
        stroke-linejoin: round;
        stroke-width: 2px;
      }
    </style>
  </defs>
  <g id="Layer_1-2" data-name="Layer 1">
    <g>
      <path class="cls-1" d="M14.88,18.82l2.66-2.66c.39-.39.98-.5,1.51-.35.41.11.84.19,1.28.23M24.83,2.02l-3.6,3.6c-.54.54-.81.81-.92,1.13-.09.28-.09.57,0,.85.1.31.37.58.92,1.13l.33.33c.54.54.81.81,1.13.92.28.09.57.09.85,0,.31-.1.58-.37,1.13-.92l3.37-3.37c.36.88.56,1.85.56,2.86,0,4.16-3.37,7.54-7.54,7.54-.5,0-.99-.05-1.47-.14-.67-.13-1-.2-1.2-.18-.21.02-.32.05-.51.16-.18.1-.36.28-.72.63l-9.81,9.81c-1.14,1.14-2.98,1.14-4.11,0-1.14-1.14-1.14-2.98,0-4.11l9.81-9.81c.36-.36.54-.54.63-.72.1-.19.13-.3.16-.51.02-.2-.05-.54-.18-1.2-.09-.47-.14-.96-.14-1.47,0-4.16,3.37-7.54,7.54-7.54,1.38,0,2.67.37,3.78,1.02Z"/>
      <path class="cls-1" d="M13.32,7.9L7.55,2.12c-1.5-1.5-3.93-1.5-5.42,0-1.5,1.5-1.5,3.93,0,5.42l7.84,7.84M21.6,16.17l3.86,3.86c.4.4.6.6.75.83.13.2.24.43.32.66.08.26.12.54.18,1.1l.51,4.59-4.59-.51c-.56-.06-.84-.09-1.1-.18-.23-.08-.45-.18-.66-.32-.23-.15-.43-.35-.83-.75l-5.83-5.83"/>
    </g>
  </g>
</svg>