<svg width="46" height="35" viewBox="0 0 46 35" fill="none" xmlns="http://www.w3.org/2000/svg">
<path d="M32.0356 18.4189L23.1424 23.3596M23.1424 23.3596L14.2492 18.4189M23.1424 23.3596L23.1424 33.2991M32.5588 27.6059V19.1133C32.5588 18.7548 32.5588 18.5756 32.506 18.4157C32.4593 18.2743 32.3829 18.1444 32.2819 18.0349C32.1678 17.9111 32.0111 17.824 31.6978 17.6499L23.9554 13.3486C23.6587 13.1838 23.5103 13.1014 23.3532 13.0691C23.2142 13.0405 23.0707 13.0405 22.9317 13.0691C22.7746 13.1014 22.6262 13.1838 22.3295 13.3486L14.5871 17.6499C14.2737 17.824 14.117 17.9111 14.0029 18.0349C13.902 18.1444 13.8256 18.2743 13.7789 18.4157C13.7261 18.5756 13.7261 18.7548 13.7261 19.1133V27.6059C13.7261 27.9644 13.7261 28.1437 13.7789 28.3035C13.8256 28.445 13.902 28.5748 14.003 28.6843C14.117 28.8081 14.2737 28.8952 14.5871 29.0693L22.3295 33.3706C22.6262 33.5354 22.7746 33.6179 22.9317 33.6502C23.0707 33.6788 23.2142 33.6788 23.3532 33.6502C23.5103 33.6179 23.6587 33.5354 23.9554 33.3706L31.6978 29.0693C32.0111 28.8952 32.1678 28.8081 32.2819 28.6843C32.3829 28.5748 32.4593 28.445 32.506 28.3035C32.5588 28.1437 32.5588 27.9644 32.5588 27.6059Z" stroke="#2D3748" stroke-width="2.5" stroke-linecap="round" stroke-linejoin="round"/>
<path d="M8.84019 25.3189C8.84019 23.4301 7.30896 21.8988 5.42009 21.8988C3.53123 21.8988 2 23.4301 2 25.3189C2 27.2078 3.53123 28.739 5.42009 28.739C7.30896 28.739 8.84019 27.2078 8.84019 25.3189ZM8.84019 25.3189L17.7532 25.3189" stroke="#2D3748" stroke-width="2.5" stroke-linecap="round" stroke-linejoin="round"/>
<path d="M37.4446 25.3188C37.4446 27.2076 38.9758 28.7389 40.8647 28.7389C42.7536 28.7389 44.2848 27.2076 44.2848 25.3188C44.2848 23.4299 42.7536 21.8987 40.8647 21.8987C38.9758 21.8987 37.4446 23.4299 37.4446 25.3188ZM37.4446 25.3188L28.5316 25.3188" stroke="#2D3748" stroke-width="2.5" stroke-linecap="round" stroke-linejoin="round"/>
<path d="M22.8315 8.84019C24.7203 8.84019 26.2516 7.30896 26.2516 5.42009C26.2516 3.53123 24.7203 2 22.8315 2C20.9426 2 19.4114 3.53123 19.4114 5.42009C19.4114 7.30896 20.9426 8.84019 22.8315 8.84019ZM22.8315 8.84019V17.7532" stroke="#2D3748" stroke-width="2.5" stroke-linecap="round" stroke-linejoin="round"/>
</svg>
