<svg width="395" height="396" viewBox="0 0 395 396" fill="none" xmlns="http://www.w3.org/2000/svg">
<rect x="262" y="132" width="133" height="132" fill="#EFF2F5"/>
<rect x="130" y="264" width="132" height="132" fill="#EFF2F5"/>
<rect x="130" width="132" height="132" fill="#EFF2F5"/>
<rect x="130" y="132" width="132" height="132" fill="#A62551"/>
<rect y="132" width="130" height="132" fill="#EFF2F5"/>
<path d="M54.5379 214.99H74.4608C75.1072 214.99 75.649 214.77 76.0862 214.33C76.5234 213.89 76.7421 213.345 76.7421 212.695C76.7421 212.045 76.5234 211.504 76.0862 211.073C75.649 210.643 75.1072 210.427 74.4608 210.427H54.5379C53.8915 210.427 53.3497 210.647 52.9125 211.087C52.4753 211.527 52.2566 212.072 52.2566 212.722C52.2566 213.372 52.4753 213.912 52.9125 214.343C53.3497 214.774 53.8915 214.99 54.5379 214.99ZM54.5379 202.063H74.4608C75.1072 202.063 75.649 201.843 76.0862 201.403C76.5234 200.963 76.7421 200.418 76.7421 199.768C76.7421 199.118 76.5234 198.577 76.0862 198.146C75.649 197.715 75.1072 197.5 74.4608 197.5H54.5379C53.8915 197.5 53.3497 197.72 52.9125 198.16C52.4753 198.6 52.2566 199.144 52.2566 199.795C52.2566 200.445 52.4753 200.985 52.9125 201.416C53.3497 201.847 53.8915 202.063 54.5379 202.063ZM44.7285 227.917C43.5118 227.917 42.4473 227.46 41.5348 226.548C40.6223 225.635 40.166 224.571 40.166 223.354V171.646C40.166 170.429 40.6223 169.365 41.5348 168.452C42.4473 167.54 43.5118 167.083 44.7285 167.083H70.2785C70.9094 167.083 71.5106 167.21 72.0824 167.464C72.6541 167.717 73.1427 168.047 73.5483 168.452L87.4639 182.368C87.8695 182.773 88.199 183.262 88.4525 183.834C88.7059 184.405 88.8327 185.007 88.8327 185.638V223.354C88.8327 224.571 88.3764 225.635 87.4639 226.548C86.5514 227.46 85.4868 227.917 84.2702 227.917H44.7285ZM69.8983 183.508C69.8983 184.155 70.1169 184.697 70.5542 185.134C70.9914 185.571 71.5332 185.79 72.1796 185.79H84.2702L69.8983 171.646V183.508Z" fill="black"/>
<path d="M311 221.5L302.825 229.902C302.125 230.621 301.312 230.784 300.388 230.391C299.463 229.998 299 229.295 299 228.283V176.792C299 175.558 299.45 174.479 300.35 173.554C301.25 172.629 302.3 172.167 303.5 172.167H354.5C355.7 172.167 356.75 172.629 357.65 173.554C358.55 174.479 359 175.558 359 176.792V216.875C359 218.108 358.55 219.187 357.65 220.112C356.75 221.037 355.7 221.5 354.5 221.5H311ZM313.25 209.244H332.225C332.863 209.244 333.397 209.021 333.828 208.575C334.259 208.129 334.475 207.577 334.475 206.918C334.475 206.259 334.259 205.711 333.828 205.274C333.397 204.837 332.863 204.619 332.225 204.619H313.25C312.613 204.619 312.078 204.842 311.647 205.287C311.216 205.733 311 206.286 311 206.945C311 207.604 311.216 208.152 311.647 208.589C312.078 209.025 312.613 209.244 313.25 209.244ZM313.25 199.223H344.75C345.388 199.223 345.922 199 346.353 198.554C346.784 198.108 347 197.556 347 196.897C347 196.238 346.784 195.69 346.353 195.253C345.922 194.816 345.388 194.598 344.75 194.598H313.25C312.613 194.598 312.078 194.821 311.647 195.267C311.216 195.712 311 196.265 311 196.924C311 197.583 311.216 198.131 311.647 198.568C312.078 199.004 312.613 199.223 313.25 199.223ZM313.25 189.202H344.75C345.388 189.202 345.922 188.979 346.353 188.533C346.784 188.087 347 187.535 347 186.876C347 186.217 346.784 185.669 346.353 185.232C345.922 184.795 345.388 184.577 344.75 184.577H313.25C312.613 184.577 312.078 184.8 311.647 185.246C311.216 185.692 311 186.244 311 186.903C311 187.562 311.216 188.11 311.647 188.547C312.078 188.984 312.613 189.202 313.25 189.202Z" fill="black"/>
<path d="M173.623 66.85L187.007 80.05C187.463 80.5 187.678 81.025 187.653 81.625C187.628 82.225 187.387 82.75 186.93 83.2C186.474 83.65 185.929 83.875 185.296 83.875C184.662 83.875 184.117 83.65 183.661 83.2L168.68 68.425C168.427 68.175 168.25 67.925 168.148 67.675C168.047 67.425 167.996 67.15 167.996 66.85C167.996 66.55 168.047 66.275 168.148 66.025C168.25 65.775 168.427 65.525 168.68 65.275L183.889 50.275C184.345 49.825 184.89 49.6 185.524 49.6C186.157 49.6 186.702 49.825 187.159 50.275C187.615 50.725 187.843 51.2625 187.843 51.8875C187.843 52.5125 187.615 53.05 187.159 53.5L173.623 66.85ZM221.377 66.85L207.994 53.65C207.538 53.2 207.322 52.675 207.348 52.075C207.373 51.475 207.614 50.95 208.07 50.5C208.526 50.05 209.071 49.825 209.705 49.825C210.339 49.825 210.884 50.05 211.34 50.5L226.32 65.275C226.574 65.525 226.751 65.775 226.852 66.025C226.954 66.275 227.004 66.55 227.004 66.85C227.004 67.15 226.954 67.425 226.852 67.675C226.751 67.925 226.574 68.175 226.32 68.425L211.112 83.425C210.655 83.875 210.123 84.0875 209.515 84.0625C208.907 84.0375 208.374 83.8 207.918 83.35C207.462 82.9 207.234 82.3625 207.234 81.7375C207.234 81.1125 207.462 80.575 207.918 80.125L221.377 66.85Z" fill="black"/>
<path d="M188.744 341.982C183.261 341.982 178.62 340.081 174.822 336.279C171.024 332.477 169.125 327.889 169.125 322.516C169.125 317.142 171.026 312.554 174.828 308.752C178.63 304.95 183.231 303.049 188.63 303.049C194.029 303.049 198.616 304.95 202.393 308.752C206.17 312.554 208.058 317.146 208.058 322.527C208.058 324.699 207.703 326.799 206.994 328.827C206.284 330.855 205.219 332.756 203.8 334.53L222.202 352.78C222.658 353.214 222.886 353.766 222.886 354.436C222.886 355.107 222.658 355.67 222.202 356.126C221.746 356.582 221.183 356.81 220.512 356.81C219.842 356.81 219.29 356.582 218.856 356.126L200.53 337.8C199.009 339.118 197.236 340.145 195.21 340.88C193.185 341.615 191.029 341.982 188.744 341.982ZM188.668 337.42C192.787 337.42 196.288 335.962 199.171 333.047C202.054 330.132 203.496 326.622 203.496 322.516C203.496 318.409 202.054 314.899 199.171 311.984C196.288 309.069 192.787 307.611 188.668 307.611C184.507 307.611 180.97 309.069 178.057 311.984C175.144 314.899 173.688 318.409 173.688 322.516C173.688 326.622 175.144 330.132 178.057 333.047C180.97 335.962 184.507 337.42 188.668 337.42Z" fill="black"/>
<path d="M331.719 132.258C331.328 132.649 330.695 132.649 330.305 132.258L323.941 125.894C323.55 125.504 323.55 124.871 323.941 124.48C324.331 124.09 324.964 124.09 325.355 124.48L331.012 130.137L336.669 124.48C337.059 124.09 337.692 124.09 338.083 124.48C338.473 124.871 338.473 125.504 338.083 125.894L331.719 132.258ZM330.012 131.551L330.012 81.4111L332.012 81.4111L332.012 131.551L330.012 131.551ZM311.012 62.4111L262.102 62.4111L262.102 60.4111L311.012 60.4111L311.012 62.4111ZM330.012 81.4111C330.012 70.9177 321.505 62.4111 311.012 62.4111L311.012 60.4111C322.61 60.4111 332.012 69.8132 332.012 81.4111L330.012 81.4111Z" fill="#718096"/>
<path d="M260.782 334.065C260.391 333.675 260.391 333.042 260.782 332.651L267.146 326.287C267.536 325.897 268.169 325.897 268.56 326.287C268.95 326.678 268.95 327.311 268.56 327.701L262.903 333.358L268.56 339.015C268.95 339.406 268.95 340.039 268.56 340.429C268.169 340.82 267.536 340.82 267.146 340.429L260.782 334.065ZM261.489 332.358L311.629 332.358L311.629 334.358L261.489 334.358L261.489 332.358ZM330.629 313.358L330.629 264.449L332.629 264.449L332.629 313.358L330.629 313.358ZM311.629 332.358C322.122 332.358 330.629 323.852 330.629 313.358L332.629 313.358C332.629 324.956 323.227 334.358 311.629 334.358L311.629 332.358Z" fill="#718096"/>
<path d="M60.203 263.126C60.5936 262.736 61.2267 262.736 61.6173 263.126L67.9812 269.49C68.3717 269.881 68.3717 270.514 67.9812 270.905C67.5907 271.295 66.9575 271.295 66.567 270.905L60.9102 265.248L55.2533 270.905C54.8628 271.295 54.2296 271.295 53.8391 270.905C53.4486 270.514 53.4486 269.881 53.8391 269.49L60.203 263.126ZM61.9102 263.833L61.9102 313.974H59.9102L59.9102 263.833H61.9102ZM80.9102 332.974H129.82V334.974H80.9102V332.974ZM61.9102 313.974C61.9102 324.467 70.4167 332.974 80.9102 332.974V334.974C69.3122 334.974 59.9102 325.572 59.9102 313.974H61.9102Z" fill="#718096"/>
<path d="M131.144 61.3193C131.535 61.7098 131.535 62.343 131.144 62.7335L124.78 69.0974C124.39 69.488 123.757 69.488 123.366 69.0974C122.975 68.7069 122.975 68.0737 123.366 67.6832L129.023 62.0264L123.366 56.3695C122.975 55.979 122.975 55.3458 123.366 54.9553C123.757 54.5648 124.39 54.5648 124.78 54.9553L131.144 61.3193ZM130.437 63.0264L80.2969 63.0264L80.2969 61.0264L130.437 61.0264L130.437 63.0264ZM61.2969 82.0264L61.2969 130.936L59.2969 130.936L59.2969 82.0264L61.2969 82.0264ZM80.2969 63.0264C69.8035 63.0264 61.2969 71.533 61.2969 82.0264L59.2969 82.0264C59.2969 70.4284 68.6989 61.0264 80.2969 61.0264L80.2969 63.0264Z" fill="#718096"/>
</svg>
