<svg width="44" height="44" viewBox="0 0 44 44" fill="none" xmlns="http://www.w3.org/2000/svg">
<path d="M32.4137 19.2543C31.8134 19.2543 31.3223 19.7533 31.3223 20.3633C31.3223 20.9732 31.8134 21.4723 32.4137 21.4723C34.4327 21.4723 36.0698 23.1358 36.0698 25.1874C36.0698 27.239 35.3604 27.7381 34.269 28.348C33.7233 28.6807 33.0685 28.847 32.4137 28.847C31.7589 28.847 31.3223 29.3461 31.3223 29.956C31.3223 30.566 31.8134 31.065 32.4137 31.065C33.4505 31.065 34.4873 30.7878 35.3604 30.2333C37.1066 29.1797 38.198 27.239 38.198 25.1874C38.198 21.9713 35.5787 19.3098 32.4137 19.3098V19.2543Z" fill="#176B87"/>
<path d="M32.9594 14.3193C31.1041 9.88337 26.7931 7 22.0457 7C17.2982 7 12.5508 10.2715 10.9137 14.9847C10.75 14.9847 10.5317 14.9847 10.3135 14.9847C7.53046 14.9847 5.23858 17.0918 4.8566 19.8088C1.96447 21.195 0 24.1893 0 27.5163C0 32.174 3.71066 36 8.34898 36H32.3591C34.269 36 36.1244 35.501 37.7614 34.5029C40.981 32.5621 43 29.0134 43 25.1874C43 19.4207 38.5254 14.652 32.9048 14.3748L32.9594 14.3193ZM36.7246 32.5621C35.415 33.3384 33.9416 33.7266 32.4137 33.7266H8.40355C4.96574 33.7266 2.23731 30.8987 2.23731 27.4608C2.23731 24.0229 3.8198 22.5258 6.16624 21.5832L6.98477 21.2505V20.3633C7.09391 18.5335 8.56726 17.0918 10.368 17.0918C12.1688 17.0918 10.9137 17.0918 11.1865 17.2027L12.4416 17.5354L12.769 16.26C13.9695 12.0459 17.7893 9.16252 22.1003 9.16252C26.4112 9.16252 29.7944 11.7686 31.2132 15.5946L31.6497 16.4818H32.5228C37.2157 16.4818 41.0355 20.3633 41.0355 25.1319C41.0355 29.9006 39.453 31.065 36.8338 32.5621H36.7246Z" fill="#176B87"/>
</svg>
