<svg width="35" height="48" viewBox="0 0 35 48" fill="none" xmlns="http://www.w3.org/2000/svg">
<path d="M17.127 13.2363C13.5254 13.51 10.6227 16.4112 10.3002 20.0788C10.3002 20.6809 10.6764 21.1736 11.2677 21.2283C11.2677 21.2283 11.3215 21.2283 11.3753 21.2283C11.9128 21.2283 12.3966 20.7904 12.4503 20.243C12.6654 17.6702 14.7618 15.5354 17.2882 15.3712C18.6859 15.2617 20.0835 15.7543 21.1048 16.6849C21.5349 17.0681 22.2337 17.0134 22.6099 16.5754C22.9862 16.1375 22.9325 15.4259 22.5024 15.0427C21.0511 13.729 19.0621 13.0721 17.127 13.1816V13.2363Z" fill="#5E1675"/>
<path d="M25.5664 12.1415C23.2012 9.8972 20.0835 8.74766 16.8582 9.02136C11.214 9.40454 6.5911 14.0574 6.16106 19.8051C5.89229 23.2537 7.07489 26.6475 9.44009 29.0561C10.4614 30.0961 10.999 31.4099 10.999 32.7784V37.3765C10.9452 37.3765 10.9452 37.3765 10.9452 37.3765C10.9452 41.0441 13.848 44 17.4495 44H17.9333C21.5349 44 24.4376 41.0441 24.4376 37.3218V32.7236C24.3838 31.3551 24.9214 30.0414 25.8352 29.1108C28.0392 26.8665 29.2755 23.9105 29.2755 20.7356C29.2755 17.5607 27.9316 14.3311 25.6202 12.0868L25.5664 12.1415ZM17.9333 41.8652H17.4495C15.0306 41.8652 13.0416 39.8398 13.0416 37.3765V36.1175H22.3412V37.3765C22.3412 39.8398 20.406 41.8652 17.9333 41.8652ZM24.3301 27.6328C22.9862 28.9466 22.2337 30.8625 22.2337 32.7784V33.9826H13.0416V32.7784C13.0416 30.8625 12.2891 29.0013 10.8915 27.5234C8.9563 25.498 7.98872 22.761 8.20374 19.9146C8.58002 15.2069 12.3428 11.4299 16.9657 11.1015C19.5997 10.9372 22.1799 11.8131 24.1151 13.6742C26.0502 15.5354 27.1253 17.9987 27.1253 20.7356C27.1253 23.4726 26.104 25.7717 24.3301 27.5781V27.6328Z" fill="#5E1675"/>
<path d="M17.6645 7.92657C18.2558 7.92657 18.7396 7.43391 18.7396 6.83178V4.09479C18.7396 3.49266 18.2558 3 17.6645 3C17.0732 3 16.5894 3.49266 16.5894 4.09479V6.83178C16.5894 7.43391 17.0732 7.92657 17.6645 7.92657Z" fill="#5E1675"/>
<path d="M11.7515 8.20027C11.9128 8.63818 12.2891 8.91188 12.7191 8.91188C13.1492 8.91188 12.9341 8.91188 13.0954 8.85714C13.6329 8.63818 13.9017 8.03605 13.7405 7.48865L12.8266 4.91589C12.6116 4.36849 12.0203 4.09479 11.4828 4.25901C10.9452 4.47797 10.6764 5.08011 10.8377 5.6275L11.7515 8.20027Z" fill="#5E1675"/>
<path d="M7.66619 11.1562C7.88121 11.4299 8.14998 11.5394 8.47251 11.5394C8.79504 11.5394 8.9563 11.4299 9.17132 11.2657C9.60135 10.8825 9.65511 10.2256 9.27883 9.73298L7.55868 7.65287C7.1824 7.21495 6.53735 7.16021 6.05356 7.54339C5.62352 7.92657 5.56977 8.58345 5.94605 9.0761L7.66619 11.1562Z" fill="#5E1675"/>
<path d="M5.89229 13.51L3.58085 12.1415C3.09706 11.8678 2.452 12.032 2.12948 12.5247C1.8607 13.0174 2.02197 13.6742 2.50576 14.0027L4.8172 15.3712C4.97847 15.4806 5.13973 15.5354 5.35475 15.5354C5.73103 15.5354 6.05356 15.3164 6.26857 14.988C6.53735 14.4953 6.37608 13.8385 5.89229 13.51Z" fill="#5E1675"/>
<path d="M22.2337 8.8024C22.3412 8.8024 22.4487 8.85714 22.6099 8.85714C23.04 8.85714 23.47 8.58344 23.5775 8.14553L24.4914 5.57276C24.7064 5.02537 24.3838 4.42323 23.8463 4.20427C23.3088 3.98531 22.7175 4.31375 22.5024 4.86115L21.5886 7.43391C21.3736 7.98131 21.6961 8.58345 22.2337 8.8024Z" fill="#5E1675"/>
<path d="M26.8565 11.5394C27.1791 11.5394 27.4478 11.4299 27.6629 11.1562L29.383 9.0761C29.7593 8.63818 29.7055 7.92657 29.2755 7.54339C28.8455 7.16021 28.1467 7.21495 27.7704 7.65287L26.0502 9.73298C25.674 10.1709 25.7277 10.8825 26.1577 11.2657C26.3728 11.4299 26.5878 11.5394 26.8565 11.5394Z" fill="#5E1675"/>
<path d="M33.1996 12.5247C32.9308 12.032 32.2858 11.8131 31.7482 12.1415L29.4368 13.51C28.953 13.7837 28.738 14.4406 29.0605 14.988C29.2755 15.3164 29.598 15.5354 29.9743 15.5354C30.3506 15.5354 30.3506 15.5354 30.5119 15.3712L32.8233 14.0027C33.3071 13.729 33.5221 13.0721 33.1996 12.5247Z" fill="#5E1675"/>
</svg>
