<svg width="44" height="44" viewBox="0 0 44 44" fill="none" xmlns="http://www.w3.org/2000/svg">
<path d="M42.5453 17.8815C42.958 17.4762 43.1028 16.8764 42.9259 16.3252C42.749 15.774 42.2827 15.3741 41.7091 15.2931L30.1098 13.5963C29.4291 13.499 28.8449 13.0667 28.5393 12.4453L23.3507 1.8484C23.0935 1.32423 22.5789 1 22 1C21.4211 1 20.9065 1.32423 20.6492 1.8484L15.4607 12.4453C15.1551 13.0667 14.5709 13.4936 13.8901 13.5963L2.29086 15.2931C1.71733 15.3795 1.251 15.774 1.07412 16.3252C0.897236 16.8764 1.04196 17.4762 1.45469 17.8815L9.84862 26.1277C10.3418 26.6087 10.5669 27.3057 10.449 27.992L8.46571 39.6372C8.36923 40.21 8.59972 40.7828 9.06605 41.1233C9.32869 41.3178 9.63958 41.4151 9.95047 41.4151C10.1917 41.4151 10.4329 41.3556 10.6526 41.2368L21.0298 35.7357C21.6355 35.4115 22.3645 35.4115 22.9702 35.7357L33.3474 41.2314C33.8566 41.5016 34.4676 41.4583 34.9339 41.1179C35.4003 40.7774 35.6308 40.2046 35.5343 39.6318L33.551 27.9866C33.4331 27.3057 33.6582 26.6087 34.1514 26.1277L42.5453 17.8761V17.8815ZM32.6505 24.5822C31.6536 25.5603 31.1979 26.9761 31.4338 28.3595L33.1973 38.724L23.9672 33.8335C22.7343 33.1797 21.2603 33.1797 20.0328 33.8335L10.8027 38.724L12.5662 28.3595C12.802 26.9761 12.3464 25.5657 11.3495 24.5822L3.88282 17.2439L14.201 15.7308C15.5786 15.5308 16.7685 14.6554 17.3849 13.3963L22 3.96669L26.6151 13.3963C27.2315 14.6554 28.4214 15.5254 29.799 15.7308L40.1172 17.2439L32.6505 24.5822Z" fill="#A62551"/>
<path d="M33.1383 19.0541C32.7149 18.638 32.0341 18.6542 31.6214 19.0811L28.6948 22.1451C27.2261 23.6798 26.5454 25.7765 26.8295 27.8894L27.4888 32.8555C27.5584 33.3958 28.0194 33.7903 28.5501 33.7903C28.5983 33.7903 28.6465 33.7903 28.6948 33.7795C29.279 33.6984 29.6918 33.1581 29.6167 32.5637L28.9574 27.5976C28.7645 26.1385 29.2308 24.6957 30.2439 23.6366L33.1705 20.5726C33.5832 20.1403 33.5671 19.4594 33.1437 19.0433L33.1383 19.0541Z" fill="#A62551"/>
</svg>
