<svg width="508" height="337" viewBox="0 0 508 337" fill="none" xmlns="http://www.w3.org/2000/svg">
<rect x="255" y="254" width="83" height="83" fill="#2D3748"/>
<rect y="169" width="83" height="83" fill="#2D3748"/>
<rect x="255" y="169" width="83" height="83" fill="#EFEEEA"/>
<rect x="170" y="254" width="83" height="83" fill="#EFEEEA"/>
<rect x="170" y="84" width="83" height="83" fill="#EFEEEA"/>
<rect x="425" y="84" width="83" height="83" fill="#2D3748"/>
<rect x="85" y="169" width="83" height="83" fill="#EFEEEA"/>
<rect x="340" y="169" width="83" height="83" fill="#EFEEEA"/>
<rect x="255" width="83" height="82" fill="#2D3748"/>
<path d="M466 124.927C462.7 124.927 460 123.906 457.9 121.865C455.8 119.823 454.75 117.198 454.75 113.99C454.75 110.781 455.8 108.156 457.9 106.115C460 104.073 462.7 103.052 466 103.052C469.3 103.052 472 104.073 474.1 106.115C476.2 108.156 477.25 110.781 477.25 113.99C477.25 117.198 476.2 119.823 474.1 121.865C472 123.906 469.3 124.927 466 124.927ZM442 143.958V141.479C442 139.632 442.475 138.052 443.425 136.74C444.375 135.427 445.6 134.431 447.1 133.75C450.45 132.292 453.663 131.198 456.738 130.469C459.812 129.74 462.9 129.375 466 129.375C469.1 129.375 472.175 129.752 475.225 130.505C478.275 131.259 481.475 132.34 484.825 133.75C486.375 134.431 487.625 135.427 488.575 136.74C489.525 138.052 490 139.632 490 141.479V143.958C490 145.174 489.563 146.207 488.688 147.057C487.812 147.908 486.75 148.333 485.5 148.333H446.5C445.25 148.333 444.188 147.908 443.312 147.057C442.438 146.207 442 145.174 442 143.958Z" fill="#EFEEEA"/>
<path d="M296 40.426C292.7 40.426 290 39.3906 287.9 37.3198C285.8 35.2489 284.75 32.5864 284.75 29.3323C284.75 26.0781 285.8 23.4156 287.9 21.3448C290 19.2739 292.7 18.2385 296 18.2385C299.3 18.2385 302 19.2739 304.1 21.3448C306.2 23.4156 307.25 26.0781 307.25 29.3323C307.25 32.5864 306.2 35.2489 304.1 37.3198C302 39.3906 299.3 40.426 296 40.426ZM272 59.7291V57.2146C272 55.341 272.475 53.7385 273.425 52.4073C274.375 51.076 275.6 50.0653 277.1 49.375C280.45 47.8958 283.663 46.7864 286.738 46.0469C289.812 45.3073 292.9 44.9375 296 44.9375C299.1 44.9375 302.175 45.3196 305.225 46.0838C308.275 46.8481 311.475 47.9451 314.825 49.375C316.375 50.0653 317.625 51.076 318.575 52.4073C319.525 53.7385 320 55.341 320 57.2146V59.7291C320 60.9618 319.563 62.0095 318.688 62.8724C317.812 63.7352 316.75 64.1666 315.5 64.1666H276.5C275.25 64.1666 274.188 63.7352 273.312 62.8724C272.438 62.0095 272 60.9618 272 59.7291Z" fill="#EFEEEA"/>
<path d="M296 295.426C292.7 295.426 290 294.391 287.9 292.32C285.8 290.249 284.75 287.586 284.75 284.332C284.75 281.078 285.8 278.416 287.9 276.345C290 274.274 292.7 273.239 296 273.239C299.3 273.239 302 274.274 304.1 276.345C306.2 278.416 307.25 281.078 307.25 284.332C307.25 287.586 306.2 290.249 304.1 292.32C302 294.391 299.3 295.426 296 295.426ZM272 314.729V312.215C272 310.341 272.475 308.739 273.425 307.407C274.375 306.076 275.6 305.065 277.1 304.375C280.45 302.896 283.663 301.786 286.738 301.047C289.812 300.307 292.9 299.937 296 299.937C299.1 299.937 302.175 300.32 305.225 301.084C308.275 301.848 311.475 302.945 314.825 304.375C316.375 305.065 317.625 306.076 318.575 307.407C319.525 308.739 320 310.341 320 312.215V314.729C320 315.962 319.563 317.01 318.688 317.872C317.812 318.735 316.75 319.167 315.5 319.167H276.5C275.25 319.167 274.188 318.735 273.312 317.872C272.438 317.01 272 315.962 272 314.729Z" fill="#EFEEEA"/>
<path d="M41 210.426C37.7 210.426 35 209.391 32.9 207.32C30.8 205.249 29.75 202.586 29.75 199.332C29.75 196.078 30.8 193.416 32.9 191.345C35 189.274 37.7 188.239 41 188.239C44.3 188.239 47 189.274 49.1 191.345C51.2 193.416 52.25 196.078 52.25 199.332C52.25 202.586 51.2 205.249 49.1 207.32C47 209.391 44.3 210.426 41 210.426ZM17 229.729V227.215C17 225.341 17.475 223.739 18.425 222.407C19.375 221.076 20.6 220.065 22.1 219.375C25.45 217.896 28.6625 216.786 31.7375 216.047C34.8125 215.307 37.9 214.937 41 214.937C44.1 214.937 47.175 215.32 50.225 216.084C53.275 216.848 56.475 217.945 59.825 219.375C61.375 220.065 62.625 221.076 63.575 222.407C64.525 223.739 65 225.341 65 227.215V229.729C65 230.962 64.5625 232.01 63.6875 232.872C62.8125 233.735 61.75 234.167 60.5 234.167H21.5C20.25 234.167 19.1875 233.735 18.3125 232.872C17.4375 232.01 17 230.962 17 229.729Z" fill="#EFEEEA"/>
<g clip-path="url(#clip0_58_1561)">
<path d="M290.967 51.6603C266.895 32.0685 231.378 35.7127 211.794 59.7756C192.209 83.8386 195.846 119.364 219.918 138.956C241.984 156.915 273.653 155.334 293.863 136.413L301.319 142.481L299.159 145.135C297.96 146.608 298.183 148.782 299.656 149.981L356.596 196.324C358.069 197.523 360.243 197.3 361.442 195.827L375.377 178.705C376.576 177.231 376.353 175.058 374.88 173.859L317.94 127.516C316.458 126.309 314.293 126.54 313.094 128.013L310.934 130.667L303.478 124.599C317.901 100.968 313.01 69.63 290.953 51.6781L290.967 51.6603ZM225.697 131.855C205.549 115.457 202.489 85.7124 218.895 65.5549C235.301 45.3974 265.038 42.3463 285.195 58.7523C305.353 75.1582 308.404 104.895 291.998 125.053C275.592 145.21 245.846 148.254 225.697 131.855Z" fill="#5E1675"/>
</g>
<defs>
<clipPath id="clip0_58_1561">
<rect width="112.555" height="201.957" fill="white" transform="translate(176.266 103.428) rotate(-50.8582)"/>
</clipPath>
</defs>
</svg>
