<svg width="1924" height="1057" viewBox="0 0 1924 1057" fill="none" xmlns="http://www.w3.org/2000/svg">
<rect x="2" y="739" width="1920" height="318" fill="white"/>
<path d="M1692.07 323.7C1692.07 323.7 1554.22 256.5 1498.32 319.1C1469.6 351.27 1366.51 606.63 1348.19 637.74C1343.74 645.29 1337.14 655.99 1326.12 660.91C1291.7 676.27 1234.02 676.11 1226.66 681.91C1216.94 689.57 1197.38 691.45 1196.96 703.66C1196.54 715.87 1234.83 752.26 1297.64 737.89C1360.45 723.52 1492.19 697.48 1498.32 653.06C1504.45 608.64 1692.07 323.7 1692.07 323.7Z" fill="#2D3748" stroke="white" stroke-width="3" stroke-linejoin="round"/>
<path d="M1482.23 479.96C1512.64 410.98 1609.44 222.88 1656.87 208.81C1703.3 195.03 1798.29 307 1809.3 342.53C1820.31 378.06 1795.11 677.57 1795.11 677.57L1688.44 789.75C1688.44 789.75 1347.02 825.66 1314.49 796.63C1281.96 767.61 1244.55 739.54 1244.55 739.54C1244.55 739.54 1187.84 734.53 1196.96 703.65C1200.36 692.12 1202.74 692.25 1224.11 684.46C1240.84 678.36 1264.51 671.87 1288.36 666.7C1313.95 661.16 1334.77 662.96 1352.41 653.05C1415.41 617.66 1469.1 509.75 1482.24 479.94L1482.23 479.96Z" fill="#2D3748" stroke="white" stroke-width="3" stroke-linejoin="round"/>
<path d="M452.02 388.04C452.02 388.04 761.26 199.43 789.03 199.41C857.3 199.38 1071.77 512.12 1113.85 546.59C1155.93 581.06 1230.27 676.07 1230.27 676.07C1230.27 676.07 1194.16 686.17 1174.65 737.32C1166.66 758.26 966.95 660.91 966.95 660.91L452.02 388.04Z" fill="#2D3748" stroke="white" stroke-width="3" stroke-linejoin="round"/>
<path d="M1254.74 748.04C1312.5 773.65 974.53 813.88 963.41 815.59C952.29 817.3 761.24 562.19 761.24 562.19L128.79 199.42C128.79 199.42 372.76 60.68 509.19 70C582.47 75 848.76 355.09 877.83 392.64C951.36 487.62 1119.5 660.33 1152.33 698.05C1175.16 724.28 1196.95 703.66 1196.95 703.66L1254.74 748.04Z" fill="#2D3748" stroke="white" stroke-width="3" stroke-linejoin="round"/>
<path d="M2 2C2 2 202.92 18.69 366.14 126.81C529.36 234.93 692.25 434 819.54 479.96C946.83 525.92 1206.88 781.57 1206.88 781.57C1206.88 781.57 81.93 983.85 2 995.77L2 2Z" fill="#2D3748" stroke="white" stroke-width="3" stroke-linejoin="round"/>
<path d="M1922.1 93.9399C1922.1 93.9399 1879.35 109.37 1835.34 139.87C1791.28 170.39 1708 254.37 1639.06 349.95C1570.12 445.53 1450.81 678.96 1409.44 713.19C1388.67 730.38 1308.09 787.09 1275.81 786.52C1253.94 786.13 866.19 861.47 915.8 914.25C972.72 974.8 1319.08 1001.57 1659.16 1012.13C1740.31 1014.65 1921.99 1024.55 1921.99 1024.55L1922.09 93.9399H1922.1Z" fill="#2D3748" stroke="white" stroke-width="3" stroke-linejoin="round"/>
<path d="M1228.75 745.64C1176.99 721.95 1171.37 715.82 1175.22 705.93C1188.72 671.2 1326.12 660.91 1326.12 660.91C1326.12 660.91 1164.85 686.19 1214.78 712.76C1240.16 726.26 1380.23 752.08 1307.21 779.65C1225.82 810.39 2 1031.49 2 1031.49V954.64C2 954.64 1136.03 780.84 1157.18 776.43C1198.61 767.81 1250.17 755.44 1228.75 745.64Z" fill="white"/>
</svg>
