<svg width="1920" height="1057" viewBox="0 0 1920 1057" fill="none" xmlns="http://www.w3.org/2000/svg">
<rect y="739" width="1920" height="318" fill="white"/>
<path d="M1690.07 323.7C1690.07 323.7 1552.22 256.5 1496.32 319.1C1467.6 351.27 1364.51 606.63 1346.19 637.74C1341.74 645.29 1335.14 655.99 1324.12 660.91C1289.7 676.27 1232.02 676.11 1224.66 681.91C1214.94 689.57 1195.38 691.45 1194.96 703.66C1194.54 715.87 1232.83 752.26 1295.64 737.89C1358.45 723.52 1490.19 697.48 1496.32 653.06C1502.45 608.64 1690.07 323.7 1690.07 323.7Z" fill="#222B38" stroke="white" stroke-width="3" stroke-linejoin="round"/>
<path d="M1480.23 479.96C1510.64 410.98 1607.44 222.88 1654.87 208.81C1701.3 195.03 1796.29 307 1807.3 342.53C1818.31 378.06 1793.11 677.57 1793.11 677.57L1686.44 789.75C1686.44 789.75 1345.02 825.66 1312.49 796.63C1279.96 767.61 1242.55 739.54 1242.55 739.54C1242.55 739.54 1185.84 734.53 1194.96 703.65C1198.36 692.12 1200.74 692.25 1222.11 684.46C1238.84 678.36 1262.51 671.87 1286.36 666.7C1311.95 661.16 1332.77 662.96 1350.41 653.05C1413.41 617.66 1467.1 509.75 1480.24 479.94L1480.23 479.96Z" fill="#222B38" stroke="white" stroke-width="3" stroke-linejoin="round"/>
<path d="M450.02 388.04C450.02 388.04 759.26 199.43 787.03 199.41C855.3 199.38 1069.77 512.12 1111.85 546.59C1153.93 581.06 1228.27 676.07 1228.27 676.07C1228.27 676.07 1192.16 686.17 1172.65 737.32C1164.66 758.26 964.95 660.91 964.95 660.91L450.02 388.04Z" fill="#222B38" stroke="white" stroke-width="3" stroke-linejoin="round"/>
<path d="M1252.74 748.04C1310.5 773.65 972.53 813.88 961.41 815.59C950.29 817.3 759.24 562.19 759.24 562.19L126.79 199.42C126.79 199.42 370.76 60.68 507.19 70C580.47 75 846.76 355.09 875.83 392.64C949.36 487.62 1117.5 660.33 1150.33 698.05C1173.16 724.28 1194.95 703.66 1194.95 703.66L1252.74 748.04Z" fill="#222B38" stroke="white" stroke-width="3" stroke-linejoin="round"/>
<path d="M0 2C0 2 200.92 18.69 364.14 126.81C527.36 234.93 690.25 434 817.54 479.96C944.83 525.92 1204.88 781.57 1204.88 781.57C1204.88 781.57 79.93 983.85 0 995.77L0 2Z" fill="#222B38" stroke="white" stroke-width="3" stroke-linejoin="round"/>
<path d="M1920.1 93.94C1920.1 93.94 1877.35 109.37 1833.34 139.87C1789.28 170.39 1706 254.37 1637.06 349.95C1568.12 445.53 1448.81 678.96 1407.44 713.19C1386.67 730.38 1306.09 787.09 1273.81 786.52C1251.94 786.13 864.19 861.47 913.8 914.25C970.72 974.8 1317.08 1001.57 1657.16 1012.13C1738.31 1014.65 1919.99 1024.55 1919.99 1024.55L1920.09 93.94H1920.1Z" fill="#222B38" stroke="white" stroke-width="3" stroke-linejoin="round"/>
<path d="M1226.75 745.64C1174.99 721.95 1169.37 715.82 1173.22 705.93C1186.72 671.2 1324.12 660.91 1324.12 660.91C1324.12 660.91 1162.85 686.19 1212.78 712.76C1238.16 726.26 1378.23 752.08 1305.21 779.65C1223.82 810.39 0 1031.49 0 1031.49V954.64C0 954.64 1134.03 780.84 1155.18 776.43C1196.61 767.81 1248.17 755.44 1226.75 745.64Z" fill="white"/>
</svg>
