<svg width="1920" height="1080" viewBox="0 0 1920 1080" fill="none" xmlns="http://www.w3.org/2000/svg">
<path d="M1083.2 510.7C1083.2 510.7 1184 444.9 1195.9 445.6C1241.1 448.1 1309.4 524.5 1349.4 561.5C1399.9 608.3 1473.8 674 1473.8 674L1496.4 690.7C1514.8 704.3 1461.5 809 1457.2 820.4C1453.8 829.4 1305 628.5 1305 628.5L1083.2 510.7Z" fill="#222B38" stroke="white" stroke-width="3" stroke-linejoin="round"/>
<path d="M1773.6 494.1C1773.6 494.1 1637 433.7 1625.7 470.4C1619.6 490.1 1576.7 630.5 1570.3 657C1568.3 665.3 1567.2 675.2 1558.5 678.3C1546.3 682.6 1532.8 682.5 1520.7 686.2C1502.2 691.9 1492.7 702.2 1485.4 708.3C1463.9 726.1 1484.9 737.2 1482.9 739C1478.5 743 1515.8 767.8 1516 773.7C1578.1 797.5 1526.3 789.4 1555.8 780.6C1585.3 771.8 1618.7 702.8 1620.3 681.4C1621.8 660 1773.6 494.1 1773.6 494.1Z" fill="#222B38" stroke="white" stroke-width="3" stroke-linejoin="round"/>
<path d="M1858.4 370.1C1858.4 370.1 1687.2 346.3 1662.8 412.2C1652.5 439.9 1596.3 629.7 1583.1 666.5C1570.4 702.1 1522.5 756.7 1517.5 760.7C1510.8 766 1454.3 827.7 1454 836.1C1540.6 876 1322.8 919.6 1365.8 909.7C1408.8 899.8 1712.8 873.5 1717 843.1C1721.2 812.5 1858.4 370.1 1858.4 370.1Z" fill="#222B38" stroke="white" stroke-width="3" stroke-linejoin="round"/>
<path d="M1721.4 355.1C1751.1 289.5 1885 280.4 1892.5 304.8C1900 329.2 1845.8 797 1845.8 797L1772.7 874C1772.7 874 1419.7 1013.7 1397.4 993.8C1375.1 973.9 1316.4 992.3 1316.4 992.3C1316.4 992.3 1294.9 972.1 1301.1 950.9C1303.4 943 1440.1 807.1 1454.7 801.8C1466.2 797.6 1482.4 793.2 1498.7 789.6C1516.2 785.8 1536.8 786.6 1548.9 779.8C1592.1 755.5 1616.8 659.5 1624.6 638.6C1655.3 557.2 1682 444.5 1721.4 355.1Z" fill="#222B38" stroke="white" stroke-width="3" stroke-linejoin="round"/>
<path d="M758.2 443.5C758.2 443.5 962.3 320.8 1021.7 324.1C1104.6 328.7 1173 468.9 1246.4 536.7C1339.1 622.5 1474.7 743.1 1474.7 743.1L1516.2 773.6C1550 798.5 1396 837.9 1388 858.8C1381.7 875.4 1165.1 659.5 1165.1 659.5L758.2 443.5Z" fill="#222B38" stroke="white" stroke-width="3" stroke-linejoin="round"/>
<path d="M453.4 408.4C453.4 408.4 743.4 239.1 797 239.1C888.7 239.1 1096.3 509.7 1134 548.9C1212.6 630.6 1429.7 813.5 1429.7 813.5C1429.7 813.5 1268.1 881.8 1248.6 933C1240.6 953.9 967.1 681.3 967.1 681.3L453.4 408.4Z" fill="#222B38" stroke="white" stroke-width="3" stroke-linejoin="round"/>
<path d="M1334.4 851.7C1392 877.3 1060.3 981.8 1049.2 983.5C1038.1 985.2 677.8 789.4 677.8 789.4L130.9 219.8C130.9 219.8 374.3 81.0998 510.4 90.3998C583.5 95.3998 849.2 375.5 878.2 413C951.6 508 1119.3 680.7 1152.1 718.4C1174.8 744.6 1334.4 851.7 1334.4 851.7Z" fill="#222B38" stroke="white" stroke-width="3" stroke-linejoin="round"/>
<path d="M0 0L263 -1C263 -1 368.3 97.4 424 147.2C569.8 277.5 643.5 368.6 720.4 468.8C852.1 640.5 1062.1 764.8 1139.6 820.6C1213 873.4 1266.2 886.7 1287.3 912.2C1308.3 937.7 1092.8 916.8 982.8 978.8C872.8 1040.8 787.9 1077.2 787.9 1077.2L0 1080V0Z" fill="#222B38"/>
<path d="M263 -1C263 -1 368.3 97.4 424 147.2C569.8 277.5 643.5 368.6 720.4 468.8C852.1 640.5 1062.1 764.8 1139.6 820.6C1213 873.4 1266.2 886.7 1287.3 912.2C1308.3 937.7 1092.8 916.8 982.8 978.8C872.8 1040.8 787.9 1077.2 787.9 1077.2" stroke="white" stroke-width="3" stroke-linejoin="round"/>
<path d="M1920 90C1920 90 1801.1 165.6 1773.6 262.1C1751.4 339.9 1635.3 718.6 1596.8 785.9C1574.4 825.3 1519.1 880.5 1450.3 919.2C1408 943 1241.5 991.9 1277.6 1028C1316.6 1069.6 1507 1061.6 1739.9 1068.8C1795.5 1070.5 1919.9 1077.3 1919.9 1077.3V176.3L1920 90Z" fill="#222B38"/>
<path d="M1920 90C1920 90 1801.1 165.6 1773.6 262.1C1751.4 339.9 1657.9 667.5 1619.5 734.9C1597.1 774.3 1562.7 820.7 1465 869C1421.5 890.5 1367 910.6 1319 920.6" stroke="white" stroke-width="3" stroke-linejoin="round"/>
<path d="M1466.3 723.3C1463.9 733.2 1467.4 739.3 1499 763C1512.1 772.8 1480.6 785.2 1455.2 793.8C1257.9 861.1 921.6 905 747 1080H1920V1041.3C1776.8 1036 1469.7 1013.7 1386.7 967.3C1282.9 909.3 1480.9 843.3 1547.1 797.1C1591.8 769.5 1506.1 743.7 1490.6 730.2C1460.1 703.6 1558.7 678.4 1558.7 678.4C1558.7 678.4 1474.6 688.6 1466.3 723.3Z" fill="white"/>
</svg>
