<svg width="293" height="293" viewBox="0 0 293 293" fill="none" xmlns="http://www.w3.org/2000/svg">
<path opacity="0.65" d="M146.501 146.501C146.501 150.727 113.706 175 73.2513 175C32.7967 175 0 150.727 0 146.501H146.501Z" fill="#F9B934"/>
<path opacity="0.65" d="M146.501 146.501C147.235 150.663 119.153 180.261 79.3126 187.287C39.4719 194.312 2.95959 176.103 2.22559 171.941L146.501 146.501Z" fill="#F9B934"/>
<path opacity="0.65" d="M146.501 146.501C147.947 150.474 125.431 184.498 87.4153 198.334C49.3995 212.17 10.281 200.578 8.83496 196.607L146.501 146.501Z" fill="#F9B934"/>
<path opacity="0.65" d="M146.501 146.501C148.615 150.161 132.349 187.579 97.3144 207.807C62.2785 228.034 21.741 223.412 19.6287 219.75L146.503 146.501H146.501Z" fill="#F9B934"/>
<path opacity="0.65" d="M146.501 146.501C149.217 149.74 139.697 189.413 108.706 215.417C77.716 241.422 36.9908 243.908 34.2747 240.669L146.501 146.501Z" fill="#F9B934"/>
<path opacity="0.65" d="M146.501 146.501C149.74 149.217 147.252 189.942 121.249 220.933C95.2443 251.923 55.571 261.443 52.3323 258.727L146.501 146.501Z" fill="#F9B934"/>
<path opacity="0.65" d="M146.501 146.501C150.161 148.615 154.785 189.152 134.557 224.187C114.33 259.222 76.9111 275.487 73.2512 273.373L146.501 146.499V146.501Z" fill="#F9B934"/>
<path opacity="0.65" d="M146.501 146.501C150.474 147.947 162.065 187.065 148.228 225.081C134.392 263.097 100.365 285.613 96.3943 284.167L146.501 146.501Z" fill="#F9B934"/>
<path opacity="0.65" d="M146.501 146.501C150.663 147.235 168.873 183.747 161.847 223.588C154.822 263.429 125.223 291.51 121.061 290.776L146.501 146.501Z" fill="#F9B934"/>
<path opacity="0.65" d="M146.501 146.501C150.727 146.501 175 179.296 175 219.75C175 260.205 150.727 293 146.501 293V146.499V146.501Z" fill="#F9B934"/>
<path opacity="0.65" d="M146.501 146.501C150.663 145.767 180.262 173.848 187.287 213.689C194.313 253.53 176.103 290.042 171.941 290.776L146.501 146.501Z" fill="#F9B934"/>
<path opacity="0.65" d="M146.501 146.501C150.474 145.055 184.498 167.57 198.334 205.586C212.17 243.602 200.579 282.72 196.608 284.166L146.501 146.501Z" fill="#F9B934"/>
<path opacity="0.65" d="M146.501 146.501C150.161 144.387 187.58 160.653 207.807 195.687C228.034 230.723 223.412 271.261 219.751 273.373L146.501 146.499V146.501Z" fill="#2D3748"/>
<path opacity="0.65" d="M146.501 146.501C149.74 143.785 189.413 153.305 215.418 184.295C241.422 215.286 243.908 256.011 240.67 258.727L146.501 146.501Z" fill="#2D3748"/>
<path opacity="0.65" d="M146.501 146.501C149.217 143.262 189.942 145.75 220.933 171.753C251.923 197.757 261.443 237.431 258.727 240.669L146.501 146.501Z" fill="#2D3748"/>
<path opacity="0.65" d="M146.501 146.501C148.615 142.841 189.152 138.217 224.186 158.444C259.222 178.672 275.487 216.091 273.373 219.75L146.499 146.501H146.501Z" fill="#2D3748"/>
<path opacity="0.65" d="M146.501 146.501C147.947 142.528 187.066 130.936 225.081 144.774C263.097 158.61 285.613 192.636 284.167 196.607L146.501 146.501Z" fill="#2D3748"/>
<path opacity="0.65" d="M146.501 146.501C147.235 142.339 183.747 124.129 223.588 131.154C263.429 138.18 291.51 167.778 290.776 171.941L146.501 146.501Z" fill="#2D3748"/>
<path opacity="0.65" d="M146.501 146.501C146.501 142.275 179.296 118.002 219.75 118.002C260.205 118.002 293 142.275 293 146.501H146.499H146.501Z" fill="#2D3748"/>
<path opacity="0.65" d="M146.501 146.501C145.767 142.339 173.849 112.74 213.689 105.715C253.53 98.6893 290.042 116.899 290.776 121.061L146.501 146.501Z" fill="#2D3748"/>
<path opacity="0.65" d="M146.501 146.501C145.055 142.528 167.57 108.504 205.586 94.6676C243.602 80.8315 282.72 92.4233 284.166 96.3944L146.501 146.501Z" fill="#2D3748"/>
<path opacity="0.65" d="M146.501 146.501C144.387 142.841 160.653 105.422 195.687 85.1949C230.723 64.9676 271.261 69.5898 273.373 73.2513L146.499 146.501H146.501Z" fill="#2D3748"/>
<path opacity="0.65" d="M146.501 146.501C143.784 143.262 153.304 103.589 184.295 77.5842C215.285 51.5796 256.011 49.0934 258.727 52.3322L146.501 146.501Z" fill="#2D3748"/>
<path opacity="0.65" d="M146.501 146.501C143.262 143.785 145.75 103.06 171.753 72.0691C197.758 41.0787 237.431 31.5587 240.67 34.2748L146.501 146.501Z" fill="#2D3748"/>
<path opacity="0.65" d="M146.501 146.501C142.841 144.387 138.217 103.849 158.445 68.8151C178.672 33.7793 216.091 17.5146 219.751 19.6286L146.501 146.503V146.501Z" fill="#718096"/>
<path opacity="0.65" d="M146.501 146.501C142.528 145.055 130.936 105.936 144.774 67.9205C158.61 29.9046 192.636 7.38908 196.607 8.83509L146.501 146.501Z" fill="#718096"/>
<path opacity="0.65" d="M146.501 146.501C142.339 145.767 124.129 109.255 131.154 69.4139C138.178 29.5732 167.777 1.49177 171.941 2.22577L146.501 146.501Z" fill="#718096"/>
<path opacity="0.65" d="M146.501 146.501C142.274 146.501 118.002 113.706 118.002 73.2513C118.002 32.795 142.274 0 146.501 0V146.501Z" fill="#718096"/>
<path opacity="0.65" d="M146.501 146.501C142.339 147.235 112.74 119.153 105.715 79.3126C98.6893 39.4719 116.899 2.95957 121.061 2.22557L146.501 146.501Z" fill="#718096"/>
<path opacity="0.65" d="M146.501 146.501C142.528 147.947 108.504 125.431 94.6676 87.4154C80.8315 49.3996 92.4234 10.281 96.3944 8.83502L146.501 146.501Z" fill="#718096"/>
<path opacity="0.65" d="M146.501 146.501C142.841 148.615 105.422 132.349 85.1948 97.3144C64.9675 62.2786 69.5897 21.7411 73.2513 19.6287L146.501 146.503V146.501Z" fill="#718096"/>
<path opacity="0.65" d="M146.501 146.501C143.262 149.217 103.589 139.697 77.5843 108.706C51.5797 77.716 49.0935 36.9908 52.3323 34.2747L146.501 146.501Z" fill="#718096"/>
<path opacity="0.65" d="M146.501 146.501C143.785 149.739 103.059 147.252 72.0691 121.249C41.0787 95.2441 31.5586 55.5709 34.2748 52.3321L146.501 146.501Z" fill="#718096"/>
<path opacity="0.65" d="M146.501 146.501C144.387 150.161 103.849 154.785 68.8151 134.557C33.7792 114.328 17.5145 76.9111 19.6269 73.2495L146.501 146.499V146.501Z" fill="#718096"/>
<path opacity="0.65" d="M146.501 146.501C145.055 150.474 105.936 162.065 67.9203 148.228C29.9045 134.391 7.38895 100.367 8.83497 96.3942L146.501 146.501Z" fill="#718096"/>
<path opacity="0.65" d="M146.501 146.501C145.767 150.663 109.255 168.873 69.4139 161.847C29.5732 154.822 1.49173 125.223 2.22573 121.061L146.501 146.501Z" fill="#718096"/>
</svg>
