<svg width="748" height="560" viewBox="0 0 748 560" fill="none" xmlns="http://www.w3.org/2000/svg">
<rect x="376" y="188" width="90" height="90" fill="#333A45"/>
<rect x="376" y="376" width="90" height="90" fill="#1F2631"/>
<rect x="376" y="282" width="90" height="90" fill="#333A45"/>
<rect x="376" y="470" width="90" height="90" fill="#1F2631"/>
<rect x="188" y="376" width="90" height="90" fill="#333A45"/>
<rect x="188" y="470" width="90" height="90" fill="#333A45"/>
<rect x="564" y="376" width="90" height="90" fill="#333A45"/>
<rect x="564" y="282" width="90" height="90" fill="#333A45"/>
<rect x="564" y="470" width="90" height="90" fill="#333A45"/>
<rect x="94" y="376" width="90" height="90" fill="#333A45"/>
<rect y="261" width="90" height="90" fill="#333A45"/>
<rect y="167" width="90" height="90" fill="#333A45"/>
<rect x="94" y="73" width="90" height="90" fill="#333A45"/>
<rect x="94" y="167" width="90" height="90" fill="#333A45"/>
<rect x="94" y="470" width="90" height="90" fill="#333A45"/>
<rect x="470" y="188" width="90" height="90" fill="#333A45"/>
<rect x="470" y="376" width="90" height="90" fill="#333A45"/>
<rect x="470" y="282" width="90" height="90" fill="#F9B934"/>
<rect x="470" y="470" width="90" height="90" fill="#1F2631"/>
<rect x="282" y="376" width="90" height="90" fill="#F9B934"/>
<rect x="282" y="282" width="90" height="90" fill="#333A45"/>
<rect x="282" y="470" width="90" height="90" fill="#F9B934"/>
<rect x="564" y="188" width="90" height="90" fill="#1F2631"/>
<rect x="564" width="90" height="90" fill="#1F2631"/>
<rect x="564" y="94" width="90" height="90" fill="#1F2631"/>
<rect x="658" y="188" width="90" height="90" fill="#1F2631"/>
<rect x="658" y="376" width="90" height="90" fill="#1F2631"/>
<rect x="658" y="282" width="90" height="90" fill="#1F2631"/>
<rect x="658" y="470" width="90" height="90" fill="#1F2631"/>
</svg>
