<svg width="1920" height="560" viewBox="0 0 1920 560" fill="none" xmlns="http://www.w3.org/2000/svg">
<rect y="376" width="90" height="90" fill="#333A45"/>
<rect y="470" width="90" height="90" fill="#333A45"/>
<rect x="94" y="470" width="90" height="90" fill="#333A45"/>
<rect x="1548" y="188" width="90" height="90" fill="#333A45"/>
<rect x="1548" y="376" width="90" height="90" fill="#1F2631"/>
<rect x="1548" y="282" width="90" height="90" fill="#333A45"/>
<rect x="1548" y="470" width="90" height="90" fill="#1F2631"/>
<rect x="1360" y="376" width="90" height="90" fill="#333A45"/>
<rect x="1360" y="470" width="90" height="90" fill="#333A45"/>
<rect x="1736" y="376" width="90" height="90" fill="#333A45"/>
<rect x="1736" y="282" width="90" height="90" fill="#333A45"/>
<rect x="1736" y="470" width="90" height="90" fill="#333A45"/>
<rect x="1266" y="376" width="90" height="90" fill="#333A45"/>
<rect x="1172" y="261" width="90" height="90" fill="#333A45"/>
<rect x="1172" y="167" width="90" height="90" fill="#333A45"/>
<rect x="1266" y="73" width="90" height="90" fill="#333A45"/>
<rect x="1266" y="167" width="90" height="90" fill="#333A45"/>
<rect x="1266" y="470" width="90" height="90" fill="#333A45"/>
<rect x="1642" y="188" width="90" height="90" fill="#333A45"/>
<rect x="1642" y="376" width="90" height="90" fill="#333A45"/>
<rect x="1642" y="282" width="90" height="90" fill="#F9B934"/>
<rect x="1642" y="470" width="90" height="90" fill="#1F2631"/>
<rect x="1454" y="376" width="90" height="90" fill="#F9B934"/>
<rect x="1454" y="282" width="90" height="90" fill="#333A45"/>
<rect x="1454" y="470" width="90" height="90" fill="#F9B934"/>
<rect x="1736" y="188" width="90" height="90" fill="#1F2631"/>
<rect x="1736" width="90" height="90" fill="#1F2631"/>
<rect x="1736" y="94" width="90" height="90" fill="#1F2631"/>
<rect x="1830" y="188" width="90" height="90" fill="#1F2631"/>
<rect x="1830" y="376" width="90" height="90" fill="#1F2631"/>
<rect x="1830" y="282" width="90" height="90" fill="#1F2631"/>
<rect x="1830" y="470" width="90" height="90" fill="#1F2631"/>
</svg>
