<svg width="1856" height="360" viewBox="0 0 1856 360" fill="none" xmlns="http://www.w3.org/2000/svg">
<path d="M1878.7 357.034H1779.27C1777.43 357.034 1775.94 355.54 1775.94 353.698V201.411C1775.94 195.486 1771.14 190.682 1765.23 190.682H1687.67C1681.76 190.682 1676.97 195.486 1676.97 201.411V353.698C1676.97 355.54 1675.48 357.034 1673.64 357.034H1640.57C1638.73 357.034 1637.24 355.54 1637.24 353.698V13.1296C1637.24 7.20535 1632.44 2.40125 1626.53 2.40125H1548.98C1543.06 2.40125 1538.27 7.20535 1538.27 13.1296V353.698C1538.27 355.54 1536.78 357.034 1534.94 357.034H1501.87C1500.03 357.034 1498.54 355.54 1498.54 353.698V275.289C1498.54 269.365 1493.75 264.561 1487.83 264.561H1410.28C1404.37 264.561 1399.57 269.365 1399.57 275.289V353.698C1399.57 355.54 1398.08 357.034 1396.24 357.034H1363.17C1361.34 357.034 1359.85 355.54 1359.85 353.698V81.7686C1359.85 75.8443 1355.05 71.0402 1349.14 71.0402H1271.58C1265.67 71.0402 1260.88 75.8443 1260.88 81.7686V353.698C1260.88 355.54 1259.38 357.034 1257.55 357.034H1224.48C1222.64 357.034 1221.15 355.54 1221.15 353.698V138.957C1221.15 133.033 1216.35 128.229 1210.44 128.229H1132.89C1126.97 128.229 1122.18 133.033 1122.18 138.957V353.686C1122.18 355.528 1120.69 357.021 1118.85 357.021H-11" stroke="#F9B934" stroke-width="4" stroke-linecap="round" stroke-linejoin="round"/>
</svg>
