<svg width="420" height="680" viewBox="0 0 420 680" fill="none" xmlns="http://www.w3.org/2000/svg">
<path d="M13.8833 -53.3704V135.771C13.8833 164.482 31.9655 188.972 57.394 198.573C43.4664 207.135 34.511 222.97 35.8827 240.765C37.6368 263.676 56.8533 281.852 79.8814 282.51C105.587 283.233 126.663 262.663 126.663 237.201C126.663 220.866 117.998 206.556 105.007 198.586C127.956 189.932 144.917 169.138 148.016 144.057C148.596 139.335 152.606 135.784 157.38 135.784H407.683C412.892 135.784 417.126 140.006 417.126 145.201V180.489C388.334 180.489 363.776 198.52 354.148 223.878C345.562 209.989 329.682 201.059 311.838 202.426C288.862 204.176 270.635 223.338 269.975 246.302C269.25 271.936 289.878 292.953 315.412 292.953C331.793 292.953 346.142 284.312 354.135 271.357C363.75 296.714 388.308 314.746 417.113 314.746V520.552C417.113 525.747 412.879 529.968 407.669 529.968H364.805C364.805 501.257 346.723 476.768 321.294 467.167C335.222 458.605 344.177 442.769 342.806 424.975C341.051 402.063 321.835 383.887 298.807 383.23C273.101 382.506 252.025 403.076 252.025 428.539C252.025 444.874 260.69 459.183 273.682 467.154C250.733 475.808 233.771 496.601 230.672 521.683C230.092 526.404 226.082 529.955 221.308 529.955H157.367C152.593 529.955 148.583 526.404 148.003 521.683C144.904 496.601 127.942 475.821 104.993 467.154C118.921 458.592 127.876 442.756 126.505 424.961C124.751 402.05 105.534 383.874 82.506 383.216C56.8005 382.493 35.7244 403.063 35.7244 428.526C35.7244 444.861 44.3896 459.17 57.3809 467.14C31.9523 476.728 13.8701 501.218 13.8701 529.942V738.01" stroke="#222B38" stroke-width="5" stroke-linecap="round" stroke-linejoin="round"/>
<path d="M2.01319 -58V123.934C2.01319 152.645 20.0954 177.135 45.5239 186.736C31.5963 195.298 22.6409 211.133 24.0126 228.928C25.7667 251.839 44.9832 270.015 68.0113 270.673C93.7168 271.396 114.793 250.826 114.793 225.364C114.793 209.029 106.128 194.719 93.1365 186.749C116.085 178.095 133.047 157.301 136.146 132.22C136.726 127.498 140.736 123.947 145.51 123.947H395.812C401.022 123.947 405.256 128.169 405.256 133.364V168.652C376.464 168.652 351.906 186.683 342.278 212.041C333.692 198.152 317.812 189.222 299.967 190.589C276.992 192.339 258.765 211.501 258.105 234.465C257.38 260.099 278.008 281.116 303.542 281.116C319.923 281.116 334.272 272.475 342.265 259.52C351.88 284.877 376.438 302.909 405.243 302.909V508.714C405.243 513.91 401.009 518.131 395.799 518.131H352.935C352.935 489.42 334.853 464.931 309.424 455.33C323.352 446.768 332.307 430.932 330.935 413.138C329.181 390.226 309.965 372.05 286.937 371.393C261.231 370.669 240.155 391.239 240.155 416.702C240.155 433.037 248.82 447.346 261.811 455.317C238.862 463.971 221.901 484.764 218.802 509.846C218.222 514.567 214.212 518.118 209.438 518.118H145.497C140.723 518.118 136.713 514.567 136.133 509.846C133.033 484.764 116.072 463.984 93.1233 455.317C107.051 446.755 116.006 430.919 114.635 413.124C112.881 390.213 93.664 372.037 70.6359 371.379C44.9304 370.656 23.8543 391.226 23.8543 416.689C23.8543 433.024 32.5195 447.333 45.5107 455.303C20.0822 464.891 2 489.381 2 518.105V737.418" stroke="#F9B934" stroke-width="4" stroke-linecap="round" stroke-linejoin="round"/>
</svg>
