<?xml version="1.0" encoding="UTF-8"?>
<svg id="Layer_2" data-name="Layer 2" xmlns="http://www.w3.org/2000/svg" viewBox="0 0 233.65 258.84">
  <defs>
    <style>
      .cls-1 {
        fill: #2d3748;
      }

      .cls-1, .cls-2, .cls-3 {
        stroke-width: 0px;
      }

      .cls-4 {
        isolation: isolate;
      }

      .cls-2 {
        fill: #f9b934;
      }

      .cls-3 {
        fill: #718096;
      }
    </style>
  </defs>
  <g id="Layer_1-2" data-name="Layer 1">
    <g id="talent-aug">
      <g>
        <path class="cls-2" d="M153.08,32.25c-.07,0-.13-.01-.2-.03-.56-.18-1.13-.37-1.7-.54-.34-.11-.53-.47-.43-.81s.47-.53.81-.43c.57.18,1.15.36,1.72.55.34.11.53.48.42.82-.09.27-.34.45-.62.45Z"/>
        <path class="cls-2" d="M213.19,207.59c-.12,0-.25-.04-.36-.11-.3-.2-.38-.6-.18-.9.66-.98,1.31-1.98,1.94-2.98.19-.3.59-.39.9-.2.3.19.39.59.2.9-.64,1.01-1.3,2.02-1.97,3.01-.13.19-.33.29-.54.29ZM218.77,198.43c-.11,0-.21-.03-.31-.08-.31-.17-.43-.57-.26-.88.57-1.04,1.12-2.09,1.66-3.15.16-.32.55-.45.87-.28.32.16.45.55.28.87-.54,1.07-1.1,2.13-1.68,3.18-.12.22-.34.34-.57.34ZM223.49,188.79c-.09,0-.17-.02-.26-.05-.33-.14-.48-.53-.34-.85.47-1.09.93-2.18,1.36-3.29.13-.33.51-.5.84-.36.33.13.5.51.36.84-.44,1.12-.9,2.22-1.38,3.32-.11.25-.35.39-.6.39ZM227.29,178.76c-.07,0-.13-.01-.2-.03-.34-.11-.53-.48-.42-.82.37-1.12.72-2.26,1.05-3.4.1-.34.46-.54.81-.44.34.1.54.46.44.81-.34,1.15-.69,2.3-1.06,3.44-.09.27-.34.45-.62.45ZM230.14,168.42s-.1,0-.14-.02c-.35-.08-.57-.43-.49-.78.26-1.15.51-2.31.73-3.48.07-.35.41-.58.76-.51.35.07.58.41.51.76-.23,1.18-.48,2.35-.74,3.52-.07.3-.34.51-.63.51ZM232.02,157.86s-.06,0-.08,0c-.36-.05-.61-.37-.56-.73.15-1.17.29-2.35.41-3.54.04-.36.36-.63.71-.58.36.04.62.35.58.71-.12,1.2-.26,2.39-.41,3.58-.04.33-.32.57-.64.57ZM232.92,147.17s-.02,0-.02,0c-.36-.01-.64-.32-.62-.67.04-1.18.07-2.37.08-3.56,0-.36.29-.65.65-.65h0c.36,0,.65.3.65.66,0,1.2-.04,2.4-.08,3.6-.01.35-.3.63-.65.63ZM232.84,136.44c-.34,0-.63-.27-.65-.62-.06-1.19-.14-2.37-.24-3.55-.03-.36.24-.67.59-.7.35-.03.67.23.7.59.1,1.19.18,2.39.24,3.59.02.36-.26.66-.61.68-.01,0-.02,0-.03,0ZM231.79,125.77c-.32,0-.6-.23-.64-.56-.17-1.18-.36-2.35-.57-3.51-.06-.35.17-.69.53-.75.34-.06.69.17.75.53.21,1.18.4,2.36.57,3.55.05.36-.19.69-.55.74-.03,0-.06,0-.09,0ZM229.75,115.24c-.29,0-.56-.2-.63-.5-.28-1.15-.58-2.3-.89-3.44-.1-.35.11-.7.45-.8.35-.09.7.11.8.45.32,1.15.62,2.31.9,3.48.08.35-.13.7-.48.78-.05.01-.1.02-.15.02ZM226.75,104.95c-.27,0-.52-.17-.62-.44-.38-1.12-.78-2.23-1.2-3.34-.13-.34.04-.71.38-.84.33-.13.71.04.84.38.42,1.12.83,2.24,1.22,3.38.12.34-.07.71-.4.83-.07.02-.14.04-.21.04ZM222.81,95c-.25,0-.48-.14-.59-.38-.49-1.08-.99-2.15-1.51-3.21-.16-.32-.02-.71.3-.87.32-.16.71-.02.87.3.52,1.07,1.03,2.16,1.52,3.25.15.33,0,.71-.33.86-.09.04-.18.06-.27.06ZM217.96,85.44c-.23,0-.45-.12-.57-.33-.58-1.03-1.18-2.05-1.8-3.06-.19-.31-.09-.71.22-.89.31-.18.71-.09.89.22.62,1.02,1.23,2.05,1.82,3.1.18.31.07.71-.24.89-.1.06-.21.08-.32.08ZM212.25,76.37c-.21,0-.41-.1-.53-.28-.68-.97-1.37-1.93-2.07-2.88-.21-.29-.15-.7.13-.91.29-.21.7-.15.91.13.71.96,1.41,1.93,2.1,2.92.21.29.13.7-.16.9-.11.08-.24.12-.37.12ZM205.73,67.87c-.19,0-.37-.08-.5-.23-.76-.91-1.54-1.8-2.33-2.68-.24-.27-.22-.68.05-.92.27-.24.68-.22.92.05.8.89,1.58,1.8,2.36,2.71.23.28.2.69-.08.92-.12.1-.27.15-.42.15ZM198.46,59.99c-.17,0-.33-.06-.46-.19-.84-.83-1.7-1.65-2.57-2.46-.26-.25-.28-.66-.03-.92s.66-.28.92-.03c.88.82,1.74,1.65,2.6,2.49.26.25.26.66,0,.92-.13.13-.29.19-.46.19ZM190.49,52.81c-.15,0-.29-.05-.41-.15-.92-.75-1.84-1.49-2.78-2.21-.28-.22-.34-.63-.12-.91s.63-.34.91-.12c.95.73,1.89,1.48,2.81,2.24.28.23.32.64.09.92-.13.16-.31.24-.5.24ZM181.89,46.4c-.13,0-.25-.04-.36-.11-.98-.67-1.97-1.31-2.98-1.95-.3-.19-.39-.59-.2-.9.19-.3.59-.39.9-.2,1.01.64,2.02,1.3,3.01,1.97.3.2.37.61.17.9-.13.18-.33.29-.54.29ZM172.74,40.79c-.11,0-.21-.03-.31-.08-1.04-.57-2.09-1.13-3.14-1.67-.32-.16-.45-.55-.28-.88.16-.32.56-.45.87-.28,1.07.55,2.13,1.11,3.18,1.69.31.17.43.57.26.88-.12.21-.34.34-.57.34ZM163.11,36.06c-.09,0-.17-.02-.26-.05-1.09-.47-2.18-.93-3.29-1.37-.33-.13-.5-.51-.36-.84.13-.33.51-.5.84-.36,1.12.44,2.23.91,3.32,1.38.33.14.48.53.34.86-.11.24-.35.39-.6.39Z"/>
        <path class="cls-2" d="M207.88,214.84c-.14,0-.28-.05-.4-.14-.28-.22-.33-.63-.11-.91.37-.47.74-.94,1.1-1.41.22-.28.63-.34.91-.12.28.22.34.63.12.91-.37.48-.74.95-1.11,1.42-.13.16-.32.25-.51.25Z"/>
      </g>
      <g>
        <path class="cls-2" d="M156.78,251.79c-.27,0-.51-.16-.61-.43-.12-.34.05-.71.39-.83.56-.21,1.12-.41,1.67-.63.33-.13.71.04.84.37.13.33-.04.71-.37.84-.56.22-1.12.43-1.69.63-.07.03-.15.04-.22.04Z"/>
        <path class="cls-2" d="M116.83,258.84c-.92,0-1.84-.01-2.75-.03-.36,0-.64-.31-.64-.66,0-.36.34-.66.66-.63.9.02,1.81.03,2.72.03h.89s0,0,0,0c.36,0,.65.29.65.65,0,.36-.29.65-.65.65h-.89ZM124.96,258.56c-.34,0-.62-.26-.65-.61-.02-.36.25-.67.6-.69,1.2-.08,2.4-.19,3.59-.3.35-.05.68.22.71.58.04.36-.23.68-.58.71-1.21.12-2.42.22-3.63.31-.02,0-.03,0-.05,0ZM106.85,258.42s-.04,0-.06,0c-1.21-.1-2.42-.22-3.63-.37-.36-.04-.61-.36-.57-.72s.37-.61.72-.57c1.19.14,2.39.26,3.59.36.36.03.62.34.59.7-.03.34-.31.6-.65.6ZM135.76,257.31c-.31,0-.59-.23-.64-.54-.06-.35.18-.69.54-.75,1.19-.2,2.37-.41,3.55-.64.35-.08.69.16.76.51.07.35-.16.69-.51.76-1.19.23-2.39.45-3.59.65-.04,0-.07,0-.11,0ZM96.08,257s-.08,0-.12-.01c-1.2-.22-2.39-.45-3.58-.7-.35-.08-.58-.42-.5-.77.07-.35.42-.58.77-.5,1.17.25,2.35.48,3.54.7.35.06.59.4.52.75-.06.31-.33.54-.64.54ZM146.4,255.05c-.29,0-.55-.19-.63-.49-.09-.35.12-.7.46-.79,1.17-.3,2.32-.63,3.47-.97.34-.1.71.09.81.44.1.34-.09.71-.44.81-1.16.34-2.33.67-3.51.98-.06.01-.11.02-.17.02ZM85.48,254.57c-.06,0-.12,0-.18-.02-1.17-.33-2.34-.67-3.49-1.04-.34-.11-.53-.47-.43-.81.11-.34.47-.54.81-.43,1.14.36,2.3.7,3.46,1.02.35.1.55.46.45.8-.08.29-.34.48-.63.48ZM75.15,251.15c-.08,0-.16-.01-.23-.04-1.14-.44-2.27-.89-3.39-1.37-.33-.14-.49-.52-.35-.85.14-.33.52-.49.85-.35,1.11.47,2.23.92,3.35,1.35.33.13.5.5.37.84-.1.26-.35.42-.61.42ZM65.18,246.76c-.1,0-.2-.02-.29-.07-1.09-.54-2.17-1.1-3.25-1.68-.32-.17-.43-.56-.26-.88.17-.32.56-.43.88-.26,1.06.57,2.13,1.12,3.21,1.66.32.16.45.55.29.87-.11.23-.34.36-.58.36ZM55.67,241.46c-.12,0-.24-.03-.34-.1-1.03-.64-2.06-1.3-3.07-1.97-.3-.2-.38-.6-.18-.9.2-.3.6-.38.9-.18,1,.67,2.01,1.32,3.04,1.95.31.19.4.59.21.89-.12.2-.34.31-.55.31ZM46.7,235.3c-.14,0-.27-.04-.39-.13-.97-.73-1.93-1.48-2.87-2.25-.28-.23-.32-.63-.1-.91.23-.28.64-.32.91-.1.94.76,1.88,1.5,2.84,2.22.29.22.34.62.13.91-.13.17-.32.26-.52.26ZM38.35,228.33c-.16,0-.31-.06-.44-.17-.9-.82-1.78-1.66-2.65-2.51-.26-.25-.26-.66-.01-.92.25-.26.66-.26.92-.01.86.84,1.73,1.67,2.62,2.48.26.24.28.65.04.92-.13.14-.3.21-.48.21ZM30.68,220.62c-.18,0-.35-.07-.48-.21-.81-.9-1.62-1.81-2.4-2.74-.23-.27-.2-.68.07-.92.27-.23.68-.2.92.07.78.92,1.57,1.82,2.38,2.71.24.27.22.68-.05.92-.12.11-.28.17-.44.17ZM23.77,212.24c-.2,0-.39-.09-.52-.26-.73-.97-1.44-1.95-2.14-2.95-.21-.29-.13-.7.16-.91.29-.21.7-.14.91.16.69.98,1.39,1.96,2.11,2.92.21.29.16.69-.13.91-.12.09-.25.13-.39.13ZM17.67,203.25c-.22,0-.43-.11-.55-.31-.63-1.03-1.25-2.08-1.85-3.13-.18-.31-.07-.71.24-.89.31-.18.71-.07.89.24.6,1.04,1.21,2.08,1.83,3.1.19.31.09.71-.21.89-.11.06-.22.1-.34.1ZM12.44,193.73c-.24,0-.47-.13-.58-.36-.53-1.09-1.05-2.18-1.55-3.29-.15-.33,0-.71.32-.86.33-.15.71,0,.86.33.49,1.09,1,2.18,1.53,3.25.16.32.02.71-.3.87-.09.04-.19.07-.29.07ZM8.13,183.78c-.26,0-.51-.16-.61-.42-.43-1.14-.84-2.28-1.24-3.43-.12-.34.06-.71.4-.83.34-.11.71.07.83.4.39,1.14.8,2.27,1.22,3.39.13.34-.04.71-.38.84-.08.03-.15.04-.23.04ZM4.76,173.44c-.29,0-.55-.19-.63-.48-.32-1.17-.62-2.35-.91-3.53-.08-.35.13-.7.48-.78.35-.09.7.13.78.48.28,1.17.58,2.33.9,3.49.09.35-.11.7-.46.8-.06.02-.12.02-.17.02ZM2.38,162.83c-.31,0-.58-.22-.64-.54-.21-1.19-.4-2.39-.57-3.6-.05-.36.2-.68.55-.74.35-.04.68.2.74.55.17,1.19.36,2.38.57,3.56.06.35-.17.69-.53.75-.04,0-.08,0-.11,0ZM1.01,152.05c-.34,0-.62-.26-.65-.6-.1-1.21-.17-2.42-.23-3.64-.02-.36.26-.66.62-.68.36,0,.66.26.68.62.06,1.2.14,2.4.23,3.6.03.36-.24.67-.6.7-.02,0-.04,0-.05,0ZM.65,141.18h0c-.36,0-.65-.3-.64-.66.02-1.22.05-2.43.1-3.64.02-.36.32-.61.68-.62.36.02.64.32.62.68-.05,1.2-.08,2.4-.1,3.6,0,.36-.29.64-.65.64ZM1.29,130.33s-.05,0-.07,0c-.36-.04-.62-.36-.58-.71.13-1.21.27-2.42.44-3.62.05-.36.38-.61.73-.56.36.05.6.38.56.73-.16,1.19-.31,2.38-.43,3.58-.04.33-.32.58-.65.58ZM2.93,119.58s-.09,0-.13-.01c-.35-.07-.58-.41-.51-.76.24-1.19.5-2.38.78-3.56.08-.35.43-.57.78-.48.35.08.57.43.48.78-.27,1.17-.53,2.34-.77,3.52-.06.31-.33.52-.64.52ZM5.58,109.04c-.06,0-.13,0-.19-.03-.34-.1-.54-.47-.43-.81.35-1.17.72-2.33,1.11-3.48.11-.34.48-.53.82-.41.34.11.52.48.41.82-.38,1.14-.75,2.29-1.1,3.44-.08.28-.34.46-.62.46ZM9.22,98.77c-.08,0-.16-.02-.25-.05-.33-.14-.49-.51-.36-.85.46-1.13.94-2.25,1.43-3.36.15-.33.53-.47.86-.33.33.15.48.53.33.86-.49,1.1-.96,2.21-1.42,3.32-.1.25-.35.4-.6.4ZM13.8,88.89c-.1,0-.2-.02-.3-.07-.32-.17-.44-.56-.27-.88.56-1.08,1.15-2.15,1.74-3.21.18-.31.57-.42.89-.25.31.18.42.57.25.88-.59,1.05-1.16,2.11-1.72,3.17-.12.22-.34.35-.58.35ZM19.29,79.5c-.12,0-.24-.03-.35-.11-.3-.2-.39-.6-.19-.9.66-1.02,1.34-2.03,2.03-3.03.2-.29.61-.37.9-.16.29.21.37.61.16.91-.69.99-1.36,1.99-2.01,3-.12.19-.33.3-.55.3ZM25.63,70.66c-.14,0-.28-.05-.4-.14-.28-.22-.33-.63-.11-.91.75-.95,1.52-1.9,2.31-2.83.23-.27.64-.31.92-.08.27.23.31.64.08.92-.77.92-1.53,1.85-2.28,2.79-.13.16-.32.25-.51.25ZM32.77,62.45c-.16,0-.32-.06-.45-.18-.26-.25-.27-.66-.02-.92.84-.88,1.69-1.74,2.56-2.6.26-.25.67-.25.92,0,.25.26.25.67,0,.92-.86.84-1.7,1.7-2.53,2.57-.13.13-.3.2-.47.2ZM40.64,54.94c-.18,0-.36-.08-.49-.22-.24-.27-.21-.68.06-.92.92-.8,1.85-1.58,2.79-2.35.28-.23.69-.19.91.09.23.28.19.69-.09.91-.93.76-1.85,1.54-2.76,2.32-.12.11-.27.16-.43.16ZM49.16,48.2c-.2,0-.4-.09-.53-.27-.21-.29-.14-.7.15-.91.99-.71,1.98-1.4,2.99-2.08.3-.2.7-.12.9.18.2.3.12.7-.18.9-1,.67-1.98,1.36-2.96,2.05-.11.08-.25.12-.38.12ZM58.27,42.29c-.22,0-.44-.12-.56-.32-.18-.31-.08-.71.23-.89,1.05-.61,2.1-1.21,3.17-1.79.32-.17.71-.05.88.26.17.32.06.71-.26.88-1.05.57-2.1,1.16-3.13,1.77-.1.06-.22.09-.33.09ZM67.9,37.25c-.25,0-.48-.14-.59-.38-.15-.33-.01-.71.32-.86,1.1-.51,2.21-1,3.32-1.48.33-.14.71.01.85.34.14.33-.01.71-.34.85-1.1.47-2.2.96-3.28,1.47-.09.04-.18.06-.27.06ZM77.94,33.14c-.27,0-.52-.17-.61-.43-.12-.34.06-.71.4-.83,1.14-.41,2.29-.79,3.45-1.17.34-.11.71.08.82.42s-.08.71-.42.82c-1.15.37-2.29.75-3.42,1.15-.07.03-.15.04-.22.04ZM88.35,29.99c-.29,0-.56-.2-.63-.49-.09-.35.12-.7.47-.79,1.17-.3,2.35-.57,3.54-.83.35-.08.7.15.77.5.08.35-.15.7-.5.77-1.17.26-2.34.53-3.5.82-.05.01-.11.02-.16.02Z"/>
        <path class="cls-2" d="M99.11,27.82c-.32,0-.59-.23-.64-.55-.05-.35.19-.69.54-.74.59-.09,1.19-.18,1.79-.26.35-.06.68.2.73.56.05.36-.2.68-.56.73-.59.08-1.18.17-1.77.26-.03,0-.07,0-.1,0Z"/>
      </g>
      <g>
        <path class="cls-3" d="M35.07,142.66c-.36,0-.65-.29-.65-.65,0-.6,0-1.21.02-1.81,0-.35.3-.64.65-.64,0,0,0,0,.01,0,.36,0,.64.3.64.66-.01.59-.02,1.19-.02,1.78,0,.36-.29.65-.65.65Z"/>
        <path class="cls-3" d="M116.26,224.41h0c-1.2,0-2.42-.04-3.62-.1-.36-.02-.63-.32-.62-.68.02-.36.3-.64.68-.62,1.18.06,2.38.09,3.56.1.36,0,.65.3.65.65,0,.36-.29.65-.65.65ZM123.43,224.15c-.34,0-.62-.26-.65-.6-.03-.36.24-.67.6-.7,1.16-.09,2.35-.21,3.54-.36.35-.04.68.21.73.57s-.21.68-.56.73c-1.21.15-2.42.27-3.6.37-.02,0-.03,0-.05,0ZM105.52,223.64s-.06,0-.09,0c-1.18-.16-2.38-.36-3.57-.57-.35-.06-.59-.4-.52-.76.06-.35.41-.59.76-.52,1.17.21,2.35.41,3.52.57.36.05.6.38.56.73-.04.33-.32.56-.64.56ZM134.08,222.59c-.3,0-.57-.21-.64-.51-.08-.35.15-.7.5-.77,1.15-.25,2.31-.52,3.46-.82.34-.09.7.12.79.46.09.35-.12.7-.46.79-1.17.31-2.35.59-3.52.84-.05,0-.09.01-.14.01ZM94.98,221.46c-.06,0-.12,0-.17-.02-1.16-.32-2.32-.67-3.47-1.04-.34-.11-.53-.48-.42-.82.11-.34.47-.53.82-.42,1.13.37,2.27.71,3.41,1.03.35.1.55.45.45.8-.08.29-.34.48-.63.48ZM144.42,219.64c-.27,0-.52-.17-.61-.43-.12-.34.05-.71.39-.83,1.12-.4,2.24-.83,3.32-1.28.33-.14.71.02.85.36.14.33-.02.71-.36.85-1.11.45-2.24.89-3.38,1.3-.07.03-.15.04-.22.04ZM84.82,217.91c-.08,0-.17-.02-.25-.05-1.1-.47-2.21-.97-3.3-1.49-.32-.15-.46-.54-.31-.87.16-.32.54-.46.87-.31,1.07.51,2.16,1,3.25,1.47.33.14.48.52.34.85-.11.25-.35.4-.6.4ZM154.29,215.34c-.24,0-.46-.13-.58-.35-.16-.32-.04-.71.28-.88,1.04-.54,2.09-1.11,3.12-1.7.31-.18.71-.07.89.24.18.31.07.71-.24.89-1.04.6-2.11,1.18-3.17,1.73-.1.05-.2.07-.3.07ZM75.22,213.05c-.11,0-.23-.03-.33-.09-1.03-.61-2.06-1.25-3.07-1.91-.3-.2-.39-.6-.19-.9.2-.3.6-.39.9-.19.99.65,2.01,1.28,3.02,1.88.31.18.41.58.23.89-.12.21-.34.32-.56.32ZM163.5,209.79c-.21,0-.41-.1-.53-.28-.21-.29-.13-.7.16-.9.96-.67,1.93-1.38,2.87-2.1.29-.22.69-.16.91.12.22.29.16.69-.12.91-.96.73-1.94,1.45-2.92,2.13-.11.08-.24.12-.37.12ZM66.34,206.96c-.14,0-.28-.05-.4-.14-.94-.74-1.88-1.51-2.79-2.3-.27-.23-.3-.64-.07-.92.23-.27.64-.3.92-.07.9.77,1.82,1.53,2.75,2.26.28.22.33.63.11.91-.13.16-.32.25-.51.25ZM171.9,203.07c-.18,0-.35-.07-.48-.21-.24-.27-.22-.68.04-.92.88-.8,1.74-1.62,2.58-2.46.25-.25.67-.25.92,0,.25.25.25.67,0,.92-.85.84-1.73,1.68-2.62,2.5-.12.11-.28.17-.44.17ZM179.36,195.32c-.15,0-.3-.05-.42-.15-.27-.23-.31-.64-.08-.92.76-.91,1.52-1.84,2.24-2.77.22-.28.63-.34.91-.12s.34.63.12.91c-.73.95-1.5,1.9-2.27,2.82-.13.15-.31.23-.5.23ZM185.74,186.65c-.12,0-.24-.03-.35-.1-.3-.19-.39-.6-.2-.9.63-.99,1.26-2.01,1.85-3.04.18-.31.58-.42.89-.24.31.18.42.58.24.89-.61,1.05-1.24,2.09-1.88,3.09-.12.19-.33.3-.55.3ZM190.93,177.22c-.09,0-.19-.02-.27-.06-.33-.15-.47-.54-.31-.86.5-1.07.98-2.17,1.44-3.26.14-.33.52-.49.85-.35.33.14.49.52.35.85-.46,1.12-.95,2.23-1.46,3.32-.11.24-.34.38-.59.38ZM194.83,167.18c-.06,0-.13,0-.19-.03-.34-.11-.53-.47-.43-.82.35-1.12.69-2.27.99-3.42.09-.35.45-.55.79-.46.35.09.55.45.46.79-.31,1.17-.65,2.34-1.01,3.48-.09.28-.34.46-.62.46ZM197.37,156.72s-.07,0-.11,0c-.35-.06-.59-.4-.53-.75.2-1.17.38-2.35.53-3.52.05-.36.38-.61.73-.56.36.05.61.37.56.73-.15,1.19-.33,2.39-.54,3.58-.06.32-.33.54-.64.54ZM198.51,146.03s-.02,0-.03,0c-.36-.01-.64-.32-.62-.68.04-1.11.07-2.23.07-3.34v-.22c0-.36.29-.65.65-.65s.65.29.65.65v.22c0,1.13-.02,2.27-.07,3.39-.01.35-.3.62-.65.62ZM198.24,135.27c-.33,0-.62-.25-.65-.59-.11-1.18-.24-2.37-.4-3.54-.05-.36.2-.68.56-.73.35-.05.68.2.73.56.16,1.18.29,2.39.4,3.59.03.36-.23.67-.59.71-.02,0-.04,0-.06,0ZM35.56,133.7s-.05,0-.07,0c-.36-.04-.61-.36-.58-.72.13-1.2.29-2.41.47-3.59.05-.36.39-.6.74-.54.35.05.6.39.54.74-.18,1.16-.33,2.35-.46,3.53-.04.33-.32.58-.65.58ZM196.58,124.64c-.3,0-.57-.21-.63-.51-.26-1.15-.55-2.31-.86-3.45-.09-.35.11-.7.46-.8.35-.1.7.11.8.46.32,1.16.61,2.34.87,3.51.08.35-.14.7-.49.78-.05.01-.1.02-.14.02ZM37.43,123.1c-.05,0-.1,0-.16-.02-.35-.08-.56-.44-.48-.79.29-1.17.6-2.34.94-3.49.1-.35.46-.54.81-.44.34.1.54.46.44.81-.33,1.13-.64,2.29-.93,3.44-.07.3-.34.5-.63.5ZM193.53,114.32c-.26,0-.51-.16-.61-.42-.41-1.11-.85-2.22-1.3-3.3-.14-.33.02-.71.35-.85.33-.14.71.01.85.35.46,1.1.91,2.23,1.33,3.35.12.34-.05.71-.38.83-.07.03-.15.04-.23.04ZM40.68,112.85c-.08,0-.16-.01-.24-.04-.33-.13-.5-.51-.37-.84.44-1.13.91-2.25,1.4-3.34.15-.33.53-.48.86-.33.33.15.48.53.33.86-.48,1.07-.94,2.18-1.37,3.29-.1.26-.35.41-.61.41ZM189.15,104.51c-.23,0-.46-.13-.58-.35-.55-1.05-1.14-2.09-1.73-3.1-.18-.31-.08-.71.23-.89.31-.18.71-.08.89.23.6,1.03,1.2,2.09,1.76,3.16.17.32.05.71-.27.88-.1.05-.2.08-.3.08ZM45.26,103.1c-.11,0-.21-.03-.31-.08-.31-.17-.43-.57-.25-.88.58-1.06,1.2-2.11,1.82-3.13.19-.31.59-.4.89-.21.31.19.4.59.21.89-.62,1-1.22,2.04-1.8,3.08-.12.21-.34.33-.57.33ZM183.5,95.35c-.2,0-.4-.1-.53-.27-.68-.96-1.4-1.92-2.12-2.85-.22-.28-.17-.69.11-.91.28-.22.69-.17.91.11.74.95,1.46,1.92,2.16,2.9.21.29.14.7-.15.91-.11.08-.25.12-.38.12ZM51.09,94.05c-.13,0-.27-.04-.39-.13-.29-.21-.35-.62-.14-.91.72-.97,1.46-1.93,2.22-2.86.23-.28.64-.32.91-.09.28.23.32.64.1.91-.74.91-1.48,1.86-2.18,2.82-.13.17-.32.26-.52.26ZM176.71,87.01c-.17,0-.35-.07-.48-.21-.81-.87-1.64-1.73-2.48-2.55-.26-.25-.26-.66,0-.92.25-.25.66-.26.92,0,.85.84,1.7,1.71,2.52,2.59.24.26.23.67-.03.92-.13.12-.28.17-.44.17ZM58.05,85.84c-.16,0-.33-.06-.45-.18-.26-.25-.27-.66-.02-.92.83-.86,1.7-1.72,2.57-2.54.26-.25.67-.24.92.02.25.26.24.67-.03.92-.86.81-1.71,1.66-2.53,2.5-.13.13-.3.2-.47.2ZM168.88,79.63c-.15,0-.29-.05-.41-.15-.91-.75-1.85-1.5-2.79-2.21-.29-.22-.34-.62-.13-.91.22-.29.62-.34.91-.13.96.72,1.91,1.48,2.84,2.24.28.23.32.64.09.92-.13.16-.31.24-.5.24ZM66.02,78.61c-.19,0-.38-.08-.51-.25-.22-.28-.18-.69.1-.91.95-.75,1.92-1.49,2.88-2.19.29-.21.7-.15.91.15.21.29.15.7-.15.91-.95.68-1.9,1.41-2.83,2.15-.12.09-.26.14-.4.14ZM160.16,73.33c-.12,0-.24-.03-.34-.1-1-.63-2.03-1.24-3.06-1.82-.31-.18-.42-.57-.25-.89.18-.31.57-.42.89-.25,1.04.59,2.09,1.21,3.11,1.85.3.19.4.59.21.9-.12.2-.33.31-.55.31ZM74.87,72.48c-.22,0-.44-.11-.56-.32-.18-.31-.08-.71.22-.89,1.04-.62,2.09-1.22,3.14-1.79.32-.17.71-.05.88.26.17.32.05.71-.26.88-1.03.55-2.07,1.15-3.09,1.76-.1.06-.22.09-.33.09ZM150.67,68.23c-.09,0-.18-.02-.27-.06-1.08-.49-2.18-.96-3.28-1.41-.33-.13-.49-.51-.36-.85s.51-.49.85-.36c1.11.45,2.23.93,3.33,1.43.33.15.47.53.32.86-.11.24-.35.38-.59.38ZM84.44,67.58c-.25,0-.49-.15-.6-.39-.14-.33,0-.71.34-.85,1.1-.48,2.23-.93,3.34-1.36.34-.13.71.04.84.38.13.33-.04.71-.38.84-1.1.42-2.21.87-3.29,1.34-.08.04-.17.05-.26.05ZM140.6,64.42c-.06,0-.13,0-.19-.03-1.13-.34-2.29-.67-3.43-.96-.35-.09-.56-.44-.47-.79.09-.35.44-.55.79-.47,1.16.3,2.33.62,3.48.97.34.1.54.47.43.81-.09.28-.34.46-.62.46ZM94.57,63.98c-.28,0-.54-.19-.62-.47-.1-.35.1-.71.45-.8,1.16-.33,2.34-.63,3.5-.91.35-.08.7.13.78.48.08.35-.13.7-.48.78-1.15.27-2.31.57-3.45.89-.06.02-.12.02-.18.02ZM130.12,61.99s-.07,0-.11,0c-1.16-.19-2.35-.36-3.53-.5-.36-.04-.61-.37-.57-.72.04-.36.37-.6.72-.57,1.2.14,2.4.31,3.58.5.35.06.59.39.54.75-.05.32-.33.55-.64.55ZM105.09,61.75c-.32,0-.6-.23-.64-.56-.05-.36.2-.68.55-.74,1.19-.17,2.4-.32,3.59-.44.36-.04.68.23.71.58.04.36-.23.67-.58.71-1.17.12-2.36.26-3.53.43-.03,0-.06,0-.09,0ZM119.41,60.95s-.01,0-.02,0c-1.18-.04-2.38-.05-3.56-.03h0c-.36,0-.65-.29-.65-.64,0-.36.28-.65.64-.66,1.21-.01,2.42,0,3.62.04.36.01.64.31.63.67-.01.35-.3.63-.65.63Z"/>
        <path class="cls-3" d="M58.24,199.68c-.17,0-.34-.07-.47-.2-.42-.43-.84-.87-1.25-1.31-.24-.26-.23-.67.03-.92.26-.24.67-.23.92.03.4.43.81.86,1.23,1.29.25.26.24.67-.01.92-.13.12-.29.18-.45.18Z"/>
      </g>
      <g>
        <path class="cls-1" d="M149.45,172.11c-.16,0-.31-.06-.44-.17-.27-.24-.29-.65-.05-.92.33-.37.66-.74.98-1.12.23-.27.64-.31.92-.08.27.23.31.64.08.92-.33.39-.66.77-1,1.15-.13.14-.31.21-.48.21Z"/>
        <path class="cls-1" d="M116.82,186.61l-.1-.65v-.65c1.08,0,2.06-.03,3.03-.1.38-.03.67.25.69.61s-.25.67-.61.69c-.99.07-2.01.1-3.02.1ZM110.61,186.18s-.06,0-.09,0c-1.02-.14-2.05-.33-3.07-.54-.35-.08-.57-.42-.5-.77.08-.35.42-.57.77-.5.99.21,1.99.39,2.98.53.36.05.6.38.55.73-.05.33-.32.56-.64.56ZM125.88,185.68c-.3,0-.57-.21-.64-.52-.07-.35.15-.7.5-.77.99-.21,1.98-.45,2.94-.72.35-.1.7.1.8.45.1.35-.1.71-.45.8-.99.28-2.01.53-3.03.75-.04,0-.09.01-.13.01ZM101.68,183.93c-.07,0-.15-.01-.22-.04-.97-.36-1.94-.75-2.89-1.18-.33-.15-.47-.53-.33-.86s.53-.47.86-.33c.92.41,1.86.8,2.8,1.14.34.12.51.5.39.83-.1.26-.35.43-.61.43ZM134.64,182.85c-.25,0-.49-.14-.59-.39-.15-.33,0-.71.33-.86.92-.41,1.83-.85,2.72-1.32.32-.17.71-.05.88.27.17.32.05.71-.27.88-.91.49-1.86.94-2.8,1.36-.09.04-.18.06-.26.06ZM93.42,179.87c-.12,0-.24-.03-.35-.1-.88-.56-1.75-1.15-2.58-1.76-.29-.21-.35-.62-.14-.91.21-.29.62-.35.91-.14.8.59,1.64,1.16,2.5,1.7.3.19.39.59.2.9-.12.2-.33.3-.55.3ZM142.61,178.26c-.2,0-.4-.09-.53-.27-.21-.29-.15-.7.14-.91.82-.59,1.62-1.22,2.39-1.86.28-.23.69-.2.92.08.23.27.19.68-.08.92-.79.66-1.62,1.31-2.46,1.92-.12.08-.25.12-.38.12ZM86.19,174.18c-.16,0-.33-.06-.45-.18-.74-.72-1.47-1.48-2.16-2.25-.24-.27-.22-.68.05-.92.27-.24.68-.22.92.05.67.75,1.37,1.48,2.09,2.18.26.25.26.66.01.92-.13.13-.3.2-.47.2ZM80.3,167.11c-.21,0-.42-.1-.54-.29-.58-.86-1.13-1.75-1.64-2.65-.18-.31-.07-.71.24-.89.31-.18.71-.07.89.24.5.87,1.04,1.74,1.6,2.57.2.3.12.7-.18.9-.11.07-.24.11-.36.11ZM76,158.98c-.26,0-.5-.15-.6-.41-.39-.96-.74-1.95-1.06-2.93-.11-.34.08-.71.42-.82.34-.11.71.08.82.42.31.96.65,1.91,1.02,2.85.13.33-.03.71-.36.84-.08.03-.16.05-.24.05ZM73.5,150.13c-.31,0-.59-.22-.64-.54-.17-1.02-.32-2.06-.42-3.09-.04-.36.23-.68.58-.71.36-.05.68.22.71.58.1,1,.24,2.01.41,3,.06.35-.18.69-.53.75-.04,0-.07,0-.11,0ZM72.91,140.95s-.02,0-.03,0c-.36-.01-.64-.32-.62-.67.04-1.04.12-2.08.23-3.11.04-.36.35-.61.72-.58.36.04.61.36.58.72-.11.99-.18,2.01-.22,3.02-.01.35-.3.62-.65.62ZM74.21,131.85c-.05,0-.11,0-.16-.02-.35-.09-.56-.44-.47-.79.25-1,.55-2.01.87-2.99.11-.34.48-.53.82-.41.34.11.53.48.41.82-.31.95-.6,1.93-.84,2.91-.07.29-.34.49-.63.49ZM77.4,123.21c-.1,0-.19-.02-.29-.07-.32-.16-.45-.55-.29-.87.46-.92.95-1.85,1.48-2.75.18-.31.58-.41.89-.23.31.18.41.58.23.89-.51.87-.99,1.77-1.44,2.67-.11.23-.34.36-.58.36ZM82.32,115.43c-.14,0-.28-.05-.4-.14-.28-.22-.33-.63-.11-.91.64-.81,1.32-1.61,2.02-2.38.24-.26.65-.28.92-.04.27.24.29.65.04.92-.68.75-1.34,1.53-1.96,2.31-.13.16-.32.25-.51.25ZM88.74,108.85c-.19,0-.37-.08-.5-.23-.23-.28-.19-.69.08-.92.79-.66,1.62-1.3,2.46-1.91.29-.21.7-.14.91.15.21.29.14.7-.15.91-.82.59-1.62,1.21-2.39,1.85-.12.1-.27.15-.42.15ZM142.89,107.27c-.13,0-.27-.04-.39-.13-.81-.59-1.65-1.17-2.5-1.71-.3-.19-.39-.59-.2-.9.19-.3.59-.39.9-.2.88.56,1.74,1.15,2.57,1.76.29.21.35.62.14.91-.13.17-.32.26-.52.26ZM96.39,103.74c-.23,0-.46-.13-.58-.35-.17-.32-.05-.71.27-.88.91-.48,1.85-.93,2.8-1.35.33-.15.71,0,.86.33.15.33,0,.71-.33.86-.92.41-1.84.85-2.72,1.31-.1.05-.2.08-.3.08ZM134.95,102.61c-.09,0-.18-.02-.27-.06-.91-.42-1.85-.8-2.8-1.15-.34-.12-.51-.5-.38-.84s.5-.51.84-.38c.97.36,1.94.76,2.88,1.19.33.15.47.53.32.86-.11.24-.35.38-.59.38ZM104.93,100.34c-.28,0-.54-.19-.63-.47-.1-.35.1-.71.45-.8,1-.28,2.02-.53,3.03-.74.35-.08.7.15.77.51s-.15.7-.51.77c-.98.2-1.97.44-2.94.71-.06.02-.12.02-.18.02ZM126.22,99.72s-.09,0-.14-.02c-.98-.21-1.99-.4-2.98-.54-.35-.05-.6-.38-.55-.74.05-.36.38-.59.74-.55,1.02.15,2.06.34,3.07.56.35.08.57.42.5.77-.07.3-.34.51-.63.51ZM114,98.8c-.34,0-.63-.26-.65-.61-.02-.36.25-.67.61-.69.95-.06,1.91-.07,2.86-.09h.26c.36,0,.65.3.64.66,0,.36-.29.64-.65.64h-.25c-.89.02-1.86.03-2.78.09-.01,0-.03,0-.04,0Z"/>
        <path class="cls-1" d="M148.71,112.42c-.17,0-.34-.07-.47-.2-.34-.36-.69-.71-1.04-1.06-.26-.25-.26-.66,0-.92.25-.26.66-.26.92,0,.36.36.72.72,1.07,1.09.25.26.24.67-.02.92-.13.12-.29.18-.45.18Z"/>
      </g>
      <g class="cls-4">
        <path class="cls-1" d="M180.23,140.27c-.67,0-1.3-.26-1.78-.73l-7.72-7.72c-.2-.2-.2-.51,0-.71.2-.2.51-.2.71,0l7.72,7.72c.57.57,1.56.57,2.13,0,.59-.59.59-1.54,0-2.13l-7.72-7.72c-.2-.2-.2-.51,0-.71.2-.2.51-.2.71,0l7.72,7.72c.98.98.98,2.57,0,3.55-.48.47-1.11.73-1.78.73Z"/>
        <path class="cls-1" d="M165.87,133.5c-1.71,0-3.39-.43-4.88-1.25-.24-.13-.33-.44-.2-.68.13-.24.44-.33.68-.2,1.34.74,2.85,1.13,4.39,1.13,5.02,0,9.1-4.08,9.1-9.1s-4.08-9.1-9.1-9.1c-4.47,0-8.34,3.33-9,7.75-.04.27-.29.45-.57.42-.27-.04-.46-.3-.42-.57.73-4.9,5.03-8.6,9.99-8.6,5.57,0,10.1,4.53,10.1,10.11s-4.53,10.11-10.1,10.11Z"/>
        <path class="cls-1" d="M165.87,131.54c-1.5,0-2.97-.41-4.25-1.2-.24-.14-.31-.45-.17-.69.15-.24.46-.31.69-.17,1.12.68,2.41,1.05,3.72,1.05,3.93,0,7.14-3.2,7.14-7.14s-3.2-7.13-7.14-7.13c-3.58,0-6.62,2.67-7.08,6.22-.04.27-.28.47-.56.43-.27-.04-.47-.29-.43-.56.52-4.04,3.99-7.09,8.07-7.09,4.49,0,8.14,3.65,8.14,8.14s-3.65,8.14-8.14,8.14Z"/>
        <path class="cls-1" d="M171.39,123.9c-.28,0-.5-.22-.5-.5,0-2.77-2.25-5.02-5.02-5.02-.28,0-.5-.22-.5-.5s.22-.5.5-.5c3.32,0,6.02,2.7,6.02,6.02,0,.28-.22.5-.5.5Z"/>
        <g>
          <path class="cls-1" d="M156.27,160.18c-12.47,0-14.4-8.35-14.41-8.44,0-.03-.01-.07-.01-.1,0-7.95,6.47-14.42,14.42-14.42s14.42,6.47,14.42,14.42c0,.05,0,.1-.02.15-.03.08-2.75,8.39-14.4,8.39ZM142.85,151.58c.17.71,2.16,7.59,13.42,7.59,10.45,0,13.14-6.8,13.42-7.62-.04-7.36-6.05-13.34-13.42-13.34s-13.39,5.99-13.42,13.36ZM170.19,151.64h.01-.01Z"/>
          <path class="cls-1" d="M155.95,134.84c-3.69,0-6.69-3-6.69-6.69s3-6.69,6.69-6.69,6.69,3,6.69,6.69-3,6.69-6.69,6.69ZM155.95,122.46c-3.14,0-5.69,2.55-5.69,5.69s2.55,5.69,5.69,5.69,5.69-2.55,5.69-5.69-2.55-5.69-5.69-5.69Z"/>
        </g>
      </g>
      <g class="cls-4">
        <path class="cls-3" d="M39.2,170.96c-.17,0-.33-.08-.43-.24-.39-.64-.59-1.37-.59-2.11v-1.92c0-.28.22-.5.5-.5s.5.22.5.5v1.92c0,.56.15,1.11.45,1.59.14.24.07.55-.17.69-.08.05-.17.07-.26.07Z"/>
        <path class="cls-3" d="M65.4,172.67h-21.95c-.28,0-.5-.22-.5-.5s.22-.5.5-.5h21.95c1.69,0,3.06-1.37,3.06-3.06v-14.92c0-1.68-1.37-3.06-3.06-3.06h-23.16c-1.69,0-3.06,1.37-3.06,3.06v1.4c0,.28-.22.5-.5.5s-.5-.22-.5-.5v-1.4c0-2.24,1.82-4.06,4.06-4.06h23.16c2.24,0,4.06,1.82,4.06,4.06v14.92c0,2.24-1.82,4.06-4.06,4.06Z"/>
        <path class="cls-3" d="M66.8,155.17h-25.96c-.28,0-.5-.22-.5-.5s.22-.5.5-.5h25.96c.28,0,.5.22.5.5s-.22.5-.5.5Z"/>
        <path class="cls-3" d="M49.11,168.01c-.42,0-.81-.16-1.11-.45l-3.41-3.28c-.31-.3-.49-.71-.49-1.14,0-.43.17-.84.47-1.15l3.41-3.41c.3-.3.7-.47,1.13-.47h0c.43,0,.83.17,1.13.47.3.3.47.7.47,1.13,0,.43-.17.83-.47,1.13l-2.26,2.26,2.24,2.15c.31.29.48.69.49,1.12s-.15.83-.45,1.14c-.3.32-.71.49-1.15.49ZM49.11,159.13c-.16,0-.31.06-.42.17l-3.41,3.41c-.11.11-.18.27-.17.43s.07.31.18.42l3.41,3.28c.23.22.62.21.84-.02.11-.12.17-.27.17-.42s-.07-.31-.18-.42l-2.6-2.51c-.1-.09-.15-.22-.15-.36,0-.13.05-.26.15-.36l2.62-2.62c.11-.11.17-.26.17-.42s-.06-.31-.17-.42-.26-.18-.42-.18h0Z"/>
        <path class="cls-3" d="M51.62,169.5c-.06,0-.13-.01-.19-.04-.26-.1-.38-.4-.28-.65l4.39-10.79c.1-.26.4-.38.65-.28.26.1.38.4.28.65l-4.39,10.79c-.08.19-.27.31-.46.31Z"/>
        <path class="cls-3" d="M58.99,166.52c-.39,0-.77-.12-1.07-.38-.31-.26-.49-.62-.49-1s.18-.74.49-1l2.19-1.83-2.17-1.75c-.32-.25-.5-.62-.51-1,0-.38.16-.74.46-1.01.57-.5,1.55-.51,2.14-.04l3.41,2.75c.32.25.5.62.51,1,0,.38-.17.75-.48,1.02l-3.41,2.85c-.3.25-.69.38-1.07.38ZM58.99,159.08c-.19,0-.37.06-.49.17-.1.08-.15.19-.15.3,0,.11.06.21.17.3l2.6,2.1c.11.09.17.22.17.35,0,.14-.06.27-.16.36l-2.62,2.19c-.1.08-.16.19-.16.3s.06.21.16.3c.26.21.71.21.96,0l3.41-2.85c.1-.09.16-.19.16-.3,0-.11-.06-.22-.17-.3l-3.41-2.75c-.12-.1-.3-.16-.47-.16Z"/>
        <g>
          <path class="cls-3" d="M36.49,167.6c-3.7,0-6.71-3.01-6.71-6.71s3.01-6.71,6.71-6.71,6.71,3.01,6.71,6.71-3.01,6.71-6.71,6.71ZM36.49,155.18c-3.15,0-5.7,2.56-5.7,5.71s2.56,5.71,5.7,5.71,5.71-2.56,5.71-5.71-2.56-5.71-5.71-5.71Z"/>
          <path class="cls-3" d="M36.49,192.92c-12.47,0-14.4-8.35-14.41-8.43,0-.03-.01-.07-.01-.1,0-7.95,6.47-14.42,14.42-14.42s14.42,6.47,14.42,14.42c0,.05,0,.1-.02.15-.03.08-2.75,8.39-14.4,8.39ZM23.07,184.32c.17.71,2.16,7.59,13.42,7.59,10.45,0,13.14-6.8,13.42-7.62-.04-7.36-6.05-13.34-13.42-13.34s-13.39,5.99-13.42,13.36ZM50.41,184.38h.01-.01Z"/>
        </g>
      </g>
      <g>
        <path class="cls-2" d="M202.83,239.57h-3.76c-.28,0-.5-.22-.5-.5s.22-.5.5-.5h3.26v-28.13h-20.28v2.53c0,.28-.22.5-.5.5s-.5-.22-.5-.5v-3.03c0-.28.22-.5.5-.5h21.28c.28,0,.5.22.5.5v29.14c0,.28-.22.5-.5.5Z"/>
        <path class="cls-2" d="M177.78,234.65c-.28,0-.5-.22-.5-.5v-3.63c0-.28.22-.5.5-.5s.5.22.5.5v3.63c0,.28-.22.5-.5.5Z"/>
        <path class="cls-2" d="M199.07,242.6h-6.88c-.28,0-.5-.22-.5-.5s.22-.5.5-.5h6.38v-28.13h-20.28v4.83c0,.28-.22.5-.5.5s-.5-.22-.5-.5v-5.33c0-.28.22-.5.5-.5h21.28c.28,0,.5.22.5.5v29.14c0,.28-.22.5-.5.5Z"/>
        <path class="cls-2" d="M194.01,218.79h-13.84c-.28,0-.5-.22-.5-.5s.22-.5.5-.5h13.84c.28,0,.5.22.5.5s-.22.5-.5.5Z"/>
        <path class="cls-2" d="M194.01,224.26h-8.55c-.28,0-.5-.22-.5-.5s.22-.5.5-.5h8.55c.28,0,.5.22.5.5s-.22.5-.5.5Z"/>
        <path class="cls-2" d="M188.43,229.73h-5.13c-.28,0-.5-.22-.5-.5s.22-.5.5-.5h5.13c.28,0,.5.22.5.5s-.22.5-.5.5Z"/>
        <g class="cls-4">
          <path class="cls-2" d="M179.29,231.21c-3.7,0-6.71-3.01-6.71-6.71s3.01-6.71,6.71-6.71,6.71,3.01,6.71,6.71-3.01,6.71-6.71,6.71ZM179.29,218.79c-3.15,0-5.7,2.56-5.7,5.71s2.56,5.71,5.7,5.71,5.71-2.56,5.71-5.71-2.56-5.71-5.71-5.71Z"/>
          <path class="cls-2" d="M179.29,256.53c-12.47,0-14.4-8.35-14.41-8.43,0-.03-.01-.07-.01-.1,0-7.95,6.47-14.42,14.42-14.42s14.42,6.47,14.42,14.42c0,.05,0,.1-.02.15-.03.08-2.75,8.39-14.4,8.39ZM165.87,247.93c.17.71,2.16,7.59,13.42,7.59,10.45,0,13.14-6.8,13.42-7.62-.04-7.36-6.05-13.34-13.42-13.34s-13.39,5.99-13.42,13.36ZM193.22,247.99h.01-.01Z"/>
        </g>
      </g>
      <g>
        <g>
          <path class="cls-2" d="M129.07,11.58c-.28,0-.5-.22-.5-.5v-5.2c0-3.24,2.64-5.88,5.88-5.88h14.65c2.61,0,4.94,1.75,5.65,4.26.08.27-.08.54-.35.62-.26.08-.54-.08-.62-.34-.59-2.08-2.52-3.53-4.69-3.53h-14.65c-2.69,0-4.88,2.19-4.88,4.88v5.2c0,.28-.22.5-.5.5Z"/>
          <path class="cls-2" d="M130.1,22.45c-.19,0-.39-.04-.57-.11-.58-.23-.96-.79-.96-1.42v-1.73c0-.28.22-.5.5-.5s.5.22.5.5v1.73c0,.33.25.46.33.49.08.03.35.11.58-.12l1.08-1.13c.19-.2.51-.21.71-.02s.21.51.02.71l-1.08,1.13c-.3.31-.7.48-1.11.48Z"/>
          <g>
            <path class="cls-2" d="M132.95,25.82c-.19,0-.39-.04-.57-.11-.58-.23-.96-.79-.96-1.42v-15.04c0-3.24,2.64-5.88,5.88-5.88h14.65c3.24,0,5.88,2.64,5.88,5.88v6.64c0,3.24-2.64,5.88-5.88,5.88h-14.47l-3.41,3.58c-.3.31-.7.48-1.11.48ZM137.3,4.37c-2.69,0-4.88,2.19-4.88,4.88v15.04c0,.33.25.46.33.49.08.03.35.11.58-.12l3.56-3.73c.09-.1.23-.16.36-.16h14.69c2.69,0,4.88-2.19,4.88-4.88v-6.64c0-2.69-2.19-4.88-4.88-4.88h-14.65Z"/>
            <path class="cls-2" d="M138.08,15.79c-1.51,0-2.75-1.23-2.75-2.75s1.23-2.75,2.75-2.75,2.75,1.23,2.75,2.75-1.23,2.75-2.75,2.75ZM138.08,11.31c-.96,0-1.74.78-1.74,1.74s.78,1.74,1.74,1.74,1.74-.78,1.74-1.74-.78-1.74-1.74-1.74Z"/>
            <path class="cls-2" d="M144.62,15.65c-1.51,0-2.75-1.23-2.75-2.75s1.23-2.75,2.75-2.75,2.75,1.23,2.75,2.75-1.23,2.75-2.75,2.75ZM144.62,11.16c-.96,0-1.74.78-1.74,1.74s.78,1.74,1.74,1.74,1.74-.78,1.74-1.74-.78-1.74-1.74-1.74Z"/>
            <path class="cls-2" d="M151.17,15.79c-1.51,0-2.75-1.23-2.75-2.75s1.23-2.75,2.75-2.75,2.75,1.23,2.75,2.75-1.23,2.75-2.75,2.75ZM151.17,11.31c-.96,0-1.74.78-1.74,1.74s.78,1.74,1.74,1.74,1.74-.78,1.74-1.74-.78-1.74-1.74-1.74Z"/>
          </g>
        </g>
        <g class="cls-4">
          <path class="cls-2" d="M124.18,21.84c-3.7,0-6.71-3.01-6.71-6.71s3.01-6.71,6.71-6.71c2.07,0,4,.94,5.28,2.57.93,1.19,1.43,2.62,1.43,4.14s-.49,2.95-1.43,4.14c-1.28,1.64-3.21,2.57-5.28,2.57ZM124.18,9.43c-3.15,0-5.71,2.56-5.71,5.71s2.56,5.71,5.71,5.71c1.76,0,3.4-.8,4.49-2.19.79-1.01,1.21-2.23,1.21-3.52s-.42-2.5-1.21-3.52c-1.09-1.39-2.73-2.19-4.49-2.19Z"/>
          <path class="cls-2" d="M124.18,47.16c-12.47,0-14.4-8.35-14.41-8.43,0-.03-.01-.07-.01-.1,0-7.95,6.47-14.42,14.42-14.42s14.42,6.47,14.42,14.42c0,.05,0,.1-.02.15-.03.08-2.75,8.39-14.4,8.39ZM110.76,38.57c.17.71,2.16,7.59,13.42,7.59,10.45,0,13.14-6.8,13.42-7.62-.04-7.36-6.05-13.34-13.42-13.34s-13.39,5.99-13.42,13.36ZM138.11,38.62h.01-.01Z"/>
        </g>
      </g>
    </g>
  </g>
</svg>