<?xml version="1.0" encoding="UTF-8"?>
<svg id="Layer_2" data-name="Layer 2" xmlns="http://www.w3.org/2000/svg" viewBox="0 0 235.27 203.78">
  <defs>
    <style>
      .cls-1 {
        fill: #2d3748;
      }

      .cls-1, .cls-2, .cls-3 {
        stroke-width: 0px;
      }

      .cls-2 {
        fill: #f9b934;
      }

      .cls-3 {
        fill: #718096;
      }
    </style>
  </defs>
  <g id="Layer_1-2" data-name="Layer 1">
    <g>
      <path class="cls-1" d="M185.05,114H34.25C15.37,114,0,98.64,0,79.75c0-17.67,13.16-32.25,30.67-34.07,3.78-21.86,22.57-37.68,44.83-37.68s40.66,15.54,44.71,37l19.64.2c1.66,0,2.49,0,3.2.36.63.32,1.13.82,1.45,1.45.36.71.36,1.55.36,3.21v13.56c0,1.5,0,2.25.25,2.75.22.44.58.79,1.02,1.02.5.25,1.25.25,2.75.25h13.56c1.66,0,2.49,0,3.21.36.63.32,1.13.82,1.45,1.45.36.71.36,1.55.36,3.21v13.56c0,1.5,0,2.25.25,2.75.22.44.58.79,1.01,1.01.5.25,1.25.25,2.75.25h13.56c1.66,0,2.49,0,3.21.36.63.32,1.13.82,1.45,1.45.36.71.36,1.54.36,3.21v13.56c0,1.66,0,2.49-.36,3.21-.32.63-.82,1.13-1.45,1.45-.71.36-1.55.36-3.21.36ZM75.5,9c-21.9,0-40.36,15.66-43.91,37.22-.04.23-.22.4-.45.42C13.96,48.24,1,62.47,1,79.75c0,18.33,14.92,33.25,33.25,33.25h150.8c1.5,0,2.25,0,2.75-.25.43-.22.79-.58,1.01-1.01.25-.5.25-1.25.25-2.75v-13.56c0-1.5,0-2.25-.25-2.75-.22-.44-.57-.79-1.01-1.01-.5-.25-1.25-.25-2.75-.25h-13.56c-1.66,0-2.49,0-3.21-.36-.63-.32-1.13-.82-1.45-1.45-.36-.71-.36-1.55-.36-3.21v-13.56c0-1.5,0-2.25-.25-2.75-.22-.44-.58-.79-1.02-1.02-.5-.25-1.25-.25-2.75-.25h-13.56c-1.66,0-2.49,0-3.21-.36-.63-.32-1.13-.83-1.45-1.46-.36-.71-.36-1.54-.36-3.21v-13.56c0-1.5,0-2.25-.25-2.75-.22-.44-.58-.79-1.01-1.01-.5-.25-1.25-.25-2.75-.25h0l-20.06-.2c-.24,0-.45-.18-.49-.41-3.8-21.2-22.22-36.59-43.8-36.59Z"/>
      <path class="cls-1" d="M185.05,46.2h-13.56c-1.66,0-2.49,0-3.21-.36-.63-.32-1.13-.82-1.45-1.45-.36-.71-.36-1.55-.36-3.21v-13.56c0-1.66,0-2.5.36-3.21.32-.63.82-1.13,1.45-1.45.71-.36,1.55-.36,3.21-.36h13.56c1.66,0,2.49,0,3.21.36.63.32,1.13.83,1.45,1.46.36.71.36,1.54.36,3.21v13.56c0,1.66,0,2.49-.36,3.21-.32.63-.82,1.13-1.45,1.45-.71.36-1.55.36-3.21.36ZM171.49,23.6c-1.5,0-2.25,0-2.75.25-.44.22-.79.58-1.01,1.02-.25.5-.25,1.25-.25,2.75v13.56c0,1.5,0,2.25.25,2.75.22.44.58.79,1.01,1.01.5.25,1.25.25,2.75.25h13.56c1.5,0,2.25,0,2.75-.25.44-.22.79-.58,1.01-1.02.25-.5.25-1.25.25-2.75v-13.56c0-1.5,0-2.25-.25-2.75-.22-.44-.58-.79-1.02-1.02-.5-.25-1.25-.25-2.75-.25h-13.56Z"/>
      <path class="cls-3" d="M224.6,80.1h-13.56c-1.66,0-2.49,0-3.21-.36-.63-.32-1.13-.82-1.45-1.45-.36-.71-.36-1.55-.36-3.21v-13.56c0-1.66,0-2.49.36-3.21.32-.63.82-1.13,1.45-1.45.71-.36,1.55-.36,3.21-.36h13.56c1.66,0,2.49,0,3.21.36.63.32,1.13.82,1.45,1.45.36.71.36,1.55.36,3.21v13.56c0,1.66,0,2.49-.36,3.21-.32.63-.82,1.13-1.45,1.45-.71.36-1.55.36-3.21.36ZM211.04,57.5c-1.5,0-2.25,0-2.75.25-.44.22-.79.58-1.01,1.02-.25.5-.25,1.25-.25,2.75v13.56c0,1.5,0,2.25.25,2.75.22.44.57.79,1.02,1.01.5.25,1.25.25,2.75.25h13.56c1.5,0,2.25,0,2.75-.25.44-.22.79-.58,1.01-1.02.25-.5.25-1.25.25-2.75v-13.56c0-1.5,0-2.25-.25-2.75-.22-.44-.58-.79-1.01-1.01-.5-.25-1.25-.25-2.75-.25h-13.56Z"/>
      <path class="cls-2" d="M230.25,23.6h-13.56c-1.66,0-2.49,0-3.21-.36-.63-.32-1.13-.82-1.45-1.45-.36-.71-.36-1.55-.36-3.21V5.02c0-1.66,0-2.49.36-3.21.32-.63.82-1.13,1.45-1.45.71-.36,1.55-.36,3.21-.36h13.56c1.66,0,2.49,0,3.21.36.63.32,1.13.82,1.45,1.45.36.71.36,1.55.36,3.21v13.56c0,1.66,0,2.49-.36,3.21-.32.63-.82,1.13-1.45,1.45-.71.36-1.55.36-3.21.36ZM216.69,1c-1.5,0-2.25,0-2.75.25-.44.22-.79.57-1.01,1.02-.25.5-.25,1.25-.25,2.75v13.56c0,1.5,0,2.25.25,2.75.22.44.58.79,1.01,1.01.5.25,1.25.25,2.75.25h13.56c1.5,0,2.25,0,2.75-.25.44-.22.79-.58,1.01-1.02.25-.5.25-1.25.25-2.75V5.02c0-1.5,0-2.25-.25-2.75-.22-.44-.58-.79-1.01-1.01-.5-.25-1.25-.25-2.75-.25h-13.56Z"/>
      <path class="cls-2" d="M38,106c-1.22,0-2.41-.36-3.44-1.03-1.03-.67-1.83-1.62-2.33-2.75l-1.53-3.48h0c-.51-1.15-1.35-2.1-2.43-2.73-1.08-.63-2.31-.89-3.55-.76l-3.75.4c-1.22.13-2.44-.1-3.53-.66-1.09-.56-1.99-1.42-2.6-2.49-.61-1.07-.9-2.29-.84-3.52s.48-2.41,1.2-3.41l2.22-3.08c.74-1.02,1.12-2.23,1.12-3.49s-.39-2.47-1.12-3.49l-2.22-3.08c-.72-1-1.13-2.17-1.2-3.41s.23-2.45.84-3.52c.61-1.07,1.51-1.93,2.6-2.49,1.09-.56,2.31-.79,3.53-.66l3.76.4c1.24.13,2.47-.13,3.55-.76,1.08-.63,1.91-1.58,2.42-2.73l1.53-3.48c.5-1.13,1.3-2.08,2.33-2.75,1.02-.67,2.21-1.03,3.44-1.03h.01c1.22,0,2.41.36,3.43,1.03,1.02.67,1.83,1.62,2.33,2.75l1.54,3.48c.5,1.15,1.34,2.1,2.42,2.73,1.08.63,2.31.89,3.55.76l3.75-.4c1.22-.14,2.44.1,3.53.66,1.09.56,1.99,1.42,2.6,2.49.61,1.07.9,2.28.84,3.52s-.48,2.41-1.2,3.41l-2.22,3.08c-.74,1.02-1.12,2.23-1.12,3.49,0,1.27.38,2.48,1.11,3.51l2.22,3.08c.72,1,1.13,2.18,1.2,3.41.06,1.23-.23,2.45-.84,3.52-.61,1.07-1.51,1.93-2.6,2.49-1.09.56-2.31.79-3.53.66l-3.75-.4c-1.24-.13-2.47.13-3.55.76-1.07.63-1.91,1.57-2.42,2.71l-1.53,3.48c-.5,1.13-1.3,2.08-2.33,2.75-1.03.67-2.22,1.03-3.44,1.03ZM31.62,98.33l1.53,3.48c.42.95,1.1,1.75,1.96,2.32,1.72,1.13,4.05,1.13,5.78,0,.86-.57,1.54-1.37,1.96-2.32l1.53-3.48c.59-1.34,1.57-2.44,2.83-3.18,1.27-.74,2.71-1.05,4.16-.89l3.75.4c1.02.11,2.04-.08,2.96-.55.92-.47,1.67-1.2,2.19-2.1.52-.9.76-1.93.71-2.96-.05-1.04-.4-2.03-1.01-2.87l-2.22-3.08c-.86-1.2-1.31-2.62-1.3-4.1,0-1.47.45-2.88,1.31-4.08l2.22-3.08c.61-.84.95-1.83,1.01-2.87.05-1.04-.19-2.06-.7-2.96-.52-.9-1.27-1.63-2.19-2.1-.92-.47-1.94-.66-2.96-.55l-3.75.4c-1.46.16-2.9-.15-4.16-.89-1.26-.74-2.24-1.85-2.83-3.19l-1.54-3.48c-.42-.95-1.1-1.75-1.96-2.32-.86-.57-1.86-.87-2.88-.87h0c-1.03,0-2.02.3-2.88.87-.86.57-1.54,1.37-1.96,2.32l-1.53,3.48c-.59,1.35-1.57,2.45-2.83,3.19-1.27.74-2.71,1.05-4.16.89l-3.76-.4c-1.02-.11-2.05.08-2.96.55s-1.67,1.2-2.19,2.1c-.52.9-.76,1.93-.71,2.96s.4,2.03,1.01,2.87l2.22,3.08c.86,1.19,1.31,2.6,1.31,4.08s-.45,2.89-1.31,4.08l-2.22,3.08c-.61.84-.95,1.83-1.01,2.87-.05,1.04.19,2.06.71,2.96.52.9,1.27,1.62,2.19,2.1.92.47,1.94.66,2.96.55l3.75-.4c1.46-.16,2.89.15,4.16.89,1.27.74,2.25,1.84,2.84,3.19h0Z"/>
      <path class="cls-2" d="M38,87.45c-4.62,0-8.37-3.79-8.37-8.45s3.76-8.45,8.37-8.45,8.37,3.79,8.37,8.45-3.76,8.45-8.37,8.45ZM38,71.55c-4.06,0-7.37,3.34-7.37,7.45s3.31,7.45,7.37,7.45,7.37-3.34,7.37-7.45-3.31-7.45-7.37-7.45Z"/>
      <path class="cls-3" d="M159.4,168.57c-.36,0-.65-.29-.65-.65,0-1.26,0-2.46-.02-3.58,0-.36.28-.65.64-.66h0c.36,0,.65.29.65.64.01,1.13.02,2.33.02,3.59,0,.36-.29.65-.65.65h0ZM159.13,157.81c-.34,0-.62-.26-.65-.6-.1-1.32-.22-2.47-.39-3.51-.06-.36.19-.69.54-.74.35-.06.69.19.74.54.17,1.08.3,2.26.4,3.62.03.36-.24.67-.6.7-.02,0-.03,0-.05,0ZM156.49,147.48c-.23,0-.45-.12-.57-.33-.57-1.01-1.22-1.98-1.94-2.89-.22-.28-.18-.69.11-.91.28-.22.69-.17.91.1.76.96,1.46,1.99,2.06,3.06.18.31.07.71-.25.89-.1.06-.21.08-.32.08ZM149.22,139.67c-.12,0-.25-.04-.36-.11-.68-.45-1.39-.87-2.12-1.23-.3-.16-.61-.3-.92-.43-.33-.14-.48-.52-.34-.85.14-.33.52-.48.85-.34.34.15.68.3,1,.47.77.39,1.52.83,2.24,1.31.3.2.38.6.18.9-.12.19-.33.29-.54.29ZM139.11,136.34s-.04,0-.07,0c-1.05-.11-2.21-.19-3.54-.25-.36-.02-.64-.32-.62-.68.02-.36.32-.61.68-.62,1.36.06,2.54.15,3.62.26.36.04.62.36.58.71-.03.33-.32.58-.65.58ZM128.35,135.94h0c-1.13,0-2.33,0-3.59,0-.36,0-.65-.29-.65-.65s.29-.65.65-.65c1.26,0,2.46,0,3.59,0,.36,0,.65.29.65.65s-.29.65-.65.65ZM117.58,135.93h-3.59c-.36,0-.65-.29-.65-.65s.29-.65.65-.65h3.59c.36,0,.65.29.65.65s-.29.65-.65.65ZM106.81,135.93h-3.59c-.36,0-.65-.29-.65-.65s.29-.65.65-.65h3.59c.36,0,.65.29.65.65s-.29.65-.65.65ZM96.04,135.93h-3.59c-.36,0-.65-.29-.65-.65s.29-.65.65-.65h3.59c.36,0,.65.29.65.65s-.29.65-.65.65ZM85.27,135.93h-3.59c-.36,0-.65-.29-.65-.65s.29-.65.65-.65h3.59c.36,0,.65.29.65.65s-.29.65-.65.65ZM74.5,135.93h-3.59c-.36,0-.65-.29-.65-.65s.29-.65.65-.65h3.59c.36,0,.65.29.65.65s-.29.65-.65.65ZM63.73,135.93h-3.59c-.36,0-.65-.29-.65-.65s.29-.65.65-.65h3.59c.36,0,.65.29.65.65s-.29.65-.65.65ZM52.96,135.93h-3.59c-.36,0-.65-.29-.65-.65s.29-.65.65-.65h3.59c.36,0,.65.29.65.65s-.29.65-.65.65ZM42.19,135.93h-3.59c-.36,0-.65-.29-.65-.65s.29-.65.65-.65h3.59c.36,0,.65.29.65.65s-.29.65-.65.65Z"/>
      <path class="cls-1" d="M159.4,203.78c-8.6,0-15.6-7-15.6-15.61s7-15.61,15.6-15.61,15.6,7,15.6,15.61-7,15.61-15.6,15.61ZM159.4,173.56c-8.05,0-14.6,6.55-14.6,14.61s6.55,14.61,14.6,14.61,14.6-6.55,14.6-14.61-6.55-14.61-14.6-14.61Z"/>
      <path class="cls-3" d="M38.6,173.71c-.36,0-.65-.29-.65-.65v-2.93c0-.36.29-.65.65-.65s.65.29.65.65v2.93c0,.36-.29.65-.65.65ZM38.6,163.59c-.36,0-.65-.29-.65-.65v-3.59c0-.36.29-.65.65-.65s.65.29.65.65v3.59c0,.36-.29.65-.65.65ZM38.6,152.82c-.36,0-.65-.29-.65-.65v-3.59c0-.36.29-.65.65-.65s.65.29.65.65v3.59c0,.36-.29.65-.65.65ZM38.6,142.05c-.36,0-.65-.29-.65-.65v-3.59c0-.36.29-.65.65-.65s.65.29.65.65v3.59c0,.36-.29.65-.65.65ZM38.6,131.28c-.36,0-.65-.29-.65-.65v-3.59c0-.36.29-.65.65-.65s.65.29.65.65v3.59c0,.36-.29.65-.65.65ZM38.6,120.51c-.36,0-.65-.29-.65-.65v-3.59c0-.36.29-.65.65-.65s.65.29.65.65v3.59c0,.36-.29.65-.65.65ZM38.6,109.74c-.36,0-.65-.29-.65-.65v-3.59c0-.36.29-.65.65-.65s.65.29.65.65v3.59c0,.36-.29.65-.65.65Z"/>
      <path class="cls-1" d="M38.6,203.78c-8.6,0-15.6-7-15.6-15.61s7-15.61,15.6-15.61,15.6,7,15.6,15.61-7,15.61-15.6,15.61ZM38.6,173.56c-8.05,0-14.6,6.55-14.6,14.61s6.55,14.61,14.6,14.61,14.6-6.55,14.6-14.61-6.55-14.61-14.6-14.61Z"/>
      <path class="cls-3" d="M99,171.83c-.36,0-.65-.29-.65-.65v-3.59c0-.36.29-.65.65-.65s.65.29.65.65v3.59c0,.36-.29.65-.65.65ZM99,161.06c-.36,0-.65-.29-.65-.65v-3.59c0-.36.29-.65.65-.65s.65.29.65.65v3.59c0,.36-.29.65-.65.65ZM99,150.29c-.36,0-.65-.29-.65-.65v-3.59c0-.36.29-.65.65-.65s.65.29.65.65v3.59c0,.36-.29.65-.65.65ZM99,139.52c-.36,0-.65-.29-.65-.65v-3.59c0-.36.29-.65.65-.65s.65.29.65.65v3.59c0,.36-.29.65-.65.65Z"/>
      <path class="cls-1" d="M99,203.78c-8.6,0-15.6-7-15.6-15.61s7-15.61,15.6-15.61,15.6,7,15.6,15.61-7,15.61-15.6,15.61ZM99,173.56c-8.05,0-14.6,6.55-14.6,14.61s6.55,14.61,14.6,14.61,14.6-6.55,14.6-14.61-6.55-14.61-14.6-14.61Z"/>
    </g>
  </g>
</svg>